<?xml version="1.0" encoding="UTF-8" standalone="no"?>
<!DOCTYPE svg PUBLIC "-//W3C//DTD SVG 1.1//EN"
 "http://www.w3.org/Graphics/SVG/1.1/DTD/svg11.dtd">
<!-- Generated by graphviz version 2.38.0 (20140413.2041)
 -->
<!-- Title: g Pages: 1 -->
<svg width="506pt" height="576pt"
 viewBox="0.00 0.00 505.95 576.00" xmlns="http://www.w3.org/2000/svg" xmlns:xlink="http://www.w3.org/1999/xlink">
<g id="graph0" class="graph" transform="scale(0.707617 0.707617) rotate(0) translate(4 810)">
<title>g</title>
<polygon fill="white" stroke="none" points="-4,4 -4,-810 711,-810 711,4 -4,4"/>
<!-- 肌\n(2259)\n -->
<g id="node1" class="node"><title>肌\n(2259)\n</title>
<ellipse fill="#ffdbeb" stroke="#ff1c62" cx="338.65" cy="-351.772" rx="108" ry="97"/>
<text text-anchor="middle" x="338.65" y="-357.372" font-family="arialuni.ttf" font-size="18.00">肌</text>
<text text-anchor="middle" x="338.65" y="-337.372" font-family="arialuni.ttf" font-size="18.00">(2259)</text>
</g>
<!-- 自然\n(721)\n -->
<g id="node2" class="node"><title>自然\n(721)\n</title>
<ellipse fill="#ffdbeb" stroke="#ff1c62" cx="186.789" cy="-428.774" rx="34.5" ry="31"/>
<text text-anchor="middle" x="186.789" y="-432.744" font-family="arialuni.ttf" font-size="13.79">自然</text>
<text text-anchor="middle" x="186.789" y="-417.744" font-family="arialuni.ttf" font-size="13.79">(721)</text>
</g>
<!-- 肌\n(2259)\n&#45;&gt;自然\n(721)\n -->
<g id="edge10" class="edge"><title>肌\n(2259)\n&#45;&gt;自然\n(721)\n</title>
<path fill="none" stroke="#ff1c62" d="M244.201,-399.662C236.262,-403.688 228.611,-407.568 221.624,-411.111"/>
<polygon fill="#ff1c62" stroke="#ff1c62" points="220.565,-409.685 216.897,-413.507 222.148,-412.807 220.565,-409.685"/>
</g>
<!-- 色\n(650)\n -->
<g id="node3" class="node"><title>色\n(650)\n</title>
<ellipse fill="#ffdbeb" stroke="#ff1c62" cx="279.234" cy="-525.27" rx="35.2934" ry="28"/>
<text text-anchor="middle" x="279.234" y="-529.617" font-family="arialuni.ttf" font-size="13.32">色</text>
<text text-anchor="middle" x="279.234" y="-514.617" font-family="arialuni.ttf" font-size="13.32">(650)</text>
</g>
<!-- 肌\n(2259)\n&#45;&gt;色\n(650)\n -->
<g id="edge3" class="edge"><title>肌\n(2259)\n&#45;&gt;色\n(650)\n</title>
<path fill="none" stroke="#ff1c62" d="M306.855,-444.616C300.908,-461.981 295.073,-479.018 290.31,-492.927"/>
<polygon fill="#ff1c62" stroke="#ff1c62" points="288.57,-492.607 288.606,-497.904 291.881,-493.741 288.57,-492.607"/>
</g>
<!-- 価格#\n(868)\n -->
<g id="node4" class="node"><title>価格#\n(868)\n</title>
<ellipse fill="#ffdbeb" stroke="#cf00bd" cx="173.438" cy="-338.104" rx="41.5" ry="37.5"/>
<text text-anchor="middle" x="173.438" y="-342.293" font-family="arialuni.ttf" font-size="14.76">価格#</text>
<text text-anchor="middle" x="173.438" y="-326.293" font-family="arialuni.ttf" font-size="14.76">(868)</text>
</g>
<!-- 肌\n(2259)\n&#45;&gt;価格#\n(868)\n -->
<g id="edge9" class="edge"><title>肌\n(2259)\n&#45;&gt;価格#\n(868)\n</title>
<path fill="none" stroke="#ff1c62" d="M230.758,-342.846C227.141,-342.546 223.597,-342.253 220.155,-341.968"/>
<polygon fill="#ff1c62" stroke="#ff1c62" points="219.964,-340.197 214.837,-341.528 219.675,-343.685 219.964,-340.197"/>
</g>
<!-- 自分\n(468)\n -->
<g id="node5" class="node"><title>自分\n(468)\n</title>
<ellipse fill="#ffdbeb" stroke="#cf00bd" cx="405.151" cy="-634.772" rx="33.8824" ry="24.0833"/>
<text text-anchor="middle" x="405.151" y="-638.086" font-family="arialuni.ttf" font-size="12.11">自分</text>
<text text-anchor="middle" x="405.151" y="-625.086" font-family="arialuni.ttf" font-size="12.11">(468)</text>
</g>
<!-- 肌\n(2259)\n&#45;&gt;自分\n(468)\n -->
<g id="edge2" class="edge"><title>肌\n(2259)\n&#45;&gt;自分\n(468)\n</title>
<path fill="none" stroke="#ff1c62" d="M360.979,-446.794C373.998,-502.197 389.53,-568.295 398.276,-605.513"/>
<polygon fill="#ff1c62" stroke="#ff1c62" points="396.668,-606.323 399.516,-610.79 400.076,-605.523 396.668,-606.323"/>
</g>
<!-- 綺麗#\n(569)\n -->
<g id="node6" class="node"><title>綺麗#\n(569)\n</title>
<ellipse fill="#ffffff" stroke="#cf00bd" cx="284.24" cy="-655.819" rx="37.4533" ry="25.4118"/>
<text text-anchor="middle" x="284.24" y="-659.597" font-family="arialuni.ttf" font-size="12.78">綺麗#</text>
<text text-anchor="middle" x="284.24" y="-645.597" font-family="arialuni.ttf" font-size="12.78">(569)</text>
</g>
<!-- 肌\n(2259)\n&#45;&gt;綺麗#\n(569)\n -->
<g id="edge4" class="edge"><title>肌\n(2259)\n&#45;&gt;綺麗#\n(569)\n</title>
<path fill="none" stroke="#ff1c62" d="M321.509,-447.557C310.546,-508.819 297.044,-584.265 289.674,-625.448"/>
<polygon fill="#ff1c62" stroke="#ff1c62" points="287.921,-625.31 288.763,-630.541 291.367,-625.927 287.921,-625.31"/>
</g>
<!-- 感じ\n(465)\n -->
<g id="node7" class="node"><title>感じ\n(465)\n</title>
<ellipse fill="#ffffff" stroke="#cf00bd" cx="360.972" cy="-489.567" rx="33.8824" ry="24.0833"/>
<text text-anchor="middle" x="360.972" y="-492.897" font-family="arialuni.ttf" font-size="12.09">感じ</text>
<text text-anchor="middle" x="360.972" y="-479.897" font-family="arialuni.ttf" font-size="12.09">(465)</text>
</g>
<!-- 肌\n(2259)\n&#45;&gt;感じ\n(465)\n -->
<g id="edge8" class="edge"><title>肌\n(2259)\n&#45;&gt;感じ\n(465)\n</title>
<path fill="none" stroke="#ff1c62" d="M354.214,-447.85C354.941,-452.337 355.638,-456.64 356.29,-460.665"/>
<polygon fill="#ff1c62" stroke="#ff1c62" points="354.563,-460.951 357.09,-465.607 358.018,-460.392 354.563,-460.951"/>
</g>
<!-- 手頃#\n(350)\n -->
<g id="node8" class="node"><title>手頃#\n(350)\n</title>
<ellipse fill="#ffffff" stroke="#cf00bd" cx="86.9534" cy="-205.198" rx="34.7971" ry="22.7556"/>
<text text-anchor="middle" x="86.9534" y="-208.139" font-family="arialuni.ttf" font-size="11.32">手頃#</text>
<text text-anchor="middle" x="86.9534" y="-196.139" font-family="arialuni.ttf" font-size="11.32">(350)</text>
</g>
<!-- 肌\n(2259)\n&#45;&gt;手頃#\n(350)\n -->
<g id="edge18" class="edge"><title>肌\n(2259)\n&#45;&gt;手頃#\n(350)\n</title>
<path fill="none" stroke="#ff1c62" d="M247.782,-298.855C202.15,-272.282 149.853,-241.827 117.609,-223.05"/>
<polygon fill="#ff1c62" stroke="#ff1c62" points="118.202,-221.37 113,-220.366 116.44,-224.395 118.202,-221.37"/>
</g>
<!-- 仕上がり\n(413)\n -->
<g id="node9" class="node"><title>仕上がり\n(413)\n</title>
<ellipse fill="#ffffff" stroke="#cf00bd" cx="164.907" cy="-586.871" rx="45.9239" ry="24.0833"/>
<text text-anchor="middle" x="164.907" y="-590.477" font-family="arialuni.ttf" font-size="11.74">仕上がり</text>
<text text-anchor="middle" x="164.907" y="-577.477" font-family="arialuni.ttf" font-size="11.74">(413)</text>
</g>
<!-- 肌\n(2259)\n&#45;&gt;仕上がり\n(413)\n -->
<g id="edge28" class="edge"><title>肌\n(2259)\n&#45;&gt;仕上がり\n(413)\n</title>
<path fill="none" stroke="#ff1c62" d="M278.858,-432.679C246.112,-476.988 207.663,-529.015 184.844,-559.893"/>
<polygon fill="#ff1c62" stroke="#ff1c62" points="183.158,-559.23 181.593,-564.292 185.973,-561.311 183.158,-559.23"/>
</g>
<!-- カバー力\n(783)\n -->
<g id="node10" class="node"><title>カバー力\n(783)\n</title>
<ellipse fill="#ffffff" stroke="#cf00bd" cx="189.883" cy="-197.294" rx="46.2432" ry="33.5"/>
<text text-anchor="middle" x="189.883" y="-201.935" font-family="arialuni.ttf" font-size="14.20">カバー力</text>
<text text-anchor="middle" x="189.883" y="-185.935" font-family="arialuni.ttf" font-size="14.20">(783)</text>
</g>
<!-- 肌\n(2259)\n&#45;&gt;カバー力\n(783)\n -->
<g id="edge13" class="edge"><title>肌\n(2259)\n&#45;&gt;カバー力\n(783)\n</title>
<path fill="none" stroke="#ff1c62" d="M267.752,-278.152C251.061,-260.821 234.135,-243.246 220.347,-228.928"/>
<polygon fill="#ff1c62" stroke="#ff1c62" points="221.273,-227.366 216.544,-224.979 218.752,-229.794 221.273,-227.366"/>
</g>
<!-- 伸び\n(602)\n -->
<g id="node11" class="node"><title>伸び\n(602)\n</title>
<ellipse fill="#ffffff" stroke="#cf00bd" cx="295.246" cy="-78.1431" rx="36.0619" ry="26"/>
<text text-anchor="middle" x="295.246" y="-81.7452" font-family="arialuni.ttf" font-size="13.00">伸び</text>
<text text-anchor="middle" x="295.246" y="-67.7452" font-family="arialuni.ttf" font-size="13.00">(602)</text>
</g>
<!-- 肌\n(2259)\n&#45;&gt;伸び\n(602)\n -->
<g id="edge11" class="edge"><title>肌\n(2259)\n&#45;&gt;伸び\n(602)\n</title>
<path fill="none" stroke="#ff1c62" d="M323.409,-255.685C315.26,-204.315 305.774,-144.515 300.153,-109.078"/>
<polygon fill="#ff1c62" stroke="#ff1c62" points="301.864,-108.695 299.353,-104.031 298.408,-109.243 301.864,-108.695"/>
</g>
<!-- 毛穴\n(249)\n -->
<g id="node13" class="node"><title>毛穴\n(249)\n</title>
<ellipse fill="#ffffff" stroke="gray" cx="38.5871" cy="-279.714" rx="31.2258" ry="22.7556"/>
<text text-anchor="middle" x="38.5871" y="-283.191" font-family="arialuni.ttf" font-size="10.65">毛穴</text>
<text text-anchor="middle" x="38.5871" y="-271.191" font-family="arialuni.ttf" font-size="10.65">(249)</text>
</g>
<!-- 肌\n(2259)\n&#45;&gt;毛穴\n(249)\n -->
<g id="edge31" class="edge"><title>肌\n(2259)\n&#45;&gt;毛穴\n(249)\n</title>
<path fill="none" stroke="#ff1c62" d="M234.124,-326.67C177.955,-313.182 112.388,-297.437 73.2443,-288.037"/>
<polygon fill="#ff1c62" stroke="#ff1c62" points="73.4054,-286.276 68.1349,-286.81 72.5881,-289.679 73.4054,-286.276"/>
</g>
<!-- ファンデーション\n(153)\n -->
<g id="node14" class="node"><title>ファンデーション\n(153)\n</title>
<ellipse fill="#ffffff" stroke="gray" cx="640.91" cy="-459.648" rx="66.4361" ry="21.4286"/>
<text text-anchor="middle" x="640.91" y="-462.635" font-family="arialuni.ttf" font-size="10.02">ファンデーション</text>
<text text-anchor="middle" x="640.91" y="-451.635" font-family="arialuni.ttf" font-size="10.02">(153)</text>
</g>
<!-- 肌\n(2259)\n&#45;&gt;ファンデーション\n(153)\n -->
<g id="edge23" class="edge"><title>肌\n(2259)\n&#45;&gt;ファンデーション\n(153)\n</title>
<path fill="none" stroke="#ff1c62" d="M439.298,-387.693C490.456,-405.951 550.333,-427.321 591.466,-442.001"/>
<polygon fill="#ff1c62" stroke="#ff1c62" points="591.09,-443.725 596.387,-443.757 592.266,-440.428 591.09,-443.725"/>
</g>
<!-- のり\n(191)\n -->
<g id="node15" class="node"><title>のり\n(191)\n</title>
<ellipse fill="#ffffff" stroke="gray" cx="615.358" cy="-318.164" rx="31.2258" ry="21.4286"/>
<text text-anchor="middle" x="615.358" y="-320.95" font-family="arialuni.ttf" font-size="10.27">のり</text>
<text text-anchor="middle" x="615.358" y="-309.95" font-family="arialuni.ttf" font-size="10.27">(191)</text>
</g>
<!-- 肌\n(2259)\n&#45;&gt;のり\n(191)\n -->
<g id="edge27" class="edge"><title>肌\n(2259)\n&#45;&gt;のり\n(191)\n</title>
<path fill="none" stroke="#ff1c62" d="M446.029,-338.73C493.182,-333.003 545.396,-326.661 579.204,-322.555"/>
<polygon fill="#ff1c62" stroke="#ff1c62" points="579.716,-324.256 584.469,-321.916 579.294,-320.782 579.716,-324.256"/>
</g>
<!-- 無添加\n(164)\n -->
<g id="node16" class="node"><title>無添加\n(164)\n</title>
<ellipse fill="#ffffff" stroke="gray" cx="32.1496" cy="-403.337" rx="32.5538" ry="21.4286"/>
<text text-anchor="middle" x="32.1496" y="-406.266" font-family="arialuni.ttf" font-size="10.09">無添加</text>
<text text-anchor="middle" x="32.1496" y="-395.266" font-family="arialuni.ttf" font-size="10.09">(164)</text>
</g>
<!-- 肌\n(2259)\n&#45;&gt;無添加\n(164)\n -->
<g id="edge26" class="edge"><title>肌\n(2259)\n&#45;&gt;無添加\n(164)\n</title>
<path fill="none" stroke="#ff1c62" d="M232.311,-369.662C175.555,-379.211 109.298,-390.357 69.053,-397.128"/>
<polygon fill="#ff1c62" stroke="#ff1c62" points="68.4331,-395.458 63.7928,-398.013 69.0139,-398.909 68.4331,-395.458"/>
</g>
<!-- 負担\n(96)\n -->
<g id="node17" class="node"><title>負担\n(96)\n</title>
<ellipse fill="#ffffff" stroke="gray" cx="567.097" cy="-199.62" rx="25.4118" ry="21.4286"/>
<text text-anchor="middle" x="567.097" y="-202.91" font-family="arialuni.ttf" font-size="9.64">負担</text>
<text text-anchor="middle" x="567.097" y="-191.91" font-family="arialuni.ttf" font-size="9.64">(96)</text>
</g>
<!-- 肌\n(2259)\n&#45;&gt;負担\n(96)\n -->
<g id="edge12" class="edge"><title>肌\n(2259)\n&#45;&gt;負担\n(96)\n</title>
<path fill="none" stroke="#ff1c62" d="M425.668,-293.816C467.559,-265.915 514.633,-234.562 542.527,-215.985"/>
<polygon fill="#ff1c62" stroke="#ff1c62" points="543.643,-217.344 546.835,-213.115 541.703,-214.431 543.643,-217.344"/>
</g>
<!-- 私\n(79)\n -->
<g id="node19" class="node"><title>私\n(79)\n</title>
<ellipse fill="#ffffff" stroke="gray" cx="86.9472" cy="-517.964" rx="25.4118" ry="19.6"/>
<text text-anchor="middle" x="86.9472" y="-520.344" font-family="arialuni.ttf" font-size="9.52">私</text>
<text text-anchor="middle" x="86.9472" y="-510.344" font-family="arialuni.ttf" font-size="9.52">(79)</text>
</g>
<!-- 肌\n(2259)\n&#45;&gt;私\n(79)\n -->
<g id="edge29" class="edge"><title>肌\n(2259)\n&#45;&gt;私\n(79)\n</title>
<path fill="none" stroke="#ff1c62" d="M251.323,-409.431C201.656,-442.225 143.13,-480.868 111.032,-502.061"/>
<polygon fill="#ff1c62" stroke="#ff1c62" points="109.701,-500.843 106.493,-505.058 111.629,-503.764 109.701,-500.843"/>
</g>
<!-- 気\n(109)\n -->
<g id="node20" class="node"><title>気\n(109)\n</title>
<ellipse fill="#ffffff" stroke="gray" cx="476.041" cy="-106.301" rx="29.8983" ry="21.4286"/>
<text text-anchor="middle" x="476.041" y="-109.521" font-family="arialuni.ttf" font-size="9.72">気</text>
<text text-anchor="middle" x="476.041" y="-98.5215" font-family="arialuni.ttf" font-size="9.72">(109)</text>
</g>
<!-- 肌\n(2259)\n&#45;&gt;気\n(109)\n -->
<g id="edge32" class="edge"><title>肌\n(2259)\n&#45;&gt;気\n(109)\n</title>
<path fill="none" stroke="#ff1c62" d="M387.282,-264.882C413.916,-217.296 444.961,-161.829 462.377,-130.713"/>
<polygon fill="#ff1c62" stroke="#ff1c62" points="463.93,-131.521 464.845,-126.303 460.876,-129.811 463.93,-131.521"/>
</g>
<!-- 自然\n(721)\n&#45;&gt;色\n(650)\n -->
<g id="edge20" class="edge"><title>自然\n(721)\n&#45;&gt;色\n(650)\n</title>
<path fill="none" stroke="#ff1c62" d="M209.641,-452.627C223.032,-466.605 239.975,-484.29 253.79,-498.711"/>
<polygon fill="#ff1c62" stroke="#ff1c62" points="252.875,-500.286 257.598,-502.686 255.403,-497.865 252.875,-500.286"/>
</g>
<!-- 自然\n(721)\n&#45;&gt;感じ\n(465)\n -->
<g id="edge6" class="edge"><title>自然\n(721)\n&#45;&gt;感じ\n(465)\n</title>
<path fill="none" stroke="#ff1c62" d="M219.144,-440.066C249.308,-450.594 294.204,-466.264 325.372,-477.142"/>
<polygon fill="#ff1c62" stroke="#ff1c62" points="324.954,-478.85 330.252,-478.845 326.108,-475.545 324.954,-478.85"/>
</g>
<!-- 自然\n(721)\n&#45;&gt;仕上がり\n(413)\n -->
<g id="edge5" class="edge"><title>自然\n(721)\n&#45;&gt;仕上がり\n(413)\n</title>
<path fill="none" stroke="#ff1c62" d="M182.518,-459.632C178.584,-488.056 172.789,-529.923 168.934,-557.774"/>
<polygon fill="#ff1c62" stroke="#ff1c62" points="167.19,-557.613 168.238,-562.805 170.657,-558.092 167.19,-557.613"/>
</g>
<!-- 自然\n(721)\n&#45;&gt;カバー力\n(783)\n -->
<g id="edge21" class="edge"><title>自然\n(721)\n&#45;&gt;カバー力\n(783)\n</title>
<path fill="none" stroke="#ff1c62" d="M187.207,-397.555C187.766,-355.728 188.757,-281.519 189.364,-236.131"/>
<polygon fill="#ff1c62" stroke="#ff1c62" points="191.115,-236.038 189.432,-231.015 187.615,-235.992 191.115,-236.038"/>
</g>
<!-- 色\n(650)\n&#45;&gt;価格#\n(868)\n -->
<g id="edge19" class="edge"><title>色\n(650)\n&#45;&gt;価格#\n(868)\n</title>
<path fill="none" stroke="#ff1c62" d="M264.745,-499.638C246.691,-467.697 215.685,-412.844 194.878,-376.033"/>
<polygon fill="#ff1c62" stroke="#ff1c62" points="196.376,-375.128 192.392,-371.636 193.329,-376.85 196.376,-375.128"/>
</g>
<!-- 色\n(650)\n&#45;&gt;自分\n(468)\n -->
<g id="edge7" class="edge"><title>色\n(650)\n&#45;&gt;自分\n(468)\n</title>
<path fill="none" stroke="#ff1c62" d="M303.214,-546.124C325.069,-565.13 357.255,-593.12 379.59,-612.543"/>
<polygon fill="#ff1c62" stroke="#ff1c62" points="378.443,-613.865 383.364,-615.825 380.739,-611.224 378.443,-613.865"/>
</g>
<!-- 価格#\n(868)\n&#45;&gt;手頃#\n(350)\n -->
<g id="edge1" class="edge"><title>価格#\n(868)\n&#45;&gt;手頃#\n(350)\n</title>
<path fill="none" stroke="gray" d="M152.282,-305.591C137.249,-282.489 117.348,-251.906 103.477,-230.591"/>
<polygon fill="gray" stroke="gray" points="104.807,-229.426 100.613,-226.19 101.873,-231.335 104.807,-229.426"/>
</g>
<!-- 価格#\n(868)\n&#45;&gt;カバー力\n(783)\n -->
<g id="edge30" class="edge"><title>価格#\n(868)\n&#45;&gt;カバー力\n(783)\n</title>
<path fill="none" stroke="gray" d="M177.802,-300.739C180.135,-280.76 183.005,-256.19 185.361,-236.009"/>
<polygon fill="gray" stroke="gray" points="187.107,-236.148 185.949,-230.978 183.631,-235.742 187.107,-236.148"/>
</g>
<!-- 肌色\n(89)\n -->
<g id="node18" class="node"><title>肌色\n(89)\n</title>
<ellipse fill="#ffffff" stroke="gray" cx="486.872" cy="-784.828" rx="25.4118" ry="21.4286"/>
<text text-anchor="middle" x="486.872" y="-788.155" font-family="arialuni.ttf" font-size="9.59">肌色</text>
<text text-anchor="middle" x="486.872" y="-777.155" font-family="arialuni.ttf" font-size="9.59">(89)</text>
</g>
<!-- 自分\n(468)\n&#45;&gt;肌色\n(89)\n -->
<g id="edge22" class="edge"><title>自分\n(468)\n&#45;&gt;肌色\n(89)\n</title>
<path fill="none" stroke="gray" d="M417.386,-657.237C432.516,-685.02 458.172,-732.129 473.716,-760.671"/>
<polygon fill="gray" stroke="gray" points="472.192,-761.533 476.121,-765.087 475.266,-759.859 472.192,-761.533"/>
</g>
<!-- 綺麗#\n(569)\n&#45;&gt;仕上がり\n(413)\n -->
<g id="edge14" class="edge"><title>綺麗#\n(569)\n&#45;&gt;仕上がり\n(413)\n</title>
<path fill="none" stroke="#cf00bd" d="M260.903,-635.753C245.526,-625.571 224.987,-613.447 206.842,-603.746"/>
<polygon fill="#cf00bd" stroke="#cf00bd" points="207.523,-602.127 202.285,-601.335 205.886,-605.22 207.523,-602.127"/>
</g>
<!-- 仕上がり\n(413)\n&#45;&gt;綺麗#\n(569)\n -->
<g id="edge15" class="edge"><title>仕上がり\n(413)\n&#45;&gt;綺麗#\n(569)\n</title>
<path fill="none" stroke="#cf00bd" d="M189.103,-607.504C205.518,-618.316 227.518,-631.198 246.242,-641.029"/>
<polygon fill="#cf00bd" stroke="#cf00bd" points="245.682,-642.71 250.926,-643.46 247.294,-639.604 245.682,-642.71"/>
</g>
<!-- カバー力\n(783)\n&#45;&gt;伸び\n(602)\n -->
<g id="edge16" class="edge"><title>カバー力\n(783)\n&#45;&gt;伸び\n(602)\n</title>
<path fill="none" stroke="#cf00bd" d="M220.359,-171.76C239.021,-152.492 262.161,-126.152 277.806,-106.281"/>
<polygon fill="#cf00bd" stroke="#cf00bd" points="279.336,-107.164 281.026,-102.143 276.574,-105.014 279.336,-107.164"/>
</g>
<!-- 薄付き\n(275)\n -->
<g id="node12" class="node"><title>薄付き\n(275)\n</title>
<ellipse fill="#ffffff" stroke="gray" cx="107.723" cy="-22.7358" rx="33.8824" ry="22.7556"/>
<text text-anchor="middle" x="107.723" y="-26.075" font-family="arialuni.ttf" font-size="10.83">薄付き</text>
<text text-anchor="middle" x="107.723" y="-14.075" font-family="arialuni.ttf" font-size="10.83">(275)</text>
</g>
<!-- カバー力\n(783)\n&#45;&gt;薄付き\n(275)\n -->
<g id="edge25" class="edge"><title>カバー力\n(783)\n&#45;&gt;薄付き\n(275)\n</title>
<path fill="none" stroke="#cf00bd" d="M180.171,-164.235C166.472,-130.395 142.007,-78.5906 125.18,-47.9269"/>
<polygon fill="#cf00bd" stroke="#cf00bd" points="126.507,-46.7125 122.548,-43.193 123.448,-48.4134 126.507,-46.7125"/>
</g>
<!-- 伸び\n(602)\n&#45;&gt;カバー力\n(783)\n -->
<g id="edge17" class="edge"><title>伸び\n(602)\n&#45;&gt;カバー力\n(783)\n</title>
<path fill="none" stroke="#cf00bd" d="M270.842,-97.5011C253.145,-115.204 229.507,-141.677 212.288,-162.942"/>
<polygon fill="#cf00bd" stroke="#cf00bd" points="210.917,-161.855 209.151,-166.849 213.646,-164.046 210.917,-161.855"/>
</g>
<!-- 薄付き\n(275)\n&#45;&gt;カバー力\n(783)\n -->
<g id="edge24" class="edge"><title>薄付き\n(275)\n&#45;&gt;カバー力\n(783)\n</title>
<path fill="none" stroke="#cf00bd" d="M113.349,-45.385C124.592,-75.1447 148.893,-127.629 167.243,-162.454"/>
<polygon fill="#cf00bd" stroke="#cf00bd" points="165.785,-163.44 169.677,-167.034 168.876,-161.798 165.785,-163.44"/>
</g>
</g>
</svg>
