<?xml version="1.0" encoding="UTF-8" standalone="no"?>
<!DOCTYPE svg PUBLIC "-//W3C//DTD SVG 1.1//EN"
 "http://www.w3.org/Graphics/SVG/1.1/DTD/svg11.dtd">
<!-- Generated by graphviz version 2.38.0 (20140413.2041)
 -->
<!-- Title: g Pages: 1 -->
<svg width="239pt" height="378pt"
 viewBox="0.00 0.00 239.00 377.96" xmlns="http://www.w3.org/2000/svg" xmlns:xlink="http://www.w3.org/1999/xlink">
<g id="graph0" class="graph" transform="scale(1 1) rotate(0) translate(118.229 199.21)">
<title>g</title>
<polygon fill="white" stroke="none" points="-118.229,178.753 -118.229,-199.21 120.772,-199.21 120.772,178.753 -118.229,178.753"/>
<!-- 肌 -->
<g id="node1" class="node"><title>肌</title>
<ellipse fill="#ffdbeb" stroke="#ff1c62" cx="7.67336" cy="-1.89886" rx="18" ry="18"/>
<text text-anchor="middle" x="7.67336" y="0.00114059" font-family="arialuni.ttf" font-size="8.00">肌</text>
</g>
<!-- 自然 -->
<g id="node2" class="node"><title>自然</title>
<ellipse fill="#ffdbeb" stroke="#ff1c62" cx="-26.1382" cy="28.2917" rx="18" ry="18"/>
<text text-anchor="middle" x="-26.1382" y="30.1917" font-family="arialuni.ttf" font-size="8.00">自然</text>
</g>
<!-- 肌&#45;&gt;自然 -->
<g id="edge10" class="edge"><title>肌&#45;&gt;自然</title>
<path fill="none" stroke="#ff1c62" d="M-6.07911,10.3808C-6.2071,10.4951 -6.33533,10.6096 -6.46378,10.7243"/>
<polygon fill="#ff1c62" stroke="#ff1c62" points="-2.49784,11.8753 -12.2882,15.9249 -7.16012,6.65379 -2.49784,11.8753"/>
</g>
<!-- 色 -->
<g id="node3" class="node"><title>色</title>
<ellipse fill="#ffdbeb" stroke="#ff1c62" cx="-23.8299" cy="-39.9928" rx="18" ry="18"/>
<text text-anchor="middle" x="-23.8299" y="-38.0928" font-family="arialuni.ttf" font-size="8.00">色</text>
</g>
<!-- 肌&#45;&gt;色 -->
<g id="edge3" class="edge"><title>肌&#45;&gt;色</title>
<path fill="none" stroke="#ff1c62" d="M-4.05728,-16.0836C-4.55585,-16.6865 -5.06019,-17.2964 -5.56809,-17.9105"/>
<polygon fill="#ff1c62" stroke="#ff1c62" points="-8.51853,-15.9863 -12.1943,-25.923 -3.12417,-20.4473 -8.51853,-15.9863"/>
</g>
<!-- 価格# -->
<g id="node4" class="node"><title>価格#</title>
<ellipse fill="#ffdbeb" stroke="#cf00bd" cx="-58.9332" cy="39.3208" rx="18" ry="18"/>
<text text-anchor="middle" x="-58.9332" y="41.2208" font-family="arialuni.ttf" font-size="8.00">価格#</text>
</g>
<!-- 肌&#45;&gt;価格# -->
<g id="edge9" class="edge"><title>肌&#45;&gt;価格#</title>
<path fill="none" stroke="#ff1c62" d="M-7.77493,7.66137C-15.8453,12.6557 -25.9017,18.8792 -34.9573,24.4833"/>
<polygon fill="#ff1c62" stroke="#ff1c62" points="-33.2234,27.5262 -43.5687,29.8125 -36.9071,21.5739 -33.2234,27.5262"/>
</g>
<!-- 自分 -->
<g id="node5" class="node"><title>自分</title>
<ellipse fill="#ffdbeb" stroke="#cf00bd" cx="10.1422" cy="-94.8037" rx="18" ry="18"/>
<text text-anchor="middle" x="10.1422" y="-92.9037" font-family="arialuni.ttf" font-size="8.00">自分</text>
</g>
<!-- 肌&#45;&gt;自分 -->
<g id="edge2" class="edge"><title>肌&#45;&gt;自分</title>
<path fill="none" stroke="#ff1c62" d="M8.16113,-20.2539C8.51168,-33.4453 8.99092,-51.479 9.39023,-66.5053"/>
<polygon fill="#ff1c62" stroke="#ff1c62" points="5.89937,-66.8994 9.66388,-76.8029 12.8969,-66.7134 5.89937,-66.8994"/>
</g>
<!-- 綺麗# -->
<g id="node6" class="node"><title>綺麗#</title>
<ellipse fill="#ffffff" stroke="#cf00bd" cx="-39.3841" cy="-78.3884" rx="18" ry="18"/>
<text text-anchor="middle" x="-39.3841" y="-76.4884" font-family="arialuni.ttf" font-size="8.00">綺麗#</text>
</g>
<!-- 肌&#45;&gt;綺麗# -->
<g id="edge4" class="edge"><title>肌&#45;&gt;綺麗#</title>
<path fill="none" stroke="#ff1c62" d="M-1.84943,-17.3777C-8.35532,-27.9527 -17.1075,-42.1789 -24.5239,-54.2338"/>
<polygon fill="#ff1c62" stroke="#ff1c62" points="-27.6166,-52.5814 -29.8755,-62.9326 -21.6545,-56.2494 -27.6166,-52.5814"/>
</g>
<!-- 感じ -->
<g id="node7" class="node"><title>感じ</title>
<ellipse fill="#ffffff" stroke="#cf00bd" cx="51.8911" cy="29.785" rx="18" ry="18"/>
<text text-anchor="middle" x="51.8911" y="31.685" font-family="arialuni.ttf" font-size="8.00">感じ</text>
</g>
<!-- 肌&#45;&gt;感じ -->
<g id="edge8" class="edge"><title>肌&#45;&gt;感じ</title>
<path fill="none" stroke="#ff1c62" d="M22.6435,8.82784C24.7042,10.3044 26.8576,11.8475 29.0208,13.3975"/>
<polygon fill="#ff1c62" stroke="#ff1c62" points="31.1462,10.6146 37.2363,19.2842 27.069,16.3047 31.1462,10.6146"/>
</g>
<!-- 手頃# -->
<g id="node8" class="node"><title>手頃#</title>
<ellipse fill="#ffffff" stroke="#cf00bd" cx="-2.91989" cy="75.4472" rx="18" ry="18"/>
<text text-anchor="middle" x="-2.91989" y="77.3472" font-family="arialuni.ttf" font-size="8.00">手頃#</text>
</g>
<!-- 肌&#45;&gt;手頃# -->
<g id="edge18" class="edge"><title>肌&#45;&gt;手頃#</title>
<path fill="none" stroke="#ff1c62" d="M5.21643,16.0403C3.93291,25.4119 2.33352,37.0897 0.893294,47.6055"/>
<polygon fill="#ff1c62" stroke="#ff1c62" points="4.34836,48.1728 -0.47628,57.6053 -2.5869,47.2229 4.34836,48.1728"/>
</g>
<!-- 仕上がり -->
<g id="node9" class="node"><title>仕上がり</title>
<ellipse fill="#ffffff" stroke="#cf00bd" cx="-71.9531" cy="-21.988" rx="18" ry="18"/>
<text text-anchor="middle" x="-71.9531" y="-20.088" font-family="arialuni.ttf" font-size="8.00">仕上がり</text>
</g>
<!-- 肌&#45;&gt;仕上がり -->
<g id="edge28" class="edge"><title>肌&#45;&gt;仕上がり</title>
<path fill="none" stroke="#ff1c62" d="M-9.99833,-6.35729C-20.1011,-8.90615 -32.9929,-12.1587 -44.3977,-15.036"/>
<polygon fill="#ff1c62" stroke="#ff1c62" points="-45.4908,-11.702 -54.3308,-17.542 -43.7784,-18.4894 -45.4908,-11.702"/>
</g>
<!-- カバー力 -->
<g id="node10" class="node"><title>カバー力</title>
<ellipse fill="#ffffff" stroke="#cf00bd" cx="-37.6312" cy="87.915" rx="18" ry="18"/>
<text text-anchor="middle" x="-37.6312" y="89.815" font-family="arialuni.ttf" font-size="8.00">カバー力</text>
</g>
<!-- 肌&#45;&gt;カバー力 -->
<g id="edge13" class="edge"><title>肌&#45;&gt;カバー力</title>
<path fill="none" stroke="#ff1c62" d="M-0.636193,14.5744C-7.40562,27.9944 -17.0781,47.1696 -24.8351,62.5474"/>
<polygon fill="#ff1c62" stroke="#ff1c62" points="-21.7456,64.1941 -29.3743,71.5462 -27.9955,61.0414 -21.7456,64.1941"/>
</g>
<!-- 伸び -->
<g id="node11" class="node"><title>伸び</title>
<ellipse fill="#ffffff" stroke="#cf00bd" cx="28.3531" cy="92.24" rx="18" ry="18"/>
<text text-anchor="middle" x="28.3531" y="94.14" font-family="arialuni.ttf" font-size="8.00">伸び</text>
</g>
<!-- 肌&#45;&gt;伸び -->
<g id="edge11" class="edge"><title>肌&#45;&gt;伸び</title>
<path fill="none" stroke="#ff1c62" d="M11.5631,15.8079C14.5959,29.6142 18.8615,49.0322 22.3342,64.8407"/>
<polygon fill="#ff1c62" stroke="#ff1c62" points="25.7537,64.0945 24.4808,74.6126 18.9167,65.5965 25.7537,64.0945"/>
</g>
<!-- 毛穴 -->
<g id="node13" class="node"><title>毛穴</title>
<ellipse fill="#ffffff" stroke="gray" cx="-96.2287" cy="16.27" rx="18" ry="18"/>
<text text-anchor="middle" x="-96.2287" y="18.17" font-family="arialuni.ttf" font-size="8.00">毛穴</text>
</g>
<!-- 肌&#45;&gt;毛穴 -->
<g id="edge31" class="edge"><title>肌&#45;&gt;毛穴</title>
<path fill="none" stroke="#ff1c62" d="M-10.425,1.26592C-26.4413,4.06661 -50.0609,8.19687 -68.466,11.4153"/>
<polygon fill="#ff1c62" stroke="#ff1c62" points="-67.8843,14.8666 -78.3377,13.1415 -69.0901,7.97123 -67.8843,14.8666"/>
</g>
<!-- ファンデーション -->
<g id="node14" class="node"><title>ファンデーション</title>
<ellipse fill="#ffffff" stroke="gray" cx="80.2026" cy="-51.1506" rx="34.1647" ry="18"/>
<text text-anchor="middle" x="80.2026" y="-49.2506" font-family="arialuni.ttf" font-size="8.00">ファンデーション</text>
</g>
<!-- 肌&#45;&gt;ファンデーション -->
<g id="edge23" class="edge"><title>肌&#45;&gt;ファンデーション</title>
<path fill="none" stroke="#ff1c62" d="M22.7015,-12.1038C30.7705,-17.5832 41.0053,-24.5333 50.5966,-31.0463"/>
<polygon fill="#ff1c62" stroke="#ff1c62" points="48.9044,-34.1278 59.1435,-36.8501 52.8368,-28.3368 48.9044,-34.1278"/>
</g>
<!-- のり -->
<g id="node15" class="node"><title>のり</title>
<ellipse fill="#ffffff" stroke="gray" cx="95.8291" cy="-18.216" rx="18" ry="18"/>
<text text-anchor="middle" x="95.8291" y="-16.316" font-family="arialuni.ttf" font-size="8.00">のり</text>
</g>
<!-- 肌&#45;&gt;のり -->
<g id="edge27" class="edge"><title>肌&#45;&gt;のり</title>
<path fill="none" stroke="#ff1c62" d="M25.513,-5.20088C37.7009,-7.4568 54.0969,-10.4916 67.9904,-13.0632"/>
<polygon fill="#ff1c62" stroke="#ff1c62" points="67.546,-16.5403 78.016,-14.9189 68.82,-9.65726 67.546,-16.5403"/>
</g>
<!-- 無添加 -->
<g id="node16" class="node"><title>無添加</title>
<ellipse fill="#ffffff" stroke="gray" cx="-78.1579" cy="-58.4348" rx="18" ry="18"/>
<text text-anchor="middle" x="-78.1579" y="-56.5348" font-family="arialuni.ttf" font-size="8.00">無添加</text>
</g>
<!-- 肌&#45;&gt;無添加 -->
<g id="edge26" class="edge"><title>肌&#45;&gt;無添加</title>
<path fill="none" stroke="#ff1c62" d="M-7.67155,-12.0063C-20.6093,-20.5283 -39.3444,-32.8689 -54.2477,-42.6855"/>
<polygon fill="#ff1c62" stroke="#ff1c62" points="-56.52,-39.9911 -62.9458,-48.4148 -52.6694,-45.8369 -56.52,-39.9911"/>
</g>
<!-- 負担 -->
<g id="node17" class="node"><title>負担</title>
<ellipse fill="#ffffff" stroke="gray" cx="76.6027" cy="66.162" rx="18" ry="18"/>
<text text-anchor="middle" x="76.6027" y="68.062" font-family="arialuni.ttf" font-size="8.00">負担</text>
</g>
<!-- 肌&#45;&gt;負担 -->
<g id="edge12" class="edge"><title>肌&#45;&gt;負担</title>
<path fill="none" stroke="#ff1c62" d="M20.6384,10.9029C30.7476,20.8846 44.9656,34.9234 56.5407,46.3527"/>
<polygon fill="#ff1c62" stroke="#ff1c62" points="59.0391,43.901 63.6958,53.4176 54.1208,48.882 59.0391,43.901"/>
</g>
<!-- 私 -->
<g id="node19" class="node"><title>私</title>
<ellipse fill="#ffffff" stroke="gray" cx="51.6409" cy="-72.8149" rx="18" ry="18"/>
<text text-anchor="middle" x="51.6409" y="-70.9149" font-family="arialuni.ttf" font-size="8.00">私</text>
</g>
<!-- 肌&#45;&gt;私 -->
<g id="edge29" class="edge"><title>肌&#45;&gt;私</title>
<path fill="none" stroke="#ff1c62" d="M17.2137,-17.2866C22.9176,-26.4866 30.288,-38.3745 36.7449,-48.789"/>
<polygon fill="#ff1c62" stroke="#ff1c62" points="33.8751,-50.8024 42.1192,-57.4572 39.8245,-47.1138 33.8751,-50.8024"/>
</g>
<!-- 気 -->
<g id="node20" class="node"><title>気</title>
<ellipse fill="#ffffff" stroke="gray" cx="98.7715" cy="22.713" rx="18" ry="18"/>
<text text-anchor="middle" x="98.7715" y="24.613" font-family="arialuni.ttf" font-size="8.00">気</text>
</g>
<!-- 肌&#45;&gt;気 -->
<g id="edge32" class="edge"><title>肌&#45;&gt;気</title>
<path fill="none" stroke="#ff1c62" d="M25.238,2.84655C38.3448,6.38759 56.4989,11.2922 71.4892,15.3422"/>
<polygon fill="#ff1c62" stroke="#ff1c62" points="72.5198,11.995 81.2608,17.9821 70.694,18.7528 72.5198,11.995"/>
</g>
<!-- 自然&#45;&gt;色 -->
<g id="edge20" class="edge"><title>自然&#45;&gt;色</title>
<path fill="none" stroke="#ff1c62" d="M-25.5196,9.99268C-25.2971,3.41012 -25.0405,-4.182 -24.7955,-11.4294"/>
<polygon fill="#ff1c62" stroke="#ff1c62" points="-28.2861,-11.7673 -24.4502,-21.6433 -21.2901,-11.5307 -28.2861,-11.7673"/>
</g>
<!-- 自然&#45;&gt;感じ -->
<g id="edge6" class="edge"><title>自然&#45;&gt;感じ</title>
<path fill="none" stroke="#ff1c62" d="M-8.04063,28.638C1.41374,28.819 13.1948,29.0444 23.8034,29.2474"/>
<polygon fill="#ff1c62" stroke="#ff1c62" points="23.9604,25.7497 33.8916,29.4405 23.8264,32.7484 23.9604,25.7497"/>
</g>
<!-- 自然&#45;&gt;仕上がり -->
<g id="edge5" class="edge"><title>自然&#45;&gt;仕上がり</title>
<path fill="none" stroke="#ff1c62" d="M-38.4158,14.8176C-42.8323,9.97072 -47.9262,4.38045 -52.7887,-0.956014"/>
<polygon fill="#ff1c62" stroke="#ff1c62" points="-55.4935,1.27223 -59.6417,-8.47678 -50.3193,-3.44247 -55.4935,1.27223"/>
</g>
<!-- 自然&#45;&gt;カバー力 -->
<g id="edge21" class="edge"><title>自然&#45;&gt;カバー力</title>
<path fill="none" stroke="#ff1c62" d="M-29.5865,46.1806C-30.4275,50.5434 -31.347,55.314 -32.2543,60.0206"/>
<polygon fill="#ff1c62" stroke="#ff1c62" points="-28.8558,60.8819 -34.1854,70.0386 -35.7293,59.5569 -28.8558,60.8819"/>
</g>
<!-- 色&#45;&gt;価格# -->
<g id="edge19" class="edge"><title>色&#45;&gt;価格#</title>
<path fill="none" stroke="#ff1c62" d="M-31.2744,-23.1724C-36.0067,-12.48 -42.2261,1.5722 -47.5684,13.643"/>
<polygon fill="#ff1c62" stroke="#ff1c62" points="-44.372,15.0688 -51.6198,22.7967 -50.773,12.2357 -44.372,15.0688"/>
</g>
<!-- 色&#45;&gt;自分 -->
<g id="edge7" class="edge"><title>色&#45;&gt;自分</title>
<path fill="none" stroke="#ff1c62" d="M-14.1857,-55.5528C-11.2923,-60.2211 -8.04689,-65.4572 -4.89248,-70.5465"/>
<polygon fill="#ff1c62" stroke="#ff1c62" points="-7.65165,-72.7386 0.591529,-79.3945 -1.7018,-69.0508 -7.65165,-72.7386"/>
</g>
<!-- 価格#&#45;&gt;手頃# -->
<g id="edge1" class="edge"><title>価格#&#45;&gt;手頃#</title>
<path fill="none" stroke="gray" d="M-43.6273,49.1925C-38.4406,52.5378 -32.5166,56.3585 -26.8237,60.0302"/>
<polygon fill="gray" stroke="gray" points="-24.714,57.226 -18.2073,65.5875 -28.508,63.1086 -24.714,57.226"/>
</g>
<!-- 価格#&#45;&gt;カバー力 -->
<g id="edge30" class="edge"><title>価格#&#45;&gt;カバー力</title>
<path fill="none" stroke="gray" d="M-51.6022,56.0442C-50.7899,57.8973 -49.9489,59.8158 -49.1009,61.7502"/>
<polygon fill="gray" stroke="gray" points="-45.7128,60.7615 -44.9035,71.3254 -52.1239,63.572 -45.7128,60.7615"/>
</g>
<!-- 肌色 -->
<g id="node18" class="node"><title>肌色</title>
<ellipse fill="#ffffff" stroke="gray" cx="11.6178" cy="-177.21" rx="18" ry="18"/>
<text text-anchor="middle" x="11.6178" y="-175.31" font-family="arialuni.ttf" font-size="8.00">肌色</text>
</g>
<!-- 自分&#45;&gt;肌色 -->
<g id="edge22" class="edge"><title>自分&#45;&gt;肌色</title>
<path fill="none" stroke="gray" d="M10.4697,-113.092C10.6569,-123.548 10.8958,-136.889 11.1072,-148.692"/>
<polygon fill="gray" stroke="gray" points="7.61268,-149.036 11.2913,-158.972 14.6116,-148.911 7.61268,-149.036"/>
</g>
<!-- 綺麗#&#45;&gt;仕上がり -->
<g id="edge14" class="edge"><title>綺麗#&#45;&gt;仕上がり</title>
<path fill="none" stroke="#cf00bd" d="M-42.7252,-60.5578C-45.2935,-54.8436 -48.712,-48.4851 -52.3379,-42.5953"/>
<polygon fill="#cf00bd" stroke="#cf00bd" points="-49.6703,-40.285 -58.1142,-33.8857 -55.5039,-44.154 -49.6703,-40.285"/>
</g>
<!-- 仕上がり&#45;&gt;綺麗# -->
<g id="edge15" class="edge"><title>仕上がり&#45;&gt;綺麗#</title>
<path fill="none" stroke="#cf00bd" d="M-68.612,-39.8186C-66.0437,-45.5328 -62.6252,-51.8914 -58.9993,-57.7812"/>
<polygon fill="#cf00bd" stroke="#cf00bd" points="-61.6669,-60.0914 -53.223,-66.4907 -55.8333,-56.2225 -61.6669,-60.0914"/>
</g>
<!-- カバー力&#45;&gt;伸び -->
<g id="edge16" class="edge"><title>カバー力&#45;&gt;伸び</title>
<path fill="none" stroke="#cf00bd" d="M-20.2469,83.0534C-13.5579,82.804 -5.75687,83.0923 1.61232,83.8171"/>
<polygon fill="#cf00bd" stroke="#cf00bd" points="2.12042,80.3536 11.5816,85.1219 1.21186,87.2944 2.12042,80.3536"/>
</g>
<!-- 薄付き -->
<g id="node12" class="node"><title>薄付き</title>
<ellipse fill="#ffffff" stroke="gray" cx="-77.5482" cy="156.753" rx="18" ry="18"/>
<text text-anchor="middle" x="-77.5482" y="158.653" font-family="arialuni.ttf" font-size="8.00">薄付き</text>
</g>
<!-- カバー力&#45;&gt;薄付き -->
<g id="edge25" class="edge"><title>カバー力&#45;&gt;薄付き</title>
<path fill="none" stroke="#cf00bd" d="M-41.3803,105.7C-45.5594,115.09 -51.9467,126.615 -58.2703,136.358"/>
<polygon fill="#cf00bd" stroke="#cf00bd" points="-55.4478,138.431 -63.9946,144.692 -61.2179,134.467 -55.4478,138.431"/>
</g>
<!-- 伸び&#45;&gt;カバー力 -->
<g id="edge17" class="edge"><title>伸び&#45;&gt;カバー力</title>
<path fill="none" stroke="#cf00bd" d="M10.9688,97.1016C4.27976,97.351 -3.52124,97.0627 -10.8904,96.3379"/>
<polygon fill="#cf00bd" stroke="#cf00bd" points="-11.3985,99.8013 -20.8597,95.033 -10.49,92.8605 -11.3985,99.8013"/>
</g>
<!-- 薄付き&#45;&gt;カバー力 -->
<g id="edge24" class="edge"><title>薄付き&#45;&gt;カバー力</title>
<path fill="none" stroke="#cf00bd" d="M-73.7991,138.968C-69.62,129.578 -63.2327,118.053 -56.9091,108.31"/>
<polygon fill="#cf00bd" stroke="#cf00bd" points="-59.7316,106.237 -51.1849,99.9759 -53.9615,110.2 -59.7316,106.237"/>
</g>
</g>
</svg>
