<?xml version="1.0"?>
<!DOCTYPE svg PUBLIC "-//W3C//DTD SVG 1.1//EN"
        "http://www.w3.org/Graphics/SVG/1.1/DTD/svg11.dtd">
<svg version="1.1"
     baseProfile="full"
     xmlns="http://www.w3.org/2000/svg"
     xmlns:xlink="http://www.w3.org/1999/xlink"
     xmlns:ev="http://www.w3.org/2001/xml-events"
     width="722.70" height="722.70"
     viewBox="0,0,722.70,722.70"
     font-family="Arial, Helvetica, sans-serif"
>
<title>R SVG Plot</title>
<desc>R SVG Plot!</desc>
<rect width="100%" height="100%" style="fill:#FFFFFF"/>
<text transform="translate(229.75,28.71) " fill="#000000"  style="font-size:12pt" >Q7_年代&#160;x&#160;Q10_購入場所&#160;(総数:&#160;10859)</text>
<text transform="translate(331.02,689.12) " fill="#000000"  style="font-size:10pt" >Q10_購入場所</text>
<text transform="translate(33.58,383.49)  rotate(-90)" fill="#000000"  style="font-size:10pt" >Q7_年代</text>
<text transform="translate(53.60,271.96) " fill="#000000"  style="font-size:7pt" >平均</text>
<text transform="translate(53.60,296.61) " fill="#000000"  style="font-size:7pt" >19歳以下</text>
<text transform="translate(53.60,327.83) " fill="#000000"  style="font-size:7pt" >20-24歳</text>
<text transform="translate(53.60,388.52) " fill="#000000"  style="font-size:7pt" >25-29歳</text>
<text transform="translate(53.60,471.81) " fill="#000000"  style="font-size:7pt" >30-34歳</text>
<text transform="translate(53.60,547.20) " fill="#000000"  style="font-size:7pt" >35-39歳</text>
<text transform="translate(53.60,607.37) " fill="#000000"  style="font-size:7pt" >40-49歳</text>
<text transform="translate(53.60,649.36) " fill="#000000"  style="font-size:7pt" >50-59歳</text>
<text transform="translate(53.60,666.95) " fill="#000000"  style="font-size:7pt" >60歳以上</text>
<text transform="translate(190.76,126.05)  rotate(-90)" fill="#000000"  style="font-size:7pt" >ドラッグストア</text>
<text transform="translate(308.69,87.83)  rotate(-90)" fill="#000000"  style="font-size:7pt" >デパート</text>
<text transform="translate(380.15,226.48)  rotate(-90)" fill="#000000"  style="font-size:7pt" >ブランド専門のインターネット通信販売</text>
<text transform="translate(431.06,108.17)  rotate(-90)" fill="#000000"  style="font-size:7pt" >大型スーパー</text>
<text transform="translate(478.74,107.23)  rotate(-90)" fill="#000000"  style="font-size:7pt" >化粧品専門店</text>
<text transform="translate(523.60,193.79)  rotate(-90)" fill="#000000"  style="font-size:7pt" >インターネット以外の通信販売</text>
<text transform="translate(566.86,80.54)  rotate(-90)" fill="#000000"  style="font-size:7pt" >その他</text>
<text transform="translate(598.47,250.94)  rotate(-90)" fill="#000000"  style="font-size:7pt" >ディスカウント系のインターネット通信販売</text>
<text transform="translate(616.29,145.81)  rotate(-90)" fill="#000000"  style="font-size:7pt" >バラエティショップ</text>
<text transform="translate(631.13,154.15)  rotate(-90)" fill="#000000"  style="font-size:7pt" >コンビニエンスストア</text>
<text transform="translate(644.99,108.06)  rotate(-90)" fill="#000000"  style="font-size:7pt" >食品スーパー</text>
<text transform="translate(657.71,245.41)  rotate(-90)" fill="#000000"  style="font-size:7pt" >ディスカウントショップ（ドンキホーテ等）</text>
<text transform="translate(670.08,117.35)  rotate(-90)" fill="#000000"  style="font-size:7pt" >ホームセンター</text>
<polygon points="120.08 , 272.39 254.28 , 272.39 254.28 , 264.38 120.08 , 264.38 " stroke-width="1px" stroke="#000000" fill="#FFBFCF" stroke-opacity="1.000000" fill-opacity="1.000000" />
<polygon points="265.22 , 272.39 345.01 , 272.39 345.01 , 264.38 265.22 , 264.38 " stroke-width="1px" stroke="#000000" fill="#FFFFAA" stroke-opacity="1.000000" fill-opacity="1.000000" />
<polygon points="355.95 , 272.39 397.19 , 272.39 397.19 , 264.38 355.95 , 264.38 " stroke-width="1px" stroke="#000000" fill="#FFCC99" stroke-opacity="1.000000" fill-opacity="1.000000" />
<polygon points="408.13 , 272.39 446.84 , 272.39 446.84 , 264.38 408.13 , 264.38 " stroke-width="1px" stroke="#000000" fill="#CCFFCC" stroke-opacity="1.000000" fill-opacity="1.000000" />
<polygon points="457.78 , 272.39 492.55 , 272.39 492.55 , 264.38 457.78 , 264.38 " stroke-width="1px" stroke="#000000" fill="#BFF1FF" stroke-opacity="1.000000" fill-opacity="1.000000" />
<polygon points="503.49 , 272.39 536.57 , 272.39 536.57 , 264.38 503.49 , 264.38 " stroke-width="1px" stroke="#000000" fill="#CCCCFF" stroke-opacity="1.000000" fill-opacity="1.000000" />
<polygon points="547.51 , 272.39 579.06 , 272.39 579.06 , 264.38 547.51 , 264.38 " stroke-width="1px" stroke="#000000" fill="#FFBFCF" stroke-opacity="1.000000" fill-opacity="1.000000" />
<polygon points="590.00 , 272.39 599.80 , 272.39 599.80 , 264.38 590.00 , 264.38 " stroke-width="1px" stroke="#000000" fill="#FFFFAA" stroke-opacity="1.000000" fill-opacity="1.000000" />
<polygon points="610.74 , 272.39 614.68 , 272.39 614.68 , 264.38 610.74 , 264.38 " stroke-width="1px" stroke="#000000" fill="#FFCC99" stroke-opacity="1.000000" fill-opacity="1.000000" />
<polygon points="625.63 , 272.39 629.49 , 272.39 629.49 , 264.38 625.63 , 264.38 " stroke-width="1px" stroke="#000000" fill="#CCFFCC" stroke-opacity="1.000000" fill-opacity="1.000000" />
<polygon points="640.43 , 272.39 642.39 , 272.39 642.39 , 264.38 640.43 , 264.38 " stroke-width="1px" stroke="#000000" fill="#BFF1FF" stroke-opacity="1.000000" fill-opacity="1.000000" />
<polygon points="653.33 , 272.39 654.94 , 272.39 654.94 , 264.38 653.33 , 264.38 " stroke-width="1px" stroke="#000000" fill="#CCCCFF" stroke-opacity="1.000000" fill-opacity="1.000000" />
<polygon points="665.88 , 272.39 667.14 , 272.39 667.14 , 264.38 665.88 , 264.38 " stroke-width="1px" stroke="#000000" fill="#FFBFCF" stroke-opacity="1.000000" fill-opacity="1.000000" />
<line x1="120.08" y1="280.40" x2="229.49" y2="280.40" stroke-width="1px" stroke="#000000" fill="#000000" stroke-opacity="1.000000" fill-opacity="0.000000"/>
<line x1="338.91" y1="280.40" x2="448.32" y2="280.40" stroke-width="1px" stroke="#000000" fill="#000000" stroke-opacity="1.000000" fill-opacity="0.000000"/>
<line x1="557.73" y1="280.40" x2="667.14" y2="280.40" stroke-width="1px" stroke="#000000" fill="#000000" stroke-opacity="1.000000" fill-opacity="0.000000"/>
<polygon points="120.08 , 297.65 332.61 , 297.65 332.61 , 288.41 120.08 , 288.41 " stroke-width="1px" stroke="#000000" fill="#FFBFCF" stroke-opacity="1.000000" fill-opacity="1.000000" />
<polygon points="343.55 , 297.65 407.31 , 297.65 407.31 , 288.41 343.55 , 288.41 " stroke-width="1px" stroke="#000000" fill="#FFFFAA" stroke-opacity="1.000000" fill-opacity="1.000000" />
<polygon points="418.26 , 297.65 426.23 , 297.65 426.23 , 288.41 418.26 , 288.41 " stroke-width="1px" stroke="#000000" fill="#FFCC99" stroke-opacity="1.000000" fill-opacity="1.000000" />
<polygon points="437.17 , 297.65 469.05 , 297.65 469.05 , 288.41 437.17 , 288.41 " stroke-width="1px" stroke="#000000" fill="#CCFFCC" stroke-opacity="1.000000" fill-opacity="1.000000" />
<polygon points="479.99 , 297.65 513.20 , 297.65 513.20 , 288.41 479.99 , 288.41 " stroke-width="1px" stroke="#000000" fill="#BFF1FF" stroke-opacity="1.000000" fill-opacity="1.000000" />
<polygon points="524.14 , 297.65 537.42 , 297.65 537.42 , 288.41 524.14 , 288.41 " stroke-width="1px" stroke="#000000" fill="#CCCCFF" stroke-opacity="1.000000" fill-opacity="1.000000" />
<polygon points="548.36 , 297.65 572.27 , 297.65 572.27 , 288.41 548.36 , 288.41 " stroke-width="1px" stroke="#000000" fill="#FFBFCF" stroke-opacity="1.000000" fill-opacity="1.000000" />
<polygon points="583.21 , 297.65 587.20 , 297.65 587.20 , 288.41 583.21 , 288.41 " stroke-width="1px" stroke="#000000" fill="#FFFFAA" stroke-opacity="1.000000" fill-opacity="1.000000" />
<polygon points="598.14 , 297.65 610.09 , 297.65 610.09 , 288.41 598.14 , 288.41 " stroke-width="1px" stroke="#000000" fill="#FFCC99" stroke-opacity="1.000000" fill-opacity="1.000000" />
<polygon points="621.03 , 297.65 627.68 , 297.65 627.68 , 288.41 621.03 , 288.41 " stroke-width="1px" stroke="#000000" fill="#CCFFCC" stroke-opacity="1.000000" fill-opacity="1.000000" />
<polygon points="638.62 , 297.65 641.27 , 297.65 641.27 , 288.41 638.62 , 288.41 " stroke-width="1px" stroke="#000000" fill="#BFF1FF" stroke-opacity="1.000000" fill-opacity="1.000000" />
<polygon points="652.21 , 297.65 656.20 , 297.65 656.20 , 288.41 652.21 , 288.41 " stroke-width="1px" stroke="#000000" fill="#CCCCFF" stroke-opacity="1.000000" fill-opacity="1.000000" />
<line x1="667.14" y1="297.65" x2="667.14" y2="295.80" stroke-width="1px" stroke="#000000" fill="#000000" stroke-opacity="1.000000" fill-opacity="0.000000"/>
<line x1="667.14" y1="293.96" x2="667.14" y2="292.11" stroke-width="1px" stroke="#000000" fill="#000000" stroke-opacity="1.000000" fill-opacity="0.000000"/>
<line x1="667.14" y1="290.26" x2="667.14" y2="288.41" stroke-width="1px" stroke="#000000" fill="#000000" stroke-opacity="1.000000" fill-opacity="0.000000"/>
<polygon points="120.08 , 342.85 302.56 , 342.85 302.56 , 305.66 120.08 , 305.66 " stroke-width="1px" stroke="#000000" fill="#FFBFCF" stroke-opacity="1.000000" fill-opacity="1.000000" />
<polygon points="313.50 , 342.85 407.21 , 342.85 407.21 , 305.66 313.50 , 305.66 " stroke-width="1px" stroke="#000000" fill="#FFFFAA" stroke-opacity="1.000000" fill-opacity="1.000000" />
<polygon points="418.15 , 342.85 444.55 , 342.85 444.55 , 305.66 418.15 , 305.66 " stroke-width="1px" stroke="#000000" fill="#FFCC99" stroke-opacity="1.000000" fill-opacity="1.000000" />
<polygon points="455.49 , 342.85 485.85 , 342.85 485.85 , 305.66 455.49 , 305.66 " stroke-width="1px" stroke="#000000" fill="#CCFFCC" stroke-opacity="1.000000" fill-opacity="1.000000" />
<polygon points="496.79 , 342.85 532.10 , 342.85 532.10 , 305.66 496.79 , 305.66 " stroke-width="1px" stroke="#000000" fill="#BFF1FF" stroke-opacity="1.000000" fill-opacity="1.000000" />
<polygon points="543.04 , 342.85 557.56 , 342.85 557.56 , 305.66 543.04 , 305.66 " stroke-width="1px" stroke="#000000" fill="#CCCCFF" stroke-opacity="1.000000" fill-opacity="1.000000" />
<polygon points="568.50 , 342.85 585.65 , 342.85 585.65 , 305.66 568.50 , 305.66 " stroke-width="1px" stroke="#000000" fill="#FFBFCF" stroke-opacity="1.000000" fill-opacity="1.000000" />
<polygon points="596.60 , 342.85 599.57 , 342.85 599.57 , 305.66 596.60 , 305.66 " stroke-width="1px" stroke="#000000" fill="#FFFFAA" stroke-opacity="1.000000" fill-opacity="1.000000" />
<polygon points="610.51 , 342.85 616.45 , 342.85 616.45 , 305.66 610.51 , 305.66 " stroke-width="1px" stroke="#000000" fill="#FFCC99" stroke-opacity="1.000000" fill-opacity="1.000000" />
<polygon points="627.39 , 342.85 630.36 , 342.85 630.36 , 305.66 627.39 , 305.66 " stroke-width="1px" stroke="#000000" fill="#CCFFCC" stroke-opacity="1.000000" fill-opacity="1.000000" />
<polygon points="641.30 , 342.85 641.96 , 342.85 641.96 , 305.66 641.30 , 305.66 " stroke-width="1px" stroke="#000000" fill="#BFF1FF" stroke-opacity="1.000000" fill-opacity="1.000000" />
<polygon points="652.90 , 342.85 655.21 , 342.85 655.21 , 305.66 652.90 , 305.66 " stroke-width="1px" stroke="#000000" fill="#CCCCFF" stroke-opacity="1.000000" fill-opacity="1.000000" />
<polygon points="666.15 , 342.85 667.14 , 342.85 667.14 , 305.66 666.15 , 305.66 " stroke-width="1px" stroke="#000000" fill="#FFBFCF" stroke-opacity="1.000000" fill-opacity="1.000000" />
<polygon points="120.08 , 419.03 260.65 , 419.03 260.65 , 350.86 120.08 , 350.86 " stroke-width="1px" stroke="#000000" fill="#FFBFCF" stroke-opacity="1.000000" fill-opacity="1.000000" />
<polygon points="271.59 , 419.03 377.60 , 419.03 377.60 , 350.86 271.59 , 350.86 " stroke-width="1px" stroke="#000000" fill="#FFFFAA" stroke-opacity="1.000000" fill-opacity="1.000000" />
<polygon points="388.54 , 419.03 422.56 , 419.03 422.56 , 350.86 388.54 , 350.86 " stroke-width="1px" stroke="#000000" fill="#FFCC99" stroke-opacity="1.000000" fill-opacity="1.000000" />
<polygon points="433.50 , 419.03 464.82 , 419.03 464.82 , 350.86 433.50 , 350.86 " stroke-width="1px" stroke="#000000" fill="#CCFFCC" stroke-opacity="1.000000" fill-opacity="1.000000" />
<polygon points="475.76 , 419.03 515.36 , 419.03 515.36 , 350.86 475.76 , 350.86 " stroke-width="1px" stroke="#000000" fill="#BFF1FF" stroke-opacity="1.000000" fill-opacity="1.000000" />
<polygon points="526.30 , 419.03 546.46 , 419.03 546.46 , 350.86 526.30 , 350.86 " stroke-width="1px" stroke="#000000" fill="#CCCCFF" stroke-opacity="1.000000" fill-opacity="1.000000" />
<polygon points="557.40 , 419.03 579.54 , 419.03 579.54 , 350.86 557.40 , 350.86 " stroke-width="1px" stroke="#000000" fill="#FFBFCF" stroke-opacity="1.000000" fill-opacity="1.000000" />
<polygon points="590.48 , 419.03 598.40 , 419.03 598.40 , 350.86 590.48 , 350.86 " stroke-width="1px" stroke="#000000" fill="#FFFFAA" stroke-opacity="1.000000" fill-opacity="1.000000" />
<polygon points="609.34 , 419.03 614.02 , 419.03 614.02 , 350.86 609.34 , 350.86 " stroke-width="1px" stroke="#000000" fill="#FFCC99" stroke-opacity="1.000000" fill-opacity="1.000000" />
<polygon points="624.96 , 419.03 630.90 , 419.03 630.90 , 350.86 624.96 , 350.86 " stroke-width="1px" stroke="#000000" fill="#CCFFCC" stroke-opacity="1.000000" fill-opacity="1.000000" />
<polygon points="641.84 , 419.03 642.92 , 419.03 642.92 , 350.86 641.84 , 350.86 " stroke-width="1px" stroke="#000000" fill="#BFF1FF" stroke-opacity="1.000000" fill-opacity="1.000000" />
<polygon points="653.86 , 419.03 655.48 , 419.03 655.48 , 350.86 653.86 , 350.86 " stroke-width="1px" stroke="#000000" fill="#CCCCFF" stroke-opacity="1.000000" fill-opacity="1.000000" />
<polygon points="666.42 , 419.03 667.14 , 419.03 667.14 , 350.86 666.42 , 350.86 " stroke-width="1px" stroke="#000000" fill="#FFBFCF" stroke-opacity="1.000000" fill-opacity="1.000000" />
<polygon points="120.08 , 509.43 248.59 , 509.43 248.59 , 427.04 120.08 , 427.04 " stroke-width="1px" stroke="#000000" fill="#FFBFCF" stroke-opacity="1.000000" fill-opacity="1.000000" />
<polygon points="259.53 , 509.43 343.37 , 509.43 343.37 , 427.04 259.53 , 427.04 " stroke-width="1px" stroke="#000000" fill="#FFFFAA" stroke-opacity="1.000000" fill-opacity="1.000000" />
<polygon points="354.31 , 509.43 397.20 , 509.43 397.20 , 427.04 354.31 , 427.04 " stroke-width="1px" stroke="#000000" fill="#FFCC99" stroke-opacity="1.000000" fill-opacity="1.000000" />
<polygon points="408.14 , 509.43 445.67 , 509.43 445.67 , 427.04 408.14 , 427.04 " stroke-width="1px" stroke="#000000" fill="#CCFFCC" stroke-opacity="1.000000" fill-opacity="1.000000" />
<polygon points="456.61 , 509.43 495.92 , 509.43 495.92 , 427.04 456.61 , 427.04 " stroke-width="1px" stroke="#000000" fill="#BFF1FF" stroke-opacity="1.000000" fill-opacity="1.000000" />
<polygon points="506.86 , 509.43 541.56 , 509.43 541.56 , 427.04 506.86 , 427.04 " stroke-width="1px" stroke="#000000" fill="#CCCCFF" stroke-opacity="1.000000" fill-opacity="1.000000" />
<polygon points="552.50 , 509.43 581.24 , 509.43 581.24 , 427.04 552.50 , 427.04 " stroke-width="1px" stroke="#000000" fill="#FFBFCF" stroke-opacity="1.000000" fill-opacity="1.000000" />
<polygon points="592.18 , 509.43 600.67 , 509.43 600.67 , 427.04 592.18 , 427.04 " stroke-width="1px" stroke="#000000" fill="#FFFFAA" stroke-opacity="1.000000" fill-opacity="1.000000" />
<polygon points="611.61 , 509.43 614.74 , 509.43 614.74 , 427.04 611.61 , 427.04 " stroke-width="1px" stroke="#000000" fill="#FFCC99" stroke-opacity="1.000000" fill-opacity="1.000000" />
<polygon points="625.68 , 509.43 629.25 , 509.43 629.25 , 427.04 625.68 , 427.04 " stroke-width="1px" stroke="#000000" fill="#CCFFCC" stroke-opacity="1.000000" fill-opacity="1.000000" />
<polygon points="640.20 , 509.43 642.43 , 509.43 642.43 , 427.04 640.20 , 427.04 " stroke-width="1px" stroke="#000000" fill="#BFF1FF" stroke-opacity="1.000000" fill-opacity="1.000000" />
<polygon points="653.37 , 509.43 654.56 , 509.43 654.56 , 427.04 653.37 , 427.04 " stroke-width="1px" stroke="#000000" fill="#CCCCFF" stroke-opacity="1.000000" fill-opacity="1.000000" />
<polygon points="665.50 , 509.43 667.14 , 509.43 667.14 , 427.04 665.50 , 427.04 " stroke-width="1px" stroke="#000000" fill="#FFBFCF" stroke-opacity="1.000000" fill-opacity="1.000000" />
<polygon points="120.08 , 569.80 235.62 , 569.80 235.62 , 517.45 120.08 , 517.45 " stroke-width="1px" stroke="#000000" fill="#FFBFCF" stroke-opacity="1.000000" fill-opacity="1.000000" />
<polygon points="246.57 , 569.80 316.41 , 569.80 316.41 , 517.45 246.57 , 517.45 " stroke-width="1px" stroke="#000000" fill="#FFFFAA" stroke-opacity="1.000000" fill-opacity="1.000000" />
<polygon points="327.35 , 569.80 378.67 , 569.80 378.67 , 517.45 327.35 , 517.45 " stroke-width="1px" stroke="#000000" fill="#FFCC99" stroke-opacity="1.000000" fill-opacity="1.000000" />
<polygon points="389.61 , 569.80 432.27 , 569.80 432.27 , 517.45 389.61 , 517.45 " stroke-width="1px" stroke="#000000" fill="#CCFFCC" stroke-opacity="1.000000" fill-opacity="1.000000" />
<polygon points="443.21 , 569.80 472.27 , 569.80 472.27 , 517.45 443.21 , 517.45 " stroke-width="1px" stroke="#000000" fill="#BFF1FF" stroke-opacity="1.000000" fill-opacity="1.000000" />
<polygon points="483.21 , 569.80 525.63 , 569.80 525.63 , 517.45 483.21 , 517.45 " stroke-width="1px" stroke="#000000" fill="#CCCCFF" stroke-opacity="1.000000" fill-opacity="1.000000" />
<polygon points="536.57 , 569.80 573.60 , 569.80 573.60 , 517.45 536.57 , 517.45 " stroke-width="1px" stroke="#000000" fill="#FFBFCF" stroke-opacity="1.000000" fill-opacity="1.000000" />
<polygon points="584.55 , 569.80 600.01 , 569.80 600.01 , 517.45 584.55 , 517.45 " stroke-width="1px" stroke="#000000" fill="#FFFFAA" stroke-opacity="1.000000" fill-opacity="1.000000" />
<polygon points="610.95 , 569.80 614.70 , 569.80 614.70 , 517.45 610.95 , 517.45 " stroke-width="1px" stroke="#000000" fill="#FFCC99" stroke-opacity="1.000000" fill-opacity="1.000000" />
<polygon points="625.65 , 569.80 628.93 , 569.80 628.93 , 517.45 625.65 , 517.45 " stroke-width="1px" stroke="#000000" fill="#CCFFCC" stroke-opacity="1.000000" fill-opacity="1.000000" />
<polygon points="639.87 , 569.80 641.74 , 569.80 641.74 , 517.45 639.87 , 517.45 " stroke-width="1px" stroke="#000000" fill="#BFF1FF" stroke-opacity="1.000000" fill-opacity="1.000000" />
<polygon points="652.68 , 569.80 654.56 , 569.80 654.56 , 517.45 652.68 , 517.45 " stroke-width="1px" stroke="#000000" fill="#CCCCFF" stroke-opacity="1.000000" fill-opacity="1.000000" />
<polygon points="665.50 , 569.80 667.14 , 569.80 667.14 , 517.45 665.50 , 517.45 " stroke-width="1px" stroke="#000000" fill="#FFBFCF" stroke-opacity="1.000000" fill-opacity="1.000000" />
<polygon points="120.08 , 629.78 235.06 , 629.78 235.06 , 577.81 120.08 , 577.81 " stroke-width="1px" stroke="#000000" fill="#FFBFCF" stroke-opacity="1.000000" fill-opacity="1.000000" />
<polygon points="246.00 , 629.78 297.71 , 629.78 297.71 , 577.81 246.00 , 577.81 " stroke-width="1px" stroke="#000000" fill="#FFFFAA" stroke-opacity="1.000000" fill-opacity="1.000000" />
<polygon points="308.65 , 629.78 362.95 , 629.78 362.95 , 577.81 308.65 , 577.81 " stroke-width="1px" stroke="#000000" fill="#FFCC99" stroke-opacity="1.000000" fill-opacity="1.000000" />
<polygon points="373.89 , 629.78 421.11 , 629.78 421.11 , 577.81 373.89 , 577.81 " stroke-width="1px" stroke="#000000" fill="#CCFFCC" stroke-opacity="1.000000" fill-opacity="1.000000" />
<polygon points="432.05 , 629.78 456.84 , 629.78 456.84 , 577.81 432.05 , 577.81 " stroke-width="1px" stroke="#000000" fill="#BFF1FF" stroke-opacity="1.000000" fill-opacity="1.000000" />
<polygon points="467.78 , 629.78 517.36 , 629.78 517.36 , 577.81 467.78 , 577.81 " stroke-width="1px" stroke="#000000" fill="#CCCCFF" stroke-opacity="1.000000" fill-opacity="1.000000" />
<polygon points="528.30 , 629.78 577.18 , 629.78 577.18 , 577.81 528.30 , 577.81 " stroke-width="1px" stroke="#000000" fill="#FFBFCF" stroke-opacity="1.000000" fill-opacity="1.000000" />
<polygon points="588.12 , 629.78 602.52 , 629.78 602.52 , 577.81 588.12 , 577.81 " stroke-width="1px" stroke="#000000" fill="#FFFFAA" stroke-opacity="1.000000" fill-opacity="1.000000" />
<polygon points="613.46 , 629.78 615.58 , 629.78 615.58 , 577.81 613.46 , 577.81 " stroke-width="1px" stroke="#000000" fill="#FFCC99" stroke-opacity="1.000000" fill-opacity="1.000000" />
<polygon points="626.53 , 629.78 630.07 , 629.78 630.07 , 577.81 626.53 , 577.81 " stroke-width="1px" stroke="#000000" fill="#CCFFCC" stroke-opacity="1.000000" fill-opacity="1.000000" />
<polygon points="641.01 , 629.78 643.84 , 629.78 643.84 , 577.81 641.01 , 577.81 " stroke-width="1px" stroke="#000000" fill="#BFF1FF" stroke-opacity="1.000000" fill-opacity="1.000000" />
<polygon points="654.78 , 629.78 655.25 , 629.78 655.25 , 577.81 654.78 , 577.81 " stroke-width="1px" stroke="#000000" fill="#CCCCFF" stroke-opacity="1.000000" fill-opacity="1.000000" />
<polygon points="666.20 , 629.78 667.14 , 629.78 667.14 , 577.81 666.20 , 577.81 " stroke-width="1px" stroke="#000000" fill="#FFBFCF" stroke-opacity="1.000000" fill-opacity="1.000000" />
<polygon points="120.08 , 653.79 229.01 , 653.79 229.01 , 637.79 120.08 , 637.79 " stroke-width="1px" stroke="#000000" fill="#FFBFCF" stroke-opacity="1.000000" fill-opacity="1.000000" />
<polygon points="239.95 , 653.79 289.81 , 653.79 289.81 , 637.79 239.95 , 637.79 " stroke-width="1px" stroke="#000000" fill="#FFFFAA" stroke-opacity="1.000000" fill-opacity="1.000000" />
<polygon points="300.75 , 653.79 341.41 , 653.79 341.41 , 637.79 300.75 , 637.79 " stroke-width="1px" stroke="#000000" fill="#FFCC99" stroke-opacity="1.000000" fill-opacity="1.000000" />
<polygon points="352.35 , 653.79 406.05 , 653.79 406.05 , 637.79 352.35 , 637.79 " stroke-width="1px" stroke="#000000" fill="#CCFFCC" stroke-opacity="1.000000" fill-opacity="1.000000" />
<polygon points="416.99 , 653.79 456.11 , 653.79 456.11 , 637.79 416.99 , 637.79 " stroke-width="1px" stroke="#000000" fill="#BFF1FF" stroke-opacity="1.000000" fill-opacity="1.000000" />
<polygon points="467.05 , 653.79 519.21 , 653.79 519.21 , 637.79 467.05 , 637.79 " stroke-width="1px" stroke="#000000" fill="#CCCCFF" stroke-opacity="1.000000" fill-opacity="1.000000" />
<polygon points="530.15 , 653.79 576.95 , 653.79 576.95 , 637.79 530.15 , 637.79 " stroke-width="1px" stroke="#000000" fill="#FFBFCF" stroke-opacity="1.000000" fill-opacity="1.000000" />
<polygon points="587.89 , 653.79 598.63 , 653.79 598.63 , 637.79 587.89 , 637.79 " stroke-width="1px" stroke="#000000" fill="#FFFFAA" stroke-opacity="1.000000" fill-opacity="1.000000" />
<polygon points="609.57 , 653.79 612.64 , 653.79 612.64 , 637.79 609.57 , 637.79 " stroke-width="1px" stroke="#000000" fill="#FFCC99" stroke-opacity="1.000000" fill-opacity="1.000000" />
<polygon points="623.58 , 653.79 624.34 , 653.79 624.34 , 637.79 623.58 , 637.79 " stroke-width="1px" stroke="#000000" fill="#CCFFCC" stroke-opacity="1.000000" fill-opacity="1.000000" />
<polygon points="635.29 , 653.79 639.12 , 653.79 639.12 , 637.79 635.29 , 637.79 " stroke-width="1px" stroke="#000000" fill="#BFF1FF" stroke-opacity="1.000000" fill-opacity="1.000000" />
<polygon points="650.06 , 653.79 653.13 , 653.79 653.13 , 637.79 650.06 , 637.79 " stroke-width="1px" stroke="#000000" fill="#CCCCFF" stroke-opacity="1.000000" fill-opacity="1.000000" />
<polygon points="664.07 , 653.79 667.14 , 653.79 667.14 , 637.79 664.07 , 637.79 " stroke-width="1px" stroke="#000000" fill="#FFBFCF" stroke-opacity="1.000000" fill-opacity="1.000000" />
<polygon points="120.08 , 664.96 221.11 , 664.96 221.11 , 661.80 120.08 , 661.80 " stroke-width="1px" stroke="#000000" fill="#FFBFCF" stroke-opacity="1.000000" fill-opacity="1.000000" />
<polygon points="232.05 , 664.96 301.99 , 664.96 301.99 , 661.80 232.05 , 661.80 " stroke-width="1px" stroke="#000000" fill="#FFFFAA" stroke-opacity="1.000000" fill-opacity="1.000000" />
<polygon points="312.93 , 664.96 359.56 , 664.96 359.56 , 661.80 312.93 , 661.80 " stroke-width="1px" stroke="#000000" fill="#FFCC99" stroke-opacity="1.000000" fill-opacity="1.000000" />
<polygon points="370.50 , 664.96 436.56 , 664.96 436.56 , 661.80 370.50 , 661.80 " stroke-width="1px" stroke="#000000" fill="#CCFFCC" stroke-opacity="1.000000" fill-opacity="1.000000" />
<polygon points="447.50 , 664.96 494.13 , 664.96 494.13 , 661.80 447.50 , 661.80 " stroke-width="1px" stroke="#000000" fill="#BFF1FF" stroke-opacity="1.000000" fill-opacity="1.000000" />
<polygon points="505.07 , 664.96 528.38 , 664.96 528.38 , 661.80 505.07 , 661.80 " stroke-width="1px" stroke="#000000" fill="#CCCCFF" stroke-opacity="1.000000" fill-opacity="1.000000" />
<polygon points="539.32 , 664.96 585.95 , 664.96 585.95 , 661.80 539.32 , 661.80 " stroke-width="1px" stroke="#000000" fill="#FFBFCF" stroke-opacity="1.000000" fill-opacity="1.000000" />
<polygon points="596.89 , 664.96 604.66 , 664.96 604.66 , 661.80 596.89 , 661.80 " stroke-width="1px" stroke="#000000" fill="#FFFFAA" stroke-opacity="1.000000" fill-opacity="1.000000" />
<line x1="615.60" y1="664.96" x2="615.60" y2="664.32" stroke-width="1px" stroke="#000000" fill="#000000" stroke-opacity="1.000000" fill-opacity="0.000000"/>
<line x1="615.60" y1="663.69" x2="615.60" y2="663.06" stroke-width="1px" stroke="#000000" fill="#000000" stroke-opacity="1.000000" fill-opacity="0.000000"/>
<line x1="615.60" y1="662.43" x2="615.60" y2="661.80" stroke-width="1px" stroke="#000000" fill="#000000" stroke-opacity="1.000000" fill-opacity="0.000000"/>
<line x1="626.55" y1="664.96" x2="626.55" y2="664.32" stroke-width="1px" stroke="#000000" fill="#000000" stroke-opacity="1.000000" fill-opacity="0.000000"/>
<line x1="626.55" y1="663.69" x2="626.55" y2="663.06" stroke-width="1px" stroke="#000000" fill="#000000" stroke-opacity="1.000000" fill-opacity="0.000000"/>
<line x1="626.55" y1="662.43" x2="626.55" y2="661.80" stroke-width="1px" stroke="#000000" fill="#000000" stroke-opacity="1.000000" fill-opacity="0.000000"/>
<polygon points="637.49 , 664.96 641.37 , 664.96 641.37 , 661.80 637.49 , 661.80 " stroke-width="1px" stroke="#000000" fill="#BFF1FF" stroke-opacity="1.000000" fill-opacity="1.000000" />
<polygon points="652.31 , 664.96 656.20 , 664.96 656.20 , 661.80 652.31 , 661.80 " stroke-width="1px" stroke="#000000" fill="#CCCCFF" stroke-opacity="1.000000" fill-opacity="1.000000" />
<line x1="667.14" y1="664.96" x2="667.14" y2="664.32" stroke-width="1px" stroke="#000000" fill="#000000" stroke-opacity="1.000000" fill-opacity="0.000000"/>
<line x1="667.14" y1="663.69" x2="667.14" y2="663.06" stroke-width="1px" stroke="#000000" fill="#000000" stroke-opacity="1.000000" fill-opacity="0.000000"/>
<line x1="667.14" y1="662.43" x2="667.14" y2="661.80" stroke-width="1px" stroke="#000000" fill="#000000" stroke-opacity="1.000000" fill-opacity="0.000000"/>
</svg>
