<?xml version="1.0" encoding="UTF-8" standalone="no"?>
<!DOCTYPE svg PUBLIC "-//W3C//DTD SVG 1.1//EN"
 "http://www.w3.org/Graphics/SVG/1.1/DTD/svg11.dtd">
<!-- Generated by graphviz version 2.38.0 (20140413.2041)
 -->
<!-- Title: g Pages: 1 -->
<svg width="414pt" height="434pt"
 viewBox="0.00 0.00 414.00 433.68" xmlns="http://www.w3.org/2000/svg" xmlns:xlink="http://www.w3.org/1999/xlink">
<g id="graph0" class="graph" transform="scale(1 1) rotate(0) translate(194 230)">
<title>g</title>
<polygon fill="white" stroke="none" points="-194,203.68 -194,-230 220,-230 220,203.68 -194,203.68"/>
<!-- 肌 -->
<g id="node1" class="node"><title>肌</title>
<ellipse fill="#ffdbeb" stroke="#ff1c62" cx="-19.702" cy="-3.00783" rx="18" ry="18"/>
<text text-anchor="middle" x="-19.702" y="-1.10783" font-family="arialuni.ttf" font-size="8.00">肌</text>
</g>
<!-- 自然 -->
<g id="node2" class="node"><title>自然</title>
<ellipse fill="#ffdbeb" stroke="#ff1c62" cx="-38.8815" cy="45.5022" rx="18" ry="18"/>
<text text-anchor="middle" x="-38.8815" y="47.4022" font-family="arialuni.ttf" font-size="8.00">自然</text>
</g>
<!-- 肌&#45;&gt;自然 -->
<g id="edge10" class="edge"><title>肌&#45;&gt;自然</title>
<path fill="none" stroke="#ff1c62" d="M-26.4101,13.9586C-27.0488,15.574 -27.7062,17.237 -28.3697,18.915"/>
<polygon fill="#ff1c62" stroke="#ff1c62" points="-25.2131,20.4507 -32.1448,28.4633 -31.7228,17.8769 -25.2131,20.4507"/>
</g>
<!-- 価格# -->
<g id="node3" class="node"><title>価格#</title>
<ellipse fill="#ffdbeb" stroke="#ff1c62" cx="-49.372" cy="98.2557" rx="18" ry="18"/>
<text text-anchor="middle" x="-49.372" y="100.156" font-family="arialuni.ttf" font-size="8.00">価格#</text>
</g>
<!-- 肌&#45;&gt;価格# -->
<g id="edge9" class="edge"><title>肌&#45;&gt;価格#</title>
<path fill="none" stroke="#ff1c62" d="M-24.8701,14.6309C-29.4437,30.2405 -36.1884,53.2603 -41.4442,71.1981"/>
<polygon fill="#ff1c62" stroke="#ff1c62" points="-38.0925,72.2067 -44.2631,80.8191 -44.8101,70.2384 -38.0925,72.2067"/>
</g>
<!-- 色 -->
<g id="node4" class="node"><title>色</title>
<ellipse fill="#ffdbeb" stroke="#cf00bd" cx="-5.68951" cy="36.9526" rx="18" ry="18"/>
<text text-anchor="middle" x="-5.68951" y="38.8526" font-family="arialuni.ttf" font-size="8.00">色</text>
</g>
<!-- 肌&#45;&gt;色 -->
<g id="edge3" class="edge"><title>肌&#45;&gt;色</title>
<path fill="none" stroke="#ff1c62" d="M-13.6781,14.1709C-13.6373,14.2873 -13.5965,14.4037 -13.5556,14.5203"/>
<polygon fill="#ff1c62" stroke="#ff1c62" points="-11.7146,9.19354 -11.7083,19.7884 -18.3203,11.51 -11.7146,9.19354"/>
</g>
<!-- 自分 -->
<g id="node5" class="node"><title>自分</title>
<ellipse fill="#ffdbeb" stroke="#cf00bd" cx="31.7972" cy="73.9173" rx="18" ry="18"/>
<text text-anchor="middle" x="31.7972" y="75.8173" font-family="arialuni.ttf" font-size="8.00">自分</text>
</g>
<!-- 肌&#45;&gt;自分 -->
<g id="edge2" class="edge"><title>肌&#45;&gt;自分</title>
<path fill="none" stroke="#ff1c62" d="M-9.52741,12.1901C-2.26227,23.0421 7.65254,37.852 15.9494,50.2451"/>
<polygon fill="#ff1c62" stroke="#ff1c62" points="18.989,48.4941 21.6438,58.7509 13.1722,52.3883 18.989,48.4941"/>
</g>
<!-- 感じ -->
<g id="node6" class="node"><title>感じ</title>
<ellipse fill="#ffffff" stroke="#cf00bd" cx="44.1645" cy="49.8052" rx="18" ry="18"/>
<text text-anchor="middle" x="44.1645" y="51.7052" font-family="arialuni.ttf" font-size="8.00">感じ</text>
</g>
<!-- 肌&#45;&gt;感じ -->
<g id="edge8" class="edge"><title>肌&#45;&gt;感じ</title>
<path fill="none" stroke="#ff1c62" d="M-5.52795,8.71309C2.57526,15.4138 12.9155,23.9645 22.063,31.5288"/>
<polygon fill="#ff1c62" stroke="#ff1c62" points="24.5541,29.0471 30.0301,38.117 20.0932,34.4416 24.5541,29.0471"/>
</g>
<!-- 綺麗# -->
<g id="node7" class="node"><title>綺麗#</title>
<ellipse fill="#ffffff" stroke="#cf00bd" cx="-60.9748" cy="15.1032" rx="18" ry="18"/>
<text text-anchor="middle" x="-60.9748" y="17.0032" font-family="arialuni.ttf" font-size="8.00">綺麗#</text>
</g>
<!-- 肌&#45;&gt;綺麗# -->
<g id="edge4" class="edge"><title>肌&#45;&gt;綺麗#</title>
<path fill="none" stroke="#ff1c62" d="M-36.4892,4.35862C-36.651,4.42962 -36.8132,4.50076 -36.9756,4.57203"/>
<polygon fill="#ff1c62" stroke="#ff1c62" points="-33.7727,6.98865 -44.3363,7.80199 -36.5855,0.578639 -33.7727,6.98865"/>
</g>
<!-- 仕上がり -->
<g id="node8" class="node"><title>仕上がり</title>
<ellipse fill="#ffffff" stroke="#cf00bd" cx="3.78138" cy="73.3795" rx="18" ry="18"/>
<text text-anchor="middle" x="3.78138" y="75.2795" font-family="arialuni.ttf" font-size="8.00">仕上がり</text>
</g>
<!-- 肌&#45;&gt;仕上がり -->
<g id="edge28" class="edge"><title>肌&#45;&gt;仕上がり</title>
<path fill="none" stroke="#ff1c62" d="M-14.3733,14.3256C-11.4608,23.7993 -7.78908,35.7429 -4.51096,46.406"/>
<polygon fill="#ff1c62" stroke="#ff1c62" points="-1.11939,45.5276 -1.52628,56.1147 -7.81035,47.5847 -1.11939,45.5276"/>
</g>
<!-- カバー力 -->
<g id="node9" class="node"><title>カバー力</title>
<ellipse fill="#ffffff" stroke="#cf00bd" cx="-72.2267" cy="58.6704" rx="18" ry="18"/>
<text text-anchor="middle" x="-72.2267" y="60.5704" font-family="arialuni.ttf" font-size="8.00">カバー力</text>
</g>
<!-- 肌&#45;&gt;カバー力 -->
<g id="edge13" class="edge"><title>肌&#45;&gt;カバー力</title>
<path fill="none" stroke="#ff1c62" d="M-31.6207,10.9879C-38.1348,18.6373 -46.3473,28.281 -53.6794,36.8909"/>
<polygon fill="#ff1c62" stroke="#ff1c62" points="-51.2069,39.3858 -60.3552,44.73 -56.5363,34.8473 -51.2069,39.3858"/>
</g>
<!-- 手頃# -->
<g id="node10" class="node"><title>手頃#</title>
<ellipse fill="#ffffff" stroke="#cf00bd" cx="-105.652" cy="46.7467" rx="18" ry="18"/>
<text text-anchor="middle" x="-105.652" y="48.6467" font-family="arialuni.ttf" font-size="8.00">手頃#</text>
</g>
<!-- 肌&#45;&gt;手頃# -->
<g id="edge18" class="edge"><title>肌&#45;&gt;手頃#</title>
<path fill="none" stroke="#ff1c62" d="M-35.4666,6.11791C-48.1882,13.4821 -66.3139,23.9747 -80.9585,32.4521"/>
<polygon fill="#ff1c62" stroke="#ff1c62" points="-79.5796,35.6979 -89.9877,37.6788 -83.0866,29.6397 -79.5796,35.6979"/>
</g>
<!-- 伸び -->
<g id="node11" class="node"><title>伸び</title>
<ellipse fill="#ffffff" stroke="#cf00bd" cx="-25.1648" cy="82.7811" rx="18" ry="18"/>
<text text-anchor="middle" x="-25.1648" y="84.6811" font-family="arialuni.ttf" font-size="8.00">伸び</text>
</g>
<!-- 肌&#45;&gt;伸び -->
<g id="edge11" class="edge"><title>肌&#45;&gt;伸び</title>
<path fill="none" stroke="#ff1c62" d="M-20.8605,15.1858C-21.5848,26.5597 -22.5329,41.4486 -23.3549,54.357"/>
<polygon fill="#ff1c62" stroke="#ff1c62" points="-19.8795,54.8563 -24.008,64.6137 -26.8653,54.4114 -19.8795,54.8563"/>
</g>
<!-- 薄付き -->
<g id="node12" class="node"><title>薄付き</title>
<ellipse fill="#ffffff" stroke="#cf00bd" cx="-111.824" cy="10.4175" rx="18" ry="18"/>
<text text-anchor="middle" x="-111.824" y="12.3175" font-family="arialuni.ttf" font-size="8.00">薄付き</text>
</g>
<!-- 肌&#45;&gt;薄付き -->
<g id="edge44" class="edge"><title>肌&#45;&gt;薄付き</title>
<path fill="none" stroke="#ff1c62" d="M-37.9023,-0.355408C-50.9826,1.55084 -68.8644,4.15684 -83.764,6.32823"/>
<polygon fill="#ff1c62" stroke="#ff1c62" points="-83.5746,9.83753 -93.9748,7.81631 -84.5841,2.9107 -83.5746,9.83753"/>
</g>
<!-- 毛穴 -->
<g id="node13" class="node"><title>毛穴</title>
<ellipse fill="#ffffff" stroke="#cf00bd" cx="-78.8463" cy="-46.8712" rx="18" ry="18"/>
<text text-anchor="middle" x="-78.8463" y="-44.9712" font-family="arialuni.ttf" font-size="8.00">毛穴</text>
</g>
<!-- 肌&#45;&gt;毛穴 -->
<g id="edge31" class="edge"><title>肌&#45;&gt;毛穴</title>
<path fill="none" stroke="#ff1c62" d="M-34.3219,-13.8505C-40.8129,-18.6643 -48.608,-24.4454 -55.8491,-29.8157"/>
<polygon fill="#ff1c62" stroke="#ff1c62" points="-58.0365,-27.0804 -63.9838,-35.8486 -53.8667,-32.7029 -58.0365,-27.0804"/>
</g>
<!-- ファンデーション -->
<g id="node16" class="node"><title>ファンデーション</title>
<ellipse fill="#ffffff" stroke="gray" cx="-82.4035" cy="-78.1868" rx="34.1647" ry="18"/>
<text text-anchor="middle" x="-82.4035" y="-76.2868" font-family="arialuni.ttf" font-size="8.00">ファンデーション</text>
</g>
<!-- 肌&#45;&gt;ファンデーション -->
<g id="edge23" class="edge"><title>肌&#45;&gt;ファンデーション</title>
<path fill="none" stroke="#ff1c62" d="M-31.4957,-17.1484C-40.0274,-27.3779 -51.7764,-41.4649 -61.8377,-53.5285"/>
<polygon fill="#ff1c62" stroke="#ff1c62" points="-64.7562,-51.5632 -68.4734,-61.4846 -59.3805,-56.0468 -64.7562,-51.5632"/>
</g>
<!-- 透明感 -->
<g id="node17" class="node"><title>透明感</title>
<ellipse fill="#ffffff" stroke="#cf00bd" cx="-103.219" cy="-15.2144" rx="18" ry="18"/>
<text text-anchor="middle" x="-103.219" y="-13.3144" font-family="arialuni.ttf" font-size="8.00">透明感</text>
</g>
<!-- 肌&#45;&gt;透明感 -->
<g id="edge41" class="edge"><title>肌&#45;&gt;透明感</title>
<path fill="none" stroke="#ff1c62" d="M-37.8239,-5.65648C-48.6586,-7.24006 -62.6588,-9.28629 -74.9238,-11.0789"/>
<polygon fill="#ff1c62" stroke="#ff1c62" points="-75.7435,-7.66145 -85.1322,-12.5709 -74.7311,-14.5879 -75.7435,-7.66145"/>
</g>
<!-- 付け心地 -->
<g id="node18" class="node"><title>付け心地</title>
<ellipse fill="#ffffff" stroke="gray" cx="-114.564" cy="-48.0314" rx="18" ry="18"/>
<text text-anchor="middle" x="-114.564" y="-46.1314" font-family="arialuni.ttf" font-size="8.00">付け心地</text>
</g>
<!-- 肌&#45;&gt;付け心地 -->
<g id="edge35" class="edge"><title>肌&#45;&gt;付け心地</title>
<path fill="none" stroke="#ff1c62" d="M-36.2258,-10.8503C-50.7805,-17.7583 -72.2128,-27.9305 -88.9823,-35.8896"/>
<polygon fill="#ff1c62" stroke="#ff1c62" points="-90.6965,-32.829 -98.2299,-40.2787 -87.6951,-39.1528 -90.6965,-32.829"/>
</g>
<!-- 無添加 -->
<g id="node19" class="node"><title>無添加</title>
<ellipse fill="#ffffff" stroke="gray" cx="14.9713" cy="-94.7366" rx="18" ry="18"/>
<text text-anchor="middle" x="14.9713" y="-92.8366" font-family="arialuni.ttf" font-size="8.00">無添加</text>
</g>
<!-- 肌&#45;&gt;無添加 -->
<g id="edge26" class="edge"><title>肌&#45;&gt;無添加</title>
<path fill="none" stroke="#ff1c62" d="M-13.1802,-20.2613C-8.0629,-33.7993 -0.852448,-52.8747 4.98991,-68.3307"/>
<polygon fill="#ff1c62" stroke="#ff1c62" points="1.78608,-69.7539 8.59587,-77.8704 8.33392,-67.2788 1.78608,-69.7539"/>
</g>
<!-- のり -->
<g id="node21" class="node"><title>のり</title>
<ellipse fill="#ffffff" stroke="gray" cx="28.5352" cy="-63.4362" rx="18" ry="18"/>
<text text-anchor="middle" x="28.5352" y="-61.5362" font-family="arialuni.ttf" font-size="8.00">のり</text>
</g>
<!-- 肌&#45;&gt;のり -->
<g id="edge27" class="edge"><title>肌&#45;&gt;のり</title>
<path fill="none" stroke="#ff1c62" d="M-8.27045,-17.3285C-2.56347,-24.4778 4.46838,-33.2869 10.8515,-41.2832"/>
<polygon fill="#ff1c62" stroke="#ff1c62" points="8.21169,-43.5865 17.1857,-49.2183 13.6824,-39.2194 8.21169,-43.5865"/>
</g>
<!-- 負担 -->
<g id="node23" class="node"><title>負担</title>
<ellipse fill="#ffffff" stroke="gray" cx="75.077" cy="-9.22345" rx="18" ry="18"/>
<text text-anchor="middle" x="75.077" y="-7.32345" font-family="arialuni.ttf" font-size="8.00">負担</text>
</g>
<!-- 肌&#45;&gt;負担 -->
<g id="edge12" class="edge"><title>肌&#45;&gt;負担</title>
<path fill="none" stroke="#ff1c62" d="M-1.42764,-4.20626C12.2087,-5.10054 31.0963,-6.33919 46.6924,-7.36198"/>
<polygon fill="#ff1c62" stroke="#ff1c62" points="46.6512,-10.8667 56.8588,-8.02869 47.1093,-3.88171 46.6512,-10.8667"/>
</g>
<!-- 気 -->
<g id="node24" class="node"><title>気</title>
<ellipse fill="#ffffff" stroke="gray" cx="73.7658" cy="15.9177" rx="18" ry="18"/>
<text text-anchor="middle" x="73.7658" y="17.8177" font-family="arialuni.ttf" font-size="8.00">気</text>
</g>
<!-- 肌&#45;&gt;気 -->
<g id="edge32" class="edge"><title>肌&#45;&gt;気</title>
<path fill="none" stroke="#ff1c62" d="M-1.68046,0.641198C11.8534,3.38156 30.6326,7.18398 46.0692,10.3096"/>
<polygon fill="#ff1c62" stroke="#ff1c62" points="47.0101,6.92902 56.1166,12.344 45.6209,13.7898 47.0101,6.92902"/>
</g>
<!-- 私 -->
<g id="node25" class="node"><title>私</title>
<ellipse fill="#ffffff" stroke="gray" cx="56.6789" cy="-55.623" rx="18" ry="18"/>
<text text-anchor="middle" x="56.6789" y="-53.723" font-family="arialuni.ttf" font-size="8.00">私</text>
</g>
<!-- 肌&#45;&gt;私 -->
<g id="edge29" class="edge"><title>肌&#45;&gt;私</title>
<path fill="none" stroke="#ff1c62" d="M-4.61158,-13.4029C6.16369,-20.8255 20.8688,-30.9551 33.1742,-39.4317"/>
<polygon fill="#ff1c62" stroke="#ff1c62" points="31.3991,-42.459 41.6199,-45.2495 35.3702,-36.6943 31.3991,-42.459"/>
</g>
<!-- フィット -->
<g id="node31" class="node"><title>フィット</title>
<ellipse fill="#ffffff" stroke="gray" cx="-24.1228" cy="-88.9145" rx="18" ry="18"/>
<text text-anchor="middle" x="-24.1228" y="-87.0145" font-family="arialuni.ttf" font-size="8.00">フィット</text>
</g>
<!-- 肌&#45;&gt;フィット -->
<g id="edge37" class="edge"><title>肌&#45;&gt;フィット</title>
<path fill="none" stroke="#ff1c62" d="M-20.6395,-21.2264C-21.2256,-32.616 -21.9929,-47.5253 -22.6581,-60.4514"/>
<polygon fill="#ff1c62" stroke="#ff1c62" points="-26.168,-60.5555 -23.1866,-70.7222 -19.1772,-60.9153 -26.168,-60.5555"/>
</g>
<!-- 自然&#45;&gt;価格# -->
<g id="edge46" class="edge"><title>自然&#45;&gt;価格#</title>
<path fill="none" stroke="#ff1c62" d="M-42.4331,63.3621C-42.8945,65.6824 -43.3755,68.1012 -43.8596,70.5353"/>
<polygon fill="#ff1c62" stroke="#ff1c62" points="-40.4408,71.2889 -45.8241,80.4142 -47.3064,69.9236 -40.4408,71.2889"/>
</g>
<!-- 自然&#45;&gt;色 -->
<g id="edge20" class="edge"><title>自然&#45;&gt;色</title>
<path fill="none" stroke="#ff1c62" d="M-21.1195,40.9271C-21.0578,40.9112 -20.9962,40.8953 -20.9346,40.8794"/>
<polygon fill="#ff1c62" stroke="#ff1c62" points="-31.3083,39.9407 -20.7498,40.8319 -29.5595,46.7196 -31.3083,39.9407"/>
</g>
<!-- 自然&#45;&gt;自分 -->
<g id="edge75" class="edge"><title>自然&#45;&gt;自分</title>
<path fill="none" stroke="#ff1c62" d="M-22.1316,52.2362C-13.9775,55.5144 -3.97751,59.5347 5.18698,63.2191"/>
<polygon fill="#ff1c62" stroke="#ff1c62" points="6.70392,60.0566 14.6766,67.0342 4.09278,66.5514 6.70392,60.0566"/>
</g>
<!-- 自然&#45;&gt;感じ -->
<g id="edge6" class="edge"><title>自然&#45;&gt;感じ</title>
<path fill="none" stroke="#ff1c62" d="M-20.8618,46.4359C-10.0881,46.9941 3.8332,47.7154 16.029,48.3473"/>
<polygon fill="#ff1c62" stroke="#ff1c62" points="16.3745,44.8604 26.1799,48.8733 16.0122,51.8511 16.3745,44.8604"/>
</g>
<!-- 自然&#45;&gt;綺麗# -->
<g id="edge56" class="edge"><title>自然&#45;&gt;綺麗#</title>
<path fill="none" stroke="#ff1c62" d="M-49.6693,30.6589C-49.7569,30.5383 -49.8446,30.4177 -49.9322,30.2971"/>
<polygon fill="#ff1c62" stroke="#ff1c62" points="-47.1465,40.0831 -50.1951,29.9354 -41.4837,35.967 -47.1465,40.0831"/>
</g>
<!-- 自然&#45;&gt;仕上がり -->
<g id="edge5" class="edge"><title>自然&#45;&gt;仕上がり</title>
<path fill="none" stroke="#ff1c62" d="M-23.4792,55.5666C-22.3783,56.2859 -21.2546,57.0202 -20.1209,57.761"/>
<polygon fill="#ff1c62" stroke="#ff1c62" points="-17.912,55.0233 -11.4553,63.4234 -21.7411,60.8833 -17.912,55.0233"/>
</g>
<!-- 自然&#45;&gt;カバー力 -->
<g id="edge21" class="edge"><title>自然&#45;&gt;カバー力</title>
<path fill="none" stroke="#ff1c62" d="M-55.9448,52.2406C-56.0089,52.2659 -56.073,52.2912 -56.1371,52.3165"/>
<polygon fill="#ff1c62" stroke="#ff1c62" points="-45.7413,51.9718 -56.3293,52.3924 -48.3145,45.4608 -45.7413,51.9718"/>
</g>
<!-- 自然&#45;&gt;伸び -->
<g id="edge33" class="edge"><title>自然&#45;&gt;伸び</title>
<path fill="none" stroke="#ff1c62" d="M-32.6653,62.3965C-32.6157,62.5313 -32.566,62.6663 -32.5163,62.8013"/>
<polygon fill="#ff1c62" stroke="#ff1c62" points="-31.6398,55.0483 -31.4712,65.6419 -38.2092,57.4657 -31.6398,55.0483"/>
</g>
<!-- 自然&#45;&gt;薄付き -->
<g id="edge42" class="edge"><title>自然&#45;&gt;薄付き</title>
<path fill="none" stroke="#ff1c62" d="M-55.4333,37.5409C-64.5433,33.1591 -76.0453,27.6267 -86.2818,22.7031"/>
<polygon fill="#ff1c62" stroke="#ff1c62" points="-88.0943,25.7152 -95.5889,18.2264 -85.06,19.4069 -88.0943,25.7152"/>
</g>
<!-- 自然&#45;&gt;透明感 -->
<g id="edge65" class="edge"><title>自然&#45;&gt;透明感</title>
<path fill="none" stroke="#ff1c62" d="M-52.2122,32.9217C-60.9249,24.6993 -72.4843,13.7904 -82.3956,4.43687"/>
<polygon fill="#ff1c62" stroke="#ff1c62" points="-85.0345,6.75895 -89.9051,-2.65002 -80.2301,1.66801 -85.0345,6.75895"/>
</g>
<!-- 価格#&#45;&gt;色 -->
<g id="edge19" class="edge"><title>価格#&#45;&gt;色</title>
<path fill="none" stroke="#ff1c62" d="M-38.7977,83.416C-33.754,76.3378 -27.6065,67.7105 -21.9841,59.8202"/>
<polygon fill="#ff1c62" stroke="#ff1c62" points="-24.82,57.7686 -16.1664,51.6557 -19.1192,61.8308 -24.82,57.7686"/>
</g>
<!-- 価格#&#45;&gt;自分 -->
<g id="edge43" class="edge"><title>価格#&#45;&gt;自分</title>
<path fill="none" stroke="#ff1c62" d="M-31.7595,92.9747C-21.0501,89.7635 -7.15856,85.5981 4.90475,81.9809"/>
<polygon fill="#ff1c62" stroke="#ff1c62" points="3.914,78.6241 14.4979,79.1044 5.92455,85.3292 3.914,78.6241"/>
</g>
<!-- 価格#&#45;&gt;仕上がり -->
<g id="edge59" class="edge"><title>価格#&#45;&gt;仕上がり</title>
<path fill="none" stroke="#ff1c62" d="M-32.8453,90.5211C-29.3121,88.8675 -25.5009,87.0839 -21.7189,85.3139"/>
<polygon fill="#ff1c62" stroke="#ff1c62" points="-23.0933,82.0928 -12.5525,81.0239 -20.1261,88.4328 -23.0933,82.0928"/>
</g>
<!-- 価格#&#45;&gt;カバー力 -->
<g id="edge30" class="edge"><title>価格#&#45;&gt;カバー力</title>
<path fill="none" stroke="#ff1c62" d="M-58.4048,82.6106C-58.4531,82.5268 -58.5015,82.443 -58.55,82.359"/>
<polygon fill="#ff1c62" stroke="#ff1c62" points="-61.1408,84.8716 -63.1097,74.4613 -55.0786,81.3716 -61.1408,84.8716"/>
</g>
<!-- 価格#&#45;&gt;手頃# -->
<g id="edge1" class="edge"><title>価格#&#45;&gt;手頃#</title>
<path fill="none" stroke="#ff1c62" d="M-62.7096,86.0488C-69.2026,80.1063 -77.1655,72.8185 -84.463,66.1396"/>
<polygon fill="#ff1c62" stroke="#ff1c62" points="-87.0056,68.5572 -92.0194,59.2238 -82.2796,63.3934 -87.0056,68.5572"/>
</g>
<!-- 価格#&#45;&gt;伸び -->
<g id="edge49" class="edge"><title>価格#&#45;&gt;伸び</title>
<path fill="none" stroke="#ff1c62" d="M-34.1787,88.5433C-34.1027,88.4947 -34.0269,88.4462 -33.9512,88.3979"/>
<polygon fill="#ff1c62" stroke="#ff1c62" points="-44.0368,90.6919 -33.7249,88.2532 -40.2653,96.5902 -44.0368,90.6919"/>
</g>
<!-- わり -->
<g id="node36" class="node"><title>わり</title>
<ellipse fill="#ffffff" stroke="gray" cx="-111.311" cy="154.476" rx="18" ry="18"/>
<text text-anchor="middle" x="-111.311" y="156.376" font-family="arialuni.ttf" font-size="8.00">わり</text>
</g>
<!-- 価格#&#45;&gt;わり -->
<g id="edge62" class="edge"><title>価格#&#45;&gt;わり</title>
<path fill="none" stroke="#ff1c62" d="M-62.8119,110.455C-70.8474,117.748 -81.2306,127.173 -90.3268,135.429"/>
<polygon fill="#ff1c62" stroke="#ff1c62" points="-88.1408,138.172 -97.8978,142.301 -92.8455,132.988 -88.1408,138.172"/>
</g>
<!-- 品質 -->
<g id="node37" class="node"><title>品質</title>
<ellipse fill="#ffffff" stroke="gray" cx="6.83504" cy="173.648" rx="18" ry="18"/>
<text text-anchor="middle" x="6.83504" y="175.548" font-family="arialuni.ttf" font-size="8.00">品質</text>
</g>
<!-- 価格#&#45;&gt;品質 -->
<g id="edge68" class="edge"><title>価格#&#45;&gt;品質</title>
<path fill="none" stroke="#ff1c62" d="M-38.5347,112.792C-30.4479,123.639 -19.2469,138.663 -9.99798,151.069"/>
<polygon fill="#ff1c62" stroke="#ff1c62" points="-7.14004,149.047 -3.96897,159.156 -12.7521,153.231 -7.14004,149.047"/>
</g>
<!-- お手ごろ -->
<g id="node42" class="node"><title>お手ごろ</title>
<ellipse fill="#ffffff" stroke="gray" cx="-38.5992" cy="181.68" rx="18" ry="18"/>
<text text-anchor="middle" x="-38.5992" y="183.58" font-family="arialuni.ttf" font-size="8.00">お手ごろ</text>
</g>
<!-- 価格#&#45;&gt;お手ごろ -->
<g id="edge58" class="edge"><title>価格#&#45;&gt;お手ごろ</title>
<path fill="none" stroke="#ff1c62" d="M-47.0345,116.358C-45.6369,127.18 -43.831,141.165 -42.249,153.417"/>
<polygon fill="#ff1c62" stroke="#ff1c62" points="-38.7418,153.248 -40.9322,163.614 -45.6841,154.144 -38.7418,153.248"/>
</g>
<!-- 割り -->
<g id="node44" class="node"><title>割り</title>
<ellipse fill="#ffffff" stroke="gray" cx="-142.305" cy="118.371" rx="18" ry="18"/>
<text text-anchor="middle" x="-142.305" y="120.271" font-family="arialuni.ttf" font-size="8.00">割り</text>
</g>
<!-- 価格#&#45;&gt;割り -->
<g id="edge76" class="edge"><title>価格#&#45;&gt;割り</title>
<path fill="none" stroke="#ff1c62" d="M-67.2903,102.134C-80.6611,105.028 -99.1807,109.037 -114.473,112.347"/>
<polygon fill="#ff1c62" stroke="#ff1c62" points="-113.927,115.81 -124.441,114.505 -115.408,108.968 -113.927,115.81"/>
</g>
<!-- 色&#45;&gt;自分 -->
<g id="edge7" class="edge"><title>色&#45;&gt;自分</title>
<path fill="none" stroke="gray" d="M7.42154,49.8811C8.81503,51.2552 10.2543,52.6744 11.7044,54.1043"/>
<polygon fill="gray" stroke="gray" points="14.2203,51.6697 18.8833,61.1832 9.30533,56.6541 14.2203,51.6697"/>
</g>
<!-- 色&#45;&gt;綺麗# -->
<g id="edge40" class="edge"><title>色&#45;&gt;綺麗#</title>
<path fill="none" stroke="gray" d="M-22.5773,30.2784C-26.4355,28.7536 -30.6249,27.0979 -34.7709,25.4593"/>
<polygon fill="gray" stroke="gray" points="-36.1768,28.6672 -44.1904,21.7366 -33.6039,22.1571 -36.1768,28.6672"/>
</g>
<!-- 色&#45;&gt;カバー力 -->
<g id="edge48" class="edge"><title>色&#45;&gt;カバー力</title>
<path fill="none" stroke="gray" d="M-22.8245,42.5455C-29.6783,44.7826 -37.7376,47.4131 -45.3358,49.8932"/>
<polygon fill="gray" stroke="gray" points="-44.326,53.2453 -54.9185,53.021 -46.4981,46.5908 -44.326,53.2453"/>
</g>
<!-- 色&#45;&gt;伸び -->
<g id="edge47" class="edge"><title>色&#45;&gt;伸び</title>
<path fill="none" stroke="gray" d="M-12.8308,53.7572C-13.2013,54.629 -13.5771,55.5134 -13.956,56.4051"/>
<polygon fill="gray" stroke="gray" points="-10.892,58.144 -18.0244,65.9785 -17.3344,55.4062 -10.892,58.144"/>
</g>
<!-- 好き -->
<g id="node15" class="node"><title>好き</title>
<ellipse fill="#ffffff" stroke="gray" cx="-6.66176" cy="-46.7114" rx="18" ry="18"/>
<text text-anchor="middle" x="-6.66176" y="-44.8114" font-family="arialuni.ttf" font-size="8.00">好き</text>
</g>
<!-- 色&#45;&gt;好き -->
<g id="edge72" class="edge"><title>色&#45;&gt;好き</title>
<path fill="none" stroke="gray" d="M-5.90047,18.7988C-6.0266,7.94492 -6.18959,-6.07998 -6.33237,-18.3666"/>
<polygon fill="gray" stroke="gray" points="-9.83467,-18.553 -6.45121,-28.593 -2.83515,-18.6344 -9.83467,-18.553"/>
</g>
<!-- 肌色 -->
<g id="node22" class="node"><title>肌色</title>
<ellipse fill="#ffffff" stroke="gray" cx="124.214" cy="98.987" rx="18" ry="18"/>
<text text-anchor="middle" x="124.214" y="100.887" font-family="arialuni.ttf" font-size="8.00">肌色</text>
</g>
<!-- 自分&#45;&gt;肌色 -->
<g id="edge22" class="edge"><title>自分&#45;&gt;肌色</title>
<path fill="none" stroke="gray" d="M49.1801,78.6327C62.5197,82.2513 81.1957,87.3175 96.5777,91.4902"/>
<polygon fill="gray" stroke="gray" points="97.8597,88.2114 106.595,94.2075 96.027,94.9673 97.8597,88.2114"/>
</g>
<!-- 感じ&#45;&gt;伸び -->
<g id="edge53" class="edge"><title>感じ&#45;&gt;伸び</title>
<path fill="none" stroke="#cf00bd" d="M30.9071,62.4902C22.7662,67.4675 12.0741,72.822 2.20078,76.9508"/>
<polygon fill="#cf00bd" stroke="#cf00bd" points="3.3146,80.2726 -7.2748,80.6118 0.791805,73.743 3.3146,80.2726"/>
</g>
<!-- ナチュラル -->
<g id="node35" class="node"><title>ナチュラル</title>
<ellipse fill="#ffffff" stroke="#cf00bd" cx="79.2859" cy="126.438" rx="21.8791" ry="18"/>
<text text-anchor="middle" x="79.2859" y="128.338" font-family="arialuni.ttf" font-size="8.00">ナチュラル</text>
</g>
<!-- 感じ&#45;&gt;ナチュラル -->
<g id="edge73" class="edge"><title>感じ&#45;&gt;ナチュラル</title>
<path fill="none" stroke="gray" d="M51.7853,66.4334C56.3105,76.3071 62.1486,89.0456 67.2809,100.244"/>
<polygon fill="gray" stroke="gray" points="70.5741,99.0289 71.5587,109.578 64.2105,101.945 70.5741,99.0289"/>
</g>
<!-- 綺麗#&#45;&gt;仕上がり -->
<g id="edge14" class="edge"><title>綺麗#&#45;&gt;仕上がり</title>
<path fill="none" stroke="#cf00bd" d="M-44.4994,22.5257C-34.5663,29.682 -22.0728,40.5644 -12.2303,50.4827"/>
<polygon fill="#cf00bd" stroke="#cf00bd" points="-9.63619,48.1319 -5.30673,57.8018 -14.7215,52.9424 -9.63619,48.1319"/>
</g>
<!-- 綺麗#&#45;&gt;カバー力 -->
<g id="edge39" class="edge"><title>綺麗#&#45;&gt;カバー力</title>
<path fill="none" stroke="#cf00bd" d="M-58.869,33.2165C-58.9104,33.4372 -58.9529,33.6584 -58.9964,33.8799"/>
<polygon fill="#cf00bd" stroke="#cf00bd" points="-55.6811,35.0355 -61.6056,43.8191 -62.4517,33.2581 -55.6811,35.0355"/>
</g>
<!-- 綺麗#&#45;&gt;伸び -->
<g id="edge60" class="edge"><title>綺麗#&#45;&gt;伸び</title>
<path fill="none" stroke="#cf00bd" d="M-47.757,27.7661C-42.4857,35.6095 -36.7384,45.9447 -32.2194,55.5505"/>
<polygon fill="#cf00bd" stroke="#cf00bd" points="-28.977,54.2295 -28.173,64.7938 -35.3895,57.0367 -28.977,54.2295"/>
</g>
<!-- 綺麗#&#45;&gt;薄付き -->
<g id="edge67" class="edge"><title>綺麗#&#45;&gt;薄付き</title>
<path fill="none" stroke="#cf00bd" d="M-78.4944,19.9194C-80.718,19.9019 -83.0312,19.8004 -85.356,19.6222"/>
<polygon fill="#cf00bd" stroke="#cf00bd" points="-85.8909,23.0827 -95.3808,18.3718 -85.0244,16.1365 -85.8909,23.0827"/>
</g>
<!-- 綺麗#&#45;&gt;毛穴 -->
<g id="edge51" class="edge"><title>綺麗#&#45;&gt;毛穴</title>
<path fill="none" stroke="#cf00bd" d="M-71.5843,0.173598C-73.8483,-5.49412 -75.9836,-12.1458 -77.6599,-18.6361"/>
<polygon fill="#cf00bd" stroke="#cf00bd" points="-81.1074,-18.0154 -79.8687,-28.5376 -74.2753,-19.5396 -81.1074,-18.0154"/>
</g>
<!-- 仕上がり&#45;&gt;綺麗# -->
<g id="edge15" class="edge"><title>仕上がり&#45;&gt;綺麗#</title>
<path fill="none" stroke="#cf00bd" d="M-12.694,65.957C-22.6271,58.8007 -35.1206,47.9184 -44.9631,38"/>
<polygon fill="#cf00bd" stroke="#cf00bd" points="-47.5572,40.3508 -51.8867,30.6809 -42.472,35.5404 -47.5572,40.3508"/>
</g>
<!-- 仕上がり&#45;&gt;カバー力 -->
<g id="edge71" class="edge"><title>仕上がり&#45;&gt;カバー力</title>
<path fill="none" stroke="#cf00bd" d="M-14.1741,75.7309C-23.9173,74.9067 -36.1186,72.8016 -46.8198,70.1814"/>
<polygon fill="#cf00bd" stroke="#cf00bd" points="-47.7685,73.5506 -56.491,67.5365 -45.9219,66.7985 -47.7685,73.5506"/>
</g>
<!-- 仕上がり&#45;&gt;伸び -->
<g id="edge66" class="edge"><title>仕上がり&#45;&gt;伸び</title>
<path fill="none" stroke="#cf00bd" d="M-10.3119,85.0107C-10.3645,85.0252 -10.4171,85.0394 -10.4697,85.0536"/>
<polygon fill="#cf00bd" stroke="#cf00bd" points="-0.0611509,85.8915 -10.6275,85.0958 -1.87119,79.1285 -0.0611509,85.8915"/>
</g>
<!-- 仕上がり&#45;&gt;ナチュラル -->
<g id="edge52" class="edge"><title>仕上がり&#45;&gt;ナチュラル</title>
<path fill="none" stroke="gray" d="M18.6986,83.8623C28.7674,90.9378 42.3074,100.453 54.0337,108.693"/>
<polygon fill="gray" stroke="gray" points="56.3903,106.071 62.5597,114.685 52.3655,111.799 56.3903,106.071"/>
</g>
<!-- カバー力&#45;&gt;綺麗# -->
<g id="edge38" class="edge"><title>カバー力&#45;&gt;綺麗#</title>
<path fill="none" stroke="#cf00bd" d="M-74.3325,40.557C-74.2911,40.3364 -74.2486,40.1152 -74.205,39.8936"/>
<polygon fill="#cf00bd" stroke="#cf00bd" points="-77.5203,38.7381 -71.5959,29.9545 -70.7497,40.5155 -77.5203,38.7381"/>
</g>
<!-- カバー力&#45;&gt;仕上がり -->
<g id="edge70" class="edge"><title>カバー力&#45;&gt;仕上がり</title>
<path fill="none" stroke="#cf00bd" d="M-54.2712,56.319C-44.528,57.1432 -32.3267,59.2483 -21.6254,61.8685"/>
<polygon fill="#cf00bd" stroke="#cf00bd" points="-20.6768,58.4994 -11.9543,64.5135 -22.5234,65.2514 -20.6768,58.4994"/>
</g>
<!-- カバー力&#45;&gt;伸び -->
<g id="edge16" class="edge"><title>カバー力&#45;&gt;伸び</title>
<path fill="none" stroke="#cf00bd" d="M-54.1797,60.7767C-51.5476,61.8467 -48.8211,63.0958 -46.1388,64.4531"/>
<polygon fill="#cf00bd" stroke="#cf00bd" points="-44.385,61.4238 -37.3902,69.3815 -47.8207,67.5227 -44.385,61.4238"/>
</g>
<!-- カバー力&#45;&gt;薄付き -->
<g id="edge25" class="edge"><title>カバー力&#45;&gt;薄付き</title>
<path fill="none" stroke="#cf00bd" d="M-87.7552,49.3489C-91.7701,45.3446 -96.0024,40.5059 -99.8153,35.6088"/>
<polygon fill="#cf00bd" stroke="#cf00bd" points="-102.693,37.6017 -105.724,27.4494 -97.0238,33.4962 -102.693,37.6017"/>
</g>
<!-- 伸び&#45;&gt;感じ -->
<g id="edge54" class="edge"><title>伸び&#45;&gt;感じ</title>
<path fill="none" stroke="#cf00bd" d="M-11.9074,70.096C-3.76647,65.1187 6.92559,59.7642 16.7989,55.6354"/>
<polygon fill="#cf00bd" stroke="#cf00bd" points="15.6851,52.3136 26.2745,51.9744 18.2079,58.8432 15.6851,52.3136"/>
</g>
<!-- 伸び&#45;&gt;綺麗# -->
<g id="edge57" class="edge"><title>伸び&#45;&gt;綺麗#</title>
<path fill="none" stroke="#cf00bd" d="M-38.3826,70.1182C-43.6539,62.2747 -49.4013,51.9396 -53.9202,42.3338"/>
<polygon fill="#cf00bd" stroke="#cf00bd" points="-57.1626,43.6547 -57.9666,33.0904 -50.7501,40.8475 -57.1626,43.6547"/>
</g>
<!-- 伸び&#45;&gt;仕上がり -->
<g id="edge63" class="edge"><title>伸び&#45;&gt;仕上がり</title>
<path fill="none" stroke="#cf00bd" d="M-11.0715,71.1499C-11.0189,71.1354 -10.9663,71.1212 -10.9137,71.107"/>
<polygon fill="#cf00bd" stroke="#cf00bd" points="-21.3223,70.2691 -10.756,71.0648 -19.5123,77.0321 -21.3223,70.2691"/>
</g>
<!-- 伸び&#45;&gt;カバー力 -->
<g id="edge17" class="edge"><title>伸び&#45;&gt;カバー力</title>
<path fill="none" stroke="#cf00bd" d="M-43.2118,80.6747C-45.8439,79.6047 -48.5704,78.3556 -51.2527,76.9984"/>
<polygon fill="#cf00bd" stroke="#cf00bd" points="-53.0065,80.0276 -60.0013,72.07 -49.5708,73.9287 -53.0065,80.0276"/>
</g>
<!-- リキッド -->
<g id="node39" class="node"><title>リキッド</title>
<ellipse fill="#ffffff" stroke="gray" cx="-67.9821" cy="167.461" rx="18" ry="18"/>
<text text-anchor="middle" x="-67.9821" y="169.361" font-family="arialuni.ttf" font-size="8.00">リキッド</text>
</g>
<!-- 伸び&#45;&gt;リキッド -->
<g id="edge74" class="edge"><title>伸び&#45;&gt;リキッド</title>
<path fill="none" stroke="gray" d="M-33.4204,99.1082C-39.5808,111.291 -48.1134,128.166 -55.1591,142.101"/>
<polygon fill="gray" stroke="gray" points="-52.116,143.839 -59.7519,151.184 -58.3629,140.68 -52.116,143.839"/>
</g>
<!-- 薄付き&#45;&gt;綺麗# -->
<g id="edge69" class="edge"><title>薄付き&#45;&gt;綺麗#</title>
<path fill="none" stroke="#cf00bd" d="M-94.3043,5.60129C-92.0806,5.61886 -89.7675,5.72033 -87.4427,5.8985"/>
<polygon fill="#cf00bd" stroke="#cf00bd" points="-86.9077,2.43802 -77.4179,7.14896 -87.7742,9.38419 -86.9077,2.43802"/>
</g>
<!-- 薄付き&#45;&gt;カバー力 -->
<g id="edge24" class="edge"><title>薄付き&#45;&gt;カバー力</title>
<path fill="none" stroke="#cf00bd" d="M-96.2954,19.739C-92.2804,23.7433 -88.0481,28.582 -84.2352,33.4791"/>
<polygon fill="#cf00bd" stroke="#cf00bd" points="-81.357,31.4862 -78.3269,41.6385 -87.0267,35.5917 -81.357,31.4862"/>
</g>
<!-- 毛穴&#45;&gt;綺麗# -->
<g id="edge50" class="edge"><title>毛穴&#45;&gt;綺麗#</title>
<path fill="none" stroke="#cf00bd" d="M-68.2368,-31.9416C-65.9728,-26.2738 -63.8375,-19.6222 -62.1613,-13.1319"/>
<polygon fill="#cf00bd" stroke="#cf00bd" points="-58.7138,-13.7525 -59.9524,-3.23035 -65.5458,-12.2284 -58.7138,-13.7525"/>
</g>
<!-- カバー -->
<g id="node14" class="node"><title>カバー</title>
<ellipse fill="#ffffff" stroke="gray" cx="-52.5149" cy="-86.2177" rx="18" ry="18"/>
<text text-anchor="middle" x="-52.5149" y="-84.3177" font-family="arialuni.ttf" font-size="8.00">カバー</text>
</g>
<!-- 毛穴&#45;&gt;カバー -->
<g id="edge34" class="edge"><title>毛穴&#45;&gt;カバー</title>
<path fill="none" stroke="#cf00bd" d="M-74.7526,-64.6983C-74.2939,-65.5068 -73.8148,-66.3193 -73.3187,-67.1304"/>
<polygon fill="#cf00bd" stroke="#cf00bd" points="-76.0801,-69.291 -67.5163,-75.529 -70.3209,-65.3121 -76.0801,-69.291"/>
</g>
<!-- カバー&#45;&gt;肌 -->
<g id="edge61" class="edge"><title>カバー&#45;&gt;肌</title>
<path fill="none" stroke="gray" d="M-45.8747,-69.3789C-41.3382,-57.8748 -35.2354,-42.3987 -30.064,-29.2846"/>
<polygon fill="gray" stroke="gray" points="-26.7448,-30.4084 -26.3323,-19.8215 -33.2568,-27.8404 -26.7448,-30.4084"/>
</g>
<!-- カバー&#45;&gt;毛穴 -->
<g id="edge36" class="edge"><title>カバー&#45;&gt;毛穴</title>
<path fill="none" stroke="#cf00bd" d="M-56.6086,-68.3905C-57.0673,-67.582 -57.5464,-66.7696 -58.0425,-65.9585"/>
<polygon fill="#cf00bd" stroke="#cf00bd" points="-55.2811,-63.7978 -63.845,-57.5599 -61.0403,-67.7768 -55.2811,-63.7978"/>
</g>
<!-- 好き&#45;&gt;肌 -->
<g id="edge45" class="edge"><title>好き&#45;&gt;肌</title>
<path fill="none" stroke="gray" d="M-11.8156,-29.4386C-11.8432,-29.3462 -11.8708,-29.2536 -11.8985,-29.1609"/>
<polygon fill="gray" stroke="gray" points="-8.28695,-29.0234 -14.5001,-20.4416 -14.9947,-31.0249 -8.28695,-29.0234"/>
</g>
<!-- 無香料 -->
<g id="node33" class="node"><title>無香料</title>
<ellipse fill="#ffffff" stroke="gray" cx="49.6719" cy="-169.964" rx="18" ry="18"/>
<text text-anchor="middle" x="49.6719" y="-168.064" font-family="arialuni.ttf" font-size="8.00">無香料</text>
</g>
<!-- 無添加&#45;&gt;無香料 -->
<g id="edge55" class="edge"><title>無添加&#45;&gt;無香料</title>
<path fill="none" stroke="gray" d="M22.6724,-111.432C27.151,-121.141 32.8872,-133.576 37.9196,-144.486"/>
<polygon fill="gray" stroke="gray" points="34.7447,-145.96 42.1116,-153.574 41.1011,-143.028 34.7447,-145.96"/>
</g>
<!-- 化粧崩れ -->
<g id="node20" class="node"><title>化粧崩れ</title>
<ellipse fill="#ffffff" stroke="gray" cx="63.2395" cy="-30.3724" rx="18" ry="18"/>
<text text-anchor="middle" x="63.2395" y="-28.4724" font-family="arialuni.ttf" font-size="8.00">化粧崩れ</text>
</g>
<!-- 化粧崩れ&#45;&gt;肌 -->
<g id="edge64" class="edge"><title>化粧崩れ&#45;&gt;肌</title>
<path fill="none" stroke="gray" d="M46.0539,-24.7024C34.8218,-20.9967 19.9199,-16.0801 7.1425,-11.8645"/>
<polygon fill="gray" stroke="gray" points="8.05463,-8.47996 -2.53849,-8.67052 5.86139,-15.1275 8.05463,-8.47996"/>
</g>
<!-- ケース -->
<g id="node26" class="node"><title>ケース</title>
<ellipse fill="#ffffff" stroke="gray" cx="118" cy="-68" rx="18" ry="18"/>
<text text-anchor="middle" x="118" y="-66.1" font-family="arialuni.ttf" font-size="8.00">ケース</text>
</g>
<!-- 粉 -->
<g id="node27" class="node"><title>粉</title>
<ellipse fill="#ffffff" stroke="gray" cx="128" cy="-128" rx="18" ry="18"/>
<text text-anchor="middle" x="128" y="-126.1" font-family="arialuni.ttf" font-size="8.00">粉</text>
</g>
<!-- 厚塗り -->
<g id="node28" class="node"><title>厚塗り</title>
<ellipse fill="#ffffff" stroke="gray" cx="138" cy="42" rx="18" ry="18"/>
<text text-anchor="middle" x="138" y="43.9" font-family="arialuni.ttf" font-size="8.00">厚塗り</text>
</g>
<!-- 化粧 -->
<g id="node29" class="node"><title>化粧</title>
<ellipse fill="#ffffff" stroke="gray" cx="-52" cy="-148" rx="18" ry="18"/>
<text text-anchor="middle" x="-52" y="-146.1" font-family="arialuni.ttf" font-size="8.00">化粧</text>
</g>
<!-- 薄づき -->
<g id="node30" class="node"><title>薄づき</title>
<ellipse fill="#ffffff" stroke="gray" cx="-112" cy="-148" rx="18" ry="18"/>
<text text-anchor="middle" x="-112" y="-146.1" font-family="arialuni.ttf" font-size="8.00">薄づき</text>
</g>
<!-- 粒子 -->
<g id="node32" class="node"><title>粒子</title>
<ellipse fill="#ffffff" stroke="gray" cx="178" cy="-18" rx="18" ry="18"/>
<text text-anchor="middle" x="178" y="-16.1" font-family="arialuni.ttf" font-size="8.00">粒子</text>
</g>
<!-- 一番 -->
<g id="node34" class="node"><title>一番</title>
<ellipse fill="#ffffff" stroke="gray" cx="188" cy="152" rx="18" ry="18"/>
<text text-anchor="middle" x="188" y="153.9" font-family="arialuni.ttf" font-size="8.00">一番</text>
</g>
<!-- 素肌 -->
<g id="node38" class="node"><title>素肌</title>
<ellipse fill="#ffffff" stroke="gray" cx="188" cy="-78" rx="18" ry="18"/>
<text text-anchor="middle" x="188" y="-76.1" font-family="arialuni.ttf" font-size="8.00">素肌</text>
</g>
<!-- 色味 -->
<g id="node40" class="node"><title>色味</title>
<ellipse fill="#ffffff" stroke="gray" cx="188" cy="-138" rx="18" ry="18"/>
<text text-anchor="middle" x="188" y="-136.1" font-family="arialuni.ttf" font-size="8.00">色味</text>
</g>
<!-- 割 -->
<g id="node41" class="node"><title>割</title>
<ellipse fill="#ffffff" stroke="gray" cx="128" cy="-188" rx="18" ry="18"/>
<text text-anchor="middle" x="128" y="-186.1" font-family="arialuni.ttf" font-size="8.00">割</text>
</g>
<!-- 豊富 -->
<g id="node43" class="node"><title>豊富</title>
<ellipse fill="#ffffff" stroke="gray" cx="198" cy="92" rx="18" ry="18"/>
<text text-anchor="middle" x="198" y="93.9" font-family="arialuni.ttf" font-size="8.00">豊富</text>
</g>
<!-- しみ -->
<g id="node45" class="node"><title>しみ</title>
<ellipse fill="#ffffff" stroke="gray" cx="198" cy="-198" rx="18" ry="18"/>
<text text-anchor="middle" x="198" y="-196.1" font-family="arialuni.ttf" font-size="8.00">しみ</text>
</g>
<!-- 購入 -->
<g id="node46" class="node"><title>購入</title>
<ellipse fill="#ffffff" stroke="gray" cx="-12" cy="-208" rx="18" ry="18"/>
<text text-anchor="middle" x="-12" y="-206.1" font-family="arialuni.ttf" font-size="8.00">購入</text>
</g>
<!-- シミ -->
<g id="node47" class="node"><title>シミ</title>
<ellipse fill="#ffffff" stroke="gray" cx="-72" cy="-208" rx="18" ry="18"/>
<text text-anchor="middle" x="-72" y="-206.1" font-family="arialuni.ttf" font-size="8.00">シミ</text>
</g>
<!-- 少量 -->
<g id="node48" class="node"><title>少量</title>
<ellipse fill="#ffffff" stroke="gray" cx="-132" cy="-208" rx="18" ry="18"/>
<text text-anchor="middle" x="-132" y="-206.1" font-family="arialuni.ttf" font-size="8.00">少量</text>
</g>
<!-- 手軽 -->
<g id="node49" class="node"><title>手軽</title>
<ellipse fill="#ffffff" stroke="gray" cx="-172" cy="-148" rx="18" ry="18"/>
<text text-anchor="middle" x="-172" y="-146.1" font-family="arialuni.ttf" font-size="8.00">手軽</text>
</g>
<!-- 肌質 -->
<g id="node50" class="node"><title>肌質</title>
<ellipse fill="#ffffff" stroke="gray" cx="-172" cy="12" rx="18" ry="18"/>
<text text-anchor="middle" x="-172" y="13.9" font-family="arialuni.ttf" font-size="8.00">肌質</text>
</g>
</g>
</svg>
