<?xml version="1.0" encoding="UTF-8" standalone="no"?>
<!DOCTYPE svg PUBLIC "-//W3C//DTD SVG 1.1//EN"
 "http://www.w3.org/Graphics/SVG/1.1/DTD/svg11.dtd">
<!-- Generated by graphviz version 2.38.0 (20140413.2041)
 -->
<!-- Title: g Pages: 1 -->
<svg width="407pt" height="576pt"
 viewBox="0.00 0.00 407.14 576.00" xmlns="http://www.w3.org/2000/svg" xmlns:xlink="http://www.w3.org/1999/xlink">
<g id="graph0" class="graph" transform="scale(0.492308 0.492308) rotate(0) translate(4 1166)">
<title>g</title>
<polygon fill="white" stroke="none" points="-4,4 -4,-1166 823,-1166 823,4 -4,4"/>
<!-- 肌\n(2259)\n -->
<g id="node1" class="node"><title>肌\n(2259)\n</title>
<ellipse fill="#ffdbeb" stroke="#ff1c62" cx="387.863" cy="-603.897" rx="108" ry="97"/>
<text text-anchor="middle" x="387.863" y="-609.497" font-family="arialuni.ttf" font-size="18.00">肌</text>
<text text-anchor="middle" x="387.863" y="-589.497" font-family="arialuni.ttf" font-size="18.00">(2259)</text>
</g>
<!-- 自然\n(721)\n -->
<g id="node2" class="node"><title>自然\n(721)\n</title>
<ellipse fill="#ffdbeb" stroke="#ff1c62" cx="149.99" cy="-460.085" rx="34.5" ry="31"/>
<text text-anchor="middle" x="149.99" y="-464.055" font-family="arialuni.ttf" font-size="13.79">自然</text>
<text text-anchor="middle" x="149.99" y="-449.055" font-family="arialuni.ttf" font-size="13.79">(721)</text>
</g>
<!-- 肌\n(2259)\n&#45;&gt;自然\n(721)\n -->
<g id="edge10" class="edge"><title>肌\n(2259)\n&#45;&gt;自然\n(721)\n</title>
<path fill="none" stroke="#ff1c62" d="M297.933,-549.528C257.845,-525.292 213.075,-498.225 183.394,-480.28"/>
<polygon fill="#ff1c62" stroke="#ff1c62" points="183.947,-478.569 178.763,-477.48 182.136,-481.564 183.947,-478.569"/>
</g>
<!-- 価格#\n(868)\n -->
<g id="node3" class="node"><title>価格#\n(868)\n</title>
<ellipse fill="#ffdbeb" stroke="#ff1c62" cx="209.775" cy="-252.403" rx="41.5" ry="37.5"/>
<text text-anchor="middle" x="209.775" y="-256.592" font-family="arialuni.ttf" font-size="14.76">価格#</text>
<text text-anchor="middle" x="209.775" y="-240.592" font-family="arialuni.ttf" font-size="14.76">(868)</text>
</g>
<!-- 肌\n(2259)\n&#45;&gt;価格#\n(868)\n -->
<g id="edge9" class="edge"><title>肌\n(2259)\n&#45;&gt;価格#\n(868)\n</title>
<path fill="none" stroke="#ff1c62" d="M342.924,-515.2C306.415,-443.144 256.674,-344.968 229.497,-291.328"/>
<polygon fill="#ff1c62" stroke="#ff1c62" points="230.92,-290.264 227.099,-286.595 227.798,-291.846 230.92,-290.264"/>
</g>
<!-- 色\n(650)\n -->
<g id="node4" class="node"><title>色\n(650)\n</title>
<ellipse fill="#ffdbeb" stroke="#cf00bd" cx="245.227" cy="-326.548" rx="35.2934" ry="28"/>
<text text-anchor="middle" x="245.227" y="-330.895" font-family="arialuni.ttf" font-size="13.32">色</text>
<text text-anchor="middle" x="245.227" y="-315.895" font-family="arialuni.ttf" font-size="13.32">(650)</text>
</g>
<!-- 肌\n(2259)\n&#45;&gt;色\n(650)\n -->
<g id="edge3" class="edge"><title>肌\n(2259)\n&#45;&gt;色\n(650)\n</title>
<path fill="none" stroke="#ff1c62" d="M342.536,-515.761C314.551,-461.347 280.382,-394.906 260.879,-356.983"/>
<polygon fill="#ff1c62" stroke="#ff1c62" points="262.418,-356.148 258.575,-352.502 259.305,-357.749 262.418,-356.148"/>
</g>
<!-- 自分\n(468)\n -->
<g id="node5" class="node"><title>自分\n(468)\n</title>
<ellipse fill="#ffdbeb" stroke="#cf00bd" cx="375.849" cy="-219.685" rx="33.8824" ry="24.0833"/>
<text text-anchor="middle" x="375.849" y="-222.999" font-family="arialuni.ttf" font-size="12.11">自分</text>
<text text-anchor="middle" x="375.849" y="-209.999" font-family="arialuni.ttf" font-size="12.11">(468)</text>
</g>
<!-- 肌\n(2259)\n&#45;&gt;自分\n(468)\n -->
<g id="edge2" class="edge"><title>肌\n(2259)\n&#45;&gt;自分\n(468)\n</title>
<path fill="none" stroke="#ff1c62" d="M384.816,-506.448C382.155,-421.376 378.463,-303.289 376.767,-249.054"/>
<polygon fill="#ff1c62" stroke="#ff1c62" points="378.515,-248.951 376.609,-244.008 375.017,-249.06 378.515,-248.951"/>
</g>
<!-- 感じ\n(465)\n -->
<g id="node6" class="node"><title>感じ\n(465)\n</title>
<ellipse fill="#ffffff" stroke="#cf00bd" cx="114.791" cy="-545.749" rx="33.8824" ry="24.0833"/>
<text text-anchor="middle" x="114.791" y="-549.079" font-family="arialuni.ttf" font-size="12.09">感じ</text>
<text text-anchor="middle" x="114.791" y="-536.079" font-family="arialuni.ttf" font-size="12.09">(465)</text>
</g>
<!-- 肌\n(2259)\n&#45;&gt;感じ\n(465)\n -->
<g id="edge8" class="edge"><title>肌\n(2259)\n&#45;&gt;感じ\n(465)\n</title>
<path fill="none" stroke="#ff1c62" d="M282.677,-581.499C236.897,-571.751 186.147,-560.944 152.556,-553.791"/>
<polygon fill="#ff1c62" stroke="#ff1c62" points="152.571,-552.005 147.316,-552.675 151.842,-555.428 152.571,-552.005"/>
</g>
<!-- 綺麗#\n(569)\n -->
<g id="node7" class="node"><title>綺麗#\n(569)\n</title>
<ellipse fill="#ffffff" stroke="#cf00bd" cx="230.795" cy="-508.846" rx="37.4533" ry="25.4118"/>
<text text-anchor="middle" x="230.795" y="-512.624" font-family="arialuni.ttf" font-size="12.78">綺麗#</text>
<text text-anchor="middle" x="230.795" y="-498.624" font-family="arialuni.ttf" font-size="12.78">(569)</text>
</g>
<!-- 肌\n(2259)\n&#45;&gt;綺麗#\n(569)\n -->
<g id="edge4" class="edge"><title>肌\n(2259)\n&#45;&gt;綺麗#\n(569)\n</title>
<path fill="none" stroke="#ff1c62" d="M297.862,-549.432C285.507,-541.955 273.539,-534.713 263.216,-528.466"/>
<polygon fill="#ff1c62" stroke="#ff1c62" points="264.081,-526.944 258.897,-525.852 262.269,-529.938 264.081,-526.944"/>
</g>
<!-- 仕上がり\n(413)\n -->
<g id="node8" class="node"><title>仕上がり\n(413)\n</title>
<ellipse fill="#ffffff" stroke="#cf00bd" cx="336.221" cy="-355.495" rx="45.9239" ry="24.0833"/>
<text text-anchor="middle" x="336.221" y="-359.102" font-family="arialuni.ttf" font-size="11.74">仕上がり</text>
<text text-anchor="middle" x="336.221" y="-346.102" font-family="arialuni.ttf" font-size="11.74">(413)</text>
</g>
<!-- 肌\n(2259)\n&#45;&gt;仕上がり\n(413)\n -->
<g id="edge28" class="edge"><title>肌\n(2259)\n&#45;&gt;仕上がり\n(413)\n</title>
<path fill="none" stroke="#ff1c62" d="M367.971,-508.214C358.812,-464.158 348.6,-415.041 342.292,-384.699"/>
<polygon fill="#ff1c62" stroke="#ff1c62" points="343.969,-384.165 341.238,-379.626 340.542,-384.878 343.969,-384.165"/>
</g>
<!-- 手頃#\n(350)\n -->
<g id="node9" class="node"><title>手頃#\n(350)\n</title>
<ellipse fill="#ffffff" stroke="#cf00bd" cx="413.483" cy="-297.348" rx="34.7971" ry="22.7556"/>
<text text-anchor="middle" x="413.483" y="-300.289" font-family="arialuni.ttf" font-size="11.32">手頃#</text>
<text text-anchor="middle" x="413.483" y="-288.289" font-family="arialuni.ttf" font-size="11.32">(350)</text>
</g>
<!-- 肌\n(2259)\n&#45;&gt;手頃#\n(350)\n -->
<g id="edge18" class="edge"><title>肌\n(2259)\n&#45;&gt;手頃#\n(350)\n</title>
<path fill="none" stroke="#ff1c62" d="M395.969,-506.903C401.23,-443.951 407.721,-366.291 411.132,-325.472"/>
<polygon fill="#ff1c62" stroke="#ff1c62" points="412.9,-325.33 411.573,-320.201 409.412,-325.038 412.9,-325.33"/>
</g>
<!-- カバー力\n(783)\n -->
<g id="node10" class="node"><title>カバー力\n(783)\n</title>
<ellipse fill="#ffffff" stroke="#cf00bd" cx="81.7514" cy="-381.072" rx="46.2432" ry="33.5"/>
<text text-anchor="middle" x="81.7514" y="-385.713" font-family="arialuni.ttf" font-size="14.20">カバー力</text>
<text text-anchor="middle" x="81.7514" y="-369.713" font-family="arialuni.ttf" font-size="14.20">(783)</text>
</g>
<!-- 肌\n(2259)\n&#45;&gt;カバー力\n(783)\n -->
<g id="edge13" class="edge"><title>肌\n(2259)\n&#45;&gt;カバー力\n(783)\n</title>
<path fill="none" stroke="#ff1c62" d="M303.811,-542.714C243.285,-498.656 164.55,-441.343 118.93,-408.135"/>
<polygon fill="#ff1c62" stroke="#ff1c62" points="119.693,-406.526 114.62,-404.998 117.633,-409.355 119.693,-406.526"/>
</g>
<!-- 伸び\n(602)\n -->
<g id="node11" class="node"><title>伸び\n(602)\n</title>
<ellipse fill="#ffffff" stroke="#cf00bd" cx="183.157" cy="-389.797" rx="36.0619" ry="26"/>
<text text-anchor="middle" x="183.157" y="-393.399" font-family="arialuni.ttf" font-size="13.00">伸び</text>
<text text-anchor="middle" x="183.157" y="-379.399" font-family="arialuni.ttf" font-size="13.00">(602)</text>
</g>
<!-- 肌\n(2259)\n&#45;&gt;伸び\n(602)\n -->
<g id="edge11" class="edge"><title>肌\n(2259)\n&#45;&gt;伸び\n(602)\n</title>
<path fill="none" stroke="#ff1c62" d="M317.415,-530.216C279.118,-490.162 234.201,-443.183 207.245,-414.99"/>
<polygon fill="#ff1c62" stroke="#ff1c62" points="208.446,-413.713 203.725,-411.309 205.916,-416.132 208.446,-413.713"/>
</g>
<!-- 薄付き\n(275)\n -->
<g id="node12" class="node"><title>薄付き\n(275)\n</title>
<ellipse fill="#ffffff" stroke="#cf00bd" cx="33.6251" cy="-541.62" rx="33.8824" ry="22.7556"/>
<text text-anchor="middle" x="33.6251" y="-544.959" font-family="arialuni.ttf" font-size="10.83">薄付き</text>
<text text-anchor="middle" x="33.6251" y="-532.959" font-family="arialuni.ttf" font-size="10.83">(275)</text>
</g>
<!-- 肌\n(2259)\n&#45;&gt;薄付き\n(275)\n -->
<g id="edge44" class="edge"><title>肌\n(2259)\n&#45;&gt;薄付き\n(275)\n</title>
<path fill="none" stroke="#ff1c62" d="M281.58,-585.212C210.65,-572.742 121.573,-557.082 71.7985,-548.331"/>
<polygon fill="#ff1c62" stroke="#ff1c62" points="72.0391,-546.596 66.8116,-547.454 71.4331,-550.043 72.0391,-546.596"/>
</g>
<!-- 毛穴\n(249)\n -->
<g id="node13" class="node"><title>毛穴\n(249)\n</title>
<ellipse fill="#ffffff" stroke="#cf00bd" cx="169.139" cy="-694.864" rx="31.2258" ry="22.7556"/>
<text text-anchor="middle" x="169.139" y="-698.341" font-family="arialuni.ttf" font-size="10.65">毛穴</text>
<text text-anchor="middle" x="169.139" y="-686.341" font-family="arialuni.ttf" font-size="10.65">(249)</text>
</g>
<!-- 肌\n(2259)\n&#45;&gt;毛穴\n(249)\n -->
<g id="edge31" class="edge"><title>肌\n(2259)\n&#45;&gt;毛穴\n(249)\n</title>
<path fill="none" stroke="#ff1c62" d="M289.697,-644.724C257.89,-657.953 224.806,-671.712 201.36,-681.463"/>
<polygon fill="#ff1c62" stroke="#ff1c62" points="200.452,-679.946 196.507,-683.482 201.796,-683.177 200.452,-679.946"/>
</g>
<!-- 透明感\n(227)\n -->
<g id="node16" class="node"><title>透明感\n(227)\n</title>
<ellipse fill="#ffffff" stroke="gray" cx="73.7835" cy="-632.456" rx="33.8824" ry="22.7556"/>
<text text-anchor="middle" x="73.7835" y="-636.05" font-family="arialuni.ttf" font-size="10.51">透明感</text>
<text text-anchor="middle" x="73.7835" y="-624.05" font-family="arialuni.ttf" font-size="10.51">(227)</text>
</g>
<!-- 肌\n(2259)\n&#45;&gt;透明感\n(227)\n -->
<g id="edge41" class="edge"><title>肌\n(2259)\n&#45;&gt;透明感\n(227)\n</title>
<path fill="none" stroke="#ff1c62" d="M280.214,-613.685C222.314,-618.95 154.441,-625.122 112.779,-628.91"/>
<polygon fill="#ff1c62" stroke="#ff1c62" points="112.4,-627.187 107.58,-629.383 112.717,-630.673 112.4,-627.187"/>
</g>
<!-- ファンデーション\n(153)\n -->
<g id="node17" class="node"><title>ファンデーション\n(153)\n</title>
<ellipse fill="#ffffff" stroke="gray" cx="752.489" cy="-709.855" rx="66.4361" ry="21.4286"/>
<text text-anchor="middle" x="752.489" y="-712.842" font-family="arialuni.ttf" font-size="10.02">ファンデーション</text>
<text text-anchor="middle" x="752.489" y="-701.842" font-family="arialuni.ttf" font-size="10.02">(153)</text>
</g>
<!-- 肌\n(2259)\n&#45;&gt;ファンデーション\n(153)\n -->
<g id="edge23" class="edge"><title>肌\n(2259)\n&#45;&gt;ファンデーション\n(153)\n</title>
<path fill="none" stroke="#ff1c62" d="M490.888,-633.836C558.348,-653.439 643.795,-678.27 698.316,-694.113"/>
<polygon fill="#ff1c62" stroke="#ff1c62" points="697.877,-695.808 703.167,-695.523 698.854,-692.447 697.877,-695.808"/>
</g>
<!-- 付け心地\n(158)\n -->
<g id="node18" class="node"><title>付け心地\n(158)\n</title>
<ellipse fill="#ffffff" stroke="gray" cx="241.521" cy="-917.975" rx="39.6962" ry="21.4286"/>
<text text-anchor="middle" x="241.521" y="-920.936" font-family="arialuni.ttf" font-size="10.05">付け心地</text>
<text text-anchor="middle" x="241.521" y="-909.936" font-family="arialuni.ttf" font-size="10.05">(158)</text>
</g>
<!-- 肌\n(2259)\n&#45;&gt;付け心地\n(158)\n -->
<g id="edge35" class="edge"><title>肌\n(2259)\n&#45;&gt;付け心地\n(158)\n</title>
<path fill="none" stroke="#ff1c62" d="M346.123,-693.479C314.56,-761.218 273.365,-849.633 253.399,-892.482"/>
<polygon fill="#ff1c62" stroke="#ff1c62" points="251.713,-891.958 251.187,-897.229 254.886,-893.436 251.713,-891.958"/>
</g>
<!-- 無添加\n(164)\n -->
<g id="node19" class="node"><title>無添加\n(164)\n</title>
<ellipse fill="#ffffff" stroke="gray" cx="548.506" cy="-965.39" rx="32.5538" ry="21.4286"/>
<text text-anchor="middle" x="548.506" y="-968.319" font-family="arialuni.ttf" font-size="10.09">無添加</text>
<text text-anchor="middle" x="548.506" y="-957.319" font-family="arialuni.ttf" font-size="10.09">(164)</text>
</g>
<!-- 肌\n(2259)\n&#45;&gt;無添加\n(164)\n -->
<g id="edge26" class="edge"><title>肌\n(2259)\n&#45;&gt;無添加\n(164)\n</title>
<path fill="none" stroke="#ff1c62" d="M427.985,-694.185C464.177,-775.625 515.039,-890.079 537.315,-940.208"/>
<polygon fill="#ff1c62" stroke="#ff1c62" points="535.751,-940.997 539.381,-944.855 538.949,-939.575 535.751,-940.997"/>
</g>
<!-- のり\n(191)\n -->
<g id="node21" class="node"><title>のり\n(191)\n</title>
<ellipse fill="#ffffff" stroke="gray" cx="590.865" cy="-840.899" rx="31.2258" ry="21.4286"/>
<text text-anchor="middle" x="590.865" y="-843.684" font-family="arialuni.ttf" font-size="10.27">のり</text>
<text text-anchor="middle" x="590.865" y="-832.684" font-family="arialuni.ttf" font-size="10.27">(191)</text>
</g>
<!-- 肌\n(2259)\n&#45;&gt;のり\n(191)\n -->
<g id="edge27" class="edge"><title>肌\n(2259)\n&#45;&gt;のり\n(191)\n</title>
<path fill="none" stroke="#ff1c62" d="M453.772,-680.845C494.767,-728.706 544.631,-786.922 571.488,-818.277"/>
<polygon fill="#ff1c62" stroke="#ff1c62" points="570.382,-819.675 574.964,-822.334 573.04,-817.399 570.382,-819.675"/>
</g>
<!-- 負担\n(96)\n -->
<g id="node22" class="node"><title>負担\n(96)\n</title>
<ellipse fill="#ffffff" stroke="gray" cx="450.764" cy="-899.563" rx="25.4118" ry="21.4286"/>
<text text-anchor="middle" x="450.764" y="-902.853" font-family="arialuni.ttf" font-size="9.64">負担</text>
<text text-anchor="middle" x="450.764" y="-891.853" font-family="arialuni.ttf" font-size="9.64">(96)</text>
</g>
<!-- 肌\n(2259)\n&#45;&gt;負担\n(96)\n -->
<g id="edge12" class="edge"><title>肌\n(2259)\n&#45;&gt;負担\n(96)\n</title>
<path fill="none" stroke="#ff1c62" d="M408.198,-699.483C421.148,-760.356 436.984,-834.793 445.208,-873.449"/>
<polygon fill="#ff1c62" stroke="#ff1c62" points="443.517,-873.908 446.269,-878.434 446.94,-873.18 443.517,-873.908"/>
</g>
<!-- 私\n(79)\n -->
<g id="node23" class="node"><title>私\n(79)\n</title>
<ellipse fill="#ffffff" stroke="gray" cx="644.087" cy="-427.667" rx="25.4118" ry="19.6"/>
<text text-anchor="middle" x="644.087" y="-430.047" font-family="arialuni.ttf" font-size="9.52">私</text>
<text text-anchor="middle" x="644.087" y="-420.047" font-family="arialuni.ttf" font-size="9.52">(79)</text>
</g>
<!-- 肌\n(2259)\n&#45;&gt;私\n(79)\n -->
<g id="edge29" class="edge"><title>肌\n(2259)\n&#45;&gt;私\n(79)\n</title>
<path fill="none" stroke="#ff1c62" d="M473.895,-544.725C525.653,-509.125 587.72,-466.436 620.735,-443.728"/>
<polygon fill="#ff1c62" stroke="#ff1c62" points="621.874,-445.069 625.002,-440.793 619.891,-442.185 621.874,-445.069"/>
</g>
<!-- 気\n(109)\n -->
<g id="node25" class="node"><title>気\n(109)\n</title>
<ellipse fill="#ffffff" stroke="gray" cx="695.416" cy="-516.379" rx="29.8983" ry="21.4286"/>
<text text-anchor="middle" x="695.416" y="-519.6" font-family="arialuni.ttf" font-size="9.72">気</text>
<text text-anchor="middle" x="695.416" y="-508.6" font-family="arialuni.ttf" font-size="9.72">(109)</text>
</g>
<!-- 肌\n(2259)\n&#45;&gt;気\n(109)\n -->
<g id="edge32" class="edge"><title>肌\n(2259)\n&#45;&gt;気\n(109)\n</title>
<path fill="none" stroke="#ff1c62" d="M491.129,-574.511C550.751,-557.545 621.769,-537.336 662.424,-525.767"/>
<polygon fill="#ff1c62" stroke="#ff1c62" points="663.383,-527.314 667.713,-524.262 662.425,-523.947 663.383,-527.314"/>
</g>
<!-- フィット\n(57)\n -->
<g id="node27" class="node"><title>フィット\n(57)\n</title>
<ellipse fill="#ffffff" stroke="gray" cx="666.72" cy="-772.216" rx="39.6962" ry="19.6"/>
<text text-anchor="middle" x="666.72" y="-774.713" font-family="arialuni.ttf" font-size="9.38">フィット</text>
<text text-anchor="middle" x="666.72" y="-764.713" font-family="arialuni.ttf" font-size="9.38">(57)</text>
</g>
<!-- 肌\n(2259)\n&#45;&gt;フィット\n(57)\n -->
<g id="edge37" class="edge"><title>肌\n(2259)\n&#45;&gt;フィット\n(57)\n</title>
<path fill="none" stroke="#ff1c62" d="M477.63,-658.081C532.403,-691.142 598.937,-731.302 636.7,-754.096"/>
<polygon fill="#ff1c62" stroke="#ff1c62" points="635.975,-755.703 641.16,-756.788 637.784,-752.706 635.975,-755.703"/>
</g>
<!-- 自然\n(721)\n&#45;&gt;価格#\n(868)\n -->
<g id="edge46" class="edge"><title>自然\n(721)\n&#45;&gt;価格#\n(868)\n</title>
<path fill="none" stroke="#ff1c62" d="M158.683,-429.886C168.973,-394.141 186.168,-334.41 197.735,-294.229"/>
<polygon fill="#ff1c62" stroke="#ff1c62" points="199.556,-294.228 199.257,-288.939 196.193,-293.259 199.556,-294.228"/>
</g>
<!-- 自然\n(721)\n&#45;&gt;色\n(650)\n -->
<g id="edge20" class="edge"><title>自然\n(721)\n&#45;&gt;色\n(650)\n</title>
<path fill="none" stroke="#ff1c62" d="M168.806,-433.702C184.932,-411.09 208.118,-378.581 224.715,-355.308"/>
<polygon fill="#ff1c62" stroke="#ff1c62" points="226.256,-356.161 227.735,-351.075 223.407,-354.129 226.256,-356.161"/>
</g>
<!-- 自然\n(721)\n&#45;&gt;感じ\n(465)\n -->
<g id="edge6" class="edge"><title>自然\n(721)\n&#45;&gt;感じ\n(465)\n</title>
<path fill="none" stroke="#ff1c62" d="M137.877,-489.566C134.152,-498.631 130.062,-508.583 126.374,-517.56"/>
<polygon fill="#ff1c62" stroke="#ff1c62" points="124.653,-517.145 124.371,-522.435 127.89,-518.475 124.653,-517.145"/>
</g>
<!-- 自然\n(721)\n&#45;&gt;綺麗#\n(569)\n -->
<g id="edge56" class="edge"><title>自然\n(721)\n&#45;&gt;綺麗#\n(569)\n</title>
<path fill="none" stroke="#ff1c62" d="M178.706,-477.413C185.046,-481.239 191.805,-485.318 198.283,-489.227"/>
<polygon fill="#ff1c62" stroke="#ff1c62" points="197.529,-490.816 202.714,-491.901 199.337,-487.819 197.529,-490.816"/>
</g>
<!-- 自然\n(721)\n&#45;&gt;仕上がり\n(413)\n -->
<g id="edge5" class="edge"><title>自然\n(721)\n&#45;&gt;仕上がり\n(413)\n</title>
<path fill="none" stroke="#ff1c62" d="M179.499,-443.512C212.185,-425.155 264.9,-395.55 300.047,-375.811"/>
<polygon fill="#ff1c62" stroke="#ff1c62" points="301.169,-377.188 304.672,-373.214 299.455,-374.137 301.169,-377.188"/>
</g>
<!-- 自然\n(721)\n&#45;&gt;カバー力\n(783)\n -->
<g id="edge21" class="edge"><title>自然\n(721)\n&#45;&gt;カバー力\n(783)\n</title>
<path fill="none" stroke="#ff1c62" d="M128.773,-435.518C122.765,-428.561 116.131,-420.88 109.787,-413.534"/>
<polygon fill="#ff1c62" stroke="#ff1c62" points="110.891,-412.135 106.298,-409.494 108.242,-414.422 110.891,-412.135"/>
</g>
<!-- 自然\n(721)\n&#45;&gt;伸び\n(602)\n -->
<g id="edge33" class="edge"><title>自然\n(721)\n&#45;&gt;伸び\n(602)\n</title>
<path fill="none" stroke="#ff1c62" d="M163.48,-431.496C165.388,-427.453 167.353,-423.29 169.268,-419.231"/>
<polygon fill="#ff1c62" stroke="#ff1c62" points="170.936,-419.797 171.487,-414.528 167.77,-418.303 170.936,-419.797"/>
</g>
<!-- 自然\n(721)\n&#45;&gt;薄付き\n(275)\n -->
<g id="edge42" class="edge"><title>自然\n(721)\n&#45;&gt;薄付き\n(275)\n</title>
<path fill="none" stroke="#ff1c62" d="M122.708,-479.201C104.222,-492.154 79.8731,-509.214 61.3041,-522.225"/>
<polygon fill="#ff1c62" stroke="#ff1c62" points="60.2858,-520.802 57.1952,-525.104 62.2943,-523.668 60.2858,-520.802"/>
</g>
<!-- 価格#\n(868)\n&#45;&gt;色\n(650)\n -->
<g id="edge19" class="edge"><title>価格#\n(868)\n&#45;&gt;色\n(650)\n</title>
<path fill="none" stroke="#ff1c62" d="M226.255,-286.871C227.566,-289.612 228.886,-292.373 230.187,-295.093"/>
<polygon fill="#ff1c62" stroke="#ff1c62" points="228.764,-296.174 232.5,-299.93 231.922,-294.664 228.764,-296.174"/>
</g>
<!-- 価格#\n(868)\n&#45;&gt;自分\n(468)\n -->
<g id="edge43" class="edge"><title>価格#\n(868)\n&#45;&gt;自分\n(468)\n</title>
<path fill="none" stroke="#ff1c62" d="M250.401,-244.399C277.049,-239.149 311.662,-232.33 337.778,-227.185"/>
<polygon fill="#ff1c62" stroke="#ff1c62" points="338.316,-228.863 342.883,-226.18 337.639,-225.429 338.316,-228.863"/>
</g>
<!-- 価格#\n(868)\n&#45;&gt;仕上がり\n(413)\n -->
<g id="edge59" class="edge"><title>価格#\n(868)\n&#45;&gt;仕上がり\n(413)\n</title>
<path fill="none" stroke="#ff1c62" d="M240.707,-277.622C260.996,-294.164 287.35,-315.65 307.235,-331.862"/>
<polygon fill="#ff1c62" stroke="#ff1c62" points="306.14,-333.228 311.121,-335.031 308.352,-330.515 306.14,-333.228"/>
</g>
<!-- 価格#\n(868)\n&#45;&gt;手頃#\n(350)\n -->
<g id="edge1" class="edge"><title>価格#\n(868)\n&#45;&gt;手頃#\n(350)\n</title>
<path fill="none" stroke="#ff1c62" d="M250.509,-261.39C286.918,-269.423 339.861,-281.104 375.428,-288.952"/>
<polygon fill="#ff1c62" stroke="#ff1c62" points="375.286,-290.713 380.546,-290.081 376.04,-287.295 375.286,-290.713"/>
</g>
<!-- 価格#\n(868)\n&#45;&gt;カバー力\n(783)\n -->
<g id="edge30" class="edge"><title>価格#\n(868)\n&#45;&gt;カバー力\n(783)\n</title>
<path fill="none" stroke="#ff1c62" d="M181.996,-280.322C161.557,-300.864 133.771,-328.79 112.635,-350.032"/>
<polygon fill="#ff1c62" stroke="#ff1c62" points="111.323,-348.87 109.037,-353.649 113.804,-351.339 111.323,-348.87"/>
</g>
<!-- 価格#\n(868)\n&#45;&gt;伸び\n(602)\n -->
<g id="edge49" class="edge"><title>価格#\n(868)\n&#45;&gt;伸び\n(602)\n</title>
<path fill="none" stroke="#ff1c62" d="M202.572,-289.583C198.37,-311.269 193.133,-338.305 189.157,-358.828"/>
<polygon fill="#ff1c62" stroke="#ff1c62" points="187.407,-358.657 188.174,-363.898 190.844,-359.322 187.407,-358.657"/>
</g>
<!-- わり\n(52)\n -->
<g id="node29" class="node"><title>わり\n(52)\n</title>
<ellipse fill="#ffffff" stroke="gray" cx="53.2704" cy="-98.0352" rx="25.4118" ry="19.6"/>
<text text-anchor="middle" x="53.2704" y="-100.559" font-family="arialuni.ttf" font-size="9.35">わり</text>
<text text-anchor="middle" x="53.2704" y="-90.559" font-family="arialuni.ttf" font-size="9.35">(52)</text>
</g>
<!-- 価格#\n(868)\n&#45;&gt;わり\n(52)\n -->
<g id="edge63" class="edge"><title>価格#\n(868)\n&#45;&gt;わり\n(52)\n</title>
<path fill="none" stroke="#ff1c62" d="M181.433,-224.448C150.201,-193.642 100.764,-144.88 73.3131,-117.804"/>
<polygon fill="#ff1c62" stroke="#ff1c62" points="74.216,-116.237 69.4273,-113.972 71.7582,-118.729 74.216,-116.237"/>
</g>
<!-- お手ごろ\n(31)\n -->
<g id="node30" class="node"><title>お手ごろ\n(31)\n</title>
<ellipse fill="#ffffff" stroke="gray" cx="146.877" cy="-25.449" rx="37.4533" ry="19.6"/>
<text text-anchor="middle" x="146.877" y="-28.0843" font-family="arialuni.ttf" font-size="9.21">お手ごろ</text>
<text text-anchor="middle" x="146.877" y="-18.0843" font-family="arialuni.ttf" font-size="9.21">(31)</text>
</g>
<!-- 価格#\n(868)\n&#45;&gt;お手ごろ\n(31)\n -->
<g id="edge58" class="edge"><title>価格#\n(868)\n&#45;&gt;お手ごろ\n(31)\n</title>
<path fill="none" stroke="#ff1c62" d="M199.669,-215.939C186.808,-169.53 164.928,-90.5844 153.808,-50.4596"/>
<polygon fill="#ff1c62" stroke="#ff1c62" points="155.399,-49.6472 152.377,-45.2962 152.026,-50.582 155.399,-49.6472"/>
</g>
<!-- 色\n(650)\n&#45;&gt;自分\n(468)\n -->
<g id="edge7" class="edge"><title>色\n(650)\n&#45;&gt;自分\n(468)\n</title>
<path fill="none" stroke="gray" d="M270.103,-306.196C292.775,-287.649 326.163,-260.334 349.333,-241.378"/>
<polygon fill="gray" stroke="gray" points="350.486,-242.696 353.248,-238.175 348.27,-239.987 350.486,-242.696"/>
</g>
<!-- 色\n(650)\n&#45;&gt;綺麗#\n(569)\n -->
<g id="edge40" class="edge"><title>色\n(650)\n&#45;&gt;綺麗#\n(569)\n</title>
<path fill="none" stroke="gray" d="M243.003,-354.632C240.362,-388.003 235.969,-443.495 233.235,-478.023"/>
<polygon fill="gray" stroke="gray" points="231.461,-478.256 232.811,-483.379 234.951,-478.532 231.461,-478.256"/>
</g>
<!-- 色\n(650)\n&#45;&gt;カバー力\n(783)\n -->
<g id="edge48" class="edge"><title>色\n(650)\n&#45;&gt;カバー力\n(783)\n</title>
<path fill="none" stroke="gray" d="M212.538,-337.451C188.504,-345.467 155.491,-356.478 128.646,-365.431"/>
<polygon fill="gray" stroke="gray" points="127.899,-363.835 123.709,-367.078 129.006,-367.156 127.899,-363.835"/>
</g>
<!-- 色\n(650)\n&#45;&gt;伸び\n(602)\n -->
<g id="edge47" class="edge"><title>色\n(650)\n&#45;&gt;伸び\n(602)\n</title>
<path fill="none" stroke="gray" d="M223.518,-348.669C218.405,-353.879 212.92,-359.468 207.693,-364.795"/>
<polygon fill="gray" stroke="gray" points="206.375,-363.639 204.122,-368.433 208.874,-366.09 206.375,-363.639"/>
</g>
<!-- 肌色\n(89)\n -->
<g id="node24" class="node"><title>肌色\n(89)\n</title>
<ellipse fill="#ffffff" stroke="gray" cx="430.227" cy="-21.5636" rx="25.4118" ry="21.4286"/>
<text text-anchor="middle" x="430.227" y="-24.8908" font-family="arialuni.ttf" font-size="9.59">肌色</text>
<text text-anchor="middle" x="430.227" y="-13.8908" font-family="arialuni.ttf" font-size="9.59">(89)</text>
</g>
<!-- 自分\n(468)\n&#45;&gt;肌色\n(89)\n -->
<g id="edge22" class="edge"><title>自分\n(468)\n&#45;&gt;肌色\n(89)\n</title>
<path fill="none" stroke="gray" d="M382.408,-195.787C392.681,-158.359 412.486,-86.2013 423.099,-47.5342"/>
<polygon fill="gray" stroke="gray" points="424.835,-47.8196 424.471,-42.5347 421.46,-46.8931 424.835,-47.8196"/>
</g>
<!-- 感じ\n(465)\n&#45;&gt;伸び\n(602)\n -->
<g id="edge53" class="edge"><title>感じ\n(465)\n&#45;&gt;伸び\n(602)\n</title>
<path fill="none" stroke="#cf00bd" d="M129.763,-524.075C144.014,-497.055 164.42,-450.781 175.652,-420.223"/>
<polygon fill="#cf00bd" stroke="#cf00bd" points="177.32,-420.757 177.374,-415.459 174.029,-419.567 177.32,-420.757"/>
</g>
<!-- 綺麗#\n(569)\n&#45;&gt;仕上がり\n(413)\n -->
<g id="edge14" class="edge"><title>綺麗#\n(569)\n&#45;&gt;仕上がり\n(413)\n</title>
<path fill="none" stroke="#cf00bd" d="M251.694,-487.43C273.01,-460.293 305.144,-413.591 323.147,-383.616"/>
<polygon fill="#cf00bd" stroke="#cf00bd" points="324.867,-384.147 325.911,-378.954 321.856,-382.362 324.867,-384.147"/>
</g>
<!-- 綺麗#\n(569)\n&#45;&gt;カバー力\n(783)\n -->
<g id="edge39" class="edge"><title>綺麗#\n(569)\n&#45;&gt;カバー力\n(783)\n</title>
<path fill="none" stroke="#cf00bd" d="M212.33,-486.525C189.519,-464.234 150.28,-430.198 120.724,-406.8"/>
<polygon fill="#cf00bd" stroke="#cf00bd" points="121.449,-405.144 116.437,-403.428 119.285,-407.895 121.449,-405.144"/>
</g>
<!-- 綺麗#\n(569)\n&#45;&gt;伸び\n(602)\n -->
<g id="edge60" class="edge"><title>綺麗#\n(569)\n&#45;&gt;伸び\n(602)\n</title>
<path fill="none" stroke="#cf00bd" d="M226.493,-483.281C220.436,-464.162 210.16,-438.045 201,-418.264"/>
<polygon fill="#cf00bd" stroke="#cf00bd" points="202.534,-417.414 198.822,-413.635 199.368,-418.904 202.534,-417.414"/>
</g>
<!-- 綺麗#\n(569)\n&#45;&gt;毛穴\n(249)\n -->
<g id="edge51" class="edge"><title>綺麗#\n(569)\n&#45;&gt;毛穴\n(249)\n</title>
<path fill="none" stroke="#cf00bd" d="M217.779,-532.806C203.655,-567.28 182.623,-630.682 173.201,-667.136"/>
<polygon fill="#cf00bd" stroke="#cf00bd" points="171.421,-667.036 171.897,-672.312 174.815,-667.891 171.421,-667.036"/>
</g>
<!-- 仕上がり\n(413)\n&#45;&gt;綺麗#\n(569)\n -->
<g id="edge15" class="edge"><title>仕上がり\n(413)\n&#45;&gt;綺麗#\n(569)\n</title>
<path fill="none" stroke="#cf00bd" d="M315.323,-376.911C294.161,-403.852 262.336,-450.076 244.262,-480.073"/>
<polygon fill="#cf00bd" stroke="#cf00bd" points="242.754,-479.186 241.698,-484.377 245.76,-480.977 242.754,-479.186"/>
</g>
<!-- ナチュラル\n(149)\n -->
<g id="node28" class="node"><title>ナチュラル\n(149)\n</title>
<ellipse fill="#ffffff" stroke="gray" cx="500.118" cy="-178.609" rx="45.9239" ry="21.4286"/>
<text text-anchor="middle" x="500.118" y="-181.618" font-family="arialuni.ttf" font-size="9.99">ナチュラル</text>
<text text-anchor="middle" x="500.118" y="-170.618" font-family="arialuni.ttf" font-size="9.99">(149)</text>
</g>
<!-- 仕上がり\n(413)\n&#45;&gt;ナチュラル\n(149)\n -->
<g id="edge52" class="edge"><title>仕上がり\n(413)\n&#45;&gt;ナチュラル\n(149)\n</title>
<path fill="none" stroke="gray" d="M356.318,-333.806C387.203,-300.473 446.11,-236.898 478.108,-202.364"/>
<polygon fill="gray" stroke="gray" points="479.759,-203.157 481.873,-198.3 477.191,-200.778 479.759,-203.157"/>
</g>
<!-- カバー力\n(783)\n&#45;&gt;綺麗#\n(569)\n -->
<g id="edge38" class="edge"><title>カバー力\n(783)\n&#45;&gt;綺麗#\n(569)\n</title>
<path fill="none" stroke="#cf00bd" d="M106.599,-409.532C131.943,-433.569 171.245,-467.263 198.872,-488.637"/>
<polygon fill="#cf00bd" stroke="#cf00bd" points="197.828,-490.042 202.86,-491.699 199.96,-487.266 197.828,-490.042"/>
</g>
<!-- カバー力\n(783)\n&#45;&gt;伸び\n(602)\n -->
<g id="edge16" class="edge"><title>カバー力\n(783)\n&#45;&gt;伸び\n(602)\n</title>
<path fill="none" stroke="#cf00bd" d="M125.655,-391.579C131.076,-392.125 136.603,-392.575 141.981,-392.908"/>
<polygon fill="#cf00bd" stroke="#cf00bd" points="142.212,-394.673 147.301,-393.201 142.404,-391.179 142.212,-394.673"/>
</g>
<!-- カバー力\n(783)\n&#45;&gt;薄付き\n(275)\n -->
<g id="edge25" class="edge"><title>カバー力\n(783)\n&#45;&gt;薄付き\n(275)\n</title>
<path fill="none" stroke="#cf00bd" d="M66.4224,-412.732C55.8488,-442.167 42.9877,-485.575 36.5986,-513.735"/>
<polygon fill="#cf00bd" stroke="#cf00bd" points="34.8476,-513.549 35.4829,-518.808 38.2659,-514.301 34.8476,-513.549"/>
</g>
<!-- 伸び\n(602)\n&#45;&gt;感じ\n(465)\n -->
<g id="edge54" class="edge"><title>伸び\n(602)\n&#45;&gt;感じ\n(465)\n</title>
<path fill="none" stroke="#cf00bd" d="M167.136,-413.475C152.715,-441.18 132.605,-486.988 121.762,-516.784"/>
<polygon fill="#cf00bd" stroke="#cf00bd" points="120.008,-516.49 119.976,-521.787 123.305,-517.667 120.008,-516.49"/>
</g>
<!-- 伸び\n(602)\n&#45;&gt;綺麗#\n(569)\n -->
<g id="edge57" class="edge"><title>伸び\n(602)\n&#45;&gt;綺麗#\n(569)\n</title>
<path fill="none" stroke="#cf00bd" d="M187.552,-415.655C193.651,-434.841 203.939,-460.953 213.086,-480.668"/>
<polygon fill="#cf00bd" stroke="#cf00bd" points="211.666,-481.76 215.384,-485.534 214.831,-480.266 211.666,-481.76"/>
</g>
<!-- 伸び\n(602)\n&#45;&gt;仕上がり\n(413)\n -->
<g id="edge64" class="edge"><title>伸び\n(602)\n&#45;&gt;仕上がり\n(413)\n</title>
<path fill="none" stroke="gray" d="M217.89,-382.013C238.8,-377.327 265.716,-371.295 288.593,-366.169"/>
<polygon fill="gray" stroke="gray" points="289.214,-367.823 293.71,-365.022 288.448,-364.408 289.214,-367.823"/>
</g>
<!-- 伸び\n(602)\n&#45;&gt;カバー力\n(783)\n -->
<g id="edge17" class="edge"><title>伸び\n(602)\n&#45;&gt;カバー力\n(783)\n</title>
<path fill="none" stroke="#cf00bd" d="M149.377,-380.439C144.116,-379.771 138.581,-379.186 133.037,-378.709"/>
<polygon fill="#cf00bd" stroke="#cf00bd" points="133.074,-376.957 127.95,-378.302 132.795,-380.446 133.074,-376.957"/>
</g>
<!-- 薄付き\n(275)\n&#45;&gt;カバー力\n(783)\n -->
<g id="edge24" class="edge"><title>薄付き\n(275)\n&#45;&gt;カバー力\n(783)\n</title>
<path fill="none" stroke="#cf00bd" d="M45.2147,-520.024C55.1486,-494.299 68.4664,-450.885 76.2855,-419.413"/>
<polygon fill="#cf00bd" stroke="#cf00bd" points="78.0067,-419.741 77.4919,-414.469 74.6064,-418.911 78.0067,-419.741"/>
</g>
<!-- 毛穴\n(249)\n&#45;&gt;綺麗#\n(569)\n -->
<g id="edge50" class="edge"><title>毛穴\n(249)\n&#45;&gt;綺麗#\n(569)\n</title>
<path fill="none" stroke="#cf00bd" d="M180.928,-673.868C194.702,-640.97 216.007,-577.181 226.031,-539.26"/>
<polygon fill="#cf00bd" stroke="#cf00bd" points="227.753,-539.593 227.312,-534.314 224.364,-538.716 227.753,-539.593"/>
</g>
<!-- カバー\n(192)\n -->
<g id="node14" class="node"><title>カバー\n(192)\n</title>
<ellipse fill="#ffffff" stroke="gray" cx="150.03" cy="-833.481" rx="33.8824" ry="21.4286"/>
<text text-anchor="middle" x="150.03" y="-836.261" font-family="arialuni.ttf" font-size="10.27">カバー</text>
<text text-anchor="middle" x="150.03" y="-825.261" font-family="arialuni.ttf" font-size="10.27">(192)</text>
</g>
<!-- 毛穴\n(249)\n&#45;&gt;カバー\n(192)\n -->
<g id="edge34" class="edge"><title>毛穴\n(249)\n&#45;&gt;カバー\n(192)\n</title>
<path fill="none" stroke="#cf00bd" d="M160.934,-716.742C155.483,-741.201 149.94,-780.801 148.243,-806.993"/>
<polygon fill="#cf00bd" stroke="#cf00bd" points="146.492,-806.952 147.956,-812.044 149.987,-807.151 146.492,-806.952"/>
</g>
<!-- カバー\n(192)\n&#45;&gt;肌\n(2259)\n -->
<g id="edge61" class="edge"><title>カバー\n(192)\n&#45;&gt;肌\n(2259)\n</title>
<path fill="none" stroke="gray" d="M168.693,-815.466C198.896,-786.31 260.161,-727.17 310.257,-678.812"/>
<polygon fill="gray" stroke="gray" points="311.766,-679.787 314.148,-675.055 309.336,-677.269 311.766,-679.787"/>
</g>
<!-- カバー\n(192)\n&#45;&gt;毛穴\n(249)\n -->
<g id="edge36" class="edge"><title>カバー\n(192)\n&#45;&gt;毛穴\n(249)\n</title>
<path fill="none" stroke="#cf00bd" d="M157.963,-812.814C163.403,-788.897 169,-749.402 170.832,-722.773"/>
<polygon fill="#cf00bd" stroke="#cf00bd" points="172.588,-722.725 171.147,-717.627 169.094,-722.511 172.588,-722.725"/>
</g>
<!-- 好き\n(188)\n -->
<g id="node15" class="node"><title>好き\n(188)\n</title>
<ellipse fill="#ffffff" stroke="gray" cx="347.054" cy="-930.194" rx="31.2258" ry="21.4286"/>
<text text-anchor="middle" x="347.054" y="-932.995" font-family="arialuni.ttf" font-size="10.25">好き</text>
<text text-anchor="middle" x="347.054" y="-921.995" font-family="arialuni.ttf" font-size="10.25">(188)</text>
</g>
<!-- 好き\n(188)\n&#45;&gt;肌\n(2259)\n -->
<g id="edge45" class="edge"><title>好き\n(188)\n&#45;&gt;肌\n(2259)\n</title>
<path fill="none" stroke="gray" d="M349.732,-908.785C354.814,-868.147 366.156,-777.461 375.156,-705.497"/>
<polygon fill="gray" stroke="gray" points="376.916,-705.527 375.8,-700.349 373.443,-705.093 376.916,-705.527"/>
</g>
<!-- 透明感\n(227)\n&#45;&gt;自然\n(721)\n -->
<g id="edge62" class="edge"><title>透明感\n(227)\n&#45;&gt;自然\n(721)\n</title>
<path fill="none" stroke="gray" d="M83.4351,-610.625C96.4523,-581.181 119.762,-528.456 135.052,-493.873"/>
<polygon fill="gray" stroke="gray" points="136.826,-494.188 137.247,-488.907 133.625,-492.772 136.826,-494.188"/>
</g>
<!-- 無香料\n(151)\n -->
<g id="node26" class="node"><title>無香料\n(151)\n</title>
<ellipse fill="#ffffff" stroke="gray" cx="626.908" cy="-1140.81" rx="32.5538" ry="21.4286"/>
<text text-anchor="middle" x="626.908" y="-1143.81" font-family="arialuni.ttf" font-size="10.00">無香料</text>
<text text-anchor="middle" x="626.908" y="-1132.81" font-family="arialuni.ttf" font-size="10.00">(151)</text>
</g>
<!-- 無添加\n(164)\n&#45;&gt;無香料\n(151)\n -->
<g id="edge55" class="edge"><title>無添加\n(164)\n&#45;&gt;無香料\n(151)\n</title>
<path fill="none" stroke="gray" d="M557.653,-985.856C572.014,-1017.99 599.822,-1080.21 615.479,-1115.24"/>
<polygon fill="gray" stroke="gray" points="614.06,-1116.35 617.698,-1120.2 617.255,-1114.92 614.06,-1116.35"/>
</g>
<!-- 化粧崩れ\n(158)\n -->
<g id="node20" class="node"><title>化粧崩れ\n(158)\n</title>
<ellipse fill="#ffffff" stroke="gray" cx="714.935" cy="-612.114" rx="39.6962" ry="21.4286"/>
<text text-anchor="middle" x="714.935" y="-615.075" font-family="arialuni.ttf" font-size="10.05">化粧崩れ</text>
<text text-anchor="middle" x="714.935" y="-604.075" font-family="arialuni.ttf" font-size="10.05">(158)</text>
</g>
<!-- 化粧崩れ\n(158)\n&#45;&gt;肌\n(2259)\n -->
<g id="edge65" class="edge"><title>化粧崩れ\n(158)\n&#45;&gt;肌\n(2259)\n</title>
<path fill="none" stroke="gray" d="M675.157,-611.115C632.103,-610.033 561.491,-608.259 501.047,-606.741"/>
<polygon fill="gray" stroke="gray" points="501.017,-604.99 495.975,-606.613 500.929,-608.488 501.017,-604.99"/>
</g>
</g>
</svg>
