<?xml version="1.0" encoding="UTF-8" standalone="no"?>
<!DOCTYPE svg PUBLIC "-//W3C//DTD SVG 1.1//EN"
 "http://www.w3.org/Graphics/SVG/1.1/DTD/svg11.dtd">
<!-- Generated by graphviz version 2.38.0 (20140413.2041)
 -->
<!-- Title: g Pages: 1 -->
<svg width="313pt" height="404pt"
 viewBox="0.00 0.00 313.11 404.21" xmlns="http://www.w3.org/2000/svg" xmlns:xlink="http://www.w3.org/1999/xlink">
<g id="graph0" class="graph" transform="scale(1 1) rotate(0) translate(147.398 219.648)">
<title>g</title>
<polygon fill="white" stroke="none" points="-147.398,184.558 -147.398,-219.648 165.712,-219.648 165.712,184.558 -147.398,184.558"/>
<!-- 肌 -->
<g id="node1" class="node"><title>肌</title>
<ellipse fill="#ffdbeb" stroke="#ff1c62" cx="-1.99438" cy="-16.2919" rx="18" ry="18"/>
<text text-anchor="middle" x="-1.99438" y="-14.3919" font-family="arialuni.ttf" font-size="8.00">肌</text>
</g>
<!-- 自然 -->
<g id="node2" class="node"><title>自然</title>
<ellipse fill="#ffdbeb" stroke="#ff1c62" cx="-31.607" cy="4.21607" rx="18" ry="18"/>
<text text-anchor="middle" x="-31.607" y="6.11607" font-family="arialuni.ttf" font-size="8.00">自然</text>
</g>
<!-- 肌&#45;&gt;自然 -->
<g id="edge10" class="edge"><title>肌&#45;&gt;自然</title>
<path fill="none" stroke="#ff1c62" d="M-16.8007,-6.03793C-16.8585,-5.99788 -16.9164,-5.95782 -16.9742,-5.91777"/>
<polygon fill="#ff1c62" stroke="#ff1c62" points="-6.93241,-8.61542 -17.1477,-5.79762 -10.9192,-14.3707 -6.93241,-8.61542"/>
</g>
<!-- 価格# -->
<g id="node3" class="node"><title>価格#</title>
<ellipse fill="#ffdbeb" stroke="#ff1c62" cx="-19.656" cy="79.0849" rx="18" ry="18"/>
<text text-anchor="middle" x="-19.656" y="80.9849" font-family="arialuni.ttf" font-size="8.00">価格#</text>
</g>
<!-- 肌&#45;&gt;価格# -->
<g id="edge9" class="edge"><title>肌&#45;&gt;価格#</title>
<path fill="none" stroke="#ff1c62" d="M-5.31639,1.64773C-7.90662,15.6356 -11.5497,35.3089 -14.5155,51.3253"/>
<polygon fill="#ff1c62" stroke="#ff1c62" points="-11.0865,52.0302 -16.3489,61.2257 -17.9695,50.7556 -11.0865,52.0302"/>
</g>
<!-- 色 -->
<g id="node4" class="node"><title>色</title>
<ellipse fill="#ffdbeb" stroke="#cf00bd" cx="7.99409" cy="55.6299" rx="18" ry="18"/>
<text text-anchor="middle" x="7.99409" y="57.5299" font-family="arialuni.ttf" font-size="8.00">色</text>
</g>
<!-- 肌&#45;&gt;色 -->
<g id="edge3" class="edge"><title>肌&#45;&gt;色</title>
<path fill="none" stroke="#ff1c62" d="M0.526132,1.85699C1.61083,9.66738 2.90382,18.9775 4.10662,27.6382"/>
<polygon fill="#ff1c62" stroke="#ff1c62" points="7.60004,27.3495 5.50899,37.736 0.666581,28.3125 7.60004,27.3495"/>
</g>
<!-- 自分 -->
<g id="node5" class="node"><title>自分</title>
<ellipse fill="#ffdbeb" stroke="#cf00bd" cx="57.1907" cy="69.0358" rx="18" ry="18"/>
<text text-anchor="middle" x="57.1907" y="70.9358" font-family="arialuni.ttf" font-size="8.00">自分</text>
</g>
<!-- 肌&#45;&gt;自分 -->
<g id="edge2" class="edge"><title>肌&#45;&gt;自分</title>
<path fill="none" stroke="#ff1c62" d="M8.31488,-1.42897C17.3403,11.5831 30.6045,30.7062 41.0383,45.7487"/>
<polygon fill="#ff1c62" stroke="#ff1c62" points="43.9775,43.8452 46.801,54.0569 38.2257,47.8348 43.9775,43.8452"/>
</g>
<!-- 感じ -->
<g id="node6" class="node"><title>感じ</title>
<ellipse fill="#ffffff" stroke="#cf00bd" cx="4.40707" cy="-59.1316" rx="18" ry="18"/>
<text text-anchor="middle" x="4.40707" y="-57.2316" font-family="arialuni.ttf" font-size="8.00">感じ</text>
</g>
<!-- 肌&#45;&gt;感じ -->
<g id="edge8" class="edge"><title>肌&#45;&gt;感じ</title>
<path fill="none" stroke="#ff1c62" d="M0.683318,-34.2116C0.704731,-34.3549 0.726176,-34.4984 0.74765,-34.6421"/>
<polygon fill="#ff1c62" stroke="#ff1c62" points="-3.22005,-31.7731 1.71952,-41.146 3.70309,-30.7385 -3.22005,-31.7731"/>
</g>
<!-- 綺麗# -->
<g id="node7" class="node"><title>綺麗#</title>
<ellipse fill="#ffffff" stroke="#cf00bd" cx="-26.3539" cy="37.3267" rx="18" ry="18"/>
<text text-anchor="middle" x="-26.3539" y="39.2267" font-family="arialuni.ttf" font-size="8.00">綺麗#</text>
</g>
<!-- 肌&#45;&gt;綺麗# -->
<g id="edge4" class="edge"><title>肌&#45;&gt;綺麗#</title>
<path fill="none" stroke="#ff1c62" d="M-9.56835,0.379424C-11.1876,3.94357 -12.9342,7.78806 -14.6674,11.6032"/>
<polygon fill="#ff1c62" stroke="#ff1c62" points="-11.5454,13.1931 -18.8683,20.8498 -17.9185,10.2976 -11.5454,13.1931"/>
</g>
<!-- 仕上がり -->
<g id="node8" class="node"><title>仕上がり</title>
<ellipse fill="#ffffff" stroke="#cf00bd" cx="50.6301" cy="38.0866" rx="18" ry="18"/>
<text text-anchor="middle" x="50.6301" y="39.9866" font-family="arialuni.ttf" font-size="8.00">仕上がり</text>
</g>
<!-- 肌&#45;&gt;仕上がり -->
<g id="edge28" class="edge"><title>肌&#45;&gt;仕上がり</title>
<path fill="none" stroke="#ff1c62" d="M10.7445,-3.12842C16.8207,3.15024 24.2266,10.803 30.9999,17.8021"/>
<polygon fill="#ff1c62" stroke="#ff1c62" points="33.5693,15.4242 38.0085,25.0443 28.5391,20.2922 33.5693,15.4242"/>
</g>
<!-- 手頃# -->
<g id="node9" class="node"><title>手頃#</title>
<ellipse fill="#ffffff" stroke="#cf00bd" cx="-83.5858" cy="53.2368" rx="18" ry="18"/>
<text text-anchor="middle" x="-83.5858" y="55.1368" font-family="arialuni.ttf" font-size="8.00">手頃#</text>
</g>
<!-- 肌&#45;&gt;手頃# -->
<g id="edge18" class="edge"><title>肌&#45;&gt;手頃#</title>
<path fill="none" stroke="#ff1c62" d="M-15.8353,-4.49733C-28.4946,6.29042 -47.4219,22.4194 -62.0558,34.8899"/>
<polygon fill="#ff1c62" stroke="#ff1c62" points="-59.7956,37.5623 -69.6771,41.3844 -64.3359,32.2344 -59.7956,37.5623"/>
</g>
<!-- カバー力 -->
<g id="node10" class="node"><title>カバー力</title>
<ellipse fill="#ffffff" stroke="#cf00bd" cx="-61.0005" cy="41.8536" rx="18" ry="18"/>
<text text-anchor="middle" x="-61.0005" y="43.7536" font-family="arialuni.ttf" font-size="8.00">カバー力</text>
</g>
<!-- 肌&#45;&gt;カバー力 -->
<g id="edge13" class="edge"><title>肌&#45;&gt;カバー力</title>
<path fill="none" stroke="#ff1c62" d="M-15.0897,-3.38755C-22.5763,3.98979 -32.1296,13.4038 -40.5809,21.7319"/>
<polygon fill="#ff1c62" stroke="#ff1c62" points="-38.3622,24.4593 -47.9417,28.9853 -43.2755,19.4734 -38.3622,24.4593"/>
</g>
<!-- 伸び -->
<g id="node11" class="node"><title>伸び</title>
<ellipse fill="#ffffff" stroke="#cf00bd" cx="16.4008" cy="15.6824" rx="18" ry="18"/>
<text text-anchor="middle" x="16.4008" y="17.5824" font-family="arialuni.ttf" font-size="8.00">伸び</text>
</g>
<!-- 肌&#45;&gt;伸び -->
<g id="edge11" class="edge"><title>肌&#45;&gt;伸び</title>
<path fill="none" stroke="#ff1c62" d="M6.98768,-0.679422C7.02416,-0.616011 7.06065,-0.552593 7.09714,-0.489171"/>
<polygon fill="#ff1c62" stroke="#ff1c62" points="5.25155,-10.7136 7.2066,-0.298898 -0.816399,-7.22124 5.25155,-10.7136"/>
</g>
<!-- 薄付き -->
<g id="node12" class="node"><title>薄付き</title>
<ellipse fill="#ffffff" stroke="#cf00bd" cx="-92.591" cy="-12.2979" rx="18" ry="18"/>
<text text-anchor="middle" x="-92.591" y="-10.3979" font-family="arialuni.ttf" font-size="8.00">薄付き</text>
</g>
<!-- 肌&#45;&gt;薄付き -->
<g id="edge44" class="edge"><title>肌&#45;&gt;薄付き</title>
<path fill="none" stroke="#ff1c62" d="M-20.328,-15.4837C-32.9357,-14.9279 -49.9252,-14.1789 -64.263,-13.5468"/>
<polygon fill="#ff1c62" stroke="#ff1c62" points="-64.4494,-10.0352 -74.5938,-13.0913 -64.7577,-17.0284 -64.4494,-10.0352"/>
</g>
<!-- 毛穴 -->
<g id="node13" class="node"><title>毛穴</title>
<ellipse fill="#ffffff" stroke="#cf00bd" cx="-70.4936" cy="-35.8103" rx="18" ry="18"/>
<text text-anchor="middle" x="-70.4936" y="-33.9103" font-family="arialuni.ttf" font-size="8.00">毛穴</text>
</g>
<!-- 肌&#45;&gt;毛穴 -->
<g id="edge31" class="edge"><title>肌&#45;&gt;毛穴</title>
<path fill="none" stroke="#ff1c62" d="M-19.6346,-21.3184C-26.8814,-23.3833 -35.4371,-25.8212 -43.4431,-28.1025"/>
<polygon fill="#ff1c62" stroke="#ff1c62" points="-44.4922,-24.762 -53.1502,-30.8685 -42.5739,-31.4941 -44.4922,-24.762"/>
</g>
<!-- 透明感 -->
<g id="node16" class="node"><title>透明感</title>
<ellipse fill="#ffffff" stroke="gray" cx="-55.7954" cy="-66.819" rx="18" ry="18"/>
<text text-anchor="middle" x="-55.7954" y="-64.919" font-family="arialuni.ttf" font-size="8.00">透明感</text>
</g>
<!-- 肌&#45;&gt;透明感 -->
<g id="edge41" class="edge"><title>肌&#45;&gt;透明感</title>
<path fill="none" stroke="#ff1c62" d="M-15.2935,-28.7818C-21.2875,-34.411 -28.504,-41.1884 -35.1749,-47.4533"/>
<polygon fill="#ff1c62" stroke="#ff1c62" points="-37.7559,-45.0757 -42.6492,-54.4729 -32.9638,-50.1783 -37.7559,-45.0757"/>
</g>
<!-- ファンデーション -->
<g id="node17" class="node"><title>ファンデーション</title>
<ellipse fill="#ffffff" stroke="gray" cx="-109.316" cy="4.46532" rx="34.1647" ry="18"/>
<text text-anchor="middle" x="-109.316" y="6.36532" font-family="arialuni.ttf" font-size="8.00">ファンデーション</text>
</g>
<!-- 肌&#45;&gt;ファンデーション -->
<g id="edge23" class="edge"><title>肌&#45;&gt;ファンデーション</title>
<path fill="none" stroke="#ff1c62" d="M-19.7163,-12.8643C-32.6337,-10.3659 -50.6933,-6.87297 -67.2173,-3.67705"/>
<polygon fill="#ff1c62" stroke="#ff1c62" points="-66.7649,-0.199749 -77.2476,-1.73706 -68.0942,-7.07238 -66.7649,-0.199749"/>
</g>
<!-- 付け心地 -->
<g id="node18" class="node"><title>付け心地</title>
<ellipse fill="#ffffff" stroke="gray" cx="-94.223" cy="-65.1206" rx="18" ry="18"/>
<text text-anchor="middle" x="-94.223" y="-63.2206" font-family="arialuni.ttf" font-size="8.00">付け心地</text>
</g>
<!-- 肌&#45;&gt;付け心地 -->
<g id="edge35" class="edge"><title>肌&#45;&gt;付け心地</title>
<path fill="none" stroke="#ff1c62" d="M-18.0594,-24.7972C-32.1238,-32.2434 -52.7934,-43.1865 -69.0525,-51.7946"/>
<polygon fill="#ff1c62" stroke="#ff1c62" points="-70.8325,-48.7766 -78.0327,-56.5489 -67.5572,-54.9631 -70.8325,-48.7766"/>
</g>
<!-- 無添加 -->
<g id="node19" class="node"><title>無添加</title>
<ellipse fill="#ffffff" stroke="gray" cx="-12.4529" cy="-114.328" rx="18" ry="18"/>
<text text-anchor="middle" x="-12.4529" y="-112.428" font-family="arialuni.ttf" font-size="8.00">無添加</text>
</g>
<!-- 肌&#45;&gt;無添加 -->
<g id="edge26" class="edge"><title>肌&#45;&gt;無添加</title>
<path fill="none" stroke="#ff1c62" d="M-3.91264,-34.2732C-5.45093,-48.6928 -7.63863,-69.1997 -9.41468,-85.848"/>
<polygon fill="#ff1c62" stroke="#ff1c62" points="-12.9308,-85.8134 -10.5114,-96.1283 -5.97026,-86.5561 -12.9308,-85.8134"/>
</g>
<!-- のり -->
<g id="node21" class="node"><title>のり</title>
<ellipse fill="#ffffff" stroke="gray" cx="86.1323" cy="-51.3278" rx="18" ry="18"/>
<text text-anchor="middle" x="86.1323" y="-49.4278" font-family="arialuni.ttf" font-size="8.00">のり</text>
</g>
<!-- 肌&#45;&gt;のり -->
<g id="edge27" class="edge"><title>肌&#45;&gt;のり</title>
<path fill="none" stroke="#ff1c62" d="M14.9973,-23.0472C27.6766,-28.088 45.2385,-35.0699 59.7399,-40.8351"/>
<polygon fill="#ff1c62" stroke="#ff1c62" points="58.6071,-44.1512 69.1928,-44.5932 61.1932,-37.6464 58.6071,-44.1512"/>
</g>
<!-- 負担 -->
<g id="node22" class="node"><title>負担</title>
<ellipse fill="#ffffff" stroke="gray" cx="66.9418" cy="-69.0112" rx="18" ry="18"/>
<text text-anchor="middle" x="66.9418" y="-67.1112" font-family="arialuni.ttf" font-size="8.00">負担</text>
</g>
<!-- 肌&#45;&gt;負担 -->
<g id="edge12" class="edge"><title>肌&#45;&gt;負担</title>
<path fill="none" stroke="#ff1c62" d="M12.6252,-27.4723C21.7648,-34.4619 33.7288,-43.6114 44.1015,-51.5439"/>
<polygon fill="#ff1c62" stroke="#ff1c62" points="42.2737,-54.5523 52.3433,-57.8469 46.526,-48.9919 42.2737,-54.5523"/>
</g>
<!-- 私 -->
<g id="node23" class="node"><title>私</title>
<ellipse fill="#ffffff" stroke="gray" cx="24.845" cy="79.6388" rx="18" ry="18"/>
<text text-anchor="middle" x="24.845" y="81.5388" font-family="arialuni.ttf" font-size="8.00">私</text>
</g>
<!-- 肌&#45;&gt;私 -->
<g id="edge29" class="edge"><title>肌&#45;&gt;私</title>
<path fill="none" stroke="#ff1c62" d="M2.92837,1.30325C6.90088,15.502 12.5609,35.7325 17.1339,52.0776"/>
<polygon fill="#ff1c62" stroke="#ff1c62" points="20.6296,51.582 19.9534,62.1552 13.8885,53.468 20.6296,51.582"/>
</g>
<!-- 気 -->
<g id="node25" class="node"><title>気</title>
<ellipse fill="#ffffff" stroke="gray" cx="89.1743" cy="-25.1709" rx="18" ry="18"/>
<text text-anchor="middle" x="89.1743" y="-23.2709" font-family="arialuni.ttf" font-size="8.00">気</text>
</g>
<!-- 肌&#45;&gt;気 -->
<g id="edge32" class="edge"><title>肌&#45;&gt;気</title>
<path fill="none" stroke="#ff1c62" d="M16.0176,-18.0461C28.879,-19.2987 46.4311,-21.0081 61.119,-22.4386"/>
<polygon fill="#ff1c62" stroke="#ff1c62" points="60.9075,-25.9344 71.1997,-23.4203 61.5861,-18.9674 60.9075,-25.9344"/>
</g>
<!-- フィット -->
<g id="node27" class="node"><title>フィット</title>
<ellipse fill="#ffffff" stroke="gray" cx="50.7118" cy="-90.957" rx="18" ry="18"/>
<text text-anchor="middle" x="50.7118" y="-89.057" font-family="arialuni.ttf" font-size="8.00">フィット</text>
</g>
<!-- 肌&#45;&gt;フィット -->
<g id="edge37" class="edge"><title>肌&#45;&gt;フィット</title>
<path fill="none" stroke="#ff1c62" d="M8.41867,-31.0433C15.8541,-41.5766 26.0013,-55.9513 34.4925,-67.9803"/>
<polygon fill="#ff1c62" stroke="#ff1c62" points="31.6941,-70.085 40.3204,-76.2362 37.4128,-66.0482 31.6941,-70.085"/>
</g>
<!-- 自然&#45;&gt;価格# -->
<g id="edge46" class="edge"><title>自然&#45;&gt;価格#</title>
<path fill="none" stroke="#ff1c62" d="M-28.714,22.3397C-27.3341,30.9843 -25.6522,41.5207 -24.114,51.1571"/>
<polygon fill="#ff1c62" stroke="#ff1c62" points="-20.6425,50.7015 -22.5223,61.1282 -27.555,51.8049 -20.6425,50.7015"/>
</g>
<!-- 自然&#45;&gt;色 -->
<g id="edge20" class="edge"><title>自然&#45;&gt;色</title>
<path fill="none" stroke="#ff1c62" d="M-20.5759,18.5377C-17.1158,23.0299 -13.208,28.1034 -9.4186,33.0231"/>
<polygon fill="#ff1c62" stroke="#ff1c62" points="-6.58236,30.9697 -3.25302,41.0279 -12.128,35.2412 -6.58236,30.9697"/>
</g>
<!-- 自然&#45;&gt;感じ -->
<g id="edge6" class="edge"><title>自然&#45;&gt;感じ</title>
<path fill="none" stroke="#ff1c62" d="M-22.7046,-11.4429C-18.7522,-18.3951 -14.0056,-26.7442 -9.59635,-34.5"/>
<polygon fill="#ff1c62" stroke="#ff1c62" points="-12.628,-36.2492 -4.64302,-43.2127 -6.54269,-32.7896 -12.628,-36.2492"/>
</g>
<!-- 自然&#45;&gt;綺麗# -->
<g id="edge56" class="edge"><title>自然&#45;&gt;綺麗#</title>
<path fill="none" stroke="#ff1c62" d="M-28.7345,22.3214C-28.7249,22.3818 -28.7154,22.4422 -28.7058,22.5025"/>
<polygon fill="#ff1c62" stroke="#ff1c62" points="-26.7918,12.2568 -28.6771,22.6834 -33.7054,13.3569 -26.7918,12.2568"/>
</g>
<!-- 自然&#45;&gt;仕上がり -->
<g id="edge5" class="edge"><title>自然&#45;&gt;仕上がり</title>
<path fill="none" stroke="#ff1c62" d="M-14.5674,11.2341C-3.24541,15.8972 11.8373,22.1092 24.644,27.3838"/>
<polygon fill="#ff1c62" stroke="#ff1c62" points="25.9802,24.1488 33.8937,31.1935 23.3143,30.6214 25.9802,24.1488"/>
</g>
<!-- 自然&#45;&gt;カバー力 -->
<g id="edge21" class="edge"><title>自然&#45;&gt;カバー力</title>
<path fill="none" stroke="#ff1c62" d="M-42.8872,18.6601C-43.0248,18.8363 -43.1629,19.0131 -43.3013,19.1903"/>
<polygon fill="#ff1c62" stroke="#ff1c62" points="-40.6911,21.5345 -49.6046,27.2616 -46.208,17.2259 -40.6911,21.5345"/>
</g>
<!-- 自然&#45;&gt;伸び -->
<g id="edge33" class="edge"><title>自然&#45;&gt;伸び</title>
<path fill="none" stroke="#ff1c62" d="M-14.0032,8.42061C-13.09,8.63872 -12.1635,8.86002 -11.2295,9.08311"/>
<polygon fill="#ff1c62" stroke="#ff1c62" points="-10.1141,5.75098 -1.20077,11.4784 -11.7403,12.5595 -10.1141,5.75098"/>
</g>
<!-- 自然&#45;&gt;薄付き -->
<g id="edge42" class="edge"><title>自然&#45;&gt;薄付き</title>
<path fill="none" stroke="#ff1c62" d="M-49.2461,-0.560451C-54.2193,-1.90716 -59.7509,-3.40506 -65.1533,-4.86798"/>
<polygon fill="#ff1c62" stroke="#ff1c62" points="-66.4646,-1.59695 -75.2021,-7.58913 -64.6349,-8.35361 -66.4646,-1.59695"/>
</g>
<!-- 価格#&#45;&gt;色 -->
<g id="edge19" class="edge"><title>価格#&#45;&gt;色</title>
<path fill="none" stroke="#ff1c62" d="M-5.83095,67.3574C-5.77694,67.3116 -5.72294,67.2658 -5.66894,67.22"/>
<polygon fill="#ff1c62" stroke="#ff1c62" points="-15.3986,70.8837 -5.50695,67.0826 -10.8692,76.2226 -15.3986,70.8837"/>
</g>
<!-- 価格#&#45;&gt;自分 -->
<g id="edge43" class="edge"><title>価格#&#45;&gt;自分</title>
<path fill="none" stroke="#ff1c62" d="M-1.44438,76.7034C7.64741,75.5145 18.8498,74.0496 29.0187,72.7198"/>
<polygon fill="#ff1c62" stroke="#ff1c62" points="28.7404,69.2265 39.1099,71.4002 29.6481,76.1674 28.7404,69.2265"/>
</g>
<!-- 価格#&#45;&gt;仕上がり -->
<g id="edge59" class="edge"><title>価格#&#45;&gt;仕上がり</title>
<path fill="none" stroke="#ff1c62" d="M-4.05723,69.9861C4.86047,64.7843 16.24,58.1465 26.307,52.2744"/>
<polygon fill="#ff1c62" stroke="#ff1c62" points="24.6735,49.1753 35.0749,47.16 28.2005,55.2219 24.6735,49.1753"/>
</g>
<!-- 価格#&#45;&gt;手頃# -->
<g id="edge1" class="edge"><title>価格#&#45;&gt;手頃#</title>
<path fill="none" stroke="#ff1c62" d="M-36.4528,72.2937C-42.8621,69.7022 -50.3307,66.6826 -57.4077,63.8212"/>
<polygon fill="#ff1c62" stroke="#ff1c62" points="-58.7203,67.0658 -66.6792,60.0725 -56.0964,60.5762 -58.7203,67.0658"/>
</g>
<!-- 価格#&#45;&gt;カバー力 -->
<g id="edge30" class="edge"><title>価格#&#45;&gt;カバー力</title>
<path fill="none" stroke="#ff1c62" d="M-33.1937,66.894C-35.3574,64.9456 -37.6399,62.8901 -39.929,60.8288"/>
<polygon fill="#ff1c62" stroke="#ff1c62" points="-42.4846,63.2375 -47.5735,53.9448 -37.8003,58.0357 -42.4846,63.2375"/>
</g>
<!-- 価格#&#45;&gt;伸び -->
<g id="edge49" class="edge"><title>価格#&#45;&gt;伸び</title>
<path fill="none" stroke="#ff1c62" d="M-10.7431,63.4124C-6.78593,56.4542 -2.0337,48.0978 2.3808,40.3354"/>
<polygon fill="#ff1c62" stroke="#ff1c62" points="-0.645951,38.5775 7.34001,31.6151 5.43891,42.0379 -0.645951,38.5775"/>
</g>
<!-- わり -->
<g id="node29" class="node"><title>わり</title>
<ellipse fill="#ffffff" stroke="gray" cx="-77.7211" cy="143.335" rx="18" ry="18"/>
<text text-anchor="middle" x="-77.7211" y="145.235" font-family="arialuni.ttf" font-size="8.00">わり</text>
</g>
<!-- 価格#&#45;&gt;わり -->
<g id="edge63" class="edge"><title>価格#&#45;&gt;わり</title>
<path fill="none" stroke="#ff1c62" d="M-31.9701,92.7108C-39.6684,101.229 -49.7458,112.38 -58.4827,122.048"/>
<polygon fill="#ff1c62" stroke="#ff1c62" points="-56.1231,124.657 -65.4247,129.729 -61.3165,119.963 -56.1231,124.657"/>
</g>
<!-- お手ごろ -->
<g id="node30" class="node"><title>お手ごろ</title>
<ellipse fill="#ffffff" stroke="gray" cx="-13.4551" cy="162.558" rx="18" ry="18"/>
<text text-anchor="middle" x="-13.4551" y="164.458" font-family="arialuni.ttf" font-size="8.00">お手ごろ</text>
</g>
<!-- 価格#&#45;&gt;お手ごろ -->
<g id="edge58" class="edge"><title>価格#&#45;&gt;お手ごろ</title>
<path fill="none" stroke="#ff1c62" d="M-18.3105,97.1974C-17.506,108.026 -16.4665,122.019 -15.5559,134.278"/>
<polygon fill="#ff1c62" stroke="#ff1c62" points="-12.0485,134.249 -14.798,144.481 -19.0292,134.768 -12.0485,134.249"/>
</g>
<!-- 色&#45;&gt;自分 -->
<g id="edge7" class="edge"><title>色&#45;&gt;自分</title>
<path fill="none" stroke="gray" d="M25.4775,60.3941C26.9275,60.7892 28.4135,61.1941 29.913,61.6028"/>
<polygon fill="gray" stroke="gray" points="31.0356,58.281 39.7636,64.287 29.1952,65.0347 31.0356,58.281"/>
</g>
<!-- 色&#45;&gt;綺麗# -->
<g id="edge40" class="edge"><title>色&#45;&gt;綺麗#</title>
<path fill="none" stroke="gray" d="M-7.97323,47.1213C-8.06083,47.0746 -8.14846,47.0279 -8.23613,46.9812"/>
<polygon fill="gray" stroke="gray" points="-2.89969,53.7911 -10.0789,45.9993 0.392411,47.6134 -2.89969,53.7911"/>
</g>
<!-- 色&#45;&gt;カバー力 -->
<g id="edge48" class="edge"><title>色&#45;&gt;カバー力</title>
<path fill="none" stroke="gray" d="M-9.77372,52.0822C-16.8807,50.6631 -25.2376,48.9945 -33.1164,47.4213"/>
<polygon fill="gray" stroke="gray" points="-33.932,50.8276 -43.0531,45.4372 -32.5613,43.9631 -33.932,50.8276"/>
</g>
<!-- 色&#45;&gt;伸び -->
<g id="edge47" class="edge"><title>色&#45;&gt;伸び</title>
<path fill="none" stroke="gray" d="M11.7059,37.9921C11.7257,37.898 11.7455,37.8039 11.7653,37.7097"/>
<polygon fill="gray" stroke="gray" points="7.17546,42.5233 12.66,33.4584 14.0254,43.9649 7.17546,42.5233"/>
</g>
<!-- 肌色 -->
<g id="node24" class="node"><title>肌色</title>
<ellipse fill="#ffffff" stroke="gray" cx="106.774" cy="138.516" rx="18" ry="18"/>
<text text-anchor="middle" x="106.774" y="140.416" font-family="arialuni.ttf" font-size="8.00">肌色</text>
</g>
<!-- 自分&#45;&gt;肌色 -->
<g id="edge22" class="edge"><title>自分&#45;&gt;肌色</title>
<path fill="none" stroke="gray" d="M67.706,83.7708C74.2798,92.9825 82.8851,105.041 90.3457,115.495"/>
<polygon fill="gray" stroke="gray" points="93.3138,113.629 96.2737,123.802 87.6159,117.696 93.3138,113.629"/>
</g>
<!-- 感じ&#45;&gt;伸び -->
<g id="edge53" class="edge"><title>感じ&#45;&gt;伸び</title>
<path fill="none" stroke="#cf00bd" d="M12.8168,-43.067C15.2419,-34.1351 17.3191,-22.7673 18.495,-12.4144"/>
<polygon fill="#cf00bd" stroke="#cf00bd" points="22.009,-12.3988 19.3711,-2.13759 15.0342,-11.8041 22.009,-12.3988"/>
</g>
<!-- 綺麗#&#45;&gt;仕上がり -->
<g id="edge14" class="edge"><title>綺麗#&#45;&gt;仕上がり</title>
<path fill="none" stroke="#cf00bd" d="M-9.21219,31.7756C0.299643,30.8453 12.3557,30.7039 23.1501,31.3138"/>
<polygon fill="#cf00bd" stroke="#cf00bd" points="23.7109,27.8484 33.3831,32.1727 23.1254,34.8239 23.7109,27.8484"/>
</g>
<!-- 綺麗#&#45;&gt;カバー力 -->
<g id="edge39" class="edge"><title>綺麗#&#45;&gt;カバー力</title>
<path fill="none" stroke="#cf00bd" d="M-42.3969,46.2286C-42.5342,46.2477 -42.6715,46.2662 -42.809,46.2841"/>
<polygon fill="#cf00bd" stroke="#cf00bd" points="-32.8609,48.5527 -43.2215,46.3362 -33.74,41.608 -32.8609,48.5527"/>
</g>
<!-- 綺麗#&#45;&gt;伸び -->
<g id="edge60" class="edge"><title>綺麗#&#45;&gt;伸び</title>
<path fill="none" stroke="#cf00bd" d="M-13.86,23.7021C-12.9155,23.134 -11.9438,22.575 -10.9539,22.0295"/>
<polygon fill="#cf00bd" stroke="#cf00bd" points="-12.3313,18.808 -1.80391,17.6142 -9.28909,25.1124 -12.3313,18.808"/>
</g>
<!-- 綺麗#&#45;&gt;毛穴 -->
<g id="edge51" class="edge"><title>綺麗#&#45;&gt;毛穴</title>
<path fill="none" stroke="#cf00bd" d="M-40.0367,25.3934C-47.1621,16.0345 -55.4986,2.73657 -61.784,-9.09515"/>
<polygon fill="#cf00bd" stroke="#cf00bd" points="-64.9781,-7.65719 -66.3227,-18.1664 -58.718,-10.7894 -64.9781,-7.65719"/>
</g>
<!-- 仕上がり&#45;&gt;綺麗# -->
<g id="edge15" class="edge"><title>仕上がり&#45;&gt;綺麗#</title>
<path fill="none" stroke="#cf00bd" d="M33.4884,43.6377C23.9766,44.5679 11.9205,44.7094 1.12609,44.0995"/>
<polygon fill="#cf00bd" stroke="#cf00bd" points="0.565311,47.5648 -9.10688,43.2406 1.15085,40.5894 0.565311,47.5648"/>
</g>
<!-- ナチュラル -->
<g id="node28" class="node"><title>ナチュラル</title>
<ellipse fill="#ffffff" stroke="gray" cx="140.023" cy="72.3202" rx="21.8791" ry="18"/>
<text text-anchor="middle" x="140.023" y="74.2202" font-family="arialuni.ttf" font-size="8.00">ナチュラル</text>
</g>
<!-- 仕上がり&#45;&gt;ナチュラル -->
<g id="edge52" class="edge"><title>仕上がり&#45;&gt;ナチュラル</title>
<path fill="none" stroke="gray" d="M67.4442,44.5257C79.6077,49.1838 96.3582,55.5985 110.703,61.0918"/>
<polygon fill="gray" stroke="gray" points="112.076,57.8698 120.163,64.7147 109.573,64.4068 112.076,57.8698"/>
</g>
<!-- カバー力&#45;&gt;綺麗# -->
<g id="edge38" class="edge"><title>カバー力&#45;&gt;綺麗#</title>
<path fill="none" stroke="#cf00bd" d="M-44.9575,32.9517C-44.8202,32.9327 -44.6828,32.9142 -44.5453,32.8962"/>
<polygon fill="#cf00bd" stroke="#cf00bd" points="-54.4935,30.6276 -44.1328,32.8441 -53.6143,37.5724 -54.4935,30.6276"/>
</g>
<!-- カバー力&#45;&gt;伸び -->
<g id="edge16" class="edge"><title>カバー力&#45;&gt;伸び</title>
<path fill="none" stroke="#cf00bd" d="M-46.3909,30.9643C-36.5998,26.4403 -23.4156,21.7081 -11.6491,18.3943"/>
<polygon fill="#cf00bd" stroke="#cf00bd" points="-12.3489,14.9609 -1.79471,15.8882 -10.6236,21.7449 -12.3489,14.9609"/>
</g>
<!-- カバー力&#45;&gt;薄付き -->
<g id="edge25" class="edge"><title>カバー力&#45;&gt;薄付き</title>
<path fill="none" stroke="#cf00bd" d="M-74.8937,30.1256C-78.236,25.5147 -81.6625,20.0424 -84.6651,14.5797"/>
<polygon fill="#cf00bd" stroke="#cf00bd" points="-87.842,16.0532 -89.2284,5.54947 -81.5944,12.8961 -87.842,16.0532"/>
</g>
<!-- 伸び&#45;&gt;感じ -->
<g id="edge54" class="edge"><title>伸び&#45;&gt;感じ</title>
<path fill="none" stroke="#cf00bd" d="M7.99109,-0.382127C5.56597,-9.31406 3.48885,-20.6818 2.31291,-31.0347"/>
<polygon fill="#cf00bd" stroke="#cf00bd" points="-1.20103,-31.0504 1.43686,-41.3116 5.77367,-31.645 -1.20103,-31.0504"/>
</g>
<!-- 伸び&#45;&gt;綺麗# -->
<g id="edge57" class="edge"><title>伸び&#45;&gt;綺麗#</title>
<path fill="none" stroke="#cf00bd" d="M3.90696,29.3071C2.96252,29.8751 1.99076,30.4342 1.00088,30.9796"/>
<polygon fill="#cf00bd" stroke="#cf00bd" points="2.37826,34.2011 -8.14912,35.3949 -0.663936,27.8967 2.37826,34.2011"/>
</g>
<!-- 伸び&#45;&gt;仕上がり -->
<g id="edge64" class="edge"><title>伸び&#45;&gt;仕上がり</title>
<path fill="none" stroke="gray" d="M31.5139,25.5744C31.6751,25.6799 31.8365,25.7856 31.9981,25.8914"/>
<polygon fill="gray" stroke="gray" points="28.9483,19.712 35.3986,28.1171 25.1147,25.5689 28.9483,19.712"/>
</g>
<!-- 伸び&#45;&gt;カバー力 -->
<g id="edge17" class="edge"><title>伸び&#45;&gt;カバー力</title>
<path fill="none" stroke="#cf00bd" d="M1.79128,26.5717C-7.99983,31.0958 -21.184,35.828 -32.9505,39.1418"/>
<polygon fill="#cf00bd" stroke="#cf00bd" points="-32.2507,42.5752 -42.8049,41.6479 -33.976,35.7911 -32.2507,42.5752"/>
</g>
<!-- 薄付き&#45;&gt;カバー力 -->
<g id="edge24" class="edge"><title>薄付き&#45;&gt;カバー力</title>
<path fill="none" stroke="#cf00bd" d="M-78.6977,-0.569887C-75.3554,4.04109 -71.9289,9.51339 -68.9263,14.976"/>
<polygon fill="#cf00bd" stroke="#cf00bd" points="-65.7494,13.5025 -64.363,24.0063 -71.997,16.6597 -65.7494,13.5025"/>
</g>
<!-- 毛穴&#45;&gt;綺麗# -->
<g id="edge50" class="edge"><title>毛穴&#45;&gt;綺麗#</title>
<path fill="none" stroke="#cf00bd" d="M-56.8107,-23.877C-49.6853,-14.5181 -41.3488,-1.2202 -35.0635,10.6115"/>
<polygon fill="#cf00bd" stroke="#cf00bd" points="-31.8693,9.17356 -30.5248,19.6827 -38.1295,12.3058 -31.8693,9.17356"/>
</g>
<!-- カバー -->
<g id="node14" class="node"><title>カバー</title>
<ellipse fill="#ffffff" stroke="gray" cx="-50.8369" cy="-93.9322" rx="18" ry="18"/>
<text text-anchor="middle" x="-50.8369" y="-92.0322" font-family="arialuni.ttf" font-size="8.00">カバー</text>
</g>
<!-- 毛穴&#45;&gt;カバー -->
<g id="edge34" class="edge"><title>毛穴&#45;&gt;カバー</title>
<path fill="none" stroke="#cf00bd" d="M-70.8187,-53.9623C-69.6112,-59.1686 -67.8735,-64.9164 -65.8801,-70.3943"/>
<polygon fill="#cf00bd" stroke="#cf00bd" points="-69.0735,-71.8333 -62.075,-79.7877 -62.5856,-69.2052 -69.0735,-71.8333"/>
</g>
<!-- カバー&#45;&gt;肌 -->
<g id="edge61" class="edge"><title>カバー&#45;&gt;肌</title>
<path fill="none" stroke="gray" d="M-41.1872,-78.593C-34.2968,-67.6401 -24.8935,-52.6925 -17.0247,-40.1842"/>
<polygon fill="gray" stroke="gray" points="-13.9864,-41.9274 -11.624,-31.5993 -19.9115,-38.2 -13.9864,-41.9274"/>
</g>
<!-- カバー&#45;&gt;毛穴 -->
<g id="edge36" class="edge"><title>カバー&#45;&gt;毛穴</title>
<path fill="none" stroke="#cf00bd" d="M-50.5118,-75.7803C-51.7193,-70.574 -53.457,-64.8261 -55.4504,-59.3482"/>
<polygon fill="#cf00bd" stroke="#cf00bd" points="-52.257,-57.9092 -59.2554,-49.9548 -58.7449,-60.5374 -52.257,-57.9092"/>
</g>
<!-- 好き -->
<g id="node15" class="node"><title>好き</title>
<ellipse fill="#ffffff" stroke="gray" cx="20.2153" cy="-98.5679" rx="18" ry="18"/>
<text text-anchor="middle" x="20.2153" y="-96.6679" font-family="arialuni.ttf" font-size="8.00">好き</text>
</g>
<!-- 好き&#45;&gt;肌 -->
<g id="edge45" class="edge"><title>好き&#45;&gt;肌</title>
<path fill="none" stroke="gray" d="M15.5052,-81.1193C12.5606,-70.2111 8.70608,-55.9319 5.36425,-43.5521"/>
<polygon fill="gray" stroke="gray" points="8.69419,-42.4577 2.70893,-33.7154 1.93608,-44.282 8.69419,-42.4577"/>
</g>
<!-- 透明感&#45;&gt;自然 -->
<g id="edge62" class="edge"><title>透明感&#45;&gt;自然</title>
<path fill="none" stroke="gray" d="M-49.94,-49.6234C-47.2175,-41.6281 -43.9142,-31.9271 -40.8656,-22.9742"/>
<polygon fill="gray" stroke="gray" points="-37.4867,-23.9091 -37.5764,-13.3147 -44.1131,-21.6527 -37.4867,-23.9091"/>
</g>
<!-- 無香料 -->
<g id="node26" class="node"><title>無香料</title>
<ellipse fill="#ffffff" stroke="gray" cx="-10.3119" cy="-197.648" rx="18" ry="18"/>
<text text-anchor="middle" x="-10.3119" y="-195.748" font-family="arialuni.ttf" font-size="8.00">無香料</text>
</g>
<!-- 無添加&#45;&gt;無香料 -->
<g id="edge55" class="edge"><title>無添加&#45;&gt;無香料</title>
<path fill="none" stroke="gray" d="M-11.9883,-132.407C-11.7106,-143.216 -11.3517,-157.184 -11.0373,-169.42"/>
<polygon fill="gray" stroke="gray" points="-14.5314,-169.697 -10.7756,-179.604 -7.53368,-169.518 -14.5314,-169.697"/>
</g>
<!-- 化粧崩れ -->
<g id="node20" class="node"><title>化粧崩れ</title>
<ellipse fill="#ffffff" stroke="gray" cx="89.9541" cy="1.42748" rx="18" ry="18"/>
<text text-anchor="middle" x="89.9541" y="3.32748" font-family="arialuni.ttf" font-size="8.00">化粧崩れ</text>
</g>
<!-- 化粧崩れ&#45;&gt;肌 -->
<g id="edge65" class="edge"><title>化粧崩れ&#45;&gt;肌</title>
<path fill="none" stroke="gray" d="M72.2255,-1.98901C59.0812,-4.52205 40.9076,-8.02429 25.8339,-10.9291"/>
<polygon fill="gray" stroke="gray" points="25.1505,-7.49635 15.9935,-12.8255 26.4752,-14.3699 25.1505,-7.49635"/>
</g>
</g>
</svg>
