<?xml version="1.0" encoding="UTF-8" standalone="no"?>
<!DOCTYPE svg PUBLIC "-//W3C//DTD SVG 1.1//EN"
 "http://www.w3.org/Graphics/SVG/1.1/DTD/svg11.dtd">
<!-- Generated by graphviz version 2.38.0 (20140413.2041)
 -->
<!-- Title: g Pages: 1 -->
<svg width="567pt" height="576pt"
 viewBox="0.00 0.00 566.69 576.00" xmlns="http://www.w3.org/2000/svg" xmlns:xlink="http://www.w3.org/1999/xlink">
<g id="graph0" class="graph" transform="scale(0.465267 0.465267) rotate(0) translate(4 1234)">
<title>g</title>
<polygon fill="white" stroke="none" points="-4,4 -4,-1234 1214,-1234 1214,4 -4,4"/>
<!-- 肌\n(2259)\n -->
<g id="node1" class="node"><title>肌\n(2259)\n</title>
<ellipse fill="#ffdbeb" stroke="#ff1c62" cx="478.427" cy="-576.259" rx="108" ry="97"/>
<text text-anchor="middle" x="478.427" y="-581.859" font-family="arialuni.ttf" font-size="18.00">肌</text>
<text text-anchor="middle" x="478.427" y="-561.859" font-family="arialuni.ttf" font-size="18.00">(2259)</text>
</g>
<!-- 自然\n(721)\n -->
<g id="node2" class="node"><title>自然\n(721)\n</title>
<ellipse fill="#ffdbeb" stroke="#ff1c62" cx="657.137" cy="-410.012" rx="34.5" ry="31"/>
<text text-anchor="middle" x="657.137" y="-413.982" font-family="arialuni.ttf" font-size="13.79">自然</text>
<text text-anchor="middle" x="657.137" y="-398.982" font-family="arialuni.ttf" font-size="13.79">(721)</text>
</g>
<!-- 肌\n(2259)\n&#45;&gt;自然\n(721)\n -->
<g id="edge10" class="edge"><title>肌\n(2259)\n&#45;&gt;自然\n(721)\n</title>
<path fill="none" stroke="#ff1c62" d="M553.698,-506.237C580.459,-481.342 608.949,-454.839 629.239,-435.965"/>
<polygon fill="#ff1c62" stroke="#ff1c62" points="630.461,-437.218 632.93,-432.531 628.077,-434.655 630.461,-437.218"/>
</g>
<!-- 価格#\n(868)\n -->
<g id="node3" class="node"><title>価格#\n(868)\n</title>
<ellipse fill="#ffdbeb" stroke="#ff1c62" cx="901.134" cy="-424.86" rx="41.5" ry="37.5"/>
<text text-anchor="middle" x="901.134" y="-429.049" font-family="arialuni.ttf" font-size="14.76">価格#</text>
<text text-anchor="middle" x="901.134" y="-413.049" font-family="arialuni.ttf" font-size="14.76">(868)</text>
</g>
<!-- 肌\n(2259)\n&#45;&gt;価格#\n(868)\n -->
<g id="edge9" class="edge"><title>肌\n(2259)\n&#45;&gt;価格#\n(868)\n</title>
<path fill="none" stroke="#ff1c62" d="M578.871,-540.284C667.395,-508.577 792.14,-463.898 857.42,-440.517"/>
<polygon fill="#ff1c62" stroke="#ff1c62" points="858.282,-442.067 862.399,-438.733 857.102,-438.772 858.282,-442.067"/>
</g>
<!-- 色\n(650)\n -->
<g id="node4" class="node"><title>色\n(650)\n</title>
<ellipse fill="#ffdbeb" stroke="#cf00bd" cx="731.299" cy="-482.071" rx="35.2934" ry="28"/>
<text text-anchor="middle" x="731.299" y="-486.419" font-family="arialuni.ttf" font-size="13.32">色</text>
<text text-anchor="middle" x="731.299" y="-471.419" font-family="arialuni.ttf" font-size="13.32">(650)</text>
</g>
<!-- 肌\n(2259)\n&#45;&gt;色\n(650)\n -->
<g id="edge3" class="edge"><title>肌\n(2259)\n&#45;&gt;色\n(650)\n</title>
<path fill="none" stroke="#ff1c62" d="M578.369,-539.034C619.254,-523.805 664.008,-507.135 694.476,-495.787"/>
<polygon fill="#ff1c62" stroke="#ff1c62" points="695.166,-497.398 699.241,-494.012 693.944,-494.118 695.166,-497.398"/>
</g>
<!-- 自分\n(468)\n -->
<g id="node5" class="node"><title>自分\n(468)\n</title>
<ellipse fill="#ffdbeb" stroke="#cf00bd" cx="824.46" cy="-345.345" rx="33.8824" ry="24.0833"/>
<text text-anchor="middle" x="824.46" y="-348.659" font-family="arialuni.ttf" font-size="12.11">自分</text>
<text text-anchor="middle" x="824.46" y="-335.659" font-family="arialuni.ttf" font-size="12.11">(468)</text>
</g>
<!-- 肌\n(2259)\n&#45;&gt;自分\n(468)\n -->
<g id="edge2" class="edge"><title>肌\n(2259)\n&#45;&gt;自分\n(468)\n</title>
<path fill="none" stroke="#ff1c62" d="M565.299,-518.288C640.506,-468.101 744.868,-398.458 795.115,-364.927"/>
<polygon fill="#ff1c62" stroke="#ff1c62" points="796.327,-366.222 799.515,-361.991 794.384,-363.311 796.327,-366.222"/>
</g>
<!-- 感じ\n(465)\n -->
<g id="node6" class="node"><title>感じ\n(465)\n</title>
<ellipse fill="#ffffff" stroke="#cf00bd" cx="505.965" cy="-247.128" rx="33.8824" ry="24.0833"/>
<text text-anchor="middle" x="505.965" y="-250.458" font-family="arialuni.ttf" font-size="12.09">感じ</text>
<text text-anchor="middle" x="505.965" y="-237.458" font-family="arialuni.ttf" font-size="12.09">(465)</text>
</g>
<!-- 肌\n(2259)\n&#45;&gt;感じ\n(465)\n -->
<g id="edge8" class="edge"><title>肌\n(2259)\n&#45;&gt;感じ\n(465)\n</title>
<path fill="none" stroke="#ff1c62" d="M486.541,-479.289C492.33,-410.09 499.735,-321.591 503.511,-276.46"/>
<polygon fill="#ff1c62" stroke="#ff1c62" points="505.258,-276.567 503.931,-271.438 501.77,-276.275 505.258,-276.567"/>
</g>
<!-- 綺麗#\n(569)\n -->
<g id="node7" class="node"><title>綺麗#\n(569)\n</title>
<ellipse fill="#ffffff" stroke="#cf00bd" cx="542.335" cy="-357.004" rx="37.4533" ry="25.4118"/>
<text text-anchor="middle" x="542.335" y="-360.782" font-family="arialuni.ttf" font-size="12.78">綺麗#</text>
<text text-anchor="middle" x="542.335" y="-346.782" font-family="arialuni.ttf" font-size="12.78">(569)</text>
</g>
<!-- 肌\n(2259)\n&#45;&gt;綺麗#\n(569)\n -->
<g id="edge4" class="edge"><title>肌\n(2259)\n&#45;&gt;綺麗#\n(569)\n</title>
<path fill="none" stroke="#ff1c62" d="M505.808,-482.321C515.739,-448.249 526.272,-412.112 533.462,-387.444"/>
<polygon fill="#ff1c62" stroke="#ff1c62" points="535.225,-387.649 534.945,-382.359 531.865,-386.669 535.225,-387.649"/>
</g>
<!-- 仕上がり\n(413)\n -->
<g id="node8" class="node"><title>仕上がり\n(413)\n</title>
<ellipse fill="#ffffff" stroke="#cf00bd" cx="622.415" cy="-295.302" rx="45.9239" ry="24.0833"/>
<text text-anchor="middle" x="622.415" y="-298.908" font-family="arialuni.ttf" font-size="11.74">仕上がり</text>
<text text-anchor="middle" x="622.415" y="-285.908" font-family="arialuni.ttf" font-size="11.74">(413)</text>
</g>
<!-- 肌\n(2259)\n&#45;&gt;仕上がり\n(413)\n -->
<g id="edge28" class="edge"><title>肌\n(2259)\n&#45;&gt;仕上がり\n(413)\n</title>
<path fill="none" stroke="#ff1c62" d="M523.591,-488.133C552.677,-431.379 588.58,-361.322 608.11,-323.214"/>
<polygon fill="#ff1c62" stroke="#ff1c62" points="609.686,-323.976 610.409,-318.728 606.571,-322.38 609.686,-323.976"/>
</g>
<!-- カバー力\n(783)\n -->
<g id="node9" class="node"><title>カバー力\n(783)\n</title>
<ellipse fill="#ffffff" stroke="#cf00bd" cx="731.871" cy="-337.483" rx="46.2432" ry="33.5"/>
<text text-anchor="middle" x="731.871" y="-342.124" font-family="arialuni.ttf" font-size="14.20">カバー力</text>
<text text-anchor="middle" x="731.871" y="-326.124" font-family="arialuni.ttf" font-size="14.20">(783)</text>
</g>
<!-- 肌\n(2259)\n&#45;&gt;カバー力\n(783)\n -->
<g id="edge13" class="edge"><title>肌\n(2259)\n&#45;&gt;カバー力\n(783)\n</title>
<path fill="none" stroke="#ff1c62" d="M553.098,-505.91C601.843,-459.986 663.025,-402.345 699.702,-367.79"/>
<polygon fill="#ff1c62" stroke="#ff1c62" points="701.173,-368.809 703.612,-364.107 698.773,-366.262 701.173,-368.809"/>
</g>
<!-- 手頃#\n(350)\n -->
<g id="node10" class="node"><title>手頃#\n(350)\n</title>
<ellipse fill="#ffffff" stroke="#cf00bd" cx="843.125" cy="-628.505" rx="34.7971" ry="22.7556"/>
<text text-anchor="middle" x="843.125" y="-631.445" font-family="arialuni.ttf" font-size="11.32">手頃#</text>
<text text-anchor="middle" x="843.125" y="-619.445" font-family="arialuni.ttf" font-size="11.32">(350)</text>
</g>
<!-- 肌\n(2259)\n&#45;&gt;手頃#\n(350)\n -->
<g id="edge18" class="edge"><title>肌\n(2259)\n&#45;&gt;手頃#\n(350)\n</title>
<path fill="none" stroke="#ff1c62" d="M585.385,-591.581C658.74,-602.09 751.852,-615.429 803.7,-622.857"/>
<polygon fill="#ff1c62" stroke="#ff1c62" points="803.695,-624.624 808.893,-623.601 804.192,-621.159 803.695,-624.624"/>
</g>
<!-- 伸び\n(602)\n -->
<g id="node11" class="node"><title>伸び\n(602)\n</title>
<ellipse fill="#ffffff" stroke="#cf00bd" cx="723.589" cy="-262.806" rx="36.0619" ry="26"/>
<text text-anchor="middle" x="723.589" y="-266.408" font-family="arialuni.ttf" font-size="13.00">伸び</text>
<text text-anchor="middle" x="723.589" y="-252.408" font-family="arialuni.ttf" font-size="13.00">(602)</text>
</g>
<!-- 肌\n(2259)\n&#45;&gt;伸び\n(602)\n -->
<g id="edge11" class="edge"><title>肌\n(2259)\n&#45;&gt;伸び\n(602)\n</title>
<path fill="none" stroke="#ff1c62" d="M540.609,-496.756C593.762,-428.797 667.115,-335.011 702.636,-289.596"/>
<polygon fill="#ff1c62" stroke="#ff1c62" points="704.045,-290.635 705.747,-285.618 701.288,-288.479 704.045,-290.635"/>
</g>
<!-- 薄付き\n(275)\n -->
<g id="node12" class="node"><title>薄付き\n(275)\n</title>
<ellipse fill="#ffffff" stroke="#cf00bd" cx="593.103" cy="-237.688" rx="33.8824" ry="22.7556"/>
<text text-anchor="middle" x="593.103" y="-241.027" font-family="arialuni.ttf" font-size="10.83">薄付き</text>
<text text-anchor="middle" x="593.103" y="-229.027" font-family="arialuni.ttf" font-size="10.83">(275)</text>
</g>
<!-- 肌\n(2259)\n&#45;&gt;薄付き\n(275)\n -->
<g id="edge44" class="edge"><title>肌\n(2259)\n&#45;&gt;薄付き\n(275)\n</title>
<path fill="none" stroke="#ff1c62" d="M509.915,-483.295C534.865,-409.632 568.074,-311.583 583.926,-264.781"/>
<polygon fill="#ff1c62" stroke="#ff1c62" points="585.642,-265.17 585.589,-259.873 582.327,-264.047 585.642,-265.17"/>
</g>
<!-- 毛穴\n(249)\n -->
<g id="node13" class="node"><title>毛穴\n(249)\n</title>
<ellipse fill="#ffffff" stroke="#cf00bd" cx="335.249" cy="-313.445" rx="31.2258" ry="22.7556"/>
<text text-anchor="middle" x="335.249" y="-316.922" font-family="arialuni.ttf" font-size="10.65">毛穴</text>
<text text-anchor="middle" x="335.249" y="-304.922" font-family="arialuni.ttf" font-size="10.65">(249)</text>
</g>
<!-- 肌\n(2259)\n&#45;&gt;毛穴\n(249)\n -->
<g id="edge31" class="edge"><title>肌\n(2259)\n&#45;&gt;毛穴\n(249)\n</title>
<path fill="none" stroke="#ff1c62" d="M430.95,-489.111C402.359,-436.63 367.959,-373.486 349.174,-339.005"/>
<polygon fill="#ff1c62" stroke="#ff1c62" points="350.669,-338.091 346.74,-334.538 347.595,-339.766 350.669,-338.091"/>
</g>
<!-- ファンデーション\n(153)\n -->
<g id="node16" class="node"><title>ファンデーション\n(153)\n</title>
<ellipse fill="#ffffff" stroke="gray" cx="66.8924" cy="-639.794" rx="66.4361" ry="21.4286"/>
<text text-anchor="middle" x="66.8924" y="-642.781" font-family="arialuni.ttf" font-size="10.02">ファンデーション</text>
<text text-anchor="middle" x="66.8924" y="-631.781" font-family="arialuni.ttf" font-size="10.02">(153)</text>
</g>
<!-- 肌\n(2259)\n&#45;&gt;ファンデーション\n(153)\n -->
<g id="edge23" class="edge"><title>肌\n(2259)\n&#45;&gt;ファンデーション\n(153)\n</title>
<path fill="none" stroke="#ff1c62" d="M371.912,-592.703C295.896,-604.439 196.116,-619.844 131.744,-629.782"/>
<polygon fill="#ff1c62" stroke="#ff1c62" points="131.46,-628.055 126.786,-630.547 131.994,-631.514 131.46,-628.055"/>
</g>
<!-- 透明感\n(227)\n -->
<g id="node17" class="node"><title>透明感\n(227)\n</title>
<ellipse fill="#ffffff" stroke="#cf00bd" cx="635.473" cy="-617.207" rx="33.8824" ry="22.7556"/>
<text text-anchor="middle" x="635.473" y="-620.801" font-family="arialuni.ttf" font-size="10.51">透明感</text>
<text text-anchor="middle" x="635.473" y="-608.801" font-family="arialuni.ttf" font-size="10.51">(227)</text>
</g>
<!-- 肌\n(2259)\n&#45;&gt;透明感\n(227)\n -->
<g id="edge41" class="edge"><title>肌\n(2259)\n&#45;&gt;透明感\n(227)\n</title>
<path fill="none" stroke="#ff1c62" d="M582.304,-603.344C588.037,-604.839 593.568,-606.281 598.755,-607.633"/>
<polygon fill="#ff1c62" stroke="#ff1c62" points="598.542,-609.386 603.822,-608.955 599.426,-606 598.542,-609.386"/>
</g>
<!-- 付け心地\n(158)\n -->
<g id="node18" class="node"><title>付け心地\n(158)\n</title>
<ellipse fill="#ffffff" stroke="gray" cx="214.714" cy="-825.406" rx="39.6962" ry="21.4286"/>
<text text-anchor="middle" x="214.714" y="-828.367" font-family="arialuni.ttf" font-size="10.05">付け心地</text>
<text text-anchor="middle" x="214.714" y="-817.367" font-family="arialuni.ttf" font-size="10.05">(158)</text>
</g>
<!-- 肌\n(2259)\n&#45;&gt;付け心地\n(158)\n -->
<g id="edge35" class="edge"><title>肌\n(2259)\n&#45;&gt;付け心地\n(158)\n</title>
<path fill="none" stroke="#ff1c62" d="M403.915,-646.655C348.072,-699.414 275.186,-768.274 238.302,-803.121"/>
<polygon fill="#ff1c62" stroke="#ff1c62" points="236.849,-802.087 234.416,-806.792 239.252,-804.631 236.849,-802.087"/>
</g>
<!-- 無添加\n(164)\n -->
<g id="node19" class="node"><title>無添加\n(164)\n</title>
<ellipse fill="#ffffff" stroke="gray" cx="357.411" cy="-991.193" rx="32.5538" ry="21.4286"/>
<text text-anchor="middle" x="357.411" y="-994.122" font-family="arialuni.ttf" font-size="10.09">無添加</text>
<text text-anchor="middle" x="357.411" y="-983.122" font-family="arialuni.ttf" font-size="10.09">(164)</text>
</g>
<!-- 肌\n(2259)\n&#45;&gt;無添加\n(164)\n -->
<g id="edge26" class="edge"><title>肌\n(2259)\n&#45;&gt;無添加\n(164)\n</title>
<path fill="none" stroke="#ff1c62" d="M451.042,-670.155C423.225,-765.532 381.908,-907.198 365.02,-965.104"/>
<polygon fill="#ff1c62" stroke="#ff1c62" points="363.279,-964.824 363.559,-970.114 366.639,-965.804 363.279,-964.824"/>
</g>
<!-- のり\n(191)\n -->
<g id="node21" class="node"><title>のり\n(191)\n</title>
<ellipse fill="#ffffff" stroke="gray" cx="489.907" cy="-923.168" rx="31.2258" ry="21.4286"/>
<text text-anchor="middle" x="489.907" y="-925.953" font-family="arialuni.ttf" font-size="10.27">のり</text>
<text text-anchor="middle" x="489.907" y="-914.953" font-family="arialuni.ttf" font-size="10.27">(191)</text>
</g>
<!-- 肌\n(2259)\n&#45;&gt;のり\n(191)\n -->
<g id="edge27" class="edge"><title>肌\n(2259)\n&#45;&gt;のり\n(191)\n</title>
<path fill="none" stroke="#ff1c62" d="M481.64,-673.354C484.15,-749.205 487.465,-849.397 489.025,-896.516"/>
<polygon fill="#ff1c62" stroke="#ff1c62" points="487.282,-896.783 489.197,-901.722 490.78,-896.667 487.282,-896.783"/>
</g>
<!-- 負担\n(96)\n -->
<g id="node23" class="node"><title>負担\n(96)\n</title>
<ellipse fill="#ffffff" stroke="gray" cx="157.664" cy="-588.933" rx="25.4118" ry="21.4286"/>
<text text-anchor="middle" x="157.664" y="-592.223" font-family="arialuni.ttf" font-size="9.64">負担</text>
<text text-anchor="middle" x="157.664" y="-581.223" font-family="arialuni.ttf" font-size="9.64">(96)</text>
</g>
<!-- 肌\n(2259)\n&#45;&gt;負担\n(96)\n -->
<g id="edge12" class="edge"><title>肌\n(2259)\n&#45;&gt;負担\n(96)\n</title>
<path fill="none" stroke="#ff1c62" d="M370.279,-580.532C306.267,-583.061 229.795,-586.083 188.239,-587.725"/>
<polygon fill="#ff1c62" stroke="#ff1c62" points="188.029,-585.981 183.102,-587.928 188.167,-589.479 188.029,-585.981"/>
</g>
<!-- 気\n(109)\n -->
<g id="node24" class="node"><title>気\n(109)\n</title>
<ellipse fill="#ffffff" stroke="gray" cx="137.601" cy="-470.99" rx="29.8983" ry="21.4286"/>
<text text-anchor="middle" x="137.601" y="-474.211" font-family="arialuni.ttf" font-size="9.72">気</text>
<text text-anchor="middle" x="137.601" y="-463.211" font-family="arialuni.ttf" font-size="9.72">(109)</text>
</g>
<!-- 肌\n(2259)\n&#45;&gt;気\n(109)\n -->
<g id="edge32" class="edge"><title>肌\n(2259)\n&#45;&gt;気\n(109)\n</title>
<path fill="none" stroke="#ff1c62" d="M376.168,-544.675C305.791,-522.938 216.847,-495.466 169.953,-480.982"/>
<polygon fill="#ff1c62" stroke="#ff1c62" points="170.291,-479.255 164.997,-479.451 169.258,-482.599 170.291,-479.255"/>
</g>
<!-- 私\n(79)\n -->
<g id="node25" class="node"><title>私\n(79)\n</title>
<ellipse fill="#ffffff" stroke="gray" cx="614.004" cy="-901.39" rx="25.4118" ry="19.6"/>
<text text-anchor="middle" x="614.004" y="-903.771" font-family="arialuni.ttf" font-size="9.52">私</text>
<text text-anchor="middle" x="614.004" y="-893.771" font-family="arialuni.ttf" font-size="9.52">(79)</text>
</g>
<!-- 肌\n(2259)\n&#45;&gt;私\n(79)\n -->
<g id="edge29" class="edge"><title>肌\n(2259)\n&#45;&gt;私\n(79)\n</title>
<path fill="none" stroke="#ff1c62" d="M516.373,-667.259C546.319,-739.072 585.971,-834.165 604.143,-877.744"/>
<polygon fill="#ff1c62" stroke="#ff1c62" points="602.607,-878.608 606.147,-882.549 605.838,-877.26 602.607,-878.608"/>
</g>
<!-- フィット\n(57)\n -->
<g id="node31" class="node"><title>フィット\n(57)\n</title>
<ellipse fill="#ffffff" stroke="gray" cx="314.615" cy="-876.997" rx="39.6962" ry="19.6"/>
<text text-anchor="middle" x="314.615" y="-879.494" font-family="arialuni.ttf" font-size="9.38">フィット</text>
<text text-anchor="middle" x="314.615" y="-869.494" font-family="arialuni.ttf" font-size="9.38">(57)</text>
</g>
<!-- 肌\n(2259)\n&#45;&gt;フィット\n(57)\n -->
<g id="edge37" class="edge"><title>肌\n(2259)\n&#45;&gt;フィット\n(57)\n</title>
<path fill="none" stroke="#ff1c62" d="M430.826,-663.649C395.515,-728.476 349.82,-812.365 327.726,-852.927"/>
<polygon fill="#ff1c62" stroke="#ff1c62" points="326.006,-852.427 325.151,-857.655 329.079,-854.101 326.006,-852.427"/>
</g>
<!-- 自然\n(721)\n&#45;&gt;価格#\n(868)\n -->
<g id="edge46" class="edge"><title>自然\n(721)\n&#45;&gt;価格#\n(868)\n</title>
<path fill="none" stroke="#ff1c62" d="M691.578,-412.108C734.165,-414.699 806.835,-419.121 854.419,-422.017"/>
<polygon fill="#ff1c62" stroke="#ff1c62" points="854.421,-423.77 859.518,-422.327 854.634,-420.277 854.421,-423.77"/>
</g>
<!-- 自然\n(721)\n&#45;&gt;色\n(650)\n -->
<g id="edge20" class="edge"><title>自然\n(721)\n&#45;&gt;色\n(650)\n</title>
<path fill="none" stroke="#ff1c62" d="M680.602,-432.812C688.334,-440.324 696.982,-448.727 704.916,-456.436"/>
<polygon fill="#ff1c62" stroke="#ff1c62" points="703.941,-457.928 708.746,-460.158 706.38,-455.418 703.941,-457.928"/>
</g>
<!-- 自然\n(721)\n&#45;&gt;自分\n(468)\n -->
<g id="edge75" class="edge"><title>自然\n(721)\n&#45;&gt;自分\n(468)\n</title>
<path fill="none" stroke="#ff1c62" d="M689.003,-397.696C717.686,-386.611 759.759,-370.35 789.389,-358.899"/>
<polygon fill="#ff1c62" stroke="#ff1c62" points="790.368,-360.397 794.401,-356.962 789.106,-357.132 790.368,-360.397"/>
</g>
<!-- 自然\n(721)\n&#45;&gt;感じ\n(465)\n -->
<g id="edge6" class="edge"><title>自然\n(721)\n&#45;&gt;感じ\n(465)\n</title>
<path fill="none" stroke="#ff1c62" d="M634.831,-385.978C606.377,-355.319 557.428,-302.578 528.747,-271.675"/>
<polygon fill="#ff1c62" stroke="#ff1c62" points="529.695,-270.124 525.01,-267.649 527.129,-272.504 529.695,-270.124"/>
</g>
<!-- 自然\n(721)\n&#45;&gt;綺麗#\n(569)\n -->
<g id="edge56" class="edge"><title>自然\n(721)\n&#45;&gt;綺麗#\n(569)\n</title>
<path fill="none" stroke="#ff1c62" d="M626.372,-395.807C611.565,-388.97 593.72,-380.73 578.289,-373.606"/>
<polygon fill="#ff1c62" stroke="#ff1c62" points="578.857,-371.94 573.584,-371.433 577.39,-375.118 578.857,-371.94"/>
</g>
<!-- 自然\n(721)\n&#45;&gt;仕上がり\n(413)\n -->
<g id="edge5" class="edge"><title>自然\n(721)\n&#45;&gt;仕上がり\n(413)\n</title>
<path fill="none" stroke="#ff1c62" d="M648.014,-379.873C642.806,-362.668 636.311,-341.21 631.166,-324.213"/>
<polygon fill="#ff1c62" stroke="#ff1c62" points="632.739,-323.37 629.616,-319.091 629.39,-324.384 632.739,-323.37"/>
</g>
<!-- 自然\n(721)\n&#45;&gt;カバー力\n(783)\n -->
<g id="edge21" class="edge"><title>自然\n(721)\n&#45;&gt;カバー力\n(783)\n</title>
<path fill="none" stroke="#ff1c62" d="M680.783,-387.063C687.062,-380.97 693.94,-374.295 700.558,-367.872"/>
<polygon fill="#ff1c62" stroke="#ff1c62" points="701.833,-369.074 704.202,-364.336 699.395,-366.562 701.833,-369.074"/>
</g>
<!-- 自然\n(721)\n&#45;&gt;伸び\n(602)\n -->
<g id="edge33" class="edge"><title>自然\n(721)\n&#45;&gt;伸び\n(602)\n</title>
<path fill="none" stroke="#ff1c62" d="M670.107,-381.28C681.699,-355.601 698.61,-318.14 710.299,-292.247"/>
<polygon fill="#ff1c62" stroke="#ff1c62" points="711.956,-292.83 712.418,-287.553 708.766,-291.39 711.956,-292.83"/>
</g>
<!-- 自然\n(721)\n&#45;&gt;薄付き\n(275)\n -->
<g id="edge42" class="edge"><title>自然\n(721)\n&#45;&gt;薄付き\n(275)\n</title>
<path fill="none" stroke="#ff1c62" d="M646.129,-380.388C634.046,-347.87 614.814,-296.115 603.133,-264.681"/>
<polygon fill="#ff1c62" stroke="#ff1c62" points="604.708,-263.894 601.326,-259.817 601.427,-265.113 604.708,-263.894"/>
</g>
<!-- 自然\n(721)\n&#45;&gt;透明感\n(227)\n -->
<g id="edge65" class="edge"><title>自然\n(721)\n&#45;&gt;透明感\n(227)\n</title>
<path fill="none" stroke="#ff1c62" d="M653.894,-441.031C649.68,-481.33 642.388,-551.075 638.358,-589.617"/>
<polygon fill="#ff1c62" stroke="#ff1c62" points="636.615,-589.459 637.835,-594.614 640.096,-589.823 636.615,-589.459"/>
</g>
<!-- 価格#\n(868)\n&#45;&gt;色\n(650)\n -->
<g id="edge19" class="edge"><title>価格#\n(868)\n&#45;&gt;色\n(650)\n</title>
<path fill="none" stroke="#ff1c62" d="M862.17,-437.985C834.236,-447.396 796.807,-460.004 769.133,-469.327"/>
<polygon fill="#ff1c62" stroke="#ff1c62" points="768.263,-467.773 764.084,-471.028 769.381,-471.09 768.263,-467.773"/>
</g>
<!-- 価格#\n(868)\n&#45;&gt;自分\n(468)\n -->
<g id="edge43" class="edge"><title>価格#\n(868)\n&#45;&gt;自分\n(468)\n</title>
<path fill="none" stroke="#ff1c62" d="M873.453,-396.153C865.048,-387.437 855.901,-377.951 847.811,-369.561"/>
<polygon fill="#ff1c62" stroke="#ff1c62" points="848.662,-367.923 843.932,-365.538 846.143,-370.352 848.662,-367.923"/>
</g>
<!-- 価格#\n(868)\n&#45;&gt;仕上がり\n(413)\n -->
<g id="edge59" class="edge"><title>価格#\n(868)\n&#45;&gt;仕上がり\n(413)\n</title>
<path fill="none" stroke="#ff1c62" d="M864.122,-407.656C811.512,-383.201 715.533,-338.586 661.704,-313.564"/>
<polygon fill="#ff1c62" stroke="#ff1c62" points="662.219,-311.874 656.947,-311.354 660.744,-315.048 662.219,-311.874"/>
</g>
<!-- 価格#\n(868)\n&#45;&gt;カバー力\n(783)\n -->
<g id="edge30" class="edge"><title>価格#\n(868)\n&#45;&gt;カバー力\n(783)\n</title>
<path fill="none" stroke="#ff1c62" d="M864.823,-406.115C838.285,-392.416 802.214,-373.796 774.34,-359.406"/>
<polygon fill="#ff1c62" stroke="#ff1c62" points="774.834,-357.692 769.588,-356.953 773.228,-360.802 774.834,-357.692"/>
</g>
<!-- 価格#\n(868)\n&#45;&gt;手頃#\n(350)\n -->
<g id="edge1" class="edge"><title>価格#\n(868)\n&#45;&gt;手頃#\n(350)\n</title>
<path fill="none" stroke="#ff1c62" d="M890.763,-461.268C879.333,-501.395 861.207,-565.028 850.923,-601.13"/>
<polygon fill="#ff1c62" stroke="#ff1c62" points="849.151,-600.962 849.465,-606.25 852.517,-601.921 849.151,-600.962"/>
</g>
<!-- 価格#\n(868)\n&#45;&gt;伸び\n(602)\n -->
<g id="edge49" class="edge"><title>価格#\n(868)\n&#45;&gt;伸び\n(602)\n</title>
<path fill="none" stroke="#ff1c62" d="M871.816,-398.1C837.933,-367.174 782.665,-316.727 750.045,-286.954"/>
<polygon fill="#ff1c62" stroke="#ff1c62" points="751.055,-285.506 746.182,-283.428 748.696,-288.091 751.055,-285.506"/>
</g>
<!-- わり\n(52)\n -->
<g id="node36" class="node"><title>わり\n(52)\n</title>
<ellipse fill="#ffffff" stroke="gray" cx="1146.95" cy="-477.419" rx="25.4118" ry="19.6"/>
<text text-anchor="middle" x="1146.95" y="-479.943" font-family="arialuni.ttf" font-size="9.35">わり</text>
<text text-anchor="middle" x="1146.95" y="-469.943" font-family="arialuni.ttf" font-size="9.35">(52)</text>
</g>
<!-- 価格#\n(868)\n&#45;&gt;わり\n(52)\n -->
<g id="edge62" class="edge"><title>価格#\n(868)\n&#45;&gt;わり\n(52)\n</title>
<path fill="none" stroke="#ff1c62" d="M941.724,-433.539C991.125,-444.102 1073.36,-461.685 1117.23,-471.066"/>
<polygon fill="#ff1c62" stroke="#ff1c62" points="1117.13,-472.834 1122.39,-472.168 1117.87,-469.411 1117.13,-472.834"/>
</g>
<!-- 品質\n(59)\n -->
<g id="node37" class="node"><title>品質\n(59)\n</title>
<ellipse fill="#ffffff" stroke="gray" cx="1116.47" cy="-293.342" rx="25.4118" ry="19.6"/>
<text text-anchor="middle" x="1116.47" y="-295.828" font-family="arialuni.ttf" font-size="9.39">品質</text>
<text text-anchor="middle" x="1116.47" y="-285.828" font-family="arialuni.ttf" font-size="9.39">(59)</text>
</g>
<!-- 価格#\n(868)\n&#45;&gt;品質\n(59)\n -->
<g id="edge68" class="edge"><title>価格#\n(868)\n&#45;&gt;品質\n(59)\n</title>
<path fill="none" stroke="#ff1c62" d="M935.731,-403.729C979.372,-377.075 1053.34,-331.899 1091.72,-308.461"/>
<polygon fill="#ff1c62" stroke="#ff1c62" points="1092.86,-309.813 1096.21,-305.713 1091.04,-306.826 1092.86,-309.813"/>
</g>
<!-- お手ごろ\n(31)\n -->
<g id="node42" class="node"><title>お手ごろ\n(31)\n</title>
<ellipse fill="#ffffff" stroke="gray" cx="1172.67" cy="-381.345" rx="37.4533" ry="19.6"/>
<text text-anchor="middle" x="1172.67" y="-383.981" font-family="arialuni.ttf" font-size="9.21">お手ごろ</text>
<text text-anchor="middle" x="1172.67" y="-373.981" font-family="arialuni.ttf" font-size="9.21">(31)</text>
</g>
<!-- 価格#\n(868)\n&#45;&gt;お手ごろ\n(31)\n -->
<g id="edge58" class="edge"><title>価格#\n(868)\n&#45;&gt;お手ごろ\n(31)\n</title>
<path fill="none" stroke="#ff1c62" d="M942.079,-418.298C993.214,-410.104 1080.19,-396.165 1131.45,-387.95"/>
<polygon fill="#ff1c62" stroke="#ff1c62" points="1131.95,-389.644 1136.61,-387.124 1131.39,-386.188 1131.95,-389.644"/>
</g>
<!-- 割り\n(40)\n -->
<g id="node44" class="node"><title>割り\n(40)\n</title>
<ellipse fill="#ffffff" stroke="gray" cx="1104.12" cy="-570.524" rx="25.4118" ry="19.6"/>
<text text-anchor="middle" x="1104.12" y="-573.111" font-family="arialuni.ttf" font-size="9.27">割り</text>
<text text-anchor="middle" x="1104.12" y="-563.111" font-family="arialuni.ttf" font-size="9.27">(40)</text>
</g>
<!-- 価格#\n(868)\n&#45;&gt;割り\n(40)\n -->
<g id="edge76" class="edge"><title>価格#\n(868)\n&#45;&gt;割り\n(40)\n</title>
<path fill="none" stroke="#ff1c62" d="M933.747,-448.263C974.994,-477.862 1044.98,-528.081 1081.07,-553.982"/>
<polygon fill="#ff1c62" stroke="#ff1c62" points="1080.22,-555.524 1085.3,-557.017 1082.26,-552.68 1080.22,-555.524"/>
</g>
<!-- 色\n(650)\n&#45;&gt;自分\n(468)\n -->
<g id="edge7" class="edge"><title>色\n(650)\n&#45;&gt;自分\n(468)\n</title>
<path fill="none" stroke="gray" d="M748.17,-457.311C764.725,-433.014 789.874,-396.105 806.722,-371.378"/>
<polygon fill="gray" stroke="gray" points="808.19,-372.331 809.559,-367.214 805.297,-370.36 808.19,-372.331"/>
</g>
<!-- 色\n(650)\n&#45;&gt;綺麗#\n(569)\n -->
<g id="edge40" class="edge"><title>色\n(650)\n&#45;&gt;綺麗#\n(569)\n</title>
<path fill="none" stroke="gray" d="M703.822,-463.886C669.199,-440.97 609.841,-401.684 573.542,-377.659"/>
<polygon fill="gray" stroke="gray" points="574.369,-376.108 569.233,-374.807 572.437,-379.026 574.369,-376.108"/>
</g>
<!-- 色\n(650)\n&#45;&gt;カバー力\n(783)\n -->
<g id="edge48" class="edge"><title>色\n(650)\n&#45;&gt;カバー力\n(783)\n</title>
<path fill="none" stroke="gray" d="M731.411,-453.85C731.498,-431.753 731.621,-400.773 731.718,-376.333"/>
<polygon fill="gray" stroke="gray" points="733.468,-376.23 731.738,-371.223 729.968,-376.216 733.468,-376.23"/>
</g>
<!-- 色\n(650)\n&#45;&gt;伸び\n(602)\n -->
<g id="edge47" class="edge"><title>色\n(650)\n&#45;&gt;伸び\n(602)\n</title>
<path fill="none" stroke="gray" d="M730.307,-453.855C728.861,-412.731 726.184,-336.593 724.683,-293.901"/>
<polygon fill="gray" stroke="gray" points="726.43,-293.801 724.506,-288.866 722.932,-293.924 726.43,-293.801"/>
</g>
<!-- 好き\n(188)\n -->
<g id="node15" class="node"><title>好き\n(188)\n</title>
<ellipse fill="#ffffff" stroke="gray" cx="750.006" cy="-690.981" rx="31.2258" ry="21.4286"/>
<text text-anchor="middle" x="750.006" y="-693.782" font-family="arialuni.ttf" font-size="10.25">好き</text>
<text text-anchor="middle" x="750.006" y="-682.782" font-family="arialuni.ttf" font-size="10.25">(188)</text>
</g>
<!-- 色\n(650)\n&#45;&gt;好き\n(188)\n -->
<g id="edge72" class="edge"><title>色\n(650)\n&#45;&gt;好き\n(188)\n</title>
<path fill="none" stroke="gray" d="M733.822,-510.246C737.449,-550.749 744.088,-624.898 747.631,-664.461"/>
<polygon fill="gray" stroke="gray" points="745.9,-664.751 748.089,-669.575 749.386,-664.439 745.9,-664.751"/>
</g>
<!-- 肌色\n(89)\n -->
<g id="node22" class="node"><title>肌色\n(89)\n</title>
<ellipse fill="#ffffff" stroke="gray" cx="976.803" cy="-180.161" rx="25.4118" ry="21.4286"/>
<text text-anchor="middle" x="976.803" y="-183.488" font-family="arialuni.ttf" font-size="9.59">肌色</text>
<text text-anchor="middle" x="976.803" y="-172.488" font-family="arialuni.ttf" font-size="9.59">(89)</text>
</g>
<!-- 自分\n(468)\n&#45;&gt;肌色\n(89)\n -->
<g id="edge22" class="edge"><title>自分\n(468)\n&#45;&gt;肌色\n(89)\n</title>
<path fill="none" stroke="gray" d="M843.14,-325.09C872.306,-293.466 928.356,-232.692 957.749,-200.821"/>
<polygon fill="gray" stroke="gray" points="959.094,-201.943 961.198,-197.081 956.522,-199.57 959.094,-201.943"/>
</g>
<!-- 感じ\n(465)\n&#45;&gt;伸び\n(602)\n -->
<g id="edge53" class="edge"><title>感じ\n(465)\n&#45;&gt;伸び\n(602)\n</title>
<path fill="none" stroke="#cf00bd" d="M538.657,-254.506C577.042,-259.458 640.749,-264.179 682.456,-265.26"/>
<polygon fill="#cf00bd" stroke="#cf00bd" points="682.644,-267.014 687.683,-265.378 682.724,-263.515 682.644,-267.014"/>
</g>
<!-- ナチュラル\n(149)\n -->
<g id="node35" class="node"><title>ナチュラル\n(149)\n</title>
<ellipse fill="#ffffff" stroke="#cf00bd" cx="523.582" cy="-61.8567" rx="45.9239" ry="21.4286"/>
<text text-anchor="middle" x="523.582" y="-64.8652" font-family="arialuni.ttf" font-size="9.99">ナチュラル</text>
<text text-anchor="middle" x="523.582" y="-53.8652" font-family="arialuni.ttf" font-size="9.99">(149)</text>
</g>
<!-- 感じ\n(465)\n&#45;&gt;ナチュラル\n(149)\n -->
<g id="edge73" class="edge"><title>感じ\n(465)\n&#45;&gt;ナチュラル\n(149)\n</title>
<path fill="none" stroke="gray" d="M508.268,-222.907C511.575,-188.13 517.646,-124.285 521.067,-88.3102"/>
<polygon fill="gray" stroke="gray" points="522.82,-88.3546 521.552,-83.2114 519.336,-88.0233 522.82,-88.3546"/>
</g>
<!-- 綺麗#\n(569)\n&#45;&gt;仕上がり\n(413)\n -->
<g id="edge14" class="edge"><title>綺麗#\n(569)\n&#45;&gt;仕上がり\n(413)\n</title>
<path fill="none" stroke="#cf00bd" d="M572.909,-341.531C581.873,-335.212 591.499,-327.79 599.873,-320.739"/>
<polygon fill="#cf00bd" stroke="#cf00bd" points="601.215,-321.894 603.876,-317.314 598.939,-319.235 601.215,-321.894"/>
</g>
<!-- 綺麗#\n(569)\n&#45;&gt;カバー力\n(783)\n -->
<g id="edge39" class="edge"><title>綺麗#\n(569)\n&#45;&gt;カバー力\n(783)\n</title>
<path fill="none" stroke="#cf00bd" d="M579.891,-358.646C609.392,-357.104 650.714,-353.028 682.825,-348.585"/>
<polygon fill="#cf00bd" stroke="#cf00bd" points="683.19,-350.301 687.896,-347.869 682.701,-346.835 683.19,-350.301"/>
</g>
<!-- 綺麗#\n(569)\n&#45;&gt;伸び\n(602)\n -->
<g id="edge60" class="edge"><title>綺麗#\n(569)\n&#45;&gt;伸び\n(602)\n</title>
<path fill="none" stroke="#cf00bd" d="M575.911,-345.463C609.725,-330.13 661.35,-303.325 693.765,-284.288"/>
<polygon fill="#cf00bd" stroke="#cf00bd" points="694.996,-285.593 698.404,-281.538 693.211,-282.582 694.996,-285.593"/>
</g>
<!-- 綺麗#\n(569)\n&#45;&gt;薄付き\n(275)\n -->
<g id="edge67" class="edge"><title>綺麗#\n(569)\n&#45;&gt;薄付き\n(275)\n</title>
<path fill="none" stroke="#cf00bd" d="M558.287,-333.907C568.279,-314.224 580.313,-285.934 587.554,-265.108"/>
<polygon fill="#cf00bd" stroke="#cf00bd" points="589.252,-265.548 589.199,-260.251 585.937,-264.425 589.252,-265.548"/>
</g>
<!-- 綺麗#\n(569)\n&#45;&gt;毛穴\n(249)\n -->
<g id="edge51" class="edge"><title>綺麗#\n(569)\n&#45;&gt;毛穴\n(249)\n</title>
<path fill="none" stroke="#cf00bd" d="M509.202,-344.756C471.593,-334.706 410.445,-321.825 371.565,-315.746"/>
<polygon fill="#cf00bd" stroke="#cf00bd" points="371.673,-313.993 366.467,-314.97 371.146,-317.453 371.673,-313.993"/>
</g>
<!-- 仕上がり\n(413)\n&#45;&gt;綺麗#\n(569)\n -->
<g id="edge15" class="edge"><title>仕上がり\n(413)\n&#45;&gt;綺麗#\n(569)\n</title>
<path fill="none" stroke="#cf00bd" d="M589.529,-312.419C581.457,-318.205 572.99,-324.766 565.48,-331.06"/>
<polygon fill="#cf00bd" stroke="#cf00bd" points="564.085,-329.949 561.414,-334.524 566.355,-332.614 564.085,-329.949"/>
</g>
<!-- 仕上がり\n(413)\n&#45;&gt;カバー力\n(783)\n -->
<g id="edge71" class="edge"><title>仕上がり\n(413)\n&#45;&gt;カバー力\n(783)\n</title>
<path fill="none" stroke="#cf00bd" d="M652.428,-313.53C661.879,-317.69 672.57,-321.976 682.978,-325.802"/>
<polygon fill="#cf00bd" stroke="#cf00bd" points="682.437,-327.467 687.734,-327.525 683.629,-324.176 682.437,-327.467"/>
</g>
<!-- 仕上がり\n(413)\n&#45;&gt;伸び\n(602)\n -->
<g id="edge66" class="edge"><title>仕上がり\n(413)\n&#45;&gt;伸び\n(602)\n</title>
<path fill="none" stroke="#cf00bd" d="M666.481,-288.147C674.293,-285.804 682.316,-283.166 689.788,-280.475"/>
<polygon fill="#cf00bd" stroke="#cf00bd" points="690.777,-281.976 694.865,-278.607 689.568,-278.691 690.777,-281.976"/>
</g>
<!-- 仕上がり\n(413)\n&#45;&gt;ナチュラル\n(149)\n -->
<g id="edge52" class="edge"><title>仕上がり\n(413)\n&#45;&gt;ナチュラル\n(149)\n</title>
<path fill="none" stroke="gray" d="M612.394,-271.633C593.739,-227.568 553.826,-133.294 534.507,-87.6603"/>
<polygon fill="gray" stroke="gray" points="536.04,-86.7926 532.479,-82.8706 532.817,-88.1572 536.04,-86.7926"/>
</g>
<!-- カバー力\n(783)\n&#45;&gt;綺麗#\n(569)\n -->
<g id="edge38" class="edge"><title>カバー力\n(783)\n&#45;&gt;綺麗#\n(569)\n</title>
<path fill="none" stroke="#cf00bd" d="M685.388,-336.361C653.881,-338.37 612.659,-342.687 582.563,-347.167"/>
<polygon fill="#cf00bd" stroke="#cf00bd" points="582.134,-345.462 577.455,-347.946 582.662,-348.922 582.134,-345.462"/>
</g>
<!-- カバー力\n(783)\n&#45;&gt;仕上がり\n(413)\n -->
<g id="edge70" class="edge"><title>カバー力\n(783)\n&#45;&gt;仕上がり\n(413)\n</title>
<path fill="none" stroke="#cf00bd" d="M695.612,-316.563C687.302,-313.053 678.351,-309.543 669.655,-306.379"/>
<polygon fill="#cf00bd" stroke="#cf00bd" points="670.154,-304.699 664.857,-304.659 668.973,-307.993 670.154,-304.699"/>
</g>
<!-- カバー力\n(783)\n&#45;&gt;伸び\n(602)\n -->
<g id="edge16" class="edge"><title>カバー力\n(783)\n&#45;&gt;伸び\n(602)\n</title>
<path fill="none" stroke="#cf00bd" d="M734.882,-303.772C734.561,-300.277 734.156,-296.74 733.679,-293.284"/>
<polygon fill="#cf00bd" stroke="#cf00bd" points="735.349,-292.621 732.873,-287.938 731.888,-293.143 735.349,-292.621"/>
</g>
<!-- カバー力\n(783)\n&#45;&gt;薄付き\n(275)\n -->
<g id="edge25" class="edge"><title>カバー力\n(783)\n&#45;&gt;薄付き\n(275)\n</title>
<path fill="none" stroke="#cf00bd" d="M704.08,-310.427C681.273,-292.308 649.023,-269.176 625.136,-253.834"/>
<polygon fill="#cf00bd" stroke="#cf00bd" points="625.935,-252.269 620.777,-251.063 624.057,-255.223 625.935,-252.269"/>
</g>
<!-- 伸び\n(602)\n&#45;&gt;感じ\n(465)\n -->
<g id="edge54" class="edge"><title>伸び\n(602)\n&#45;&gt;感じ\n(465)\n</title>
<path fill="none" stroke="#cf00bd" d="M688.992,-255.186C649.738,-250.235 585.87,-245.572 544.902,-244.621"/>
<polygon fill="#cf00bd" stroke="#cf00bd" points="544.809,-242.869 539.775,-244.519 544.74,-246.368 544.809,-242.869"/>
</g>
<!-- 伸び\n(602)\n&#45;&gt;綺麗#\n(569)\n -->
<g id="edge57" class="edge"><title>伸び\n(602)\n&#45;&gt;綺麗#\n(569)\n</title>
<path fill="none" stroke="#cf00bd" d="M690.857,-273.966C657.166,-289.186 605.161,-316.162 572.456,-335.348"/>
<polygon fill="#cf00bd" stroke="#cf00bd" points="571.186,-334.067 567.775,-338.12 572.969,-337.078 571.186,-334.067"/>
</g>
<!-- 伸び\n(602)\n&#45;&gt;仕上がり\n(413)\n -->
<g id="edge63" class="edge"><title>伸び\n(602)\n&#45;&gt;仕上がり\n(413)\n</title>
<path fill="none" stroke="#cf00bd" d="M687.941,-267.53C678.817,-270.058 668.983,-273.148 659.776,-276.369"/>
<polygon fill="#cf00bd" stroke="#cf00bd" points="659.147,-274.736 655.025,-278.064 660.322,-278.032 659.147,-274.736"/>
</g>
<!-- 伸び\n(602)\n&#45;&gt;カバー力\n(783)\n -->
<g id="edge17" class="edge"><title>伸び\n(602)\n&#45;&gt;カバー力\n(783)\n</title>
<path fill="none" stroke="#cf00bd" d="M720.005,-288.797C720.2,-292.309 720.499,-295.969 720.886,-299.636"/>
<polygon fill="#cf00bd" stroke="#cf00bd" points="719.15,-299.862 721.466,-304.626 722.627,-299.458 719.15,-299.862"/>
</g>
<!-- リキッド\n(148)\n -->
<g id="node39" class="node"><title>リキッド\n(148)\n</title>
<ellipse fill="#ffffff" stroke="gray" cx="789.1" cy="-20.8817" rx="39.6962" ry="21.4286"/>
<text text-anchor="middle" x="789.1" y="-23.8955" font-family="arialuni.ttf" font-size="9.98">リキッド</text>
<text text-anchor="middle" x="789.1" y="-12.8955" font-family="arialuni.ttf" font-size="9.98">(148)</text>
</g>
<!-- 伸び\n(602)\n&#45;&gt;リキッド\n(148)\n -->
<g id="edge74" class="edge"><title>伸び\n(602)\n&#45;&gt;リキッド\n(148)\n</title>
<path fill="none" stroke="gray" d="M730.6,-236.916C743.18,-190.46 769.445,-93.4652 782.052,-46.9098"/>
<polygon fill="gray" stroke="gray" points="783.757,-47.3102 783.375,-42.0265 780.378,-46.3953 783.757,-47.3102"/>
</g>
<!-- 薄付き\n(275)\n&#45;&gt;綺麗#\n(569)\n -->
<g id="edge69" class="edge"><title>薄付き\n(275)\n&#45;&gt;綺麗#\n(569)\n</title>
<path fill="none" stroke="#cf00bd" d="M578.433,-258.283C568.659,-277.139 556.559,-305.242 548.914,-326.661"/>
<polygon fill="#cf00bd" stroke="#cf00bd" points="547.256,-326.102 547.259,-331.399 550.56,-327.256 547.256,-326.102"/>
</g>
<!-- 薄付き\n(275)\n&#45;&gt;カバー力\n(783)\n -->
<g id="edge24" class="edge"><title>薄付き\n(275)\n&#45;&gt;カバー力\n(783)\n</title>
<path fill="none" stroke="#cf00bd" d="M611.254,-256.911C631.166,-273.527 663.674,-297.357 689.949,-314.861"/>
<polygon fill="#cf00bd" stroke="#cf00bd" points="689.307,-316.534 694.443,-317.833 691.238,-313.615 689.307,-316.534"/>
</g>
<!-- 毛穴\n(249)\n&#45;&gt;綺麗#\n(569)\n -->
<g id="edge50" class="edge"><title>毛穴\n(249)\n&#45;&gt;綺麗#\n(569)\n</title>
<path fill="none" stroke="#cf00bd" d="M363.046,-324.243C398.066,-333.942 458.596,-346.91 499.535,-353.66"/>
<polygon fill="#cf00bd" stroke="#cf00bd" points="499.462,-355.421 504.677,-354.492 500.02,-351.966 499.462,-355.421"/>
</g>
<!-- カバー\n(192)\n -->
<g id="node14" class="node"><title>カバー\n(192)\n</title>
<ellipse fill="#ffffff" stroke="gray" cx="202.653" cy="-352.758" rx="33.8824" ry="21.4286"/>
<text text-anchor="middle" x="202.653" y="-355.538" font-family="arialuni.ttf" font-size="10.27">カバー</text>
<text text-anchor="middle" x="202.653" y="-344.538" font-family="arialuni.ttf" font-size="10.27">(192)</text>
</g>
<!-- 毛穴\n(249)\n&#45;&gt;カバー\n(192)\n -->
<g id="edge34" class="edge"><title>毛穴\n(249)\n&#45;&gt;カバー\n(192)\n</title>
<path fill="none" stroke="#cf00bd" d="M304.196,-316.686C283.06,-321.597 255.197,-329.785 234,-337.28"/>
<polygon fill="#cf00bd" stroke="#cf00bd" points="233.148,-335.726 229.037,-339.067 234.334,-339.019 233.148,-335.726"/>
</g>
<!-- カバー\n(192)\n&#45;&gt;肌\n(2259)\n -->
<g id="edge61" class="edge"><title>カバー\n(192)\n&#45;&gt;肌\n(2259)\n</title>
<path fill="none" stroke="gray" d="M223.381,-369.557C259.233,-398.613 334.703,-459.778 394.293,-508.072"/>
<polygon fill="gray" stroke="gray" points="393.208,-509.446 398.195,-511.234 395.412,-506.727 393.208,-509.446"/>
</g>
<!-- カバー\n(192)\n&#45;&gt;毛穴\n(249)\n -->
<g id="edge36" class="edge"><title>カバー\n(192)\n&#45;&gt;毛穴\n(249)\n</title>
<path fill="none" stroke="#cf00bd" d="M236.079,-348.959C257.269,-343.912 284.448,-335.857 304.998,-328.535"/>
<polygon fill="#cf00bd" stroke="#cf00bd" points="305.703,-330.14 309.806,-326.79 304.509,-326.85 305.703,-330.14"/>
</g>
<!-- 好き\n(188)\n&#45;&gt;肌\n(2259)\n -->
<g id="edge45" class="edge"><title>好き\n(188)\n&#45;&gt;肌\n(2259)\n</title>
<path fill="none" stroke="gray" d="M723.471,-679.772C690.498,-665.843 632.295,-641.257 580.886,-619.54"/>
<polygon fill="gray" stroke="gray" points="581.538,-617.916 576.251,-617.582 580.176,-621.14 581.538,-617.916"/>
</g>
<!-- 無香料\n(151)\n -->
<g id="node33" class="node"><title>無香料\n(151)\n</title>
<ellipse fill="#ffffff" stroke="gray" cx="284.77" cy="-1208.47" rx="32.5538" ry="21.4286"/>
<text text-anchor="middle" x="284.77" y="-1211.46" font-family="arialuni.ttf" font-size="10.00">無香料</text>
<text text-anchor="middle" x="284.77" y="-1200.46" font-family="arialuni.ttf" font-size="10.00">(151)</text>
</g>
<!-- 無添加\n(164)\n&#45;&gt;無香料\n(151)\n -->
<g id="edge55" class="edge"><title>無添加\n(164)\n&#45;&gt;無香料\n(151)\n</title>
<path fill="none" stroke="gray" d="M350.446,-1012.03C337.076,-1052.02 307.857,-1139.41 293.327,-1182.87"/>
<polygon fill="gray" stroke="gray" points="291.64,-1182.4 291.714,-1187.7 294.959,-1183.51 291.64,-1182.4"/>
</g>
<!-- 化粧崩れ\n(158)\n -->
<g id="node20" class="node"><title>化粧崩れ\n(158)\n</title>
<ellipse fill="#ffffff" stroke="gray" cx="156.984" cy="-737.098" rx="39.6962" ry="21.4286"/>
<text text-anchor="middle" x="156.984" y="-740.059" font-family="arialuni.ttf" font-size="10.05">化粧崩れ</text>
<text text-anchor="middle" x="156.984" y="-729.059" font-family="arialuni.ttf" font-size="10.05">(158)</text>
</g>
<!-- 化粧崩れ\n(158)\n&#45;&gt;肌\n(2259)\n -->
<g id="edge64" class="edge"><title>化粧崩れ\n(158)\n&#45;&gt;肌\n(2259)\n</title>
<path fill="none" stroke="gray" d="M186.077,-722.541C229.316,-700.906 312.598,-659.234 379.248,-625.885"/>
<polygon fill="gray" stroke="gray" points="380.329,-627.301 384.018,-623.498 378.763,-624.171 380.329,-627.301"/>
</g>
<!-- ケース\n(147)\n -->
<g id="node26" class="node"><title>ケース\n(147)\n</title>
<ellipse fill="#ffffff" stroke="gray" cx="632.145" cy="-741.296" rx="32.5538" ry="21.4286"/>
<text text-anchor="middle" x="632.145" y="-744.315" font-family="arialuni.ttf" font-size="9.98">ケース</text>
<text text-anchor="middle" x="632.145" y="-733.315" font-family="arialuni.ttf" font-size="9.98">(147)</text>
</g>
<!-- 粉\n(134)\n -->
<g id="node27" class="node"><title>粉\n(134)\n</title>
<ellipse fill="#ffffff" stroke="gray" cx="930.145" cy="-951.296" rx="29.8983" ry="21.4286"/>
<text text-anchor="middle" x="930.145" y="-954.384" font-family="arialuni.ttf" font-size="9.89">粉</text>
<text text-anchor="middle" x="930.145" y="-943.384" font-family="arialuni.ttf" font-size="9.89">(134)</text>
</g>
<!-- 厚塗り\n(108)\n -->
<g id="node28" class="node"><title>厚塗り\n(108)\n</title>
<ellipse fill="#ffffff" stroke="gray" cx="752.145" cy="-771.296" rx="32.5538" ry="21.4286"/>
<text text-anchor="middle" x="752.145" y="-774.523" font-family="arialuni.ttf" font-size="9.72">厚塗り</text>
<text text-anchor="middle" x="752.145" y="-763.523" font-family="arialuni.ttf" font-size="9.72">(108)</text>
</g>
<!-- 化粧\n(133)\n -->
<g id="node29" class="node"><title>化粧\n(133)\n</title>
<ellipse fill="#ffffff" stroke="gray" cx="840.145" cy="-861.296" rx="29.8983" ry="21.4286"/>
<text text-anchor="middle" x="840.145" y="-864.39" font-family="arialuni.ttf" font-size="9.88">化粧</text>
<text text-anchor="middle" x="840.145" y="-853.39" font-family="arialuni.ttf" font-size="9.88">(133)</text>
</g>
<!-- 薄づき\n(144)\n -->
<g id="node30" class="node"><title>薄づき\n(144)\n</title>
<ellipse fill="#ffffff" stroke="gray" cx="722.145" cy="-861.296" rx="32.5538" ry="21.4286"/>
<text text-anchor="middle" x="722.145" y="-864.331" font-family="arialuni.ttf" font-size="9.96">薄づき</text>
<text text-anchor="middle" x="722.145" y="-853.331" font-family="arialuni.ttf" font-size="9.96">(144)</text>
</g>
<!-- 粒子\n(131)\n -->
<g id="node32" class="node"><title>粒子\n(131)\n</title>
<ellipse fill="#ffffff" stroke="gray" cx="870.145" cy="-711.296" rx="29.8983" ry="21.4286"/>
<text text-anchor="middle" x="870.145" y="-714.4" font-family="arialuni.ttf" font-size="9.87">粒子</text>
<text text-anchor="middle" x="870.145" y="-703.4" font-family="arialuni.ttf" font-size="9.87">(131)</text>
</g>
<!-- 一番\n(46)\n -->
<g id="node34" class="node"><title>一番\n(46)\n</title>
<ellipse fill="#ffffff" stroke="gray" cx="835.145" cy="-530.296" rx="25.4118" ry="19.6"/>
<text text-anchor="middle" x="835.145" y="-532.852" font-family="arialuni.ttf" font-size="9.31">一番</text>
<text text-anchor="middle" x="835.145" y="-522.852" font-family="arialuni.ttf" font-size="9.31">(46)</text>
</g>
<!-- 素肌\n(83)\n -->
<g id="node38" class="node"><title>素肌\n(83)\n</title>
<ellipse fill="#ffffff" stroke="gray" cx="835.145" cy="-951.296" rx="25.4118" ry="21.4286"/>
<text text-anchor="middle" x="835.145" y="-954.655" font-family="arialuni.ttf" font-size="9.55">素肌</text>
<text text-anchor="middle" x="835.145" y="-943.655" font-family="arialuni.ttf" font-size="9.55">(83)</text>
</g>
<!-- 色味\n(47)\n -->
<g id="node40" class="node"><title>色味\n(47)\n</title>
<ellipse fill="#ffffff" stroke="gray" cx="745.145" cy="-950.296" rx="25.4118" ry="19.6"/>
<text text-anchor="middle" x="745.145" y="-952.847" font-family="arialuni.ttf" font-size="9.31">色味</text>
<text text-anchor="middle" x="745.145" y="-942.847" font-family="arialuni.ttf" font-size="9.31">(47)</text>
</g>
<!-- 割\n(57)\n -->
<g id="node41" class="node"><title>割\n(57)\n</title>
<ellipse fill="#ffffff" stroke="gray" cx="955.145" cy="-320.296" rx="25.4118" ry="19.6"/>
<text text-anchor="middle" x="955.145" y="-322.793" font-family="arialuni.ttf" font-size="9.38">割</text>
<text text-anchor="middle" x="955.145" y="-312.793" font-family="arialuni.ttf" font-size="9.38">(57)</text>
</g>
<!-- 豊富\n(25)\n -->
<g id="node43" class="node"><title>豊富\n(25)\n</title>
<ellipse fill="#ffffff" stroke="gray" cx="655.145" cy="-980.296" rx="25.4118" ry="19.6"/>
<text text-anchor="middle" x="655.145" y="-982.963" font-family="arialuni.ttf" font-size="9.17">豊富</text>
<text text-anchor="middle" x="655.145" y="-972.963" font-family="arialuni.ttf" font-size="9.17">(25)</text>
</g>
<!-- しみ\n(49)\n -->
<g id="node45" class="node"><title>しみ\n(49)\n</title>
<ellipse fill="#ffffff" stroke="gray" cx="955.145" cy="-620.296" rx="25.4118" ry="19.6"/>
<text text-anchor="middle" x="955.145" y="-622.836" font-family="arialuni.ttf" font-size="9.33">しみ</text>
<text text-anchor="middle" x="955.145" y="-612.836" font-family="arialuni.ttf" font-size="9.33">(49)</text>
</g>
<!-- 購入\n(82)\n -->
<g id="node46" class="node"><title>購入\n(82)\n</title>
<ellipse fill="#ffffff" stroke="gray" cx="955.145" cy="-800.296" rx="25.4118" ry="19.6"/>
<text text-anchor="middle" x="955.145" y="-802.661" font-family="arialuni.ttf" font-size="9.54">購入</text>
<text text-anchor="middle" x="955.145" y="-792.661" font-family="arialuni.ttf" font-size="9.54">(82)</text>
</g>
<!-- シミ\n(49)\n -->
<g id="node47" class="node"><title>シミ\n(49)\n</title>
<ellipse fill="#ffffff" stroke="gray" cx="955.145" cy="-530.296" rx="25.4118" ry="19.6"/>
<text text-anchor="middle" x="955.145" y="-532.836" font-family="arialuni.ttf" font-size="9.33">シミ</text>
<text text-anchor="middle" x="955.145" y="-522.836" font-family="arialuni.ttf" font-size="9.33">(49)</text>
</g>
<!-- 少量\n(67)\n -->
<g id="node48" class="node"><title>少量\n(67)\n</title>
<ellipse fill="#ffffff" stroke="gray" cx="565.145" cy="-1010.3" rx="25.4118" ry="19.6"/>
<text text-anchor="middle" x="565.145" y="-1012.74" font-family="arialuni.ttf" font-size="9.44">少量</text>
<text text-anchor="middle" x="565.145" y="-1002.74" font-family="arialuni.ttf" font-size="9.44">(67)</text>
</g>
<!-- 手軽\n(93)\n -->
<g id="node49" class="node"><title>手軽\n(93)\n</title>
<ellipse fill="#ffffff" stroke="gray" cx="985.145" cy="-711.296" rx="25.4118" ry="21.4286"/>
<text text-anchor="middle" x="985.145" y="-714.602" font-family="arialuni.ttf" font-size="9.62">手軽</text>
<text text-anchor="middle" x="985.145" y="-703.602" font-family="arialuni.ttf" font-size="9.62">(93)</text>
</g>
<!-- 肌質\n(37)\n -->
<g id="node50" class="node"><title>肌質\n(37)\n</title>
<ellipse fill="#ffffff" stroke="gray" cx="475.145" cy="-1010.3" rx="25.4118" ry="19.6"/>
<text text-anchor="middle" x="475.145" y="-1012.9" font-family="arialuni.ttf" font-size="9.25">肌質</text>
<text text-anchor="middle" x="475.145" y="-1002.9" font-family="arialuni.ttf" font-size="9.25">(37)</text>
</g>
</g>
</svg>
