<?xml version="1.0" encoding="UTF-8" standalone="no"?>
<!DOCTYPE svg PUBLIC "-//W3C//DTD SVG 1.1//EN"
 "http://www.w3.org/Graphics/SVG/1.1/DTD/svg11.dtd">
<!-- Generated by graphviz version 2.38.0 (20140413.2041)
 -->
<!-- Title: g Pages: 1 -->
<svg width="576pt" height="489pt"
 viewBox="0.00 0.00 576.00 489.21" xmlns="http://www.w3.org/2000/svg" xmlns:xlink="http://www.w3.org/1999/xlink">
<g id="graph0" class="graph" transform="scale(0.789041 0.789041) rotate(0) translate(4 616)">
<title>g</title>
<polygon fill="white" stroke="none" points="-4,4 -4,-616 726,-616 726,4 -4,4"/>
<!-- 肌\n(2259)\n -->
<g id="node1" class="node"><title>肌\n(2259)\n</title>
<ellipse fill="#ffdbeb" stroke="#ff1c62" cx="285.615" cy="-324.356" rx="108" ry="97"/>
<text text-anchor="middle" x="285.615" y="-329.956" font-family="arialuni.ttf" font-size="18.00">肌</text>
<text text-anchor="middle" x="285.615" y="-309.956" font-family="arialuni.ttf" font-size="18.00">(2259)</text>
</g>
<!-- 自然\n(721)\n -->
<g id="node2" class="node"><title>自然\n(721)\n</title>
<ellipse fill="#ffdbeb" stroke="#ff1c62" cx="436.706" cy="-316.154" rx="34.5" ry="31"/>
<text text-anchor="middle" x="436.706" y="-320.124" font-family="arialuni.ttf" font-size="13.79">自然</text>
<text text-anchor="middle" x="436.706" y="-305.124" font-family="arialuni.ttf" font-size="13.79">(721)</text>
</g>
<!-- 肌\n(2259)\n&#45;&gt;自然\n(721)\n -->
<g id="edge10" class="edge"><title>肌\n(2259)\n&#45;&gt;自然\n(721)\n</title>
<path fill="none" stroke="#ff1c62" d="M393.814,-318.482C394.878,-318.425 395.931,-318.367 396.973,-318.311"/>
<polygon fill="#ff1c62" stroke="#ff1c62" points="397.18,-320.052 402.078,-318.034 396.991,-316.557 397.18,-320.052"/>
</g>
<!-- 色\n(650)\n -->
<g id="node3" class="node"><title>色\n(650)\n</title>
<ellipse fill="#ffdbeb" stroke="#ff1c62" cx="456.69" cy="-455.393" rx="35.2934" ry="28"/>
<text text-anchor="middle" x="456.69" y="-459.74" font-family="arialuni.ttf" font-size="13.32">色</text>
<text text-anchor="middle" x="456.69" y="-444.74" font-family="arialuni.ttf" font-size="13.32">(650)</text>
</g>
<!-- 肌\n(2259)\n&#45;&gt;色\n(650)\n -->
<g id="edge3" class="edge"><title>肌\n(2259)\n&#45;&gt;色\n(650)\n</title>
<path fill="none" stroke="#ff1c62" d="M367.896,-387.38C389.044,-403.579 410.458,-419.981 426.957,-432.618"/>
<polygon fill="#ff1c62" stroke="#ff1c62" points="426.009,-434.097 431.042,-435.748 428.137,-431.318 426.009,-434.097"/>
</g>
<!-- 価格#\n(868)\n -->
<g id="node4" class="node"><title>価格#\n(868)\n</title>
<ellipse fill="#ffdbeb" stroke="#cf00bd" cx="312.607" cy="-523.248" rx="41.5" ry="37.5"/>
<text text-anchor="middle" x="312.607" y="-527.438" font-family="arialuni.ttf" font-size="14.76">価格#</text>
<text text-anchor="middle" x="312.607" y="-511.438" font-family="arialuni.ttf" font-size="14.76">(868)</text>
</g>
<!-- 肌\n(2259)\n&#45;&gt;価格#\n(868)\n -->
<g id="edge9" class="edge"><title>肌\n(2259)\n&#45;&gt;価格#\n(868)\n</title>
<path fill="none" stroke="#ff1c62" d="M298.716,-420.889C301.564,-441.878 304.436,-463.04 306.823,-480.631"/>
<polygon fill="#ff1c62" stroke="#ff1c62" points="305.141,-481.252 307.548,-485.971 308.61,-480.782 305.141,-481.252"/>
</g>
<!-- 自分\n(468)\n -->
<g id="node5" class="node"><title>自分\n(468)\n</title>
<ellipse fill="#ffdbeb" stroke="#cf00bd" cx="562.33" cy="-390.779" rx="33.8824" ry="24.0833"/>
<text text-anchor="middle" x="562.33" y="-394.093" font-family="arialuni.ttf" font-size="12.11">自分</text>
<text text-anchor="middle" x="562.33" y="-381.093" font-family="arialuni.ttf" font-size="12.11">(468)</text>
</g>
<!-- 肌\n(2259)\n&#45;&gt;自分\n(468)\n -->
<g id="edge2" class="edge"><title>肌\n(2259)\n&#45;&gt;自分\n(468)\n</title>
<path fill="none" stroke="#ff1c62" d="M390.229,-349.468C437.638,-360.848 490.677,-373.579 525.179,-381.861"/>
<polygon fill="#ff1c62" stroke="#ff1c62" points="524.862,-383.585 530.132,-383.05 525.679,-380.182 524.862,-383.585"/>
</g>
<!-- 綺麗#\n(569)\n -->
<g id="node6" class="node"><title>綺麗#\n(569)\n</title>
<ellipse fill="#ffffff" stroke="#cf00bd" cx="223.777" cy="-568.281" rx="37.4533" ry="25.4118"/>
<text text-anchor="middle" x="223.777" y="-572.058" font-family="arialuni.ttf" font-size="12.78">綺麗#</text>
<text text-anchor="middle" x="223.777" y="-558.058" font-family="arialuni.ttf" font-size="12.78">(569)</text>
</g>
<!-- 肌\n(2259)\n&#45;&gt;綺麗#\n(569)\n -->
<g id="edge4" class="edge"><title>肌\n(2259)\n&#45;&gt;綺麗#\n(569)\n</title>
<path fill="none" stroke="#ff1c62" d="M261.618,-419.013C250.867,-461.422 238.939,-508.474 231.402,-538.201"/>
<polygon fill="#ff1c62" stroke="#ff1c62" points="229.672,-537.905 230.14,-543.182 233.065,-538.765 229.672,-537.905"/>
</g>
<!-- 感じ\n(465)\n -->
<g id="node7" class="node"><title>感じ\n(465)\n</title>
<ellipse fill="#ffffff" stroke="#cf00bd" cx="521.431" cy="-226.012" rx="33.8824" ry="24.0833"/>
<text text-anchor="middle" x="521.431" y="-229.342" font-family="arialuni.ttf" font-size="12.09">感じ</text>
<text text-anchor="middle" x="521.431" y="-216.342" font-family="arialuni.ttf" font-size="12.09">(465)</text>
</g>
<!-- 肌\n(2259)\n&#45;&gt;感じ\n(465)\n -->
<g id="edge8" class="edge"><title>肌\n(2259)\n&#45;&gt;感じ\n(465)\n</title>
<path fill="none" stroke="#ff1c62" d="M383.574,-283.504C420.385,-268.153 459.867,-251.687 487.103,-240.329"/>
<polygon fill="#ff1c62" stroke="#ff1c62" points="488.102,-241.808 492.043,-238.269 486.754,-238.578 488.102,-241.808"/>
</g>
<!-- 手頃#\n(350)\n -->
<g id="node8" class="node"><title>手頃#\n(350)\n</title>
<ellipse fill="#ffffff" stroke="#cf00bd" cx="149.164" cy="-511.812" rx="34.7971" ry="22.7556"/>
<text text-anchor="middle" x="149.164" y="-514.753" font-family="arialuni.ttf" font-size="11.32">手頃#</text>
<text text-anchor="middle" x="149.164" y="-502.753" font-family="arialuni.ttf" font-size="11.32">(350)</text>
</g>
<!-- 肌\n(2259)\n&#45;&gt;手頃#\n(350)\n -->
<g id="edge18" class="edge"><title>肌\n(2259)\n&#45;&gt;手頃#\n(350)\n</title>
<path fill="none" stroke="#ff1c62" d="M226.361,-405.759C205.008,-435.093 182.463,-466.066 167.287,-486.915"/>
<polygon fill="#ff1c62" stroke="#ff1c62" points="165.691,-486.133 164.163,-491.206 168.521,-488.193 165.691,-486.133"/>
</g>
<!-- カバー力\n(783)\n -->
<g id="node10" class="node"><title>カバー力\n(783)\n</title>
<ellipse fill="#ffffff" stroke="#cf00bd" cx="315.054" cy="-184.838" rx="46.2432" ry="33.5"/>
<text text-anchor="middle" x="315.054" y="-189.478" font-family="arialuni.ttf" font-size="14.20">カバー力</text>
<text text-anchor="middle" x="315.054" y="-173.478" font-family="arialuni.ttf" font-size="14.20">(783)</text>
</g>
<!-- 肌\n(2259)\n&#45;&gt;カバー力\n(783)\n -->
<g id="edge13" class="edge"><title>肌\n(2259)\n&#45;&gt;カバー力\n(783)\n</title>
<path fill="none" stroke="#ff1c62" d="M305.739,-228.982C306.158,-226.997 306.57,-225.045 306.974,-223.132"/>
<polygon fill="#ff1c62" stroke="#ff1c62" points="308.701,-223.421 308.021,-218.167 305.277,-222.698 308.701,-223.421"/>
</g>
<!-- 伸び\n(602)\n -->
<g id="node11" class="node"><title>伸び\n(602)\n</title>
<ellipse fill="#ffffff" stroke="#cf00bd" cx="191.882" cy="-98.1894" rx="36.0619" ry="26"/>
<text text-anchor="middle" x="191.882" y="-101.791" font-family="arialuni.ttf" font-size="13.00">伸び</text>
<text text-anchor="middle" x="191.882" y="-87.7915" font-family="arialuni.ttf" font-size="13.00">(602)</text>
</g>
<!-- 肌\n(2259)\n&#45;&gt;伸び\n(602)\n -->
<g id="edge11" class="edge"><title>肌\n(2259)\n&#45;&gt;伸び\n(602)\n</title>
<path fill="none" stroke="#ff1c62" d="M247.895,-233.343C232.379,-195.904 215.471,-155.106 204.336,-128.239"/>
<polygon fill="#ff1c62" stroke="#ff1c62" points="205.857,-127.337 202.326,-123.388 202.623,-128.677 205.857,-127.337"/>
</g>
<!-- ファンデーション\n(153)\n -->
<g id="node14" class="node"><title>ファンデーション\n(153)\n</title>
<ellipse fill="#ffffff" stroke="gray" cx="447.999" cy="-576.196" rx="66.4361" ry="21.4286"/>
<text text-anchor="middle" x="447.999" y="-579.183" font-family="arialuni.ttf" font-size="10.02">ファンデーション</text>
<text text-anchor="middle" x="447.999" y="-568.183" font-family="arialuni.ttf" font-size="10.02">(153)</text>
</g>
<!-- 肌\n(2259)\n&#45;&gt;ファンデーション\n(153)\n -->
<g id="edge25" class="edge"><title>肌\n(2259)\n&#45;&gt;ファンデーション\n(153)\n</title>
<path fill="none" stroke="#ff1c62" d="M339.912,-408.565C372.031,-458.378 410.48,-518.008 431.776,-551.036"/>
<polygon fill="#ff1c62" stroke="#ff1c62" points="430.358,-552.067 434.538,-555.32 433.3,-550.17 430.358,-552.067"/>
</g>
<!-- のり\n(191)\n -->
<g id="node15" class="node"><title>のり\n(191)\n</title>
<ellipse fill="#ffffff" stroke="gray" cx="301.182" cy="-591.25" rx="31.2258" ry="21.4286"/>
<text text-anchor="middle" x="301.182" y="-594.035" font-family="arialuni.ttf" font-size="10.27">のり</text>
<text text-anchor="middle" x="301.182" y="-583.035" font-family="arialuni.ttf" font-size="10.27">(191)</text>
</g>
<!-- 肌\n(2259)\n&#45;&gt;のり\n(191)\n -->
<g id="edge28" class="edge"><title>肌\n(2259)\n&#45;&gt;のり\n(191)\n</title>
<path fill="none" stroke="#ff1c62" d="M291.279,-421.466C294.266,-472.681 297.704,-531.625 299.642,-564.856"/>
<polygon fill="#ff1c62" stroke="#ff1c62" points="297.902,-565.074 299.94,-569.963 301.396,-564.87 297.902,-565.074"/>
</g>
<!-- 無添加\n(164)\n -->
<g id="node16" class="node"><title>無添加\n(164)\n</title>
<ellipse fill="#ffffff" stroke="gray" cx="39.7284" cy="-401.302" rx="32.5538" ry="21.4286"/>
<text text-anchor="middle" x="39.7284" y="-404.231" font-family="arialuni.ttf" font-size="10.09">無添加</text>
<text text-anchor="middle" x="39.7284" y="-393.231" font-family="arialuni.ttf" font-size="10.09">(164)</text>
</g>
<!-- 肌\n(2259)\n&#45;&gt;無添加\n(164)\n -->
<g id="edge27" class="edge"><title>肌\n(2259)\n&#45;&gt;無添加\n(164)\n</title>
<path fill="none" stroke="#ff1c62" d="M183.473,-356.32C144.432,-368.537 102.509,-381.656 74.0729,-390.554"/>
<polygon fill="#ff1c62" stroke="#ff1c62" points="73.5255,-388.892 69.2764,-392.055 74.5708,-392.232 73.5255,-388.892"/>
</g>
<!-- よう\n(115)\n -->
<g id="node17" class="node"><title>よう\n(115)\n</title>
<ellipse fill="#ffffff" stroke="gray" cx="449.187" cy="-124.205" rx="29.8983" ry="21.4286"/>
<text text-anchor="middle" x="449.187" y="-127.394" font-family="arialuni.ttf" font-size="9.76">よう</text>
<text text-anchor="middle" x="449.187" y="-116.394" font-family="arialuni.ttf" font-size="9.76">(115)</text>
</g>
<!-- 肌\n(2259)\n&#45;&gt;よう\n(115)\n -->
<g id="edge22" class="edge"><title>肌\n(2259)\n&#45;&gt;よう\n(115)\n</title>
<path fill="none" stroke="#ff1c62" d="M349.559,-246.112C378.697,-210.458 411.012,-170.918 430.713,-146.81"/>
<polygon fill="#ff1c62" stroke="#ff1c62" points="432.194,-147.764 434.003,-142.785 429.484,-145.549 432.194,-147.764"/>
</g>
<!-- 私\n(79)\n -->
<g id="node18" class="node"><title>私\n(79)\n</title>
<ellipse fill="#ffffff" stroke="gray" cx="76.6122" cy="-186.713" rx="25.4118" ry="19.6"/>
<text text-anchor="middle" x="76.6122" y="-189.093" font-family="arialuni.ttf" font-size="9.52">私</text>
<text text-anchor="middle" x="76.6122" y="-179.093" font-family="arialuni.ttf" font-size="9.52">(79)</text>
</g>
<!-- 肌\n(2259)\n&#45;&gt;私\n(79)\n -->
<g id="edge29" class="edge"><title>肌\n(2259)\n&#45;&gt;私\n(79)\n</title>
<path fill="none" stroke="#ff1c62" d="M198.493,-266.98C162.852,-243.508 124.437,-218.209 100.461,-202.419"/>
<polygon fill="#ff1c62" stroke="#ff1c62" points="101.295,-200.873 96.1566,-199.584 99.3698,-203.796 101.295,-200.873"/>
</g>
<!-- 負担\n(96)\n -->
<g id="node20" class="node"><title>負担\n(96)\n</title>
<ellipse fill="#ffffff" stroke="gray" cx="346.921" cy="-80.8207" rx="25.4118" ry="21.4286"/>
<text text-anchor="middle" x="346.921" y="-84.1108" font-family="arialuni.ttf" font-size="9.64">負担</text>
<text text-anchor="middle" x="346.921" y="-73.1108" font-family="arialuni.ttf" font-size="9.64">(96)</text>
</g>
<!-- 肌\n(2259)\n&#45;&gt;負担\n(96)\n -->
<g id="edge12" class="edge"><title>肌\n(2259)\n&#45;&gt;負担\n(96)\n</title>
<path fill="none" stroke="#ff1c62" d="M309.493,-229.502C320.617,-185.313 332.993,-136.148 340.358,-106.89"/>
<polygon fill="#ff1c62" stroke="#ff1c62" points="342.061,-107.293 341.585,-102.017 338.667,-106.438 342.061,-107.293"/>
</g>
<!-- 自然\n(721)\n&#45;&gt;色\n(650)\n -->
<g id="edge20" class="edge"><title>自然\n(721)\n&#45;&gt;色\n(650)\n</title>
<path fill="none" stroke="#ff1c62" d="M441.141,-347.056C444.348,-369.401 448.675,-399.55 451.95,-422.37"/>
<polygon fill="#ff1c62" stroke="#ff1c62" points="450.232,-422.714 452.674,-427.415 453.696,-422.217 450.232,-422.714"/>
</g>
<!-- 自然\n(721)\n&#45;&gt;感じ\n(465)\n -->
<g id="edge6" class="edge"><title>自然\n(721)\n&#45;&gt;感じ\n(465)\n</title>
<path fill="none" stroke="#ff1c62" d="M458.967,-292.47C471.23,-279.423 486.419,-263.263 498.748,-250.145"/>
<polygon fill="#ff1c62" stroke="#ff1c62" points="500.327,-251.021 502.477,-246.179 497.777,-248.624 500.327,-251.021"/>
</g>
<!-- 仕上がり\n(413)\n -->
<g id="node9" class="node"><title>仕上がり\n(413)\n</title>
<ellipse fill="#ffffff" stroke="#cf00bd" cx="348.472" cy="-453.439" rx="45.9239" ry="24.0833"/>
<text text-anchor="middle" x="348.472" y="-457.045" font-family="arialuni.ttf" font-size="11.74">仕上がり</text>
<text text-anchor="middle" x="348.472" y="-444.045" font-family="arialuni.ttf" font-size="11.74">(413)</text>
</g>
<!-- 自然\n(721)\n&#45;&gt;仕上がり\n(413)\n -->
<g id="edge5" class="edge"><title>自然\n(721)\n&#45;&gt;仕上がり\n(413)\n</title>
<path fill="none" stroke="#ff1c62" d="M419.274,-343.277C403.861,-367.259 381.487,-402.071 366.034,-426.114"/>
<polygon fill="#ff1c62" stroke="#ff1c62" points="364.464,-425.32 363.233,-430.473 367.409,-427.213 364.464,-425.32"/>
</g>
<!-- 自然\n(721)\n&#45;&gt;カバー力\n(783)\n -->
<g id="edge21" class="edge"><title>自然\n(721)\n&#45;&gt;カバー力\n(783)\n</title>
<path fill="none" stroke="#ff1c62" d="M414.393,-292.068C394.811,-270.93 366.181,-240.027 344.682,-216.819"/>
<polygon fill="#ff1c62" stroke="#ff1c62" points="345.707,-215.351 341.025,-212.872 343.14,-217.73 345.707,-215.351"/>
</g>
<!-- 色\n(650)\n&#45;&gt;価格#\n(868)\n -->
<g id="edge19" class="edge"><title>色\n(650)\n&#45;&gt;価格#\n(868)\n</title>
<path fill="none" stroke="#ff1c62" d="M426.134,-469.783C405.147,-479.667 377.034,-492.907 354.035,-503.738"/>
<polygon fill="#ff1c62" stroke="#ff1c62" points="353.285,-502.157 349.507,-505.87 354.776,-505.323 353.285,-502.157"/>
</g>
<!-- 色\n(650)\n&#45;&gt;自分\n(468)\n -->
<g id="edge7" class="edge"><title>色\n(650)\n&#45;&gt;自分\n(468)\n</title>
<path fill="none" stroke="#ff1c62" d="M484.722,-438.247C499.236,-429.37 516.978,-418.518 531.834,-409.432"/>
<polygon fill="#ff1c62" stroke="#ff1c62" points="532.992,-410.775 536.344,-406.673 531.166,-407.789 532.992,-410.775"/>
</g>
<!-- 価格#\n(868)\n&#45;&gt;手頃#\n(350)\n -->
<g id="edge1" class="edge"><title>価格#\n(868)\n&#45;&gt;手頃#\n(350)\n</title>
<path fill="none" stroke="gray" d="M270.94,-520.333C245.776,-518.572 213.878,-516.34 189.042,-514.602"/>
<polygon fill="gray" stroke="gray" points="188.965,-512.843 183.855,-514.239 188.72,-516.334 188.965,-512.843"/>
</g>
<!-- 肌色\n(89)\n -->
<g id="node19" class="node"><title>肌色\n(89)\n</title>
<ellipse fill="#ffffff" stroke="gray" cx="696.198" cy="-411.555" rx="25.4118" ry="21.4286"/>
<text text-anchor="middle" x="696.198" y="-414.882" font-family="arialuni.ttf" font-size="9.59">肌色</text>
<text text-anchor="middle" x="696.198" y="-403.882" font-family="arialuni.ttf" font-size="9.59">(89)</text>
</g>
<!-- 自分\n(468)\n&#45;&gt;肌色\n(89)\n -->
<g id="edge23" class="edge"><title>自分\n(468)\n&#45;&gt;肌色\n(89)\n</title>
<path fill="none" stroke="gray" d="M595.765,-395.968C617.183,-399.292 644.766,-403.573 665.605,-406.807"/>
<polygon fill="gray" stroke="gray" points="665.541,-408.568 670.75,-407.605 666.078,-405.109 665.541,-408.568"/>
</g>
<!-- 綺麗#\n(569)\n&#45;&gt;仕上がり\n(413)\n -->
<g id="edge14" class="edge"><title>綺麗#\n(569)\n&#45;&gt;仕上がり\n(413)\n</title>
<path fill="none" stroke="#cf00bd" d="M250.897,-550.66C274.101,-531.689 306.887,-501.521 327.969,-479.76"/>
<polygon fill="#cf00bd" stroke="#cf00bd" points="329.309,-480.892 331.506,-476.071 326.782,-478.469 329.309,-480.892"/>
</g>
<!-- 仕上がり\n(413)\n&#45;&gt;綺麗#\n(569)\n -->
<g id="edge15" class="edge"><title>仕上がり\n(413)\n&#45;&gt;綺麗#\n(569)\n</title>
<path fill="none" stroke="#cf00bd" d="M319.794,-472.338C296.778,-491.3 265.108,-520.484 244.489,-541.745"/>
<polygon fill="#cf00bd" stroke="#cf00bd" points="243.226,-540.533 241.025,-545.351 245.751,-542.957 243.226,-540.533"/>
</g>
<!-- カバー力\n(783)\n&#45;&gt;伸び\n(602)\n -->
<g id="edge16" class="edge"><title>カバー力\n(783)\n&#45;&gt;伸び\n(602)\n</title>
<path fill="none" stroke="#cf00bd" d="M287.089,-157.865C269.135,-143.961 245.723,-127.495 226.589,-115.314"/>
<polygon fill="#cf00bd" stroke="#cf00bd" points="227.489,-113.812 222.326,-112.627 225.622,-116.773 227.489,-113.812"/>
</g>
<!-- 薄付き\n(275)\n -->
<g id="node12" class="node"><title>薄付き\n(275)\n</title>
<ellipse fill="#ffffff" stroke="gray" cx="285.867" cy="-22.6644" rx="33.8824" ry="22.7556"/>
<text text-anchor="middle" x="285.867" y="-26.0035" font-family="arialuni.ttf" font-size="10.83">薄付き</text>
<text text-anchor="middle" x="285.867" y="-14.0035" font-family="arialuni.ttf" font-size="10.83">(275)</text>
</g>
<!-- カバー力\n(783)\n&#45;&gt;薄付き\n(275)\n -->
<g id="edge24" class="edge"><title>カバー力\n(783)\n&#45;&gt;薄付き\n(275)\n</title>
<path fill="none" stroke="#cf00bd" d="M314.608,-151.037C310.916,-120.937 302.992,-77.4826 296.053,-49.653"/>
<polygon fill="#cf00bd" stroke="#cf00bd" points="297.706,-49.0544 294.77,-44.6452 294.316,-49.9231 297.706,-49.0544"/>
</g>
<!-- 伸び\n(602)\n&#45;&gt;カバー力\n(783)\n -->
<g id="edge17" class="edge"><title>伸び\n(602)\n&#45;&gt;カバー力\n(783)\n</title>
<path fill="none" stroke="#cf00bd" d="M212.77,-119.585C229.125,-132.724 252.351,-149.406 272.555,-162.672"/>
<polygon fill="#cf00bd" stroke="#cf00bd" points="271.672,-164.186 276.816,-165.449 273.582,-161.253 271.672,-164.186"/>
</g>
<!-- 薄付き\n(275)\n&#45;&gt;カバー力\n(783)\n -->
<g id="edge26" class="edge"><title>薄付き\n(275)\n&#45;&gt;カバー力\n(783)\n</title>
<path fill="none" stroke="#cf00bd" d="M285.09,-45.3839C287.613,-71.7879 295.165,-115.746 302.348,-147.257"/>
<polygon fill="#cf00bd" stroke="#cf00bd" points="300.661,-147.729 303.497,-152.203 304.07,-146.937 300.661,-147.729"/>
</g>
<!-- 毛穴\n(249)\n -->
<g id="node13" class="node"><title>毛穴\n(249)\n</title>
<ellipse fill="#ffffff" stroke="gray" cx="30.763" cy="-287.984" rx="31.2258" ry="22.7556"/>
<text text-anchor="middle" x="30.763" y="-291.461" font-family="arialuni.ttf" font-size="10.65">毛穴</text>
<text text-anchor="middle" x="30.763" y="-279.461" font-family="arialuni.ttf" font-size="10.65">(249)</text>
</g>
<!-- 毛穴\n(249)\n&#45;&gt;肌\n(2259)\n -->
<g id="edge30" class="edge"><title>毛穴\n(249)\n&#45;&gt;肌\n(2259)\n</title>
<path fill="none" stroke="gray" d="M61.5041,-292.371C89.5555,-296.375 132.772,-302.542 173.796,-308.398"/>
<polygon fill="gray" stroke="gray" points="173.59,-310.136 178.787,-309.11 174.085,-306.671 173.59,-310.136"/>
</g>
</g>
</svg>
