<?xml version="1.0" encoding="UTF-8" standalone="no"?>
<!DOCTYPE svg PUBLIC "-//W3C//DTD SVG 1.1//EN"
 "http://www.w3.org/Graphics/SVG/1.1/DTD/svg11.dtd">
<!-- Generated by graphviz version 2.38.0 (20140413.2041)
 -->
<!-- Title: g Pages: 1 -->
<svg width="365pt" height="317pt"
 viewBox="0.00 0.00 364.70 316.73" xmlns="http://www.w3.org/2000/svg" xmlns:xlink="http://www.w3.org/1999/xlink">
<g id="graph0" class="graph" transform="scale(1 1) rotate(0) translate(169.062 127.857)">
<title>g</title>
<polygon fill="white" stroke="none" points="-169.062,188.874 -169.062,-127.857 195.64,-127.857 195.64,188.874 -169.062,188.874"/>
<!-- 肌 -->
<g id="node1" class="node"><title>肌</title>
<ellipse fill="#ffdbeb" stroke="#ff1c62" cx="0.40379" cy="-6.14329" rx="18" ry="18"/>
<text text-anchor="middle" x="0.40379" y="-4.24329" font-family="arialuni.ttf" font-size="8.00">肌</text>
</g>
<!-- 自然 -->
<g id="node2" class="node"><title>自然</title>
<ellipse fill="#ffdbeb" stroke="#ff1c62" cx="-54.7458" cy="22.9294" rx="18" ry="18"/>
<text text-anchor="middle" x="-54.7458" y="24.8294" font-family="arialuni.ttf" font-size="8.00">自然</text>
</g>
<!-- 肌&#45;&gt;自然 -->
<g id="edge10" class="edge"><title>肌&#45;&gt;自然</title>
<path fill="none" stroke="#ff1c62" d="M-15.5478,2.26573C-19.9676,4.59571 -24.8752,7.18278 -29.6803,9.71582"/>
<polygon fill="#ff1c62" stroke="#ff1c62" points="-28.1608,12.8713 -38.639,14.4385 -31.4251,6.67902 -28.1608,12.8713"/>
</g>
<!-- 色 -->
<g id="node3" class="node"><title>色</title>
<ellipse fill="#ffdbeb" stroke="#ff1c62" cx="20.6602" cy="-34.6489" rx="18" ry="18"/>
<text text-anchor="middle" x="20.6602" y="-32.7489" font-family="arialuni.ttf" font-size="8.00">色</text>
</g>
<!-- 肌&#45;&gt;色 -->
<g id="edge3" class="edge"><title>肌&#45;&gt;色</title>
<path fill="none" stroke="#ff1c62" d="M11.0066,-21.064C11.0449,-21.1178 11.0832,-21.1717 11.1215,-21.2256"/>
<polygon fill="#ff1c62" stroke="#ff1c62" points="2.58822,-15.2628 11.2362,-21.3871 8.2949,-11.2065 2.58822,-15.2628"/>
</g>
<!-- 価格# -->
<g id="node4" class="node"><title>価格#</title>
<ellipse fill="#ffdbeb" stroke="#cf00bd" cx="-19.3466" cy="-79.6719" rx="18" ry="18"/>
<text text-anchor="middle" x="-19.3466" y="-77.7719" font-family="arialuni.ttf" font-size="8.00">価格#</text>
</g>
<!-- 肌&#45;&gt;価格# -->
<g id="edge9" class="edge"><title>肌&#45;&gt;価格#</title>
<path fill="none" stroke="#ff1c62" d="M-4.27679,-23.5685C-6.57213,-32.1138 -9.39089,-42.6078 -11.9671,-52.1988"/>
<polygon fill="#ff1c62" stroke="#ff1c62" points="-15.4172,-51.5513 -14.6312,-62.1169 -8.65683,-53.3672 -15.4172,-51.5513"/>
</g>
<!-- 自分 -->
<g id="node5" class="node"><title>自分</title>
<ellipse fill="#ffdbeb" stroke="#cf00bd" cx="91.354" cy="-21.8177" rx="18" ry="18"/>
<text text-anchor="middle" x="91.354" y="-19.9177" font-family="arialuni.ttf" font-size="8.00">自分</text>
</g>
<!-- 肌&#45;&gt;自分 -->
<g id="edge2" class="edge"><title>肌&#45;&gt;自分</title>
<path fill="none" stroke="#ff1c62" d="M18.3726,-9.24005C31.2032,-11.4513 48.7133,-14.469 63.3659,-16.9942"/>
<polygon fill="#ff1c62" stroke="#ff1c62" points="62.9733,-20.4781 73.4225,-18.7274 64.1622,-13.5798 62.9733,-20.4781"/>
</g>
<!-- 綺麗# -->
<g id="node6" class="node"><title>綺麗#</title>
<ellipse fill="#ffffff" stroke="#cf00bd" cx="-95.1228" cy="-10.091" rx="18" ry="18"/>
<text text-anchor="middle" x="-95.1228" y="-8.19096" font-family="arialuni.ttf" font-size="8.00">綺麗#</text>
</g>
<!-- 肌&#45;&gt;綺麗# -->
<g id="edge4" class="edge"><title>肌&#45;&gt;綺麗#</title>
<path fill="none" stroke="#ff1c62" d="M-18.0147,-6.90444C-31.8467,-7.47605 -51.0395,-8.2692 -66.8162,-8.92117"/>
<polygon fill="#ff1c62" stroke="#ff1c62" points="-67.2379,-5.43552 -77.0848,-9.34553 -66.9488,-12.4296 -67.2379,-5.43552"/>
</g>
<!-- 感じ -->
<g id="node7" class="node"><title>感じ</title>
<ellipse fill="#ffffff" stroke="#cf00bd" cx="-6.70385" cy="53.8852" rx="18" ry="18"/>
<text text-anchor="middle" x="-6.70385" y="55.7852" font-family="arialuni.ttf" font-size="8.00">感じ</text>
</g>
<!-- 肌&#45;&gt;感じ -->
<g id="edge8" class="edge"><title>肌&#45;&gt;感じ</title>
<path fill="none" stroke="#ff1c62" d="M-1.72874,11.8672C-2.24881,16.2596 -2.81751,21.0626 -3.37858,25.8012"/>
<polygon fill="#ff1c62" stroke="#ff1c62" points="0.0788096,26.3683 -4.57283,35.8874 -6.87263,25.5452 0.0788096,26.3683"/>
</g>
<!-- 手頃# -->
<g id="node8" class="node"><title>手頃#</title>
<ellipse fill="#ffffff" stroke="#cf00bd" cx="-63.6458" cy="-82.78" rx="18" ry="18"/>
<text text-anchor="middle" x="-63.6458" y="-80.88" font-family="arialuni.ttf" font-size="8.00">手頃#</text>
</g>
<!-- 肌&#45;&gt;手頃# -->
<g id="edge18" class="edge"><title>肌&#45;&gt;手頃#</title>
<path fill="none" stroke="#ff1c62" d="M-11.3439,-20.1996C-20.9142,-31.6507 -34.5888,-48.0126 -45.5553,-61.1343"/>
<polygon fill="#ff1c62" stroke="#ff1c62" points="-48.2453,-58.8952 -51.9726,-68.8128 -42.8742,-63.3842 -48.2453,-58.8952"/>
</g>
<!-- カバー力 -->
<g id="node10" class="node"><title>カバー力</title>
<ellipse fill="#ffffff" stroke="#cf00bd" cx="-24.9055" cy="85.5594" rx="18" ry="18"/>
<text text-anchor="middle" x="-24.9055" y="87.4594" font-family="arialuni.ttf" font-size="8.00">カバー力</text>
</g>
<!-- 肌&#45;&gt;カバー力 -->
<g id="edge13" class="edge"><title>肌&#45;&gt;カバー力</title>
<path fill="none" stroke="#ff1c62" d="M-4.4761,11.5379C-8.11749,24.7317 -13.1611,43.0062 -17.3258,58.0961"/>
<polygon fill="#ff1c62" stroke="#ff1c62" points="-14.0062,59.2241 -20.0406,67.9325 -20.754,57.3617 -14.0062,59.2241"/>
</g>
<!-- 伸び -->
<g id="node11" class="node"><title>伸び</title>
<ellipse fill="#ffffff" stroke="#cf00bd" cx="33.1836" cy="79.3776" rx="18" ry="18"/>
<text text-anchor="middle" x="33.1836" y="81.2776" font-family="arialuni.ttf" font-size="8.00">伸び</text>
</g>
<!-- 肌&#45;&gt;伸び -->
<g id="edge11" class="edge"><title>肌&#45;&gt;伸び</title>
<path fill="none" stroke="#ff1c62" d="M6.88003,10.7529C11.5044,22.8176 17.8153,39.2823 23.0963,53.0602"/>
<polygon fill="#ff1c62" stroke="#ff1c62" points="26.4099,51.9262 26.7209,62.5165 19.8736,54.4316 26.4099,51.9262"/>
</g>
<!-- ファンデーション -->
<g id="node14" class="node"><title>ファンデーション</title>
<ellipse fill="#ffffff" stroke="gray" cx="44.6117" cy="-89.7926" rx="34.1647" ry="18"/>
<text text-anchor="middle" x="44.6117" y="-87.8926" font-family="arialuni.ttf" font-size="8.00">ファンデーション</text>
</g>
<!-- 肌&#45;&gt;ファンデーション -->
<g id="edge25" class="edge"><title>肌&#45;&gt;ファンデーション</title>
<path fill="none" stroke="#ff1c62" d="M8.92751,-22.2717C15.0841,-33.921 23.5355,-49.9126 30.6681,-63.4089"/>
<polygon fill="#ff1c62" stroke="#ff1c62" points="27.584,-65.0638 35.351,-72.2697 33.7729,-61.793 27.584,-65.0638"/>
</g>
<!-- のり -->
<g id="node15" class="node"><title>のり</title>
<ellipse fill="#ffffff" stroke="gray" cx="72.1915" cy="-57.5229" rx="18" ry="18"/>
<text text-anchor="middle" x="72.1915" y="-55.6229" font-family="arialuni.ttf" font-size="8.00">のり</text>
</g>
<!-- 肌&#45;&gt;のり -->
<g id="edge28" class="edge"><title>肌&#45;&gt;のり</title>
<path fill="none" stroke="#ff1c62" d="M15.2783,-16.7892C24.9999,-23.7471 37.8979,-32.9784 48.957,-40.8936"/>
<polygon fill="#ff1c62" stroke="#ff1c62" points="47.1672,-43.9166 57.3361,-46.8906 51.2413,-38.2244 47.1672,-43.9166"/>
</g>
<!-- 無添加 -->
<g id="node16" class="node"><title>無添加</title>
<ellipse fill="#ffffff" stroke="gray" cx="2.34299" cy="-105.857" rx="18" ry="18"/>
<text text-anchor="middle" x="2.34299" y="-103.957" font-family="arialuni.ttf" font-size="8.00">無添加</text>
</g>
<!-- 肌&#45;&gt;無添加 -->
<g id="edge27" class="edge"><title>肌&#45;&gt;無添加</title>
<path fill="none" stroke="#ff1c62" d="M0.759469,-24.4324C1.04649,-39.1911 1.45544,-60.2194 1.78585,-77.2091"/>
<polygon fill="#ff1c62" stroke="#ff1c62" points="-1.70431,-77.754 1.98956,-87.6841 5.29437,-77.6179 -1.70431,-77.754"/>
</g>
<!-- よう -->
<g id="node17" class="node"><title>よう</title>
<ellipse fill="#ffffff" stroke="gray" cx="69.0975" cy="55.7029" rx="18" ry="18"/>
<text text-anchor="middle" x="69.0975" y="57.6029" font-family="arialuni.ttf" font-size="8.00">よう</text>
</g>
<!-- 肌&#45;&gt;よう -->
<g id="edge22" class="edge"><title>肌&#45;&gt;よう</title>
<path fill="none" stroke="#ff1c62" d="M13.9754,6.07553C23.6663,14.8003 36.8914,26.7072 47.9584,36.671"/>
<polygon fill="#ff1c62" stroke="#ff1c62" points="50.464,34.2174 55.554,43.5095 45.7804,39.4196 50.464,34.2174"/>
</g>
<!-- 私 -->
<g id="node18" class="node"><title>私</title>
<ellipse fill="#ffffff" stroke="gray" cx="-73.1561" cy="-47.6256" rx="18" ry="18"/>
<text text-anchor="middle" x="-73.1561" y="-45.7256" font-family="arialuni.ttf" font-size="8.00">私</text>
</g>
<!-- 肌&#45;&gt;私 -->
<g id="edge29" class="edge"><title>肌&#45;&gt;私</title>
<path fill="none" stroke="#ff1c62" d="M-15.5576,-15.1443C-25.1006,-20.5259 -37.4317,-27.4797 -48.2345,-33.5716"/>
<polygon fill="#ff1c62" stroke="#ff1c62" points="-50.2346,-30.6814 -57.2259,-38.6421 -46.7962,-36.7787 -50.2346,-30.6814"/>
</g>
<!-- 負担 -->
<g id="node20" class="node"><title>負担</title>
<ellipse fill="#ffffff" stroke="gray" cx="82.4015" cy="22.4731" rx="18" ry="18"/>
<text text-anchor="middle" x="82.4015" y="24.3731" font-family="arialuni.ttf" font-size="8.00">負担</text>
</g>
<!-- 肌&#45;&gt;負担 -->
<g id="edge12" class="edge"><title>肌&#45;&gt;負担</title>
<path fill="none" stroke="#ff1c62" d="M17.7934,-0.0744772C28.8476,3.78334 43.3754,8.8534 55.8547,13.2086"/>
<polygon fill="#ff1c62" stroke="#ff1c62" points="57.0299,9.91159 65.3181,16.5112 54.7233,16.5207 57.0299,9.91159"/>
</g>
<!-- 自然&#45;&gt;色 -->
<g id="edge20" class="edge"><title>自然&#45;&gt;色</title>
<path fill="none" stroke="#ff1c62" d="M-40.2068,11.8277C-29.3577,3.54361 -14.3308,-7.93059 -1.92256,-17.4052"/>
<polygon fill="#ff1c62" stroke="#ff1c62" points="-3.90622,-20.2942 6.16582,-23.5813 0.34199,-14.7306 -3.90622,-20.2942"/>
</g>
<!-- 自然&#45;&gt;感じ -->
<g id="edge6" class="edge"><title>自然&#45;&gt;感じ</title>
<path fill="none" stroke="#ff1c62" d="M-39.545,32.724C-36.6534,34.5872 -33.5638,36.578 -30.4796,38.5653"/>
<polygon fill="#ff1c62" stroke="#ff1c62" points="-28.4809,35.6894 -21.9706,44.0481 -32.2725,41.5737 -28.4809,35.6894"/>
</g>
<!-- 仕上がり -->
<g id="node9" class="node"><title>仕上がり</title>
<ellipse fill="#ffffff" stroke="#cf00bd" cx="-147.062" cy="36.7608" rx="18" ry="18"/>
<text text-anchor="middle" x="-147.062" y="38.6608" font-family="arialuni.ttf" font-size="8.00">仕上がり</text>
</g>
<!-- 自然&#45;&gt;仕上がり -->
<g id="edge5" class="edge"><title>自然&#45;&gt;仕上がり</title>
<path fill="none" stroke="#ff1c62" d="M-72.9845,25.662C-86.0924,27.6259 -104.012,30.3107 -118.943,32.5478"/>
<polygon fill="#ff1c62" stroke="#ff1c62" points="-118.767,36.0605 -129.175,34.0809 -119.804,29.1377 -118.767,36.0605"/>
</g>
<!-- 自然&#45;&gt;カバー力 -->
<g id="edge21" class="edge"><title>自然&#45;&gt;カバー力</title>
<path fill="none" stroke="#ff1c62" d="M-46.9056,39.3847C-43.914,45.6637 -40.4279,52.9804 -37.1246,59.9135"/>
<polygon fill="#ff1c62" stroke="#ff1c62" points="-33.9386,58.4634 -32.797,68.9966 -40.258,61.4743 -33.9386,58.4634"/>
</g>
<!-- 色&#45;&gt;価格# -->
<g id="edge19" class="edge"><title>色&#45;&gt;価格#</title>
<path fill="none" stroke="#ff1c62" d="M8.43946,-48.4019C5.6475,-51.5439 2.6159,-54.9556 -0.384387,-58.3321"/>
<polygon fill="#ff1c62" stroke="#ff1c62" points="-3.17465,-56.203 -7.20072,-66.0031 2.05802,-60.8527 -3.17465,-56.203"/>
</g>
<!-- 色&#45;&gt;自分 -->
<g id="edge7" class="edge"><title>色&#45;&gt;自分</title>
<path fill="none" stroke="#ff1c62" d="M38.4992,-31.411C45.9769,-30.0538 54.853,-28.4428 63.1757,-26.9322"/>
<polygon fill="#ff1c62" stroke="#ff1c62" points="64.0606,-30.3288 73.2748,-25.0991 62.8105,-23.4413 64.0606,-30.3288"/>
</g>
<!-- 価格#&#45;&gt;手頃# -->
<g id="edge1" class="edge"><title>価格#&#45;&gt;手頃#</title>
<path fill="none" stroke="gray" d="M-37.3648,-80.9361C-37.4487,-80.942 -37.5326,-80.9479 -37.6166,-80.9538"/>
<polygon fill="gray" stroke="gray" points="-35.7694,-77.3154 -45.4998,-81.5069 -35.2793,-84.2983 -35.7694,-77.3154"/>
</g>
<!-- 肌色 -->
<g id="node19" class="node"><title>肌色</title>
<ellipse fill="#ffffff" stroke="gray" cx="173.64" cy="-39.268" rx="18" ry="18"/>
<text text-anchor="middle" x="173.64" y="-37.368" font-family="arialuni.ttf" font-size="8.00">肌色</text>
</g>
<!-- 自分&#45;&gt;肌色 -->
<g id="edge23" class="edge"><title>自分&#45;&gt;肌色</title>
<path fill="none" stroke="gray" d="M109.209,-25.6042C119.884,-27.868 133.678,-30.7933 145.762,-33.3559"/>
<polygon fill="gray" stroke="gray" points="145.311,-36.8381 155.82,-35.4889 146.763,-29.9904 145.311,-36.8381"/>
</g>
<!-- 綺麗#&#45;&gt;仕上がり -->
<g id="edge14" class="edge"><title>綺麗#&#45;&gt;仕上がり</title>
<path fill="none" stroke="#cf00bd" d="M-103.999,5.88303C-109.133,11.5736 -115.769,17.8698 -122.309,23.3297"/>
<polygon fill="#cf00bd" stroke="#cf00bd" points="-120.393,26.2747 -130.422,29.69 -124.712,20.7658 -120.393,26.2747"/>
</g>
<!-- 仕上がり&#45;&gt;綺麗# -->
<g id="edge15" class="edge"><title>仕上がり&#45;&gt;綺麗#</title>
<path fill="none" stroke="#cf00bd" d="M-138.186,20.7868C-133.052,15.0962 -126.416,8.80009 -119.875,3.34013"/>
<polygon fill="#cf00bd" stroke="#cf00bd" points="-121.792,0.395166 -111.763,-3.02012 -117.473,5.90408 -121.792,0.395166"/>
</g>
<!-- カバー力&#45;&gt;伸び -->
<g id="edge16" class="edge"><title>カバー力&#45;&gt;伸び</title>
<path fill="none" stroke="#cf00bd" d="M-8.44885,77.5569C-4.15834,76.6879 0.586122,76.0081 5.29029,75.5703"/>
<polygon fill="#cf00bd" stroke="#cf00bd" points="5.15523,72.0726 15.3322,75.0187 5.53921,79.062 5.15523,72.0726"/>
</g>
<!-- 薄付き -->
<g id="node12" class="node"><title>薄付き</title>
<ellipse fill="#ffffff" stroke="gray" cx="-35.6709" cy="166.874" rx="18" ry="18"/>
<text text-anchor="middle" x="-35.6709" y="168.774" font-family="arialuni.ttf" font-size="8.00">薄付き</text>
</g>
<!-- カバー力&#45;&gt;薄付き -->
<g id="edge24" class="edge"><title>カバー力&#45;&gt;薄付き</title>
<path fill="none" stroke="#cf00bd" d="M-21.6014,103.544C-21.8748,114.368 -23.4624,128.34 -25.6952,140.407"/>
<polygon fill="#cf00bd" stroke="#cf00bd" points="-22.3137,141.334 -27.8065,150.394 -29.1623,139.886 -22.3137,141.334"/>
</g>
<!-- 伸び&#45;&gt;カバー力 -->
<g id="edge17" class="edge"><title>伸び&#45;&gt;カバー力</title>
<path fill="none" stroke="#cf00bd" d="M16.727,87.3801C12.4364,88.2491 7.69198,88.9289 2.98781,89.3667"/>
<polygon fill="#cf00bd" stroke="#cf00bd" points="3.12287,92.8645 -7.05407,89.9183 2.73889,85.875 3.12287,92.8645"/>
</g>
<!-- 薄付き&#45;&gt;カバー力 -->
<g id="edge26" class="edge"><title>薄付き&#45;&gt;カバー力</title>
<path fill="none" stroke="#cf00bd" d="M-38.9751,148.89C-38.7016,138.066 -37.114,124.094 -34.8812,112.027"/>
<polygon fill="#cf00bd" stroke="#cf00bd" points="-38.2627,111.1 -32.7699,102.04 -31.4141,112.548 -38.2627,111.1"/>
</g>
<!-- 毛穴 -->
<g id="node13" class="node"><title>毛穴</title>
<ellipse fill="#ffffff" stroke="gray" cx="-69.5268" cy="51.6562" rx="18" ry="18"/>
<text text-anchor="middle" x="-69.5268" y="53.5562" font-family="arialuni.ttf" font-size="8.00">毛穴</text>
</g>
<!-- 毛穴&#45;&gt;肌 -->
<g id="edge30" class="edge"><title>毛穴&#45;&gt;肌</title>
<path fill="none" stroke="gray" d="M-55.3753,39.9596C-45.7071,31.9686 -32.7008,21.2185 -21.6795,12.1092"/>
<polygon fill="gray" stroke="gray" points="-23.6644,9.20899 -13.7267,5.53591 -19.2048,14.6046 -23.6644,9.20899"/>
</g>
</g>
</svg>
