<?xml version="1.0" encoding="UTF-8" standalone="no"?>
<!DOCTYPE svg PUBLIC "-//W3C//DTD SVG 1.1//EN"
 "http://www.w3.org/Graphics/SVG/1.1/DTD/svg11.dtd">
<!-- Generated by graphviz version 2.38.0 (20140413.2041)
 -->
<!-- Title: g Pages: 1 -->
<svg width="385pt" height="576pt"
 viewBox="0.00 0.00 384.69 576.00" xmlns="http://www.w3.org/2000/svg" xmlns:xlink="http://www.w3.org/1999/xlink">
<g id="graph0" class="graph" transform="scale(0.515667 0.515667) rotate(0) translate(4 1113)">
<title>g</title>
<polygon fill="white" stroke="none" points="-4,4 -4,-1113 742,-1113 742,4 -4,4"/>
<!-- 肌\n(2259)\n -->
<g id="node1" class="node"><title>肌\n(2259)\n</title>
<ellipse fill="#ffdbeb" stroke="#ff1c62" cx="349.578" cy="-583.618" rx="108" ry="97"/>
<text text-anchor="middle" x="349.578" y="-589.218" font-family="arialuni.ttf" font-size="18.00">肌</text>
<text text-anchor="middle" x="349.578" y="-569.218" font-family="arialuni.ttf" font-size="18.00">(2259)</text>
</g>
<!-- 自然\n(721)\n -->
<g id="node2" class="node"><title>自然\n(721)\n</title>
<ellipse fill="#ffdbeb" stroke="#ff1c62" cx="299.365" cy="-380.959" rx="34.5" ry="31"/>
<text text-anchor="middle" x="299.365" y="-384.929" font-family="arialuni.ttf" font-size="13.79">自然</text>
<text text-anchor="middle" x="299.365" y="-369.929" font-family="arialuni.ttf" font-size="13.79">(721)</text>
</g>
<!-- 肌\n(2259)\n&#45;&gt;自然\n(721)\n -->
<g id="edge10" class="edge"><title>肌\n(2259)\n&#45;&gt;自然\n(721)\n</title>
<path fill="none" stroke="#ff1c62" d="M326.089,-488.815C319.689,-462.984 313.148,-436.585 308.139,-416.37"/>
<polygon fill="#ff1c62" stroke="#ff1c62" points="309.801,-415.8 306.9,-411.368 306.404,-416.642 309.801,-415.8"/>
</g>
<!-- 価格#\n(868)\n -->
<g id="node3" class="node"><title>価格#\n(868)\n</title>
<ellipse fill="#ffdbeb" stroke="#ff1c62" cx="224.891" cy="-228.104" rx="41.5" ry="37.5"/>
<text text-anchor="middle" x="224.891" y="-232.293" font-family="arialuni.ttf" font-size="14.76">価格#</text>
<text text-anchor="middle" x="224.891" y="-216.293" font-family="arialuni.ttf" font-size="14.76">(868)</text>
</g>
<!-- 肌\n(2259)\n&#45;&gt;価格#\n(868)\n -->
<g id="edge9" class="edge"><title>肌\n(2259)\n&#45;&gt;価格#\n(868)\n</title>
<path fill="none" stroke="#ff1c62" d="M316.981,-490.675C291.766,-418.781 258.072,-322.709 239.219,-268.955"/>
<polygon fill="#ff1c62" stroke="#ff1c62" points="240.859,-268.345 237.553,-264.205 237.557,-269.503 240.859,-268.345"/>
</g>
<!-- 色\n(650)\n -->
<g id="node4" class="node"><title>色\n(650)\n</title>
<ellipse fill="#ffdbeb" stroke="#cf00bd" cx="269.598" cy="-307.652" rx="35.2934" ry="28"/>
<text text-anchor="middle" x="269.598" y="-311.999" font-family="arialuni.ttf" font-size="13.32">色</text>
<text text-anchor="middle" x="269.598" y="-296.999" font-family="arialuni.ttf" font-size="13.32">(650)</text>
</g>
<!-- 肌\n(2259)\n&#45;&gt;色\n(650)\n -->
<g id="edge3" class="edge"><title>肌\n(2259)\n&#45;&gt;色\n(650)\n</title>
<path fill="none" stroke="#ff1c62" d="M322.278,-489.418C307.311,-437.776 289.699,-377.006 279.104,-340.45"/>
<polygon fill="#ff1c62" stroke="#ff1c62" points="280.665,-339.551 277.593,-335.236 277.304,-340.525 280.665,-339.551"/>
</g>
<!-- 自分\n(468)\n -->
<g id="node5" class="node"><title>自分\n(468)\n</title>
<ellipse fill="#ffdbeb" stroke="#cf00bd" cx="395.837" cy="-242.075" rx="33.8824" ry="24.0833"/>
<text text-anchor="middle" x="395.837" y="-245.389" font-family="arialuni.ttf" font-size="12.11">自分</text>
<text text-anchor="middle" x="395.837" y="-232.389" font-family="arialuni.ttf" font-size="12.11">(468)</text>
</g>
<!-- 肌\n(2259)\n&#45;&gt;自分\n(468)\n -->
<g id="edge2" class="edge"><title>肌\n(2259)\n&#45;&gt;自分\n(468)\n</title>
<path fill="none" stroke="#ff1c62" d="M362.649,-487.115C372.547,-414.03 385.499,-318.404 391.901,-271.131"/>
<polygon fill="#ff1c62" stroke="#ff1c62" points="393.638,-271.35 392.575,-266.16 390.169,-270.88 393.638,-271.35"/>
</g>
<!-- 感じ\n(465)\n -->
<g id="node6" class="node"><title>感じ\n(465)\n</title>
<ellipse fill="#ffffff" stroke="#cf00bd" cx="186.518" cy="-504.719" rx="33.8824" ry="24.0833"/>
<text text-anchor="middle" x="186.518" y="-508.049" font-family="arialuni.ttf" font-size="12.09">感じ</text>
<text text-anchor="middle" x="186.518" y="-495.049" font-family="arialuni.ttf" font-size="12.09">(465)</text>
</g>
<!-- 肌\n(2259)\n&#45;&gt;感じ\n(465)\n -->
<g id="edge8" class="edge"><title>肌\n(2259)\n&#45;&gt;感じ\n(465)\n</title>
<path fill="none" stroke="#ff1c62" d="M254.254,-537.494C241.803,-531.47 229.795,-525.66 219.436,-520.647"/>
<polygon fill="#ff1c62" stroke="#ff1c62" points="220.06,-519.005 214.797,-518.403 218.536,-522.156 220.06,-519.005"/>
</g>
<!-- 綺麗#\n(569)\n -->
<g id="node7" class="node"><title>綺麗#\n(569)\n</title>
<ellipse fill="#ffffff" stroke="#cf00bd" cx="208.07" cy="-445.638" rx="37.4533" ry="25.4118"/>
<text text-anchor="middle" x="208.07" y="-449.415" font-family="arialuni.ttf" font-size="12.78">綺麗#</text>
<text text-anchor="middle" x="208.07" y="-435.415" font-family="arialuni.ttf" font-size="12.78">(569)</text>
</g>
<!-- 肌\n(2259)\n&#45;&gt;綺麗#\n(569)\n -->
<g id="edge4" class="edge"><title>肌\n(2259)\n&#45;&gt;綺麗#\n(569)\n</title>
<path fill="none" stroke="#ff1c62" d="M276.337,-512.203C260.814,-497.066 245.45,-482.085 233.24,-470.18"/>
<polygon fill="#ff1c62" stroke="#ff1c62" points="234.357,-468.824 229.555,-466.587 231.913,-471.33 234.357,-468.824"/>
</g>
<!-- 仕上がり\n(413)\n -->
<g id="node8" class="node"><title>仕上がり\n(413)\n</title>
<ellipse fill="#ffffff" stroke="#cf00bd" cx="375.649" cy="-312.919" rx="45.9239" ry="24.0833"/>
<text text-anchor="middle" x="375.649" y="-316.525" font-family="arialuni.ttf" font-size="11.74">仕上がり</text>
<text text-anchor="middle" x="375.649" y="-303.525" font-family="arialuni.ttf" font-size="11.74">(413)</text>
</g>
<!-- 肌\n(2259)\n&#45;&gt;仕上がり\n(413)\n -->
<g id="edge28" class="edge"><title>肌\n(2259)\n&#45;&gt;仕上がり\n(413)\n</title>
<path fill="none" stroke="#ff1c62" d="M358.917,-486.654C363.827,-435.677 369.499,-376.78 372.818,-342.316"/>
<polygon fill="#ff1c62" stroke="#ff1c62" points="374.593,-342.144 373.33,-337 371.109,-341.809 374.593,-342.144"/>
</g>
<!-- 手頃#\n(350)\n -->
<g id="node9" class="node"><title>手頃#\n(350)\n</title>
<ellipse fill="#ffffff" stroke="#cf00bd" cx="110.747" cy="-380.761" rx="34.7971" ry="22.7556"/>
<text text-anchor="middle" x="110.747" y="-383.702" font-family="arialuni.ttf" font-size="11.32">手頃#</text>
<text text-anchor="middle" x="110.747" y="-371.702" font-family="arialuni.ttf" font-size="11.32">(350)</text>
</g>
<!-- 肌\n(2259)\n&#45;&gt;手頃#\n(350)\n -->
<g id="edge18" class="edge"><title>肌\n(2259)\n&#45;&gt;手頃#\n(350)\n</title>
<path fill="none" stroke="#ff1c62" d="M271.045,-516.914C224.334,-477.239 168.131,-429.502 136.209,-402.388"/>
<polygon fill="#ff1c62" stroke="#ff1c62" points="137.004,-400.766 132.06,-398.863 134.738,-403.434 137.004,-400.766"/>
</g>
<!-- カバー力\n(783)\n -->
<g id="node10" class="node"><title>カバー力\n(783)\n</title>
<ellipse fill="#ffffff" stroke="#cf00bd" cx="129.1" cy="-303.221" rx="46.2432" ry="33.5"/>
<text text-anchor="middle" x="129.1" y="-307.862" font-family="arialuni.ttf" font-size="14.20">カバー力</text>
<text text-anchor="middle" x="129.1" y="-291.862" font-family="arialuni.ttf" font-size="14.20">(783)</text>
</g>
<!-- 肌\n(2259)\n&#45;&gt;カバー力\n(783)\n -->
<g id="edge13" class="edge"><title>肌\n(2259)\n&#45;&gt;カバー力\n(783)\n</title>
<path fill="none" stroke="#ff1c62" d="M286.988,-504.017C243.417,-448.605 187.548,-377.552 155.291,-336.529"/>
<polygon fill="#ff1c62" stroke="#ff1c62" points="156.518,-335.259 152.052,-332.41 153.767,-337.422 156.518,-335.259"/>
</g>
<!-- 伸び\n(602)\n -->
<g id="node11" class="node"><title>伸び\n(602)\n</title>
<ellipse fill="#ffffff" stroke="#cf00bd" cx="209.134" cy="-378.677" rx="36.0619" ry="26"/>
<text text-anchor="middle" x="209.134" y="-382.279" font-family="arialuni.ttf" font-size="13.00">伸び</text>
<text text-anchor="middle" x="209.134" y="-368.279" font-family="arialuni.ttf" font-size="13.00">(602)</text>
</g>
<!-- 肌\n(2259)\n&#45;&gt;伸び\n(602)\n -->
<g id="edge11" class="edge"><title>肌\n(2259)\n&#45;&gt;伸び\n(602)\n</title>
<path fill="none" stroke="#ff1c62" d="M292.859,-500.851C269.925,-467.385 244.994,-431.005 228.355,-406.726"/>
<polygon fill="#ff1c62" stroke="#ff1c62" points="229.617,-405.472 225.347,-402.336 226.73,-407.45 229.617,-405.472"/>
</g>
<!-- 薄付き\n(275)\n -->
<g id="node12" class="node"><title>薄付き\n(275)\n</title>
<ellipse fill="#ffffff" stroke="#cf00bd" cx="123.533" cy="-444.176" rx="33.8824" ry="22.7556"/>
<text text-anchor="middle" x="123.533" y="-447.515" font-family="arialuni.ttf" font-size="10.83">薄付き</text>
<text text-anchor="middle" x="123.533" y="-435.515" font-family="arialuni.ttf" font-size="10.83">(275)</text>
</g>
<!-- 肌\n(2259)\n&#45;&gt;薄付き\n(275)\n -->
<g id="edge44" class="edge"><title>肌\n(2259)\n&#45;&gt;薄付き\n(275)\n</title>
<path fill="none" stroke="#ff1c62" d="M260.239,-528.507C222.209,-505.047 180.434,-479.276 153.199,-462.476"/>
<polygon fill="#ff1c62" stroke="#ff1c62" points="153.796,-460.788 148.622,-459.652 151.959,-463.767 153.796,-460.788"/>
</g>
<!-- 毛穴\n(249)\n -->
<g id="node13" class="node"><title>毛穴\n(249)\n</title>
<ellipse fill="#ffffff" stroke="#cf00bd" cx="111.599" cy="-587.244" rx="31.2258" ry="22.7556"/>
<text text-anchor="middle" x="111.599" y="-590.722" font-family="arialuni.ttf" font-size="10.65">毛穴</text>
<text text-anchor="middle" x="111.599" y="-578.722" font-family="arialuni.ttf" font-size="10.65">(249)</text>
</g>
<!-- 肌\n(2259)\n&#45;&gt;毛穴\n(249)\n -->
<g id="edge31" class="edge"><title>肌\n(2259)\n&#45;&gt;毛穴\n(249)\n</title>
<path fill="none" stroke="#ff1c62" d="M241.382,-585.267C207.795,-585.779 173.052,-586.308 147.974,-586.69"/>
<polygon fill="#ff1c62" stroke="#ff1c62" points="147.747,-584.943 142.774,-586.769 147.8,-588.443 147.747,-584.943"/>
</g>
<!-- 透明感\n(227)\n -->
<g id="node16" class="node"><title>透明感\n(227)\n</title>
<ellipse fill="#ffffff" stroke="gray" cx="463.743" cy="-381.302" rx="33.8824" ry="22.7556"/>
<text text-anchor="middle" x="463.743" y="-384.897" font-family="arialuni.ttf" font-size="10.51">透明感</text>
<text text-anchor="middle" x="463.743" y="-372.897" font-family="arialuni.ttf" font-size="10.51">(227)</text>
</g>
<!-- 肌\n(2259)\n&#45;&gt;透明感\n(227)\n -->
<g id="edge41" class="edge"><title>肌\n(2259)\n&#45;&gt;透明感\n(227)\n</title>
<path fill="none" stroke="#ff1c62" d="M398.491,-496.937C416.874,-464.36 436.411,-429.738 449.263,-406.963"/>
<polygon fill="#ff1c62" stroke="#ff1c62" points="450.809,-407.784 451.742,-402.57 447.761,-406.064 450.809,-407.784"/>
</g>
<!-- ファンデーション\n(153)\n -->
<g id="node17" class="node"><title>ファンデーション\n(153)\n</title>
<ellipse fill="#ffffff" stroke="gray" cx="671.614" cy="-683.381" rx="66.4361" ry="21.4286"/>
<text text-anchor="middle" x="671.614" y="-686.368" font-family="arialuni.ttf" font-size="10.02">ファンデーション</text>
<text text-anchor="middle" x="671.614" y="-675.368" font-family="arialuni.ttf" font-size="10.02">(153)</text>
</g>
<!-- 肌\n(2259)\n&#45;&gt;ファンデーション\n(153)\n -->
<g id="edge23" class="edge"><title>肌\n(2259)\n&#45;&gt;ファンデーション\n(153)\n</title>
<path fill="none" stroke="#ff1c62" d="M451.915,-615.32C507.357,-632.496 573.552,-653.002 618.689,-666.985"/>
<polygon fill="#ff1c62" stroke="#ff1c62" points="618.244,-668.679 623.538,-668.487 619.28,-665.336 618.244,-668.679"/>
</g>
<!-- 付け心地\n(158)\n -->
<g id="node18" class="node"><title>付け心地\n(158)\n</title>
<ellipse fill="#ffffff" stroke="gray" cx="39.6184" cy="-685.908" rx="39.6962" ry="21.4286"/>
<text text-anchor="middle" x="39.6184" y="-688.869" font-family="arialuni.ttf" font-size="10.05">付け心地</text>
<text text-anchor="middle" x="39.6184" y="-677.869" font-family="arialuni.ttf" font-size="10.05">(158)</text>
</g>
<!-- 肌\n(2259)\n&#45;&gt;付け心地\n(158)\n -->
<g id="edge35" class="edge"><title>肌\n(2259)\n&#45;&gt;付け心地\n(158)\n</title>
<path fill="none" stroke="#ff1c62" d="M248.086,-617.112C189.944,-636.299 120.354,-659.265 78.0953,-673.211"/>
<polygon fill="#ff1c62" stroke="#ff1c62" points="77.533,-671.553 73.3333,-674.782 78.6299,-674.877 77.533,-671.553"/>
</g>
<!-- 無添加\n(164)\n -->
<g id="node19" class="node"><title>無添加\n(164)\n</title>
<ellipse fill="#ffffff" stroke="gray" cx="374.784" cy="-910.849" rx="32.5538" ry="21.4286"/>
<text text-anchor="middle" x="374.784" y="-913.778" font-family="arialuni.ttf" font-size="10.09">無添加</text>
<text text-anchor="middle" x="374.784" y="-902.778" font-family="arialuni.ttf" font-size="10.09">(164)</text>
</g>
<!-- 肌\n(2259)\n&#45;&gt;無添加\n(164)\n -->
<g id="edge26" class="edge"><title>肌\n(2259)\n&#45;&gt;無添加\n(164)\n</title>
<path fill="none" stroke="#ff1c62" d="M357.039,-680.47C362.437,-750.556 369.356,-840.369 372.738,-884.278"/>
<polygon fill="#ff1c62" stroke="#ff1c62" points="371.003,-884.55 373.132,-889.401 374.493,-884.281 371.003,-884.55"/>
</g>
<!-- のり\n(191)\n -->
<g id="node21" class="node"><title>のり\n(191)\n</title>
<ellipse fill="#ffffff" stroke="gray" cx="581.677" cy="-737.914" rx="31.2258" ry="21.4286"/>
<text text-anchor="middle" x="581.677" y="-740.699" font-family="arialuni.ttf" font-size="10.27">のり</text>
<text text-anchor="middle" x="581.677" y="-729.699" font-family="arialuni.ttf" font-size="10.27">(191)</text>
</g>
<!-- 肌\n(2259)\n&#45;&gt;のり\n(191)\n -->
<g id="edge27" class="edge"><title>肌\n(2259)\n&#45;&gt;のり\n(191)\n</title>
<path fill="none" stroke="#ff1c62" d="M436.664,-641.511C478.666,-669.433 526.075,-700.951 554.911,-720.12"/>
<polygon fill="#ff1c62" stroke="#ff1c62" points="554.244,-721.778 559.376,-723.089 556.181,-718.863 554.244,-721.778"/>
</g>
<!-- 負担\n(96)\n -->
<g id="node22" class="node"><title>負担\n(96)\n</title>
<ellipse fill="#ffffff" stroke="gray" cx="287.648" cy="-853.546" rx="25.4118" ry="21.4286"/>
<text text-anchor="middle" x="287.648" y="-856.836" font-family="arialuni.ttf" font-size="9.64">負担</text>
<text text-anchor="middle" x="287.648" y="-845.836" font-family="arialuni.ttf" font-size="9.64">(96)</text>
</g>
<!-- 肌\n(2259)\n&#45;&gt;負担\n(96)\n -->
<g id="edge12" class="edge"><title>肌\n(2259)\n&#45;&gt;負担\n(96)\n</title>
<path fill="none" stroke="#ff1c62" d="M327.744,-678.784C315.645,-731.517 301.505,-793.151 293.663,-827.327"/>
<polygon fill="#ff1c62" stroke="#ff1c62" points="291.873,-827.306 292.46,-832.571 295.284,-828.089 291.873,-827.306"/>
</g>
<!-- 私\n(79)\n -->
<g id="node23" class="node"><title>私\n(79)\n</title>
<ellipse fill="#ffffff" stroke="gray" cx="620.71" cy="-600.949" rx="25.4118" ry="19.6"/>
<text text-anchor="middle" x="620.71" y="-603.33" font-family="arialuni.ttf" font-size="9.52">私</text>
<text text-anchor="middle" x="620.71" y="-593.33" font-family="arialuni.ttf" font-size="9.52">(79)</text>
</g>
<!-- 肌\n(2259)\n&#45;&gt;私\n(79)\n -->
<g id="edge29" class="edge"><title>肌\n(2259)\n&#45;&gt;私\n(79)\n</title>
<path fill="none" stroke="#ff1c62" d="M457.516,-590.517C505.316,-593.573 557.902,-596.934 590.118,-598.994"/>
<polygon fill="#ff1c62" stroke="#ff1c62" points="590.009,-600.74 595.11,-599.313 590.232,-597.247 590.009,-600.74"/>
</g>
<!-- 気\n(109)\n -->
<g id="node25" class="node"><title>気\n(109)\n</title>
<ellipse fill="#ffffff" stroke="gray" cx="449.848" cy="-840.367" rx="29.8983" ry="21.4286"/>
<text text-anchor="middle" x="449.848" y="-843.588" font-family="arialuni.ttf" font-size="9.72">気</text>
<text text-anchor="middle" x="449.848" y="-832.588" font-family="arialuni.ttf" font-size="9.72">(109)</text>
</g>
<!-- 肌\n(2259)\n&#45;&gt;気\n(109)\n -->
<g id="edge32" class="edge"><title>肌\n(2259)\n&#45;&gt;気\n(109)\n</title>
<path fill="none" stroke="#ff1c62" d="M385.353,-675.223C404.733,-724.845 427.238,-782.472 439.885,-814.855"/>
<polygon fill="#ff1c62" stroke="#ff1c62" points="438.379,-815.81 441.828,-819.831 441.639,-814.537 438.379,-815.81"/>
</g>
<!-- フィット\n(57)\n -->
<g id="node27" class="node"><title>フィット\n(57)\n</title>
<ellipse fill="#ffffff" stroke="gray" cx="538.278" cy="-814.261" rx="39.6962" ry="19.6"/>
<text text-anchor="middle" x="538.278" y="-816.758" font-family="arialuni.ttf" font-size="9.38">フィット</text>
<text text-anchor="middle" x="538.278" y="-806.758" font-family="arialuni.ttf" font-size="9.38">(57)</text>
</g>
<!-- 肌\n(2259)\n&#45;&gt;フィット\n(57)\n -->
<g id="edge37" class="edge"><title>肌\n(2259)\n&#45;&gt;フィット\n(57)\n</title>
<path fill="none" stroke="#ff1c62" d="M413.727,-662.025C450.999,-707.582 495.3,-761.73 519.75,-791.615"/>
<polygon fill="#ff1c62" stroke="#ff1c62" points="518.689,-793.082 523.21,-795.844 521.398,-790.866 518.689,-793.082"/>
</g>
<!-- 自然\n(721)\n&#45;&gt;価格#\n(868)\n -->
<g id="edge46" class="edge"><title>自然\n(721)\n&#45;&gt;価格#\n(868)\n</title>
<path fill="none" stroke="#ff1c62" d="M285.357,-352.208C273.647,-328.173 256.833,-293.664 243.907,-267.134"/>
<polygon fill="#ff1c62" stroke="#ff1c62" points="245.468,-266.341 241.705,-262.613 242.322,-267.874 245.468,-266.341"/>
</g>
<!-- 自然\n(721)\n&#45;&gt;色\n(650)\n -->
<g id="edge20" class="edge"><title>自然\n(721)\n&#45;&gt;色\n(650)\n</title>
<path fill="none" stroke="#ff1c62" d="M287.429,-351.565C285.802,-347.556 284.125,-343.428 282.482,-339.38"/>
<polygon fill="#ff1c62" stroke="#ff1c62" points="284.075,-338.653 280.573,-334.679 280.833,-339.97 284.075,-338.653"/>
</g>
<!-- 自然\n(721)\n&#45;&gt;感じ\n(465)\n -->
<g id="edge6" class="edge"><title>自然\n(721)\n&#45;&gt;感じ\n(465)\n</title>
<path fill="none" stroke="#ff1c62" d="M277.339,-405.115C257.533,-426.836 228.584,-458.586 208.723,-480.367"/>
<polygon fill="#ff1c62" stroke="#ff1c62" points="207.2,-479.439 205.125,-484.313 209.787,-481.798 207.2,-479.439"/>
</g>
<!-- 自然\n(721)\n&#45;&gt;綺麗#\n(569)\n -->
<g id="edge56" class="edge"><title>自然\n(721)\n&#45;&gt;綺麗#\n(569)\n</title>
<path fill="none" stroke="#ff1c62" d="M271.974,-400.365C261.402,-407.854 249.266,-416.452 238.43,-424.129"/>
<polygon fill="#ff1c62" stroke="#ff1c62" points="237.258,-422.815 234.19,-427.133 239.281,-425.671 237.258,-422.815"/>
</g>
<!-- 自然\n(721)\n&#45;&gt;仕上がり\n(413)\n -->
<g id="edge5" class="edge"><title>自然\n(721)\n&#45;&gt;仕上がり\n(413)\n</title>
<path fill="none" stroke="#ff1c62" d="M323.922,-359.056C331.707,-352.112 340.362,-344.393 348.329,-337.287"/>
<polygon fill="#ff1c62" stroke="#ff1c62" points="349.612,-338.488 352.178,-333.854 347.282,-335.876 349.612,-338.488"/>
</g>
<!-- 自然\n(721)\n&#45;&gt;カバー力\n(783)\n -->
<g id="edge21" class="edge"><title>自然\n(721)\n&#45;&gt;カバー力\n(783)\n</title>
<path fill="none" stroke="#ff1c62" d="M268.532,-366.881C241.879,-354.712 203.04,-336.98 173.118,-323.318"/>
<polygon fill="#ff1c62" stroke="#ff1c62" points="173.671,-321.647 168.396,-321.162 172.217,-324.831 173.671,-321.647"/>
</g>
<!-- 自然\n(721)\n&#45;&gt;伸び\n(602)\n -->
<g id="edge33" class="edge"><title>自然\n(721)\n&#45;&gt;伸び\n(602)\n</title>
<path fill="none" stroke="#ff1c62" d="M264.737,-380.083C260.066,-379.965 255.235,-379.843 250.462,-379.722"/>
<polygon fill="#ff1c62" stroke="#ff1c62" points="250.357,-377.969 245.314,-379.592 250.268,-381.468 250.357,-377.969"/>
</g>
<!-- 自然\n(721)\n&#45;&gt;薄付き\n(275)\n -->
<g id="edge42" class="edge"><title>自然\n(721)\n&#45;&gt;薄付き\n(275)\n</title>
<path fill="none" stroke="#ff1c62" d="M267.115,-392.554C236.342,-403.618 190.11,-420.24 158.473,-431.614"/>
<polygon fill="#ff1c62" stroke="#ff1c62" points="157.639,-430.054 153.526,-433.393 158.823,-433.348 157.639,-430.054"/>
</g>
<!-- 価格#\n(868)\n&#45;&gt;色\n(650)\n -->
<g id="edge19" class="edge"><title>価格#\n(868)\n&#45;&gt;色\n(650)\n</title>
<path fill="none" stroke="#ff1c62" d="M243.851,-261.839C246.694,-266.897 249.611,-272.088 252.414,-277.075"/>
<polygon fill="#ff1c62" stroke="#ff1c62" points="250.975,-278.086 254.95,-281.588 254.026,-276.371 250.975,-278.086"/>
</g>
<!-- 価格#\n(868)\n&#45;&gt;自分\n(468)\n -->
<g id="edge43" class="edge"><title>価格#\n(868)\n&#45;&gt;自分\n(468)\n</title>
<path fill="none" stroke="#ff1c62" d="M266.272,-231.486C293.785,-233.735 329.692,-236.669 356.726,-238.879"/>
<polygon fill="#ff1c62" stroke="#ff1c62" points="356.883,-240.647 362.009,-239.311 357.168,-237.159 356.883,-240.647"/>
</g>
<!-- 価格#\n(868)\n&#45;&gt;仕上がり\n(413)\n -->
<g id="edge59" class="edge"><title>価格#\n(868)\n&#45;&gt;仕上がり\n(413)\n</title>
<path fill="none" stroke="#ff1c62" d="M260.237,-247.989C284.161,-261.449 315.664,-279.172 339.712,-292.701"/>
<polygon fill="#ff1c62" stroke="#ff1c62" points="338.896,-294.25 344.112,-295.176 340.612,-291.199 338.896,-294.25"/>
</g>
<!-- 価格#\n(868)\n&#45;&gt;手頃#\n(350)\n -->
<g id="edge1" class="edge"><title>価格#\n(868)\n&#45;&gt;手頃#\n(350)\n</title>
<path fill="none" stroke="#ff1c62" d="M201.517,-259.365C180.096,-288.014 148.807,-329.86 129.124,-356.184"/>
<polygon fill="#ff1c62" stroke="#ff1c62" points="127.661,-355.219 126.068,-360.271 130.464,-357.314 127.661,-355.219"/>
</g>
<!-- 価格#\n(868)\n&#45;&gt;カバー力\n(783)\n -->
<g id="edge30" class="edge"><title>価格#\n(868)\n&#45;&gt;カバー力\n(783)\n</title>
<path fill="none" stroke="#ff1c62" d="M193.526,-252.7C184.264,-259.963 174.061,-267.964 164.561,-275.414"/>
<polygon fill="#ff1c62" stroke="#ff1c62" points="163.391,-274.107 160.536,-278.57 165.551,-276.861 163.391,-274.107"/>
</g>
<!-- 価格#\n(868)\n&#45;&gt;伸び\n(602)\n -->
<g id="edge49" class="edge"><title>価格#\n(868)\n&#45;&gt;伸び\n(602)\n</title>
<path fill="none" stroke="#ff1c62" d="M220.956,-265.711C218.328,-290.816 214.913,-323.451 212.429,-347.185"/>
<polygon fill="#ff1c62" stroke="#ff1c62" points="210.662,-347.255 211.882,-352.41 214.143,-347.619 210.662,-347.255"/>
</g>
<!-- わり\n(52)\n -->
<g id="node29" class="node"><title>わり\n(52)\n</title>
<ellipse fill="#ffffff" stroke="gray" cx="102.982" cy="-74.8612" rx="25.4118" ry="19.6"/>
<text text-anchor="middle" x="102.982" y="-77.385" font-family="arialuni.ttf" font-size="9.35">わり</text>
<text text-anchor="middle" x="102.982" y="-67.385" font-family="arialuni.ttf" font-size="9.35">(52)</text>
</g>
<!-- 価格#\n(868)\n&#45;&gt;わり\n(52)\n -->
<g id="edge63" class="edge"><title>価格#\n(868)\n&#45;&gt;わり\n(52)\n</title>
<path fill="none" stroke="#ff1c62" d="M200.514,-197.461C176.506,-167.282 140.485,-122.003 119.597,-95.7469"/>
<polygon fill="#ff1c62" stroke="#ff1c62" points="120.861,-94.5249 116.379,-91.7015 118.122,-96.7039 120.861,-94.5249"/>
</g>
<!-- お手ごろ\n(31)\n -->
<g id="node30" class="node"><title>お手ごろ\n(31)\n</title>
<ellipse fill="#ffffff" stroke="gray" cx="196.17" cy="-20.1395" rx="37.4533" ry="19.6"/>
<text text-anchor="middle" x="196.17" y="-22.7748" font-family="arialuni.ttf" font-size="9.21">お手ごろ</text>
<text text-anchor="middle" x="196.17" y="-12.7748" font-family="arialuni.ttf" font-size="9.21">(31)</text>
</g>
<!-- 価格#\n(868)\n&#45;&gt;お手ごろ\n(31)\n -->
<g id="edge58" class="edge"><title>価格#\n(868)\n&#45;&gt;お手ごろ\n(31)\n</title>
<path fill="none" stroke="#ff1c62" d="M219.69,-190.443C213.866,-148.272 204.592,-81.1233 199.608,-45.0304"/>
<polygon fill="#ff1c62" stroke="#ff1c62" points="201.322,-44.6508 198.904,-39.9373 197.855,-45.1297 201.322,-44.6508"/>
</g>
<!-- 色\n(650)\n&#45;&gt;自分\n(468)\n -->
<g id="edge7" class="edge"><title>色\n(650)\n&#45;&gt;自分\n(468)\n</title>
<path fill="none" stroke="gray" d="M299.196,-292.277C318.491,-282.254 343.675,-269.172 363.496,-258.875"/>
<polygon fill="gray" stroke="gray" points="364.524,-260.314 368.154,-256.456 362.91,-257.208 364.524,-260.314"/>
</g>
<!-- 色\n(650)\n&#45;&gt;綺麗#\n(569)\n -->
<g id="edge40" class="edge"><title>色\n(650)\n&#45;&gt;綺麗#\n(569)\n</title>
<path fill="none" stroke="gray" d="M257.735,-334.257C247.259,-357.751 232.008,-391.953 221.175,-416.248"/>
<polygon fill="gray" stroke="gray" points="219.508,-415.689 219.07,-420.969 222.705,-417.115 219.508,-415.689"/>
</g>
<!-- 色\n(650)\n&#45;&gt;カバー力\n(783)\n -->
<g id="edge48" class="edge"><title>色\n(650)\n&#45;&gt;カバー力\n(783)\n</title>
<path fill="none" stroke="gray" d="M234.145,-306.534C218.011,-306.025 198.601,-305.413 180.88,-304.854"/>
<polygon fill="gray" stroke="gray" points="180.492,-303.091 175.439,-304.682 180.382,-306.589 180.492,-303.091"/>
</g>
<!-- 色\n(650)\n&#45;&gt;伸び\n(602)\n -->
<g id="edge47" class="edge"><title>色\n(650)\n&#45;&gt;伸び\n(602)\n</title>
<path fill="none" stroke="gray" d="M249.8,-330.908C243.988,-337.735 237.59,-345.251 231.623,-352.26"/>
<polygon fill="gray" stroke="gray" points="230.267,-351.153 228.359,-356.094 232.932,-353.422 230.267,-351.153"/>
</g>
<!-- 肌色\n(89)\n -->
<g id="node24" class="node"><title>肌色\n(89)\n</title>
<ellipse fill="#ffffff" stroke="gray" cx="459.16" cy="-93.4598" rx="25.4118" ry="21.4286"/>
<text text-anchor="middle" x="459.16" y="-96.787" font-family="arialuni.ttf" font-size="9.59">肌色</text>
<text text-anchor="middle" x="459.16" y="-85.787" font-family="arialuni.ttf" font-size="9.59">(89)</text>
</g>
<!-- 自分\n(468)\n&#45;&gt;肌色\n(89)\n -->
<g id="edge22" class="edge"><title>自分\n(468)\n&#45;&gt;肌色\n(89)\n</title>
<path fill="none" stroke="gray" d="M405.731,-218.854C417.371,-191.535 436.62,-146.36 448.558,-118.341"/>
<polygon fill="gray" stroke="gray" points="450.204,-118.943 450.554,-113.657 446.984,-117.571 450.204,-118.943"/>
</g>
<!-- 感じ\n(465)\n&#45;&gt;伸び\n(602)\n -->
<g id="edge53" class="edge"><title>感じ\n(465)\n&#45;&gt;伸び\n(602)\n</title>
<path fill="none" stroke="#cf00bd" d="M196.251,-481.381C201.462,-461.262 206.839,-432.052 209.481,-409.92"/>
<polygon fill="#cf00bd" stroke="#cf00bd" points="211.244,-409.906 210.063,-404.742 207.766,-409.515 211.244,-409.906"/>
</g>
<!-- 綺麗#\n(569)\n&#45;&gt;仕上がり\n(413)\n -->
<g id="edge14" class="edge"><title>綺麗#\n(569)\n&#45;&gt;仕上がり\n(413)\n</title>
<path fill="none" stroke="#cf00bd" d="M237.014,-429.139C269.519,-406.274 321.548,-365.105 351.813,-338.33"/>
<polygon fill="#cf00bd" stroke="#cf00bd" points="353.188,-339.448 355.754,-334.814 350.858,-336.837 353.188,-339.448"/>
</g>
<!-- 綺麗#\n(569)\n&#45;&gt;カバー力\n(783)\n -->
<g id="edge39" class="edge"><title>綺麗#\n(569)\n&#45;&gt;カバー力\n(783)\n</title>
<path fill="none" stroke="#cf00bd" d="M200.008,-420.604C189.22,-397.309 170.248,-362.482 154.552,-336.792"/>
<polygon fill="#cf00bd" stroke="#cf00bd" points="155.976,-335.768 151.862,-332.429 152.996,-337.604 155.976,-335.768"/>
</g>
<!-- 綺麗#\n(569)\n&#45;&gt;伸び\n(602)\n -->
<g id="edge60" class="edge"><title>綺麗#\n(569)\n&#45;&gt;伸び\n(602)\n</title>
<path fill="none" stroke="#cf00bd" d="M215.04,-420.427C215.248,-417.027 215.36,-413.505 215.373,-410.015"/>
<polygon fill="#cf00bd" stroke="#cf00bd" points="217.118,-409.558 215.313,-404.578 213.619,-409.597 217.118,-409.558"/>
</g>
<!-- 綺麗#\n(569)\n&#45;&gt;毛穴\n(249)\n -->
<g id="edge51" class="edge"><title>綺麗#\n(569)\n&#45;&gt;毛穴\n(249)\n</title>
<path fill="none" stroke="#cf00bd" d="M187.154,-467.029C167.546,-492.196 139.198,-533.851 123.257,-560.957"/>
<polygon fill="#cf00bd" stroke="#cf00bd" points="121.612,-560.305 120.619,-565.509 124.64,-562.06 121.612,-560.305"/>
</g>
<!-- 仕上がり\n(413)\n&#45;&gt;綺麗#\n(569)\n -->
<g id="edge15" class="edge"><title>仕上がり\n(413)\n&#45;&gt;綺麗#\n(569)\n</title>
<path fill="none" stroke="#cf00bd" d="M344.77,-330.785C312.131,-353.918 261.468,-394.064 231.811,-420.312"/>
<polygon fill="#cf00bd" stroke="#cf00bd" points="230.512,-419.126 227.946,-423.761 232.842,-421.737 230.512,-419.126"/>
</g>
<!-- ナチュラル\n(149)\n -->
<g id="node28" class="node"><title>ナチュラル\n(149)\n</title>
<ellipse fill="#ffffff" stroke="gray" cx="530.75" cy="-189.186" rx="45.9239" ry="21.4286"/>
<text text-anchor="middle" x="530.75" y="-192.195" font-family="arialuni.ttf" font-size="9.99">ナチュラル</text>
<text text-anchor="middle" x="530.75" y="-181.195" font-family="arialuni.ttf" font-size="9.99">(149)</text>
</g>
<!-- 仕上がり\n(413)\n&#45;&gt;ナチュラル\n(149)\n -->
<g id="edge52" class="edge"><title>仕上がり\n(413)\n&#45;&gt;ナチュラル\n(149)\n</title>
<path fill="none" stroke="gray" d="M400.914,-292.764C429.059,-270.311 474.401,-234.139 503.373,-211.027"/>
<polygon fill="gray" stroke="gray" points="504.708,-212.201 507.525,-207.714 502.525,-209.465 504.708,-212.201"/>
</g>
<!-- カバー力\n(783)\n&#45;&gt;綺麗#\n(569)\n -->
<g id="edge38" class="edge"><title>カバー力\n(783)\n&#45;&gt;綺麗#\n(569)\n</title>
<path fill="none" stroke="#cf00bd" d="M140.745,-335.799C152.954,-360.955 172.005,-395.296 186.833,-418.867"/>
<polygon fill="#cf00bd" stroke="#cf00bd" points="185.389,-419.858 189.55,-423.138 188.343,-417.98 185.389,-419.858"/>
</g>
<!-- カバー力\n(783)\n&#45;&gt;伸び\n(602)\n -->
<g id="edge16" class="edge"><title>カバー力\n(783)\n&#45;&gt;伸び\n(602)\n</title>
<path fill="none" stroke="#cf00bd" d="M151.358,-333.006C159.487,-341.294 168.819,-350.103 177.592,-357.775"/>
<polygon fill="#cf00bd" stroke="#cf00bd" points="176.917,-359.503 181.847,-361.443 179.202,-356.852 176.917,-359.503"/>
</g>
<!-- カバー力\n(783)\n&#45;&gt;薄付き\n(275)\n -->
<g id="edge25" class="edge"><title>カバー力\n(783)\n&#45;&gt;薄付き\n(275)\n</title>
<path fill="none" stroke="#cf00bd" d="M121.946,-336.395C119.663,-360.714 118.491,-393.358 119.14,-416.326"/>
<polygon fill="#cf00bd" stroke="#cf00bd" points="117.392,-416.429 119.319,-421.364 120.89,-416.305 117.392,-416.429"/>
</g>
<!-- 伸び\n(602)\n&#45;&gt;感じ\n(465)\n -->
<g id="edge54" class="edge"><title>伸び\n(602)\n&#45;&gt;感じ\n(465)\n</title>
<path fill="none" stroke="#cf00bd" d="M198.943,-403.805C193.709,-424.502 188.394,-453.865 185.924,-475.588"/>
<polygon fill="#cf00bd" stroke="#cf00bd" points="184.173,-475.499 185.386,-480.656 187.654,-475.869 184.173,-475.499"/>
</g>
<!-- 伸び\n(602)\n&#45;&gt;綺麗#\n(569)\n -->
<g id="edge57" class="edge"><title>伸び\n(602)\n&#45;&gt;綺麗#\n(569)\n</title>
<path fill="none" stroke="#cf00bd" d="M202.141,-404.27C201.926,-407.918 201.821,-411.7 201.83,-415.426"/>
<polygon fill="#cf00bd" stroke="#cf00bd" points="200.08,-415.486 201.912,-420.457 203.58,-415.429 200.08,-415.486"/>
</g>
<!-- 伸び\n(602)\n&#45;&gt;仕上がり\n(413)\n -->
<g id="edge64" class="edge"><title>伸び\n(602)\n&#45;&gt;仕上がり\n(413)\n</title>
<path fill="none" stroke="gray" d="M240.846,-366.154C267.249,-355.727 305.055,-340.797 333.915,-329.4"/>
<polygon fill="gray" stroke="gray" points="334.822,-330.924 338.83,-327.46 333.536,-327.668 334.822,-330.924"/>
</g>
<!-- 伸び\n(602)\n&#45;&gt;カバー力\n(783)\n -->
<g id="edge17" class="edge"><title>伸び\n(602)\n&#45;&gt;カバー力\n(783)\n</title>
<path fill="none" stroke="#cf00bd" d="M193.021,-355.305C185.481,-347.23 176.2,-338.152 167.058,-329.845"/>
<polygon fill="#cf00bd" stroke="#cf00bd" points="168.043,-328.378 163.155,-326.338 165.704,-330.981 168.043,-328.378"/>
</g>
<!-- 薄付き\n(275)\n&#45;&gt;カバー力\n(783)\n -->
<g id="edge24" class="edge"><title>薄付き\n(275)\n&#45;&gt;カバー力\n(783)\n</title>
<path fill="none" stroke="#cf00bd" d="M129.539,-421.731C132.173,-400.279 133.791,-367.501 133.665,-341.851"/>
<polygon fill="#cf00bd" stroke="#cf00bd" points="135.414,-341.804 133.616,-336.821 131.915,-341.838 135.414,-341.804"/>
</g>
<!-- 毛穴\n(249)\n&#45;&gt;綺麗#\n(569)\n -->
<g id="edge50" class="edge"><title>毛穴\n(249)\n&#45;&gt;綺麗#\n(569)\n</title>
<path fill="none" stroke="#cf00bd" d="M130.159,-568.85C149.157,-544.906 177.899,-502.946 194.77,-474.695"/>
<polygon fill="#cf00bd" stroke="#cf00bd" points="196.34,-475.479 197.373,-470.284 193.325,-473.701 196.34,-475.479"/>
</g>
<!-- カバー\n(192)\n -->
<g id="node14" class="node"><title>カバー\n(192)\n</title>
<ellipse fill="#ffffff" stroke="gray" cx="121.593" cy="-736.841" rx="33.8824" ry="21.4286"/>
<text text-anchor="middle" x="121.593" y="-739.621" font-family="arialuni.ttf" font-size="10.27">カバー</text>
<text text-anchor="middle" x="121.593" y="-728.621" font-family="arialuni.ttf" font-size="10.27">(192)</text>
</g>
<!-- 毛穴\n(249)\n&#45;&gt;カバー\n(192)\n -->
<g id="edge34" class="edge"><title>毛穴\n(249)\n&#45;&gt;カバー\n(192)\n</title>
<path fill="none" stroke="#cf00bd" d="M108.123,-609.973C107.682,-636.978 110.576,-681.955 114.504,-710.467"/>
<polygon fill="#cf00bd" stroke="#cf00bd" points="112.798,-710.895 115.249,-715.591 116.262,-710.392 112.798,-710.895"/>
</g>
<!-- カバー\n(192)\n&#45;&gt;肌\n(2259)\n -->
<g id="edge61" class="edge"><title>カバー\n(192)\n&#45;&gt;肌\n(2259)\n</title>
<path fill="none" stroke="gray" d="M144.708,-721.305C171.467,-703.321 217.186,-672.595 258.655,-644.725"/>
<polygon fill="gray" stroke="gray" points="259.737,-646.106 262.911,-641.864 257.785,-643.201 259.737,-646.106"/>
</g>
<!-- カバー\n(192)\n&#45;&gt;毛穴\n(249)\n -->
<g id="edge36" class="edge"><title>カバー\n(192)\n&#45;&gt;毛穴\n(249)\n</title>
<path fill="none" stroke="#cf00bd" d="M125.037,-715.717C125.617,-689.259 122.768,-643.872 118.839,-614.733"/>
<polygon fill="#cf00bd" stroke="#cf00bd" points="120.53,-614.193 118.093,-609.49 117.065,-614.686 120.53,-614.193"/>
</g>
<!-- 好き\n(188)\n -->
<g id="node15" class="node"><title>好き\n(188)\n</title>
<ellipse fill="#ffffff" stroke="gray" cx="190.827" cy="-833.938" rx="31.2258" ry="21.4286"/>
<text text-anchor="middle" x="190.827" y="-836.74" font-family="arialuni.ttf" font-size="10.25">好き</text>
<text text-anchor="middle" x="190.827" y="-825.74" font-family="arialuni.ttf" font-size="10.25">(188)</text>
</g>
<!-- 好き\n(188)\n&#45;&gt;肌\n(2259)\n -->
<g id="edge45" class="edge"><title>好き\n(188)\n&#45;&gt;肌\n(2259)\n</title>
<path fill="none" stroke="gray" d="M203.284,-814.296C222.55,-783.916 260.754,-723.677 293.289,-672.375"/>
<polygon fill="gray" stroke="gray" points="294.819,-673.23 296.019,-668.071 291.863,-671.356 294.819,-673.23"/>
</g>
<!-- 透明感\n(227)\n&#45;&gt;自然\n(721)\n -->
<g id="edge62" class="edge"><title>透明感\n(227)\n&#45;&gt;自然\n(721)\n</title>
<path fill="none" stroke="gray" d="M429.684,-381.231C403.303,-381.176 366.707,-381.1 339.01,-381.042"/>
<polygon fill="gray" stroke="gray" points="338.95,-379.292 333.946,-381.031 338.943,-382.792 338.95,-379.292"/>
</g>
<!-- 無香料\n(151)\n -->
<g id="node26" class="node"><title>無香料\n(151)\n</title>
<ellipse fill="#ffffff" stroke="gray" cx="392.419" cy="-1087.86" rx="32.5538" ry="21.4286"/>
<text text-anchor="middle" x="392.419" y="-1090.85" font-family="arialuni.ttf" font-size="10.00">無香料</text>
<text text-anchor="middle" x="392.419" y="-1079.85" font-family="arialuni.ttf" font-size="10.00">(151)</text>
</g>
<!-- 無添加\n(164)\n&#45;&gt;無香料\n(151)\n -->
<g id="edge55" class="edge"><title>無添加\n(164)\n&#45;&gt;無香料\n(151)\n</title>
<path fill="none" stroke="gray" d="M376.912,-932.201C380.142,-964.628 386.28,-1026.23 389.787,-1061.43"/>
<polygon fill="gray" stroke="gray" points="388.048,-1061.63 390.285,-1066.43 391.53,-1061.28 388.048,-1061.63"/>
</g>
<!-- 化粧崩れ\n(158)\n -->
<g id="node20" class="node"><title>化粧崩れ\n(158)\n</title>
<ellipse fill="#ffffff" stroke="gray" cx="638.305" cy="-499.667" rx="39.6962" ry="21.4286"/>
<text text-anchor="middle" x="638.305" y="-502.627" font-family="arialuni.ttf" font-size="10.05">化粧崩れ</text>
<text text-anchor="middle" x="638.305" y="-491.627" font-family="arialuni.ttf" font-size="10.05">(158)</text>
</g>
<!-- 化粧崩れ\n(158)\n&#45;&gt;肌\n(2259)\n -->
<g id="edge65" class="edge"><title>化粧崩れ\n(158)\n&#45;&gt;肌\n(2259)\n</title>
<path fill="none" stroke="gray" d="M603.478,-509.793C567.371,-520.292 509.088,-537.238 457.464,-552.249"/>
<polygon fill="gray" stroke="gray" points="456.803,-550.618 452.49,-553.695 457.78,-553.979 456.803,-550.618"/>
</g>
</g>
</svg>
