<?xml version="1.0" encoding="UTF-8" standalone="no"?>
<!DOCTYPE svg PUBLIC "-//W3C//DTD SVG 1.1//EN"
 "http://www.w3.org/Graphics/SVG/1.1/DTD/svg11.dtd">
<!-- Generated by graphviz version 2.38.0 (20140413.2041)
 -->
<!-- Title: g Pages: 1 -->
<svg width="459pt" height="576pt"
 viewBox="0.00 0.00 459.37 576.00" xmlns="http://www.w3.org/2000/svg" xmlns:xlink="http://www.w3.org/1999/xlink">
<g id="graph0" class="graph" transform="scale(0.476033 0.476033) rotate(0) translate(4 1206)">
<title>g</title>
<polygon fill="white" stroke="none" points="-4,4 -4,-1206 961,-1206 961,4 -4,4"/>
<!-- 肌\n(2259)\n -->
<g id="node1" class="node"><title>肌\n(2259)\n</title>
<ellipse fill="#ffdbeb" stroke="#ff1c62" cx="536.067" cy="-599.755" rx="108" ry="97"/>
<text text-anchor="middle" x="536.067" y="-605.355" font-family="arialuni.ttf" font-size="18.00">肌</text>
<text text-anchor="middle" x="536.067" y="-585.355" font-family="arialuni.ttf" font-size="18.00">(2259)</text>
</g>
<!-- 自然\n(721)\n -->
<g id="node2" class="node"><title>自然\n(721)\n</title>
<ellipse fill="#ffdbeb" stroke="#ff1c62" cx="573.745" cy="-315.755" rx="34.5" ry="31"/>
<text text-anchor="middle" x="573.745" y="-319.725" font-family="arialuni.ttf" font-size="13.79">自然</text>
<text text-anchor="middle" x="573.745" y="-304.725" font-family="arialuni.ttf" font-size="13.79">(721)</text>
</g>
<!-- 肌\n(2259)\n&#45;&gt;自然\n(721)\n -->
<g id="edge10" class="edge"><title>肌\n(2259)\n&#45;&gt;自然\n(721)\n</title>
<path fill="none" stroke="#ff1c62" d="M548.876,-503.21C555.797,-451.039 563.933,-389.718 568.965,-351.79"/>
<polygon fill="#ff1c62" stroke="#ff1c62" points="570.7,-352.013 569.623,-346.826 567.231,-351.552 570.7,-352.013"/>
</g>
<!-- 価格#\n(868)\n -->
<g id="node3" class="node"><title>価格#\n(868)\n</title>
<ellipse fill="#ffdbeb" stroke="#ff1c62" cx="372.639" cy="-247.006" rx="41.5" ry="37.5"/>
<text text-anchor="middle" x="372.639" y="-251.196" font-family="arialuni.ttf" font-size="14.76">価格#</text>
<text text-anchor="middle" x="372.639" y="-235.196" font-family="arialuni.ttf" font-size="14.76">(868)</text>
</g>
<!-- 肌\n(2259)\n&#45;&gt;価格#\n(868)\n -->
<g id="edge9" class="edge"><title>肌\n(2259)\n&#45;&gt;価格#\n(868)\n</title>
<path fill="none" stroke="#ff1c62" d="M494.404,-509.829C461.081,-437.904 415.953,-340.496 391.051,-286.746"/>
<polygon fill="#ff1c62" stroke="#ff1c62" points="392.542,-285.802 388.852,-282.001 389.366,-287.273 392.542,-285.802"/>
</g>
<!-- 色\n(650)\n -->
<g id="node4" class="node"><title>色\n(650)\n</title>
<ellipse fill="#ffdbeb" stroke="#cf00bd" cx="376.863" cy="-347.954" rx="35.2934" ry="28"/>
<text text-anchor="middle" x="376.863" y="-352.301" font-family="arialuni.ttf" font-size="13.32">色</text>
<text text-anchor="middle" x="376.863" y="-337.301" font-family="arialuni.ttf" font-size="13.32">(650)</text>
</g>
<!-- 肌\n(2259)\n&#45;&gt;色\n(650)\n -->
<g id="edge3" class="edge"><title>肌\n(2259)\n&#45;&gt;色\n(650)\n</title>
<path fill="none" stroke="#ff1c62" d="M482.612,-515.209C452.527,-467.625 416.836,-411.176 395.563,-377.529"/>
<polygon fill="#ff1c62" stroke="#ff1c62" points="396.937,-376.429 392.786,-373.138 393.979,-378.299 396.937,-376.429"/>
</g>
<!-- 自分\n(468)\n -->
<g id="node5" class="node"><title>自分\n(468)\n</title>
<ellipse fill="#ffdbeb" stroke="#cf00bd" cx="214.66" cy="-370.432" rx="33.8824" ry="24.0833"/>
<text text-anchor="middle" x="214.66" y="-373.746" font-family="arialuni.ttf" font-size="12.11">自分</text>
<text text-anchor="middle" x="214.66" y="-360.746" font-family="arialuni.ttf" font-size="12.11">(468)</text>
</g>
<!-- 肌\n(2259)\n&#45;&gt;自分\n(468)\n -->
<g id="edge2" class="edge"><title>肌\n(2259)\n&#45;&gt;自分\n(468)\n</title>
<path fill="none" stroke="#ff1c62" d="M451.201,-539.203C382.195,-489.968 288.984,-423.461 242.887,-390.571"/>
<polygon fill="#ff1c62" stroke="#ff1c62" points="243.662,-388.975 238.575,-387.495 241.629,-391.824 243.662,-388.975"/>
</g>
<!-- 感じ\n(465)\n -->
<g id="node6" class="node"><title>感じ\n(465)\n</title>
<ellipse fill="#ffffff" stroke="#cf00bd" cx="455.134" cy="-324.616" rx="33.8824" ry="24.0833"/>
<text text-anchor="middle" x="455.134" y="-327.946" font-family="arialuni.ttf" font-size="12.09">感じ</text>
<text text-anchor="middle" x="455.134" y="-314.946" font-family="arialuni.ttf" font-size="12.09">(465)</text>
</g>
<!-- 肌\n(2259)\n&#45;&gt;感じ\n(465)\n -->
<g id="edge8" class="edge"><title>肌\n(2259)\n&#45;&gt;感じ\n(465)\n</title>
<path fill="none" stroke="#ff1c62" d="M508.441,-505.838C492.728,-452.421 474.135,-389.21 463.578,-353.322"/>
<polygon fill="#ff1c62" stroke="#ff1c62" points="465.171,-352.533 462.081,-348.23 461.813,-353.521 465.171,-352.533"/>
</g>
<!-- 綺麗#\n(569)\n -->
<g id="node7" class="node"><title>綺麗#\n(569)\n</title>
<ellipse fill="#ffffff" stroke="#cf00bd" cx="448.874" cy="-414.697" rx="37.4533" ry="25.4118"/>
<text text-anchor="middle" x="448.874" y="-418.474" font-family="arialuni.ttf" font-size="12.78">綺麗#</text>
<text text-anchor="middle" x="448.874" y="-404.474" font-family="arialuni.ttf" font-size="12.78">(569)</text>
</g>
<!-- 肌\n(2259)\n&#45;&gt;綺麗#\n(569)\n -->
<g id="edge4" class="edge"><title>肌\n(2259)\n&#45;&gt;綺麗#\n(569)\n</title>
<path fill="none" stroke="#ff1c62" d="M493.875,-510.208C482.591,-486.258 471.181,-462.041 462.673,-443.985"/>
<polygon fill="#ff1c62" stroke="#ff1c62" points="464.068,-442.838 460.353,-439.061 460.901,-444.33 464.068,-442.838"/>
</g>
<!-- 仕上がり\n(413)\n -->
<g id="node8" class="node"><title>仕上がり\n(413)\n</title>
<ellipse fill="#ffffff" stroke="#cf00bd" cx="578.656" cy="-227.317" rx="45.9239" ry="24.0833"/>
<text text-anchor="middle" x="578.656" y="-230.923" font-family="arialuni.ttf" font-size="11.74">仕上がり</text>
<text text-anchor="middle" x="578.656" y="-217.923" font-family="arialuni.ttf" font-size="11.74">(413)</text>
</g>
<!-- 肌\n(2259)\n&#45;&gt;仕上がり\n(413)\n -->
<g id="edge28" class="edge"><title>肌\n(2259)\n&#45;&gt;仕上がり\n(413)\n</title>
<path fill="none" stroke="#ff1c62" d="M547.145,-502.874C556.51,-420.983 569.329,-308.884 575.318,-256.509"/>
<polygon fill="#ff1c62" stroke="#ff1c62" points="577.081,-256.494 575.91,-251.327 573.604,-256.096 577.081,-256.494"/>
</g>
<!-- 手頃#\n(350)\n -->
<g id="node9" class="node"><title>手頃#\n(350)\n</title>
<ellipse fill="#ffffff" stroke="#cf00bd" cx="293.58" cy="-427.442" rx="34.7971" ry="22.7556"/>
<text text-anchor="middle" x="293.58" y="-430.383" font-family="arialuni.ttf" font-size="11.32">手頃#</text>
<text text-anchor="middle" x="293.58" y="-418.383" font-family="arialuni.ttf" font-size="11.32">(350)</text>
</g>
<!-- 肌\n(2259)\n&#45;&gt;手頃#\n(350)\n -->
<g id="edge18" class="edge"><title>肌\n(2259)\n&#45;&gt;手頃#\n(350)\n</title>
<path fill="none" stroke="#ff1c62" d="M451.257,-539.489C405.771,-507.166 352.743,-469.484 321.231,-447.091"/>
<polygon fill="#ff1c62" stroke="#ff1c62" points="322.209,-445.639 317.12,-444.17 320.182,-448.493 322.209,-445.639"/>
</g>
<!-- カバー力\n(783)\n -->
<g id="node10" class="node"><title>カバー力\n(783)\n</title>
<ellipse fill="#ffffff" stroke="#cf00bd" cx="547.532" cy="-392.956" rx="46.2432" ry="33.5"/>
<text text-anchor="middle" x="547.532" y="-397.597" font-family="arialuni.ttf" font-size="14.20">カバー力</text>
<text text-anchor="middle" x="547.532" y="-381.597" font-family="arialuni.ttf" font-size="14.20">(783)</text>
</g>
<!-- 肌\n(2259)\n&#45;&gt;カバー力\n(783)\n -->
<g id="edge13" class="edge"><title>肌\n(2259)\n&#45;&gt;カバー力\n(783)\n</title>
<path fill="none" stroke="#ff1c62" d="M541.447,-502.714C542.842,-477.561 544.264,-451.904 545.383,-431.728"/>
<polygon fill="#ff1c62" stroke="#ff1c62" points="547.131,-431.809 545.66,-426.72 543.636,-431.615 547.131,-431.809"/>
</g>
<!-- 伸び\n(602)\n -->
<g id="node11" class="node"><title>伸び\n(602)\n</title>
<ellipse fill="#ffffff" stroke="#cf00bd" cx="488.195" cy="-263.811" rx="36.0619" ry="26"/>
<text text-anchor="middle" x="488.195" y="-267.413" font-family="arialuni.ttf" font-size="13.00">伸び</text>
<text text-anchor="middle" x="488.195" y="-253.413" font-family="arialuni.ttf" font-size="13.00">(602)</text>
</g>
<!-- 肌\n(2259)\n&#45;&gt;伸び\n(602)\n -->
<g id="edge11" class="edge"><title>肌\n(2259)\n&#45;&gt;伸び\n(602)\n</title>
<path fill="none" stroke="#ff1c62" d="M522.349,-503.487C512.299,-432.961 499.29,-341.673 492.599,-294.72"/>
<polygon fill="#ff1c62" stroke="#ff1c62" points="494.331,-294.47 491.893,-289.767 490.866,-294.964 494.331,-294.47"/>
</g>
<!-- 薄付き\n(275)\n -->
<g id="node12" class="node"><title>薄付き\n(275)\n</title>
<ellipse fill="#ffffff" stroke="#cf00bd" cx="707.965" cy="-340.844" rx="33.8824" ry="22.7556"/>
<text text-anchor="middle" x="707.965" y="-344.183" font-family="arialuni.ttf" font-size="10.83">薄付き</text>
<text text-anchor="middle" x="707.965" y="-332.183" font-family="arialuni.ttf" font-size="10.83">(275)</text>
</g>
<!-- 肌\n(2259)\n&#45;&gt;薄付き\n(275)\n -->
<g id="edge44" class="edge"><title>肌\n(2259)\n&#45;&gt;薄付き\n(275)\n</title>
<path fill="none" stroke="#ff1c62" d="M591.403,-516.409C625.969,-464.346 668.134,-400.837 691.089,-366.263"/>
<polygon fill="#ff1c62" stroke="#ff1c62" points="692.754,-366.918 694.062,-361.785 689.838,-364.982 692.754,-366.918"/>
</g>
<!-- 毛穴\n(249)\n -->
<g id="node13" class="node"><title>毛穴\n(249)\n</title>
<ellipse fill="#ffffff" stroke="#cf00bd" cx="306.777" cy="-555.152" rx="31.2258" ry="22.7556"/>
<text text-anchor="middle" x="306.777" y="-558.629" font-family="arialuni.ttf" font-size="10.65">毛穴</text>
<text text-anchor="middle" x="306.777" y="-546.629" font-family="arialuni.ttf" font-size="10.65">(249)</text>
</g>
<!-- 肌\n(2259)\n&#45;&gt;毛穴\n(249)\n -->
<g id="edge31" class="edge"><title>肌\n(2259)\n&#45;&gt;毛穴\n(249)\n</title>
<path fill="none" stroke="#ff1c62" d="M430.482,-579.216C398.661,-573.026 365.902,-566.653 342.096,-562.022"/>
<polygon fill="#ff1c62" stroke="#ff1c62" points="342.398,-560.298 337.155,-561.061 341.729,-563.734 342.398,-560.298"/>
</g>
<!-- 透明感\n(227)\n -->
<g id="node16" class="node"><title>透明感\n(227)\n</title>
<ellipse fill="#ffffff" stroke="gray" cx="755.188" cy="-399.123" rx="33.8824" ry="22.7556"/>
<text text-anchor="middle" x="755.188" y="-402.717" font-family="arialuni.ttf" font-size="10.51">透明感</text>
<text text-anchor="middle" x="755.188" y="-390.717" font-family="arialuni.ttf" font-size="10.51">(227)</text>
</g>
<!-- 肌\n(2259)\n&#45;&gt;透明感\n(227)\n -->
<g id="edge41" class="edge"><title>肌\n(2259)\n&#45;&gt;透明感\n(227)\n</title>
<path fill="none" stroke="#ff1c62" d="M611.783,-530.428C653.692,-492.055 702.928,-446.974 731.444,-420.863"/>
<polygon fill="#ff1c62" stroke="#ff1c62" points="732.652,-422.131 735.158,-417.463 730.288,-419.549 732.652,-422.131"/>
</g>
<!-- ファンデーション\n(153)\n -->
<g id="node17" class="node"><title>ファンデーション\n(153)\n</title>
<ellipse fill="#ffffff" stroke="gray" cx="890.059" cy="-738.764" rx="66.4361" ry="21.4286"/>
<text text-anchor="middle" x="890.059" y="-741.751" font-family="arialuni.ttf" font-size="10.02">ファンデーション</text>
<text text-anchor="middle" x="890.059" y="-730.751" font-family="arialuni.ttf" font-size="10.02">(153)</text>
</g>
<!-- 肌\n(2259)\n&#45;&gt;ファンデーション\n(153)\n -->
<g id="edge23" class="edge"><title>肌\n(2259)\n&#45;&gt;ファンデーション\n(153)\n</title>
<path fill="none" stroke="#ff1c62" d="M635.144,-638.662C703.245,-665.404 790.574,-699.697 843.324,-720.412"/>
<polygon fill="#ff1c62" stroke="#ff1c62" points="842.711,-722.051 848.004,-722.25 843.99,-718.793 842.711,-722.051"/>
</g>
<!-- 付け心地\n(158)\n -->
<g id="node18" class="node"><title>付け心地\n(158)\n</title>
<ellipse fill="#ffffff" stroke="gray" cx="270.881" cy="-809.207" rx="39.6962" ry="21.4286"/>
<text text-anchor="middle" x="270.881" y="-812.168" font-family="arialuni.ttf" font-size="10.05">付け心地</text>
<text text-anchor="middle" x="270.881" y="-801.168" font-family="arialuni.ttf" font-size="10.05">(158)</text>
</g>
<!-- 肌\n(2259)\n&#45;&gt;付け心地\n(158)\n -->
<g id="edge35" class="edge"><title>肌\n(2259)\n&#45;&gt;付け心地\n(158)\n</title>
<path fill="none" stroke="#ff1c62" d="M454.7,-664.021C401.006,-706.43 334.069,-759.299 297.607,-788.098"/>
<polygon fill="#ff1c62" stroke="#ff1c62" points="296.154,-787.016 293.315,-791.488 298.323,-789.762 296.154,-787.016"/>
</g>
<!-- 無添加\n(164)\n -->
<g id="node19" class="node"><title>無添加\n(164)\n</title>
<ellipse fill="#ffffff" stroke="gray" cx="543.209" cy="-980.208" rx="32.5538" ry="21.4286"/>
<text text-anchor="middle" x="543.209" y="-983.137" font-family="arialuni.ttf" font-size="10.09">無添加</text>
<text text-anchor="middle" x="543.209" y="-972.137" font-family="arialuni.ttf" font-size="10.09">(164)</text>
</g>
<!-- 肌\n(2259)\n&#45;&gt;無添加\n(164)\n -->
<g id="edge26" class="edge"><title>肌\n(2259)\n&#45;&gt;無添加\n(164)\n</title>
<path fill="none" stroke="#ff1c62" d="M537.888,-696.744C539.494,-782.307 541.728,-901.306 542.711,-953.677"/>
<polygon fill="#ff1c62" stroke="#ff1c62" points="540.965,-953.867 542.808,-958.833 544.464,-953.801 540.965,-953.867"/>
</g>
<!-- のり\n(191)\n -->
<g id="node21" class="node"><title>のり\n(191)\n</title>
<ellipse fill="#ffffff" stroke="gray" cx="624.007" cy="-891.566" rx="31.2258" ry="21.4286"/>
<text text-anchor="middle" x="624.007" y="-894.352" font-family="arialuni.ttf" font-size="10.27">のり</text>
<text text-anchor="middle" x="624.007" y="-883.352" font-family="arialuni.ttf" font-size="10.27">(191)</text>
</g>
<!-- 肌\n(2259)\n&#45;&gt;のり\n(191)\n -->
<g id="edge27" class="edge"><title>肌\n(2259)\n&#45;&gt;のり\n(191)\n</title>
<path fill="none" stroke="#ff1c62" d="M564.376,-693.692C582.492,-753.806 604.688,-827.458 616.217,-865.717"/>
<polygon fill="#ff1c62" stroke="#ff1c62" points="614.586,-866.369 617.704,-870.651 617.937,-865.359 614.586,-866.369"/>
</g>
<!-- 負担\n(96)\n -->
<g id="node22" class="node"><title>負担\n(96)\n</title>
<ellipse fill="#ffffff" stroke="gray" cx="463.242" cy="-890.597" rx="25.4118" ry="21.4286"/>
<text text-anchor="middle" x="463.242" y="-893.887" font-family="arialuni.ttf" font-size="9.64">負担</text>
<text text-anchor="middle" x="463.242" y="-882.887" font-family="arialuni.ttf" font-size="9.64">(96)</text>
</g>
<!-- 肌\n(2259)\n&#45;&gt;負担\n(96)\n -->
<g id="edge12" class="edge"><title>肌\n(2259)\n&#45;&gt;負担\n(96)\n</title>
<path fill="none" stroke="#ff1c62" d="M512.322,-694.585C497.386,-754.236 479.201,-826.861 469.712,-864.758"/>
<polygon fill="#ff1c62" stroke="#ff1c62" points="468.005,-864.372 468.488,-869.648 471.4,-865.223 468.005,-864.372"/>
</g>
<!-- 私\n(79)\n -->
<g id="node23" class="node"><title>私\n(79)\n</title>
<ellipse fill="#ffffff" stroke="gray" cx="833.362" cy="-653.901" rx="25.4118" ry="19.6"/>
<text text-anchor="middle" x="833.362" y="-656.281" font-family="arialuni.ttf" font-size="9.52">私</text>
<text text-anchor="middle" x="833.362" y="-646.281" font-family="arialuni.ttf" font-size="9.52">(79)</text>
</g>
<!-- 肌\n(2259)\n&#45;&gt;私\n(79)\n -->
<g id="edge29" class="edge"><title>肌\n(2259)\n&#45;&gt;私\n(79)\n</title>
<path fill="none" stroke="#ff1c62" d="M642.138,-619.074C699.197,-629.466 765.397,-641.523 803.036,-648.378"/>
<polygon fill="#ff1c62" stroke="#ff1c62" points="803.144,-650.176 808.377,-649.35 803.772,-646.733 803.144,-650.176"/>
</g>
<!-- 気\n(109)\n -->
<g id="node25" class="node"><title>気\n(109)\n</title>
<ellipse fill="#ffffff" stroke="gray" cx="860.076" cy="-546.01" rx="29.8983" ry="21.4286"/>
<text text-anchor="middle" x="860.076" y="-549.231" font-family="arialuni.ttf" font-size="9.72">気</text>
<text text-anchor="middle" x="860.076" y="-538.231" font-family="arialuni.ttf" font-size="9.72">(109)</text>
</g>
<!-- 肌\n(2259)\n&#45;&gt;気\n(109)\n -->
<g id="edge32" class="edge"><title>肌\n(2259)\n&#45;&gt;気\n(109)\n</title>
<path fill="none" stroke="#ff1c62" d="M642.608,-582.083C706.061,-571.558 782.422,-558.891 825.7,-551.712"/>
<polygon fill="#ff1c62" stroke="#ff1c62" points="826.164,-553.409 830.81,-550.865 825.591,-549.957 826.164,-553.409"/>
</g>
<!-- フィット\n(57)\n -->
<g id="node27" class="node"><title>フィット\n(57)\n</title>
<ellipse fill="#ffffff" stroke="gray" cx="724.237" cy="-872.583" rx="39.6962" ry="19.6"/>
<text text-anchor="middle" x="724.237" y="-875.08" font-family="arialuni.ttf" font-size="9.38">フィット</text>
<text text-anchor="middle" x="724.237" y="-865.08" font-family="arialuni.ttf" font-size="9.38">(57)</text>
</g>
<!-- 肌\n(2259)\n&#45;&gt;フィット\n(57)\n -->
<g id="edge37" class="edge"><title>肌\n(2259)\n&#45;&gt;フィット\n(57)\n</title>
<path fill="none" stroke="#ff1c62" d="M593.035,-682.353C632.742,-739.924 682.953,-812.725 708.197,-849.326"/>
<polygon fill="#ff1c62" stroke="#ff1c62" points="706.869,-850.484 711.149,-853.606 709.751,-848.497 706.869,-850.484"/>
</g>
<!-- 自然\n(721)\n&#45;&gt;価格#\n(868)\n -->
<g id="edge46" class="edge"><title>自然\n(721)\n&#45;&gt;価格#\n(868)\n</title>
<path fill="none" stroke="#ff1c62" d="M541.434,-304.709C507.643,-293.158 454.385,-274.951 416.742,-262.083"/>
<polygon fill="#ff1c62" stroke="#ff1c62" points="417.066,-260.344 411.769,-260.383 415.934,-263.656 417.066,-260.344"/>
</g>
<!-- 自然\n(721)\n&#45;&gt;色\n(650)\n -->
<g id="edge20" class="edge"><title>自然\n(721)\n&#45;&gt;色\n(650)\n</title>
<path fill="none" stroke="#ff1c62" d="M539.451,-321.364C505.324,-326.945 452.978,-335.506 416.95,-341.398"/>
<polygon fill="#ff1c62" stroke="#ff1c62" points="416.409,-339.713 411.757,-342.247 416.974,-343.167 416.409,-339.713"/>
</g>
<!-- 自然\n(721)\n&#45;&gt;感じ\n(465)\n -->
<g id="edge6" class="edge"><title>自然\n(721)\n&#45;&gt;感じ\n(465)\n</title>
<path fill="none" stroke="#ff1c62" d="M539.119,-318.342C525.112,-319.388 508.87,-320.601 494.423,-321.681"/>
<polygon fill="#ff1c62" stroke="#ff1c62" points="494.045,-319.954 489.189,-322.072 494.306,-323.444 494.045,-319.954"/>
</g>
<!-- 自然\n(721)\n&#45;&gt;綺麗#\n(569)\n -->
<g id="edge56" class="edge"><title>自然\n(721)\n&#45;&gt;綺麗#\n(569)\n</title>
<path fill="none" stroke="#ff1c62" d="M547.568,-336.496C527.052,-352.752 498.542,-375.342 477.438,-392.064"/>
<polygon fill="#ff1c62" stroke="#ff1c62" points="476.152,-390.85 473.32,-395.327 478.326,-393.593 476.152,-390.85"/>
</g>
<!-- 自然\n(721)\n&#45;&gt;仕上がり\n(413)\n -->
<g id="edge5" class="edge"><title>自然\n(721)\n&#45;&gt;仕上がり\n(413)\n</title>
<path fill="none" stroke="#ff1c62" d="M575.49,-284.326C575.988,-275.363 576.528,-265.633 577.019,-256.791"/>
<polygon fill="#ff1c62" stroke="#ff1c62" points="578.788,-256.505 577.318,-251.416 575.293,-256.311 578.788,-256.505"/>
</g>
<!-- 自然\n(721)\n&#45;&gt;カバー力\n(783)\n -->
<g id="edge21" class="edge"><title>自然\n(721)\n&#45;&gt;カバー力\n(783)\n</title>
<path fill="none" stroke="#ff1c62" d="M563.536,-345.824C562.479,-348.936 561.396,-352.126 560.316,-355.307"/>
<polygon fill="#ff1c62" stroke="#ff1c62" points="558.576,-354.989 558.625,-360.286 561.89,-356.114 558.576,-354.989"/>
</g>
<!-- 自然\n(721)\n&#45;&gt;伸び\n(602)\n -->
<g id="edge33" class="edge"><title>自然\n(721)\n&#45;&gt;伸び\n(602)\n</title>
<path fill="none" stroke="#ff1c62" d="M544.782,-298.169C536.929,-293.401 528.38,-288.211 520.362,-283.342"/>
<polygon fill="#ff1c62" stroke="#ff1c62" points="521.153,-281.775 515.97,-280.676 519.336,-284.767 521.153,-281.775"/>
</g>
<!-- 自然\n(721)\n&#45;&gt;薄付き\n(275)\n -->
<g id="edge42" class="edge"><title>自然\n(721)\n&#45;&gt;薄付き\n(275)\n</title>
<path fill="none" stroke="#ff1c62" d="M607.615,-322.086C626.578,-325.631 650.277,-330.061 669.883,-333.725"/>
<polygon fill="#ff1c62" stroke="#ff1c62" points="669.798,-335.49 675.035,-334.688 670.441,-332.049 669.798,-335.49"/>
</g>
<!-- 価格#\n(868)\n&#45;&gt;色\n(650)\n -->
<g id="edge19" class="edge"><title>価格#\n(868)\n&#45;&gt;色\n(650)\n</title>
<path fill="none" stroke="#ff1c62" d="M374.212,-284.596C374.624,-294.434 375.065,-304.971 375.467,-314.573"/>
<polygon fill="#ff1c62" stroke="#ff1c62" points="373.728,-314.879 375.685,-319.801 377.225,-314.732 373.728,-314.879"/>
</g>
<!-- 価格#\n(868)\n&#45;&gt;自分\n(468)\n -->
<g id="edge43" class="edge"><title>価格#\n(868)\n&#45;&gt;自分\n(468)\n</title>
<path fill="none" stroke="#ff1c62" d="M341.05,-271.687C311.87,-294.484 268.996,-327.981 241.452,-349.5"/>
<polygon fill="#ff1c62" stroke="#ff1c62" points="240.365,-348.128 237.503,-352.585 242.52,-350.886 240.365,-348.128"/>
</g>
<!-- 価格#\n(868)\n&#45;&gt;仕上がり\n(413)\n -->
<g id="edge59" class="edge"><title>価格#\n(868)\n&#45;&gt;仕上がり\n(413)\n</title>
<path fill="none" stroke="#ff1c62" d="M414.33,-243.022C447.165,-239.884 493.069,-235.497 528.016,-232.157"/>
<polygon fill="#ff1c62" stroke="#ff1c62" points="528.279,-233.89 533.09,-231.672 527.946,-230.406 528.279,-233.89"/>
</g>
<!-- 価格#\n(868)\n&#45;&gt;手頃#\n(350)\n -->
<g id="edge1" class="edge"><title>価格#\n(868)\n&#45;&gt;手頃#\n(350)\n</title>
<path fill="none" stroke="#ff1c62" d="M357.208,-282.225C341.98,-316.979 319.037,-369.342 305.262,-400.78"/>
<polygon fill="#ff1c62" stroke="#ff1c62" points="303.536,-400.358 303.132,-405.64 306.742,-401.763 303.536,-400.358"/>
</g>
<!-- 価格#\n(868)\n&#45;&gt;カバー力\n(783)\n -->
<g id="edge30" class="edge"><title>価格#\n(868)\n&#45;&gt;カバー力\n(783)\n</title>
<path fill="none" stroke="#ff1c62" d="M403.504,-272.763C434.099,-298.295 480.888,-337.341 512.774,-363.95"/>
<polygon fill="#ff1c62" stroke="#ff1c62" points="512.016,-365.597 516.976,-367.457 514.258,-362.91 512.016,-365.597"/>
</g>
<!-- 価格#\n(868)\n&#45;&gt;伸び\n(602)\n -->
<g id="edge49" class="edge"><title>価格#\n(868)\n&#45;&gt;伸び\n(602)\n</title>
<path fill="none" stroke="#ff1c62" d="M413.705,-252.978C424.731,-254.582 436.646,-256.314 447.644,-257.914"/>
<polygon fill="#ff1c62" stroke="#ff1c62" points="447.426,-259.65 452.626,-258.638 447.93,-256.187 447.426,-259.65"/>
</g>
<!-- わり\n(52)\n -->
<g id="node29" class="node"><title>わり\n(52)\n</title>
<ellipse fill="#ffffff" stroke="gray" cx="228.612" cy="-90.5814" rx="25.4118" ry="19.6"/>
<text text-anchor="middle" x="228.612" y="-93.1051" font-family="arialuni.ttf" font-size="9.35">わり</text>
<text text-anchor="middle" x="228.612" y="-83.1051" font-family="arialuni.ttf" font-size="9.35">(52)</text>
</g>
<!-- 価格#\n(868)\n&#45;&gt;わり\n(52)\n -->
<g id="edge63" class="edge"><title>価格#\n(868)\n&#45;&gt;わり\n(52)\n</title>
<path fill="none" stroke="#ff1c62" d="M345.887,-217.951C317.198,-186.792 272.392,-138.13 247.282,-110.859"/>
<polygon fill="#ff1c62" stroke="#ff1c62" points="248.399,-109.488 243.725,-106.995 245.824,-111.859 248.399,-109.488"/>
</g>
<!-- お手ごろ\n(31)\n -->
<g id="node30" class="node"><title>お手ごろ\n(31)\n</title>
<ellipse fill="#ffffff" stroke="gray" cx="325.959" cy="-25.4249" rx="37.4533" ry="19.6"/>
<text text-anchor="middle" x="325.959" y="-28.0602" font-family="arialuni.ttf" font-size="9.21">お手ごろ</text>
<text text-anchor="middle" x="325.959" y="-18.0602" font-family="arialuni.ttf" font-size="9.21">(31)</text>
</g>
<!-- 価格#\n(868)\n&#45;&gt;お手ごろ\n(31)\n -->
<g id="edge58" class="edge"><title>価格#\n(868)\n&#45;&gt;お手ごろ\n(31)\n</title>
<path fill="none" stroke="#ff1c62" d="M364.826,-209.919C355.288,-164.642 339.418,-89.3113 331.22,-50.3969"/>
<polygon fill="#ff1c62" stroke="#ff1c62" points="332.907,-49.9134 330.163,-45.3816 329.482,-50.635 332.907,-49.9134"/>
</g>
<!-- 色\n(650)\n&#45;&gt;自分\n(468)\n -->
<g id="edge7" class="edge"><title>色\n(650)\n&#45;&gt;自分\n(468)\n</title>
<path fill="none" stroke="gray" d="M341.668,-352.831C315.637,-356.439 280.199,-361.35 253.37,-365.067"/>
<polygon fill="gray" stroke="gray" points="252.837,-363.374 248.124,-365.794 253.317,-366.841 252.837,-363.374"/>
</g>
<!-- 色\n(650)\n&#45;&gt;綺麗#\n(569)\n -->
<g id="edge40" class="edge"><title>色\n(650)\n&#45;&gt;綺麗#\n(569)\n</title>
<path fill="none" stroke="gray" d="M400.044,-369.439C407.26,-376.127 415.266,-383.548 422.673,-390.413"/>
<polygon fill="gray" stroke="gray" points="421.861,-392.046 426.718,-394.161 424.24,-389.479 421.861,-392.046"/>
</g>
<!-- 色\n(650)\n&#45;&gt;カバー力\n(783)\n -->
<g id="edge48" class="edge"><title>色\n(650)\n&#45;&gt;カバー力\n(783)\n</title>
<path fill="none" stroke="gray" d="M410.582,-356.845C435.928,-363.528 471.005,-372.777 499.313,-380.242"/>
<polygon fill="gray" stroke="gray" points="498.874,-381.936 504.155,-381.518 499.766,-378.551 498.874,-381.936"/>
</g>
<!-- 色\n(650)\n&#45;&gt;伸び\n(602)\n -->
<g id="edge47" class="edge"><title>色\n(650)\n&#45;&gt;伸び\n(602)\n</title>
<path fill="none" stroke="gray" d="M402.685,-328.438C419.502,-315.728 441.48,-299.118 458.943,-285.919"/>
<polygon fill="gray" stroke="gray" points="460.345,-287.053 463.279,-282.642 458.235,-284.261 460.345,-287.053"/>
</g>
<!-- 肌色\n(89)\n -->
<g id="node24" class="node"><title>肌色\n(89)\n</title>
<ellipse fill="#ffffff" stroke="gray" cx="25.0796" cy="-327.238" rx="25.4118" ry="21.4286"/>
<text text-anchor="middle" x="25.0796" y="-330.566" font-family="arialuni.ttf" font-size="9.59">肌色</text>
<text text-anchor="middle" x="25.0796" y="-319.566" font-family="arialuni.ttf" font-size="9.59">(89)</text>
</g>
<!-- 自分\n(468)\n&#45;&gt;肌色\n(89)\n -->
<g id="edge22" class="edge"><title>自分\n(468)\n&#45;&gt;肌色\n(89)\n</title>
<path fill="none" stroke="gray" d="M182.07,-363.006C146.249,-354.845 89.2103,-341.85 54.6418,-333.974"/>
<polygon fill="gray" stroke="gray" points="54.9736,-332.254 49.7098,-332.85 54.1961,-335.667 54.9736,-332.254"/>
</g>
<!-- 感じ\n(465)\n&#45;&gt;伸び\n(602)\n -->
<g id="edge53" class="edge"><title>感じ\n(465)\n&#45;&gt;伸び\n(602)\n</title>
<path fill="none" stroke="#cf00bd" d="M473.607,-304.426C475.548,-301.186 477.455,-297.773 479.235,-294.357"/>
<polygon fill="#cf00bd" stroke="#cf00bd" points="480.887,-294.967 481.575,-289.714 477.761,-293.392 480.887,-294.967"/>
</g>
<!-- 綺麗#\n(569)\n&#45;&gt;仕上がり\n(413)\n -->
<g id="edge14" class="edge"><title>綺麗#\n(569)\n&#45;&gt;仕上がり\n(413)\n</title>
<path fill="none" stroke="#cf00bd" d="M469.441,-393.261C496.335,-359.183 542.314,-292.842 565.191,-255.147"/>
<polygon fill="#cf00bd" stroke="#cf00bd" points="566.79,-255.884 567.864,-250.696 563.789,-254.082 566.79,-255.884"/>
</g>
<!-- 綺麗#\n(569)\n&#45;&gt;カバー力\n(783)\n -->
<g id="edge39" class="edge"><title>綺麗#\n(569)\n&#45;&gt;カバー力\n(783)\n</title>
<path fill="none" stroke="#cf00bd" d="M486.456,-413.104C491.442,-412.177 496.597,-411.113 501.702,-409.962"/>
<polygon fill="#cf00bd" stroke="#cf00bd" points="502.308,-411.618 506.782,-408.783 501.516,-408.209 502.308,-411.618"/>
</g>
<!-- 綺麗#\n(569)\n&#45;&gt;伸び\n(602)\n -->
<g id="edge60" class="edge"><title>綺麗#\n(569)\n&#45;&gt;伸び\n(602)\n</title>
<path fill="none" stroke="#cf00bd" d="M460.593,-390.417C469.364,-364.47 480.197,-323.275 485.762,-294.959"/>
<polygon fill="#cf00bd" stroke="#cf00bd" points="487.523,-295.067 486.738,-289.828 484.084,-294.413 487.523,-295.067"/>
</g>
<!-- 綺麗#\n(569)\n&#45;&gt;毛穴\n(249)\n -->
<g id="edge51" class="edge"><title>綺麗#\n(569)\n&#45;&gt;毛穴\n(249)\n</title>
<path fill="none" stroke="#cf00bd" d="M422.781,-433.333C394.198,-458.421 349.308,-502.843 324.519,-530.613"/>
<polygon fill="#cf00bd" stroke="#cf00bd" points="323.009,-529.679 321.012,-534.585 325.633,-531.995 323.009,-529.679"/>
</g>
<!-- 仕上がり\n(413)\n&#45;&gt;綺麗#\n(569)\n -->
<g id="edge15" class="edge"><title>仕上がり\n(413)\n&#45;&gt;綺麗#\n(569)\n</title>
<path fill="none" stroke="#cf00bd" d="M557.8,-249.12C531.125,-282.977 486.012,-348.041 463.003,-385.776"/>
<polygon fill="#cf00bd" stroke="#cf00bd" points="461.395,-385.053 460.309,-390.238 464.391,-386.862 461.395,-385.053"/>
</g>
<!-- ナチュラル\n(149)\n -->
<g id="node28" class="node"><title>ナチュラル\n(149)\n</title>
<ellipse fill="#ffffff" stroke="gray" cx="681.458" cy="-21.5979" rx="45.9239" ry="21.4286"/>
<text text-anchor="middle" x="681.458" y="-24.6064" font-family="arialuni.ttf" font-size="9.99">ナチュラル</text>
<text text-anchor="middle" x="681.458" y="-13.6064" font-family="arialuni.ttf" font-size="9.99">(149)</text>
</g>
<!-- 仕上がり\n(413)\n&#45;&gt;ナチュラル\n(149)\n -->
<g id="edge52" class="edge"><title>仕上がり\n(413)\n&#45;&gt;ナチュラル\n(149)\n</title>
<path fill="none" stroke="gray" d="M590.449,-203.719C609.91,-164.775 648.591,-87.369 668.68,-47.1685"/>
<polygon fill="gray" stroke="gray" points="670.365,-47.7104 671.035,-42.4555 667.234,-46.1459 670.365,-47.7104"/>
</g>
<!-- カバー力\n(783)\n&#45;&gt;綺麗#\n(569)\n -->
<g id="edge38" class="edge"><title>カバー力\n(783)\n&#45;&gt;綺麗#\n(569)\n</title>
<path fill="none" stroke="#cf00bd" d="M501.375,-396.243C496.162,-397.33 490.901,-398.532 485.827,-399.795"/>
<polygon fill="#cf00bd" stroke="#cf00bd" points="485.233,-398.141 480.824,-401.078 486.102,-401.532 485.233,-398.141"/>
</g>
<!-- カバー力\n(783)\n&#45;&gt;伸び\n(602)\n -->
<g id="edge16" class="edge"><title>カバー力\n(783)\n&#45;&gt;伸び\n(602)\n</title>
<path fill="none" stroke="#cf00bd" d="M538.777,-359.912C530.393,-338.737 517.909,-311.588 507.331,-291.536"/>
<polygon fill="#cf00bd" stroke="#cf00bd" points="508.867,-290.698 504.966,-287.115 505.781,-292.349 508.867,-290.698"/>
</g>
<!-- カバー力\n(783)\n&#45;&gt;薄付き\n(275)\n -->
<g id="edge25" class="edge"><title>カバー力\n(783)\n&#45;&gt;薄付き\n(275)\n</title>
<path fill="none" stroke="#cf00bd" d="M592.397,-384.752C619.177,-377.167 652.521,-366.172 676.507,-356.939"/>
<polygon fill="#cf00bd" stroke="#cf00bd" points="677.153,-358.566 681.174,-355.118 675.88,-355.305 677.153,-358.566"/>
</g>
<!-- 伸び\n(602)\n&#45;&gt;感じ\n(465)\n -->
<g id="edge54" class="edge"><title>伸び\n(602)\n&#45;&gt;感じ\n(465)\n</title>
<path fill="none" stroke="#cf00bd" d="M468.708,-285.714C466.744,-289.075 464.832,-292.584 463.07,-296.062"/>
<polygon fill="#cf00bd" stroke="#cf00bd" points="461.394,-295.508 460.771,-300.768 464.538,-297.044 461.394,-295.508"/>
</g>
<!-- 伸び\n(602)\n&#45;&gt;綺麗#\n(569)\n -->
<g id="edge57" class="edge"><title>伸び\n(602)\n&#45;&gt;綺麗#\n(569)\n</title>
<path fill="none" stroke="#cf00bd" d="M476.363,-288.427C467.571,-314.513 456.747,-355.737 451.229,-383.943"/>
<polygon fill="#cf00bd" stroke="#cf00bd" points="449.473,-383.813 450.263,-389.052 452.912,-384.464 449.473,-383.813"/>
</g>
<!-- 伸び\n(602)\n&#45;&gt;仕上がり\n(413)\n -->
<g id="edge64" class="edge"><title>伸び\n(602)\n&#45;&gt;仕上がり\n(413)\n</title>
<path fill="none" stroke="gray" d="M519.834,-251.047C525.486,-248.767 531.45,-246.361 537.326,-243.99"/>
<polygon fill="gray" stroke="gray" points="538.25,-245.505 542.233,-242.011 536.941,-242.259 538.25,-245.505"/>
</g>
<!-- 伸び\n(602)\n&#45;&gt;カバー力\n(783)\n -->
<g id="edge17" class="edge"><title>伸び\n(602)\n&#45;&gt;カバー力\n(783)\n</title>
<path fill="none" stroke="#cf00bd" d="M494.204,-289.738C501.575,-309.405 513.772,-336.607 524.736,-358.16"/>
<polygon fill="#cf00bd" stroke="#cf00bd" points="523.212,-359.023 527.055,-362.669 526.324,-357.422 523.212,-359.023"/>
</g>
<!-- 薄付き\n(275)\n&#45;&gt;カバー力\n(783)\n -->
<g id="edge24" class="edge"><title>薄付き\n(275)\n&#45;&gt;カバー力\n(783)\n</title>
<path fill="none" stroke="#cf00bd" d="M674.569,-345.905C650.233,-352.324 617.065,-362.876 590.717,-372.475"/>
<polygon fill="#cf00bd" stroke="#cf00bd" points="589.969,-370.886 585.881,-374.255 591.177,-374.17 589.969,-370.886"/>
</g>
<!-- 毛穴\n(249)\n&#45;&gt;綺麗#\n(569)\n -->
<g id="edge50" class="edge"><title>毛穴\n(249)\n&#45;&gt;綺麗#\n(569)\n</title>
<path fill="none" stroke="#cf00bd" d="M329.623,-539.342C357.094,-515.629 402.549,-470.873 428.754,-441.882"/>
<polygon fill="#cf00bd" stroke="#cf00bd" points="430.131,-442.968 432.164,-438.076 427.524,-440.633 430.131,-442.968"/>
</g>
<!-- カバー\n(192)\n -->
<g id="node14" class="node"><title>カバー\n(192)\n</title>
<ellipse fill="#ffffff" stroke="gray" cx="231.046" cy="-677.432" rx="33.8824" ry="21.4286"/>
<text text-anchor="middle" x="231.046" y="-680.212" font-family="arialuni.ttf" font-size="10.27">カバー</text>
<text text-anchor="middle" x="231.046" y="-669.212" font-family="arialuni.ttf" font-size="10.27">(192)</text>
</g>
<!-- 毛穴\n(249)\n&#45;&gt;カバー\n(192)\n -->
<g id="edge34" class="edge"><title>毛穴\n(249)\n&#45;&gt;カバー\n(192)\n</title>
<path fill="none" stroke="#cf00bd" d="M288.913,-573.945C273.667,-594.918 252.626,-628.845 240.402,-652.13"/>
<polygon fill="#cf00bd" stroke="#cf00bd" points="238.814,-651.392 238.079,-656.638 241.925,-652.995 238.814,-651.392"/>
</g>
<!-- カバー\n(192)\n&#45;&gt;肌\n(2259)\n -->
<g id="edge61" class="edge"><title>カバー\n(192)\n&#45;&gt;肌\n(2259)\n</title>
<path fill="none" stroke="gray" d="M262.54,-669.412C301.181,-659.572 368.748,-642.365 427.058,-627.516"/>
<polygon fill="gray" stroke="gray" points="427.539,-629.199 431.952,-626.269 426.675,-625.807 427.539,-629.199"/>
</g>
<!-- カバー\n(192)\n&#45;&gt;毛穴\n(249)\n -->
<g id="edge36" class="edge"><title>カバー\n(192)\n&#45;&gt;毛穴\n(249)\n</title>
<path fill="none" stroke="#cf00bd" d="M248.521,-659.171C263.481,-638.676 284.216,-605.348 296.646,-581.922"/>
<polygon fill="#cf00bd" stroke="#cf00bd" points="298.257,-582.618 299.017,-577.376 295.153,-581 298.257,-582.618"/>
</g>
<!-- 好き\n(188)\n -->
<g id="node15" class="node"><title>好き\n(188)\n</title>
<ellipse fill="#ffffff" stroke="gray" cx="359.993" cy="-869.312" rx="31.2258" ry="21.4286"/>
<text text-anchor="middle" x="359.993" y="-872.113" font-family="arialuni.ttf" font-size="10.25">好き</text>
<text text-anchor="middle" x="359.993" y="-861.113" font-family="arialuni.ttf" font-size="10.25">(188)</text>
</g>
<!-- 好き\n(188)\n&#45;&gt;肌\n(2259)\n -->
<g id="edge45" class="edge"><title>好き\n(188)\n&#45;&gt;肌\n(2259)\n</title>
<path fill="none" stroke="gray" d="M372.655,-849.926C394.519,-816.454 440.628,-745.865 478.309,-688.178"/>
<polygon fill="gray" stroke="gray" points="479.967,-688.84 481.236,-683.697 477.037,-686.926 479.967,-688.84"/>
</g>
<!-- 透明感\n(227)\n&#45;&gt;自然\n(721)\n -->
<g id="edge62" class="edge"><title>透明感\n(227)\n&#45;&gt;自然\n(721)\n</title>
<path fill="none" stroke="gray" d="M727.235,-386.28C695.555,-371.723 643.846,-347.964 609.315,-332.098"/>
<polygon fill="gray" stroke="gray" points="610.045,-330.508 604.771,-330.011 608.584,-333.688 610.045,-330.508"/>
</g>
<!-- 無香料\n(151)\n -->
<g id="node26" class="node"><title>無香料\n(151)\n</title>
<ellipse fill="#ffffff" stroke="gray" cx="549.289" cy="-1180.65" rx="32.5538" ry="21.4286"/>
<text text-anchor="middle" x="549.289" y="-1183.65" font-family="arialuni.ttf" font-size="10.00">無香料</text>
<text text-anchor="middle" x="549.289" y="-1172.65" font-family="arialuni.ttf" font-size="10.00">(151)</text>
</g>
<!-- 無添加\n(164)\n&#45;&gt;無香料\n(151)\n -->
<g id="edge55" class="edge"><title>無添加\n(164)\n&#45;&gt;無香料\n(151)\n</title>
<path fill="none" stroke="gray" d="M543.86,-1001.66C544.98,-1038.58 547.269,-1114.03 548.486,-1154.17"/>
<polygon fill="gray" stroke="gray" points="546.742,-1154.41 548.643,-1159.35 550.241,-1154.3 546.742,-1154.41"/>
</g>
<!-- 化粧崩れ\n(158)\n -->
<g id="node20" class="node"><title>化粧崩れ\n(158)\n</title>
<ellipse fill="#ffffff" stroke="gray" cx="793.447" cy="-801.597" rx="39.6962" ry="21.4286"/>
<text text-anchor="middle" x="793.447" y="-804.558" font-family="arialuni.ttf" font-size="10.05">化粧崩れ</text>
<text text-anchor="middle" x="793.447" y="-793.558" font-family="arialuni.ttf" font-size="10.05">(158)</text>
</g>
<!-- 化粧崩れ\n(158)\n&#45;&gt;肌\n(2259)\n -->
<g id="edge65" class="edge"><title>化粧崩れ\n(158)\n&#45;&gt;肌\n(2259)\n</title>
<path fill="none" stroke="gray" d="M771.056,-784.038C737.979,-758.098 674.278,-708.143 621.536,-666.782"/>
<polygon fill="gray" stroke="gray" points="622.451,-665.275 617.437,-663.567 620.291,-668.03 622.451,-665.275"/>
</g>
</g>
</svg>
